<?xml version="1.0" standalone="no"?>
<!DOCTYPE svg PUBLIC "-//W3C//DTD SVG 1.1//EN" "http://www.w3.org/Graphics/SVG/1.1/DTD/svg11.dtd" >
<svg xmlns="http://www.w3.org/2000/svg" xmlns:xlink="http://www.w3.org/1999/xlink" version="1.1">
<metadata>
Created by FontForge 20170731 at Thu Apr 14 04:35:51 2022
 By Aleksey,,,
Copyright (c) 2022 by Dalseo-gu. All rights reserved.
</metadata>
<defs>
<font id="DalseoHealingMedium" horiz-adv-x="1000" >
  <font-face 
    font-family="DalseoHealing Medium"
    font-weight="500"
    font-stretch="normal"
    units-per-em="1000"
    panose-1="0 0 0 0 0 0 0 0 0 0"
    ascent="800"
    descent="-200"
    x-height="370"
    cap-height="630"
    bbox="-52 -295 1085 845"
    underline-thickness="50"
    underline-position="-175"
    unicode-range="U+0020-FFE3"
  />
<missing-glyph horiz-adv-x="900" 
 />
    <glyph glyph-name=".notdef" horiz-adv-x="900" 
 />
    <glyph glyph-name=".null" horiz-adv-x="0" 
 />
    <glyph glyph-name="nonmarkingreturn" horiz-adv-x="333" 
 />
    <glyph glyph-name="space" unicode=" " horiz-adv-x="260" 
 />
    <glyph glyph-name="space" unicode="&#xa0;" horiz-adv-x="260" 
 />
    <glyph glyph-name="exclam" unicode="!" horiz-adv-x="232" 
d="M74.5 695.5q15.5 16.5 41.5 16.5t41.5 -16.5t14.5 -44.5l-16 -472q-2 -61 -40 -61q-40 0 -41 61l-15 472q-1 28 14.5 44.5zM68 -27.5q18 18.5 48 18.5t48 -18.5t18 -48.5t-18 -48t-48 -18t-48 18t-18 48t18 48.5z" />
    <glyph glyph-name="quotedbl" unicode="&#x22;" horiz-adv-x="462" 
d="M112.5 750.5q13.5 14.5 35.5 14.5h6q22 0 35.5 -14.5t12.5 -36.5l-12 -207q-1 -19 -12 -30.5t-27 -11.5t-27 11.5t-12 30.5l-12 207q-1 22 12.5 36.5zM272.5 750.5q13.5 14.5 35.5 14.5h6q22 0 35.5 -14.5t12.5 -36.5l-12 -207q-1 -19 -12 -30.5t-27 -11.5t-27 11.5
t-12 30.5l-12 207q-1 22 12.5 36.5z" />
    <glyph glyph-name="numbersign" unicode="#" horiz-adv-x="800" 
d="M587 212h78q47 0 47 -39q0 -20 -13.5 -33t-34.5 -13h-91l-23 -135q-9 -50 -58 -50q-27 0 -42.5 13.5t-15.5 37.5q0 8 1 13l20 121h-162l-23 -135q-9 -50 -58 -50q-27 0 -42.5 13.5t-15.5 37.5q0 8 1 13l20 121h-83q-47 0 -47 39q0 20 13.5 33t34.5 13h97l27 163h-81
q-47 0 -47 39q0 20 13.5 33t34.5 13h94l26 152q9 50 57 50q30 0 46.5 -18t11.5 -46l-23 -138h162l26 152q9 50 57 50q30 0 46.5 -18t11.5 -46l-23 -138h79q47 0 47 -39q0 -20 -13.5 -33t-34.5 -13h-93zM470 212l27 163h-163l-27 -163h163z" />
    <glyph glyph-name="dollar" unicode="$" horiz-adv-x="607" 
d="M515.5 11q-57.5 -57 -161.5 -70v-76h-100v76q-66 8 -116.5 37.5t-77 69.5t-26.5 76q0 22 15 35.5t33 13.5q17 0 28.5 -9t15.5 -20q21 -57 50.5 -88t77.5 -41v267q-108 11 -164 55t-56 115q0 76 58.5 126.5t161.5 59.5v75h100v-77q55 -8 96.5 -28.5t63.5 -49t22 -59.5
q0 -19 -12.5 -31t-30.5 -12q-13 0 -22.5 7.5t-14.5 16.5q-32 64 -102 84v-208q219 -23 219 -198q0 -90 -57.5 -147zM154.5 403q29.5 -23 99.5 -36v204q-63 -6 -96 -33t-33 -72q0 -40 29.5 -63zM445.5 57.5q33.5 36.5 33.5 94.5q0 53 -30.5 80t-94.5 39v-259q58 9 91.5 45.5z
" />
    <glyph glyph-name="percent" unicode="%" horiz-adv-x="700" 
d="M276 368q-38 -46 -103 -46t-103 46t-38 124q0 71 38 112t103 41t103 -41t38 -112q0 -78 -38 -124zM541 624q12 16 31 16q17 0 26.5 -10t9.5 -26q0 -25 -21 -54l-436 -596q-12 -16 -31 -16q-17 0 -26.5 10t-9.5 26q0 25 21 54zM128.5 414q15.5 -27 44.5 -27t45 27t16 78
q0 43 -16 65.5t-45 22.5t-44.5 -23t-15.5 -65q0 -51 15.5 -78zM424 215q38 41 103 41t103 -41t38 -112q0 -78 -38 -124t-103 -46t-103 46t-38 124q0 71 38 112zM482.5 25q15.5 -27 44.5 -27t45 27t16 78q0 43 -16 65.5t-45 22.5t-44.5 -23t-15.5 -65q0 -51 15.5 -78z" />
    <glyph glyph-name="ampersand" unicode="&#x26;" horiz-adv-x="600" 
d="M578.5 11q7.5 -16 7.5 -31q0 -21 -15 -33q-10 -9 -24 -9q-26 0 -66 43l-33 36q-81 -79 -183 -79q-67 0 -118 23.5t-79 65.5t-28 96q0 59 30.5 102.5t105.5 88.5q-41 48 -59 86.5t-18 78.5q0 46 24.5 82.5t68 57t98.5 20.5q52 0 93 -19.5t64 -54.5t23 -79q0 -55 -34.5 -97
t-116.5 -86l136 -149q24 40 40 78q9 21 18.5 30t23.5 9q16 0 25 -10t9 -27q0 -11 -5 -24q-24 -63 -57 -116l48 -52q14 -15 21.5 -31zM186.5 62.5q34.5 -28.5 93.5 -28.5q60 0 111 45l-159 174q-44 -28 -62 -53t-18 -60q0 -49 34.5 -77.5zM214.5 430.5q15.5 -27.5 49.5 -67.5
q60 32 83 59.5t23 64.5q0 34 -23 55t-60 21q-39 0 -63.5 -22.5t-24.5 -57.5q0 -25 15.5 -52.5z" />
    <glyph glyph-name="quotesingle" unicode="'" horiz-adv-x="302" 
d="M112.5 750.5q13.5 14.5 35.5 14.5h6q22 0 35.5 -14.5t12.5 -36.5l-12 -207q-1 -19 -12 -30.5t-27 -11.5t-27 11.5t-12 30.5l-12 207q-1 22 12.5 36.5z" />
    <glyph glyph-name="parenleft" unicode="(" horiz-adv-x="400" 
d="M169 537q39 102 111 170q20 19 39 19q12 0 20 -8q11 -11 11 -24q0 -18 -17 -37q-53 -61 -80 -153t-27 -202t27 -202t80 -153q17 -19 17 -37q0 -13 -11 -24q-8 -8 -20 -8q-19 0 -39 19q-72 68 -111 170t-39 235t39 235z" />
    <glyph glyph-name="parenright" unicode=")" horiz-adv-x="600" 
d="M311 67q-39 -102 -111 -170q-20 -19 -39 -19q-12 0 -20 8q-11 11 -11 24q0 18 17 37q53 61 80 153t27 202t-27 202t-80 153q-17 19 -17 37q0 13 11 24q8 8 20 8q19 0 39 -19q72 -68 111 -170t39 -235t-39 -235z" />
    <glyph glyph-name="asterisk" unicode="*" horiz-adv-x="601" 
d="M481 498q0 -10 -5 -18q-10 -18 -30 -18q-17 0 -39 17l-90 75l19 -116q1 -6 1 -16q0 -21 -9 -32t-27 -11t-27.5 11.5t-9.5 31.5q0 10 1 16l19 115l-90 -74q-22 -17 -39 -17q-18 0 -29 18q-6 9 -6 19q0 25 39 41l110 41l-110 41q-19 7 -29 17.5t-10 23.5q0 9 6 19
q11 18 29 18t40 -17l89 -73l-19 114q-1 6 -1 16q0 20 9.5 31.5t27.5 11.5t27 -11t9 -32q0 -10 -1 -16l-19 -115l90 74q22 17 39 17q20 0 30 -18q5 -7 5 -19q0 -25 -39 -41l-109 -41l109 -41q39 -16 39 -42z" />
    <glyph glyph-name="plus" unicode="+" horiz-adv-x="600" 
d="M538.5 315q13.5 -12 13.5 -31t-13.5 -31t-34.5 -12h-152v-162q0 -21 -13.5 -34.5t-34.5 -13.5h-8q-21 0 -34.5 13.5t-13.5 34.5v162h-152q-21 0 -34.5 12t-13.5 31t13.5 31t34.5 12h152v162q0 21 13.5 34.5t34.5 13.5h8q21 0 34.5 -13.5t13.5 -34.5v-162h152
q21 0 34.5 -12z" />
    <glyph glyph-name="comma" unicode="," horiz-adv-x="232" 
d="M91 -176.5q12 25.5 12 38.5q-26 5 -39.5 21.5t-13.5 42.5q0 30 18 47.5t48 17.5t48 -20.5t18 -56.5q0 -42 -16 -85.5t-39.5 -72.5t-44.5 -29q-22 0 -32 21q-2 4 -2 9q0 17 13 27q18 14 30 39.5z" />
    <glyph glyph-name="hyphen" unicode="-" horiz-adv-x="600" 
d="M550 302q0 -40 -50 -40h-400q-50 0 -50 40t50 40h400q50 0 50 -40z" />
    <glyph glyph-name="period" unicode="." horiz-adv-x="232" 
d="M68 -124q-18 18 -18 48t18 48.5t48 18.5t48 -18.5t18 -48.5t-18 -48t-48 -18t-48 18z" />
    <glyph glyph-name="slash" unicode="/" horiz-adv-x="344" 
d="M119 -118q-11 -9 -25 -9q-20 0 -32 12t-12 31q0 9 1 13l160 766q3 16 14 25t25 9q20 0 32 -12t12 -31q0 -9 -1 -13l-160 -766q-3 -16 -14 -25z" />
    <glyph glyph-name="zero" unicode="0" horiz-adv-x="662" 
d="M186 -15.5q-64 46.5 -100 129.5t-36 189q0 103 34.5 179t98 117t148.5 41t148.5 -41t98 -117t34.5 -179q0 -106 -36 -189t-100 -129.5t-145 -46.5t-145 46.5zM178 155q23 -66 63 -104t90 -38t90 38t63 104t23 148q0 78 -21.5 137.5t-61.5 92t-93 32.5t-93 -32.5
t-61.5 -92t-21.5 -137.5q0 -82 23 -148z" />
    <glyph glyph-name="one" unicode="1" horiz-adv-x="458" 
d="M241 631.5q17 8.5 37 8.5q24 0 39.5 -16t14.5 -41l-13 -590q-1 -25 -12.5 -40t-29.5 -15q-17 0 -27.5 14.5t-11.5 40.5l-14 505l-77 -64q-22 -17 -41 -17q-16 0 -28 12.5t-12 29.5q0 20 12 30l124 114q22 20 39 28.5z" />
    <glyph glyph-name="two" unicode="2" horiz-adv-x="566" 
d="M55.5 20q5.5 12 17.5 24l204 200q61 60 89 112t28 105t-26 82t-73 29q-94 0 -143 -130q-5 -12 -17 -20t-26 -8q-21 0 -34.5 14t-13.5 37q0 47 28.5 87t79 64t114.5 24q95 0 153 -47t58 -128q0 -69 -35.5 -127.5t-117.5 -135.5l-178 -167q-6 -6 -6 -10q0 -9 14 -9h330
q16 0 25 -9t9 -23q0 -16 -10 -26t-24 -10h-406q-19 0 -32 12.5t-13 30.5q0 17 5.5 29z" />
    <glyph glyph-name="three" unicode="3" horiz-adv-x="534" 
d="M64.5 17.5q28.5 -35.5 79 -57.5t112.5 -22q102 0 165 52.5t63 143.5q0 46 -21.5 83.5t-56 60t-72.5 26.5q53 15 92.5 62.5t39.5 107.5q0 49 -25.5 86.5t-71 58.5t-103.5 21q-61 0 -109 -21t-74.5 -54.5t-26.5 -69.5q0 -19 12 -32t30 -13q11 0 21.5 6.5t15.5 16.5
q27 54 56.5 76.5t73.5 22.5q46 0 73.5 -27.5t27.5 -75.5q0 -59 -42 -93.5t-131 -45.5q-24 -3 -24 -29q0 -13 6 -21.5t17 -9.5q198 -14 198 -143q0 -58 -33 -90.5t-92 -32.5q-55 0 -88.5 26t-57.5 82q-10 23 -37 23q-20 0 -33 -13t-13 -33q0 -36 28.5 -71.5z" />
    <glyph glyph-name="four" unicode="4" horiz-adv-x="584" 
d="M567 180q9 -9 9 -23q0 -16 -10 -26t-24 -10h-98l-2 -128q-1 -25 -12.5 -40t-29.5 -15q-17 0 -27.5 14.5t-11.5 40.5l-2 128h-305q-17 0 -28 11.5t-11 28.5q0 18 12 35l289 410q24 34 71 34q29 0 48 -19.5t18 -47.5l-7 -384h96q16 0 25 -9zM357 189l-6 321l-246 -321h252z
" />
    <glyph glyph-name="five" unicode="5" horiz-adv-x="580" 
d="M66 108.5q12 12.5 33 12.5q20 0 38 -23q32 -43 69 -66t84 -23q73 0 110.5 47.5t37.5 126.5q0 66 -37.5 103.5t-95.5 37.5q-46 0 -84.5 -22t-64.5 -50q-14 -15 -20.5 -18.5t-22.5 -3.5q-17 0 -27 10t-11 28l-10 320q-1 17 12 29.5t32 12.5h346q16 0 27 -10.5t11 -24.5
q0 -16 -11 -27t-27 -11h-287l-15 -235q35 35 80 54t94 19q60 0 107 -25.5t73.5 -71.5t26.5 -106q0 -117 -68 -185.5t-191 -68.5q-59 0 -110 19.5t-81 51t-30 67.5q0 20 12 32.5z" />
    <glyph glyph-name="six" unicode="6" horiz-adv-x="595" 
d="M443.5 352q47.5 -26 74.5 -73.5t27 -109.5q0 -68 -30 -120.5t-85 -81.5t-127 -29q-120 0 -186.5 89t-66.5 251q0 112 35 193.5t101 125t156 43.5q43 0 79 -11.5t57.5 -31t21.5 -41.5q0 -19 -13.5 -33.5t-31.5 -14.5q-22 0 -37 18t-38 28t-48 10q-81 0 -130 -73.5
t-54 -198.5q31 38 79.5 62t110.5 24q58 0 105.5 -26zM197 67.5q40 -57.5 105 -57.5q66 0 105.5 42t39.5 113q0 65 -37 105t-99 40q-45 0 -86 -23t-76 -61q8 -101 48 -158.5z" />
    <glyph glyph-name="seven" unicode="7" horiz-adv-x="526" 
d="M27 619.5q11 10.5 27 10.5h420q14 0 24 -10.5t10 -24.5q0 -13 -7.5 -28.5t-24.5 -39.5q-61 -86 -107 -185.5t-71.5 -192t-28.5 -160.5q-3 -51 -38 -51q-18 0 -26.5 15.5t-8.5 51.5q0 75 27 175.5t71 201t94 174.5h-334q-16 0 -27 10.5t-11 26.5t11 26.5z" />
    <glyph glyph-name="eight" unicode="8" horiz-adv-x="610" 
d="M530.5 244.5q29.5 -41.5 29.5 -101.5q0 -94 -67.5 -149.5t-183.5 -55.5q-122 0 -190.5 52t-68.5 145q0 61 37.5 113t92.5 68q-48 28 -73 66.5t-25 83.5q0 51 28.5 90.5t79.5 61.5t118 22q63 0 114 -22.5t79.5 -61t28.5 -86.5q0 -49 -26.5 -90.5t-67.5 -63.5
q65 -30 94.5 -71.5zM188.5 41q43.5 -37 114.5 -37q70 0 114.5 35t44.5 91q0 37 -18 62.5t-57.5 45t-108.5 38.5q-15 4 -35 11q-44 -22 -71 -62t-27 -86q0 -61 43.5 -98zM215.5 402.5q39.5 -29.5 135.5 -56.5l19 -6q33 25 50.5 58.5t17.5 70.5q0 48 -36 78.5t-94 30.5
t-95 -28t-37 -72q0 -46 39.5 -75.5z" />
    <glyph glyph-name="nine" unicode="9" horiz-adv-x="595" 
d="M478.5 551q66.5 -89 66.5 -251q0 -112 -35 -193.5t-101 -125t-156 -43.5q-43 0 -79.5 12t-58 32t-21.5 44q0 20 13 33t32 13q21 0 38 -20q36 -42 86 -42q81 0 130 74.5t54 201.5q-31 -38 -79.5 -62t-110.5 -24q-58 0 -105.5 26t-74.5 73.5t-27 109.5q0 68 30 120.5
t85 81.5t127 29q120 0 186.5 -89zM185 308q37 -40 99 -40q45 0 86 23t76 61q-8 99 -48 156t-105 57q-66 0 -105.5 -41.5t-39.5 -110.5q0 -65 37 -105z" />
    <glyph glyph-name="colon" unicode=":" horiz-adv-x="232" 
d="M68 436q-18 18 -18 48t18 48.5t48 18.5t48 -18.5t18 -48.5t-18 -48t-48 -18t-48 18zM68 162.5q18 18.5 48 18.5t48 -18.5t18 -48.5t-18 -48t-48 -18t-48 18t-18 48t18 48.5z" />
    <glyph glyph-name="semicolon" unicode=";" horiz-adv-x="262" 
d="M68 436q-18 18 -18 48t18 48.5t48 18.5t48 -18.5t18 -48.5t-18 -48t-48 -18t-48 18zM48 -53q0 17 13 27q18 14 30 39.5t12 38.5q-26 5 -39.5 21.5t-13.5 42.5q0 30 18 47.5t48 17.5t48 -20.5t18 -56.5q0 -42 -16 -85.5t-39.5 -72.5t-44.5 -29q-22 0 -32 21q-2 4 -2 9z
" />
    <glyph glyph-name="less" unicode="&#x3c;" horiz-adv-x="600" 
d="M483 634q19 0 36 -17q11 -13 11 -26q0 -20 -26 -43l-305 -266l305 -266q25 -21 25 -43q0 -13 -11 -27q-15 -16 -34 -16q-17 0 -37 15l-335 287q-18 15 -25 26t-7 24t7 24t25 26l335 287q18 15 36 15z" />
    <glyph glyph-name="equal" unicode="=" horiz-adv-x="600" 
d="M547 417q0 -47 -48 -47h-398q-48 0 -48 47t48 47h398q48 0 48 -47zM101 224h398q48 0 48 -47t-48 -47h-398q-48 0 -48 47t48 47z" />
    <glyph glyph-name="greater" unicode="&#x3e;" horiz-adv-x="600" 
d="M513 306q7 -11 7 -24t-7 -24t-25 -26l-335 -287q-19 -15 -37 -15q-19 0 -34 16q-11 14 -11 27q0 22 25 43l305 266l-305 266q-26 23 -26 43q0 13 11 26q17 17 36 17q18 0 36 -15l335 -287q18 -15 25 -26z" />
    <glyph glyph-name="question" unicode="?" horiz-adv-x="535" 
d="M295 109.5q-10 -10.5 -25 -10.5q-17 0 -25.5 8.5t-10.5 26.5l-10 148q-3 37 16 64.5t57 63.5q35 33 53.5 58.5t18.5 58.5q0 48 -29 77.5t-76 29.5q-46 0 -77.5 -24t-31.5 -61q0 -18 13 -40q10 -14 10 -31q0 -22 -15.5 -38t-38.5 -16q-30 0 -49.5 28.5t-19.5 71.5
q0 55 27.5 97.5t77 66.5t113.5 24q94 0 148 -47t54 -128q0 -46 -22.5 -78t-66.5 -72q-36 -33 -53.5 -55t-18.5 -50l-8 -144q-1 -18 -11 -28.5zM218 -27.5q18 18.5 48 18.5t48 -18.5t18 -48.5t-18 -48t-48 -18t-48 18t-18 48t18 48.5z" />
    <glyph glyph-name="at" unicode="@" horiz-adv-x="900" 
d="M151.5 -53q-101.5 92 -101.5 264q0 133 56 236.5t157.5 161t232.5 57.5q107 0 187 -41t123.5 -117t43.5 -178q0 -83 -31 -146t-87 -97.5t-129 -34.5q-32 0 -56 14t-33 40q-10 -21 -46 -35.5t-76 -14.5q-144 0 -144 145q0 124 51 195.5t138 71.5q37 0 66 -11.5t45 -30.5
q7 16 18 24.5t29 8.5q23 0 36.5 -13t13.5 -34q0 -8 -1 -12l-36 -194q-2 -16 -2 -22q0 -46 47 -46q46 0 75 52t29 134q0 124 -70.5 192t-198.5 68q-100 0 -176.5 -45.5t-119 -127.5t-42.5 -189q0 -141 74.5 -212.5t220.5 -71.5q36 0 78.5 4.5t72.5 11.5t38 7q13 0 22.5 -10
t9.5 -24q0 -33 -58 -52.5t-165 -19.5q-190 0 -291.5 92zM364.5 139q17.5 -21 54.5 -21q51 0 80.5 53.5t29.5 143.5q0 87 -68 87q-54 0 -84 -52.5t-30 -143.5q0 -46 17.5 -67z" />
    <glyph glyph-name="A" unicode="A" horiz-adv-x="655" 
d="M635 -24q0 -18 -10.5 -28t-27.5 -10t-27 9.5t-20 33.5l-64 153h-317l-64 -153q-10 -23 -20.5 -33t-26.5 -10q-17 0 -27.5 10t-10.5 28q0 13 6 28l243 593q18 43 60 43q39 0 57 -43l243 -593q6 -15 6 -28zM457 204l-129 310l-130 -310h259z" />
    <glyph glyph-name="B" unicode="B" horiz-adv-x="634" 
d="M554 266q36 -45 36 -115q0 -59 -26.5 -105t-76.5 -72t-117 -26h-240q-20 0 -31.5 13t-12.5 37l-16 577q-1 26 12.5 40.5t36.5 14.5h217q111 0 169.5 -40.5t58.5 -119.5q0 -54 -30 -96t-74 -53q58 -10 94 -55zM171 16q5 -5 22 -5h147q77 0 119.5 38.5t42.5 104.5
q0 62 -42.5 98t-118.5 36h-171l-4 -251q0 -16 5 -21zM334 352q64 0 99 29t35 80q0 96 -139 96h-128q-17 0 -22 -5t-5 -21l-3 -179h163z" />
    <glyph glyph-name="C" unicode="C" horiz-adv-x="633" 
d="M558 119q19 0 32.5 -13.5t13.5 -33.5q0 -36 -32 -67t-86.5 -49t-118.5 -18q-91 0 -163.5 47t-113 130.5t-40.5 190.5q0 102 40.5 177.5t115.5 116t177 40.5q55 0 105 -16t80 -42.5t30 -56.5q0 -19 -13.5 -32.5t-33.5 -13.5q-18 0 -32 15q-65 71 -155 71q-64 0 -113 -32.5
t-76 -91t-27 -135.5q0 -83 28.5 -150t77.5 -105t110 -38q100 0 157 86q14 20 37 20z" />
    <glyph glyph-name="D" unicode="D" horiz-adv-x="671" 
d="M87 614q18 16 44 16h149q169 0 255 -83.5t86 -248.5q0 -175 -86.5 -262.5t-254.5 -87.5h-150q-21 0 -32 13t-12 37l-16 577q-1 23 17 39zM185 19h108q108 0 168.5 71.5t60.5 207.5q0 129 -59 195t-170 66h-99q-20 0 -20 -20l-9 -500q0 -20 20 -20z" />
    <glyph glyph-name="E" unicode="E" horiz-adv-x="590" 
d="M546 9q10 -10 10 -25t-10 -25.5t-24 -10.5h-392q-21 0 -32 13t-12 37l-16 577q-1 26 12.5 40.5t39.5 14.5h390q14 0 24 -10t10 -25t-10 -25.5t-24 -10.5h-318q-20 0 -20 -20l-4 -200h332q14 0 24 -10t10 -25t-10 -25t-24 -10h-333l-4 -230q0 -20 20 -20h337q14 0 24 -10z
" />
    <glyph glyph-name="F" unicode="F" horiz-adv-x="593" 
d="M179 553q-5 -5 -5 -21l-4 -220h335q14 0 24 -10t10 -25t-10 -25t-24 -10h-336l-4 -249q-1 -25 -11.5 -40t-29.5 -15q-18 0 -28 14t-11 41l-15 582q-1 26 12.5 40.5t36.5 14.5h399q15 0 24.5 -10t9.5 -24q0 -15 -10 -26.5t-24 -11.5h-317q-17 0 -22 -5z" />
    <glyph glyph-name="G" unicode="G" horiz-adv-x="704" 
d="M639 292q12 -13 11 -37l-6 -252q-1 -23 -11 -39t-28 -16t-28 15.5t-11 39.5l-3 63q-6 -34 -31 -63t-67 -47t-97 -18q-88 0 -161 50t-115 132t-42 175q0 107 41.5 185t116 119t171.5 41q65 0 118 -20.5t83 -56t30 -78.5q0 -19 -13 -32.5t-31 -13.5q-31 0 -43 32
q-18 48 -53 71t-93 23q-66 0 -118 -32.5t-81.5 -93t-29.5 -142.5q0 -73 29.5 -138.5t81 -105.5t114.5 -40q48 0 90 28t66.5 73t24.5 94v26h-130q-14 0 -24 10.5t-10 25.5t10 25t24 10h182q21 0 33 -13z" />
    <glyph glyph-name="H" unicode="H" horiz-adv-x="682" 
d="M600 621q13 -19 12 -52l-10 -567q-1 -30 -11 -47t-29 -17t-29 17t-11 47l-7 282h-345l-5 -282q-1 -30 -11 -47t-29 -17t-29 17t-11 47l-15 567q-1 33 12.5 52t40.5 19t40 -19t12 -52l-4 -212h342l-6 212q-1 33 12.5 52t40.5 19t40 -19z" />
    <glyph glyph-name="I" unicode="I" horiz-adv-x="245" 
d="M82.5 621q13.5 19 40.5 19t40 -19t12 -52l-10 -567q-1 -30 -11 -47t-29 -17t-29 17t-11 47l-15 567q-1 33 12.5 52z" />
    <glyph glyph-name="J" unicode="J" horiz-adv-x="600" 
d="M68 218.5q13 13.5 32 13.5t32.5 -13.5t13.5 -33.5q0 -92 38 -134.5t123 -42.5q74 0 110.5 41t34.5 115l-11 419q-1 25 14 41t38 16t37 -16t13 -41l-7 -393q-2 -122 -64 -187t-182 -65q-70 0 -123 30.5t-82.5 86.5t-29.5 130q0 20 13 33.5z" />
    <glyph glyph-name="K" unicode="K" horiz-adv-x="600" 
d="M579.5 -6q6.5 -14 6.5 -27q0 -12 -8.5 -20.5t-19.5 -8.5q-13 0 -23.5 7t-33.5 30l-316 311l-15 -11l-5 -273q-1 -30 -11 -47t-29 -17t-29 17t-11 47l-15 567q-1 33 12.5 52t40.5 19t40 -19t12 -52l-4 -223l293 258q23 20 37 28t27 8q16 0 28 -12t12 -29q0 -13 -7.5 -24
t-31.5 -29l-273 -206l297 -312q20 -20 26.5 -34z" />
    <glyph glyph-name="L" unicode="L" horiz-adv-x="576" 
d="M82.5 615.5q13.5 14.5 39.5 14.5t39.5 -14.5t12.5 -40.5l-9 -536q0 -20 20 -20h339q14 0 23 -9t9 -26q0 -15 -9.5 -25.5t-23.5 -10.5h-393q-21 0 -32 13t-12 37l-16 577q-1 26 12.5 40.5z" />
    <glyph glyph-name="M" unicode="M" horiz-adv-x="794" 
d="M92 622q23 18 56 18q63 0 83 -63l147 -474q7 -20 19 -20t19 20l147 474q20 63 83 63q33 0 56 -18t22 -49l-14 -580q-1 -26 -12 -40.5t-27 -14.5t-27 15t-12 40l-7 438q0 14 -7 14q-5 0 -9 -11l-166 -464q-6 -17 -16.5 -24.5t-29.5 -7.5t-29.5 7.5t-16.5 24.5l-166 464
q-4 11 -9 11q-7 0 -7 -14l-7 -438q-1 -25 -12 -40t-27 -15t-27 14.5t-12 40.5l-14 580q-1 31 22 49z" />
    <glyph glyph-name="N" unicode="N" horiz-adv-x="692" 
d="M84.5 625q15.5 15 45.5 15q40 0 66 -41l309 -492q6 -9 12 -9q5 0 8 4t3 11l-9 470q-1 25 13.5 41t36.5 16t38 -16.5t15 -40.5l-10 -590q-1 -25 -13.5 -40t-34.5 -15q-19 0 -34.5 8.5t-25.5 23.5l-306 477q-6 9 -14 9q-12 0 -12 -18l-10 -445q-1 -25 -12 -40t-27 -15
t-27 14.5t-12 40.5l-14 590q-1 27 14.5 42z" />
    <glyph glyph-name="O" unicode="O" horiz-adv-x="742" 
d="M206.5 -13q-73.5 49 -115 134.5t-41.5 188.5q0 94 40 169.5t113 118t168 42.5t168 -42.5t113 -118t40 -169.5q0 -103 -41.5 -188.5t-115 -134.5t-164.5 -49t-164.5 49zM177.5 162q29.5 -68 80.5 -108.5t113 -40.5t113 40.5t80.5 108.5t29.5 148q0 71 -28 129t-79 92
t-116 34t-116 -34t-79 -92t-28 -129q0 -80 29.5 -148z" />
    <glyph glyph-name="P" unicode="P" horiz-adv-x="593" 
d="M508.5 577.5q60.5 -52.5 60.5 -149.5q0 -67 -31 -118t-87.5 -79.5t-131.5 -28.5h-151l-3 -207q-1 -24 -12 -40.5t-29 -16.5q-17 0 -27.5 16.5t-11.5 40.5l-15 580q-1 26 12.5 40.5t36.5 14.5h214q115 0 175.5 -52.5zM303 268q81 0 124.5 40.5t43.5 115.5q0 68 -40.5 103
t-120.5 35h-109q-17 0 -22 -5t-5 -21l-4 -268h133z" />
    <glyph glyph-name="Q" unicode="Q" horiz-adv-x="742" 
d="M717 -131q10 -10 10 -26q0 -15 -9.5 -24.5t-24.5 -9.5q-13 0 -28 5.5t-43 20.5l-195 108q-30 -5 -56 -5q-91 0 -164.5 49t-115 134.5t-41.5 188.5q0 94 40 169.5t113 118t168 42.5t168 -42.5t113 -118t40 -169.5q0 -117 -52.5 -210t-141.5 -134l185 -77q24 -10 34 -20z
M177.5 162q29.5 -68 80.5 -108.5t113 -40.5t113 40.5t80.5 108.5t29.5 148q0 71 -28 129t-79 92t-116 34t-116 -34t-79 -92t-28 -129q0 -80 29.5 -148z" />
    <glyph glyph-name="R" unicode="R" horiz-adv-x="642" 
d="M586.5 -9q5.5 -12 5.5 -24t-8.5 -20.5t-19.5 -8.5q-13 0 -24 7.5t-31 31.5l-205 245h-135l-4 -227q-1 -24 -12 -40.5t-29 -16.5q-17 0 -27.5 16.5t-11.5 40.5l-15 580q-1 26 12.5 40.5t36.5 14.5h214q115 0 175.5 -49.5t60.5 -140.5q0 -77 -44 -132t-121 -76l159 -206
q18 -23 23.5 -35zM303 288q81 0 124.5 38.5t43.5 109.5q0 62 -40.5 94t-120.5 32h-109q-17 0 -22 -5t-5 -21l-4 -248h133z" />
    <glyph glyph-name="S" unicode="S" horiz-adv-x="607" 
d="M49 159.5q15 13.5 33 13.5q17 0 28.5 -9t15.5 -20q27 -73 69.5 -104t120.5 -31q74 0 118.5 38t44.5 105q0 66 -48.5 93.5t-155.5 34.5q-118 8 -179.5 53t-61.5 119q0 54 31 97t90 67t140 24q71 0 126 -20t85 -52.5t30 -68.5q0 -19 -12.5 -31t-30.5 -12q-13 0 -22.5 7.5
t-14.5 16.5q-22 44 -64 68t-104 24q-80 0 -121.5 -27.5t-41.5 -78.5q0 -34 20 -55.5t66.5 -34t127.5 -19.5q234 -19 234 -199q0 -101 -73.5 -160.5t-202.5 -59.5q-79 0 -139 29t-92 73t-32 84q0 22 15 35.5z" />
    <glyph glyph-name="T" unicode="T" horiz-adv-x="663" 
d="M629 619.5q10 -10.5 10 -26.5t-9.5 -26t-24.5 -10h-218l-13 -564q-1 -25 -12.5 -40t-29.5 -15q-17 0 -27.5 14.5t-11.5 40.5l-16 564h-215q-16 0 -27 10t-11 26t11 26.5t27 10.5h543q14 0 24 -10.5z" />
    <glyph glyph-name="U" unicode="U" horiz-adv-x="688" 
d="M73.5 625.5q14.5 14.5 38.5 14.5t38.5 -14.5t13.5 -40.5l-6 -361q-1 -105 47 -158t139 -53t139 53t47 158l-6 361q-1 26 13.5 40.5t38.5 14.5t38.5 -14.5t13.5 -40.5l-10 -361q-8 -286 -274 -286t-274 286l-10 361q-1 26 13.5 40.5z" />
    <glyph glyph-name="V" unicode="V" horiz-adv-x="654" 
d="M363.5 -49.5q-15.5 -12.5 -37.5 -12.5q-21 0 -36 12.5t-26 39.5l-227 536q-17 41 -17 64q0 22 13.5 36t34.5 14q36 0 50 -39l199 -538q3 -9 10 -9q8 0 11 9l198 538q14 39 50 39q21 0 34.5 -14t13.5 -36q0 -23 -17 -64l-227 -536q-11 -27 -26.5 -39.5z" />
    <glyph glyph-name="W" unicode="W" horiz-adv-x="834" 
d="M34 627q14 13 33 13q18 0 30.5 -11t16.5 -29l100 -515q1 -8 6 -12.5t10 -4.5q6 0 10.5 4.5t5.5 12.5l108 502q6 26 22.5 39.5t40.5 13.5q49 0 60 -53l109 -502q1 -8 6 -12.5t10 -4.5q6 0 10.5 4.5t5.5 12.5l99 515q8 40 43 40q23 0 38.5 -15t15.5 -37q0 -19 -11 -66
l-130 -524q-7 -30 -26.5 -45t-46.5 -15q-29 0 -49.5 15t-26.5 45l-97 462q-1 6 -4 9t-6 3q-7 0 -10 -12l-99 -462q-7 -30 -27 -45t-47 -15q-61 0 -75 60l-127 527q-12 48 -12 71q0 18 14 31z" />
    <glyph glyph-name="X" unicode="X" horiz-adv-x="623" 
d="M595 -27q0 -11 -9 -20t-20 -9q-12 0 -20.5 4.5t-18.5 17.5l-215 262l-216 -262q-10 -13 -18.5 -17.5t-20.5 -4.5q-10 0 -19.5 9t-9.5 20q0 14 8 24l222 295l-202 246q-16 20 -22 32.5t-6 25.5q0 17 13.5 30.5t31.5 13.5q17 0 30.5 -9.5t30.5 -32.5l178 -235l177 235
q17 23 30.5 32.5t30.5 9.5q18 0 31.5 -13.5t13.5 -30.5q0 -13 -6 -25.5t-22 -32.5l-202 -246l222 -295q8 -10 8 -24z" />
    <glyph glyph-name="Y" unicode="Y" horiz-adv-x="608" 
d="M45 625.5q15 14.5 36 14.5q32 0 51 -41l159 -344q7 -13 14 -13q8 0 14 13l157 344q19 41 51 41q21 0 36 -14.5t15 -35.5q0 -12 -5.5 -25t-18.5 -37l-189 -340q-15 -25 -16 -62l-4 -133q-1 -25 -12.5 -40t-29.5 -15q-17 0 -27.5 14.5t-11.5 40.5l-4 133q-1 38 -15 62
l-191 340q-12 22 -18 36.5t-6 25.5q0 21 15 35.5z" />
    <glyph glyph-name="Z" unicode="Z" horiz-adv-x="590" 
d="M47 14l358 531q5 8 5 11q0 7 -13 7h-325q-17 0 -27.5 9t-10.5 25q0 14 11 23.5t27 9.5h434q14 0 24 -9t10 -22q0 -22 -15 -44l-372 -516q-7 -10 -7 -16q0 -10 19 -10h357q15 0 24.5 -9t9.5 -23t-9.5 -23.5t-24.5 -9.5h-445q-16 0 -27 10.5t-11 25.5q0 18 8 30z" />
    <glyph glyph-name="bracketleft" unicode="[" horiz-adv-x="400" 
d="M337 -58q13 -10 13 -25t-13 -25t-33 -10h-128q-20 0 -33 13t-13 33v748q0 20 13 33t33 13h128q20 0 33 -10t13 -25t-13 -25t-32 -10h-75v-700h75q19 0 32 -10z" />
    <glyph glyph-name="backslash" unicode="\" horiz-adv-x="544" 
d="M150 686q0 19 12 31t32 12q14 0 25 -9t14 -25l160 -766q1 -4 1 -13q0 -19 -12 -31t-32 -12q-14 0 -25 9t-14 25l-160 766q-1 4 -1 13z" />
    <glyph glyph-name="bracketright" unicode="]" horiz-adv-x="400" 
d="M170 652h-75q-19 0 -32 10t-13 25t13 25t33 10h128q20 0 33 -13t13 -33v-748q0 -20 -13 -33t-33 -13h-128q-20 0 -33 10t-13 25t13 25t32 10h75v700z" />
    <glyph glyph-name="asciicircum" unicode="^" horiz-adv-x="600" 
d="M263 713.5q14 7.5 36 7.5t36 -7.5t24 -25.5l115 -188q11 -19 11 -33q0 -25 -28 -39q-8 -4 -19 -4q-13 0 -25 8t-21 24l-93 159l-93 -159q-17 -32 -45 -32q-11 0 -25 6q-22 12 -22 37q0 17 10 33l115 188q10 18 24 25.5z" />
    <glyph glyph-name="underscore" unicode="_" horiz-adv-x="600" 
d="M550 -118q0 -40 -50 -40h-400q-50 0 -50 40t50 40h400q50 0 50 -40z" />
    <glyph glyph-name="grave" unicode="`" horiz-adv-x="600" 
d="M380 712q0 -20 -17 -32q-11 -8 -23 -8q-18 0 -31 13l-56 55q-24 24 -24 50q0 21 16 34t34 13q12 0 24 -7t21 -20l49 -75q7 -12 7 -23z" />
    <glyph glyph-name="a" unicode="a" horiz-adv-x="521" 
d="M449 361q13 -19 12 -52l-10 -307q-1 -30 -11 -47t-29 -17q-35 0 -40 58q-23 -26 -61 -42t-79 -16q-53 0 -96.5 27.5t-69 75t-25.5 105.5q0 64 28 117.5t77 85t108 31.5q34 0 62 -9t46 -24q12 33 48 33q27 0 40 -19zM168.5 46q33.5 -36 92.5 -36q31 0 60 13.5t47 36.5
l-11 228q-37 21 -84 21q-65 0 -101.5 -43.5t-36.5 -119.5q0 -64 33.5 -100z" />
    <glyph glyph-name="b" unicode="b" horiz-adv-x="519" 
d="M384.5 352.5q43.5 -27.5 69 -75t25.5 -105.5q0 -64 -28 -117.5t-77 -85t-108 -31.5q-37 0 -67 10.5t-47 28.5q-8 -39 -37 -39q-19 0 -29 17t-11 47l-15 567q-1 33 12.5 52t40.5 19t40 -19t12 -52l-4 -234q24 20 57.5 32.5t69.5 12.5q53 0 96.5 -27.5zM195.5 16
q24.5 -7 50.5 -7q65 0 101.5 43.5t36.5 119.5q0 64 -33.5 100t-92.5 36q-27 0 -53.5 -11t-44.5 -29l-4 -233q15 -12 39.5 -19z" />
    <glyph glyph-name="c" unicode="c" horiz-adv-x="471" 
d="M359.5 86.5q12.5 7.5 25.5 7.5q20 0 35 -15.5t15 -35.5q0 -29 -23 -53t-64 -38t-92 -14q-61 0 -110.5 29t-77.5 80.5t-28 114.5t30 112.5t83.5 77.5t122.5 28q43 0 78 -13t55.5 -35t20.5 -47q0 -18 -13.5 -32t-31.5 -14q-24 0 -38 22q-16 25 -37 36t-50 11
q-57 0 -91 -39.5t-34 -106.5q0 -68 33.5 -110t87.5 -42q32 0 52 13.5t34 45.5q5 10 17.5 17.5z" />
    <glyph glyph-name="d" unicode="d" horiz-adv-x="519" 
d="M447 621q13 -19 12 -52l-10 -567q-1 -30 -11 -47t-29 -17q-18 0 -28 15t-12 41q-24 -25 -61 -40.5t-77 -15.5q-53 0 -96.5 27.5t-69 75t-25.5 105.5q0 64 28 117.5t77 85t108 31.5q34 0 61.5 -8.5t45.5 -23.5l-6 221q-1 33 12.5 52t40.5 19t40 -19zM168.5 46
q33.5 -36 92.5 -36q30 0 59 13.5t47 35.5l-5 226q-17 10 -40.5 17t-48.5 7q-65 0 -101.5 -43.5t-36.5 -119.5q0 -64 33.5 -100z" />
    <glyph glyph-name="e" unicode="e" horiz-adv-x="470" 
d="M421.5 76.5q13.5 -12.5 13.5 -33.5q0 -28 -22 -52t-62.5 -38.5t-94.5 -14.5q-62 0 -111.5 29t-77 80t-27.5 115q0 63 27.5 113t76.5 77.5t112 27.5q51 0 93 -20t66.5 -54.5t24.5 -76.5q0 -81 -79 -81h-225q4 -61 36.5 -99.5t83.5 -38.5q66 0 92 56q4 10 16 16.5t24 6.5
q20 0 33.5 -12.5zM319 214q20 0 26.5 5t6.5 20q0 31 -26 52t-66 21q-48 0 -78.5 -25.5t-41.5 -72.5h179z" />
    <glyph glyph-name="f" unicode="f" horiz-adv-x="360" 
d="M336.5 360q9.5 -10 9.5 -26t-9.5 -26t-24.5 -10h-119l-7 -304q-1 -27 -12 -41.5t-28 -14.5q-18 0 -28 15.5t-11 40.5l-9 304h-40q-16 0 -27 10t-11 26t11 26t27 10h38l-3 99q-2 79 43.5 125t121.5 46q42 0 67 -19.5t25 -49.5q0 -20 -12.5 -32t-29.5 -12q-16 0 -29 18
q-16 23 -36 23q-44 0 -46 -85l-3 -113h118q15 0 24.5 -10z" />
    <glyph glyph-name="g" unicode="g" horiz-adv-x="507" 
d="M442.5 364q15.5 -16 14.5 -39l-8 -321q-3 -116 -61.5 -180t-158.5 -64q-52 0 -95.5 14.5t-69 39t-25.5 53.5q0 17 12 29t30 12q19 0 29 -15q6 -8 22.5 -22.5t46 -26.5t66.5 -12q63 0 95.5 37.5t28.5 104.5l-3 61q-22 -23 -59 -37t-81 -14q-54 0 -96.5 23t-67 66
t-24.5 101t27 105t74 74t105 27q68 0 111 -32q5 14 18.5 23t30.5 9q23 0 38.5 -16zM164 85q32 -32 88 -32q29 0 58 11.5t53 32.5l-10 189q-39 23 -89 23q-63 0 -97.5 -35.5t-34.5 -99.5q0 -57 32 -89z" />
    <glyph glyph-name="h" unicode="h" horiz-adv-x="509" 
d="M384.5 355.5q36.5 -24.5 56 -68.5t18.5 -100l-5 -185q-1 -30 -10.5 -47t-27.5 -17t-28 17.5t-11 47.5l-7 186q-2 57 -26 87.5t-68 30.5q-36 0 -68 -19.5t-49 -51.5l-4 -234q-1 -30 -11 -47t-29 -17t-29 17t-11 47l-15 567q-1 33 12.5 52t40.5 19t40 -19t12 -52l-5 -258
q24 31 62.5 50t79.5 19q46 0 82.5 -24.5z" />
    <glyph glyph-name="i" unicode="i" horiz-adv-x="252" 
d="M78 525q-18 18 -18 48t18 48.5t48 18.5t48 -18.5t18 -48.5t-18 -48t-48 -18t-48 18zM81.5 361q13.5 19 41.5 19q27 0 40 -19t12 -52l-10 -307q-1 -30 -11 -47t-29 -17q-37 0 -40 64l-15 307q-2 33 11.5 52z" />
    <glyph glyph-name="j" unicode="j" horiz-adv-x="277" 
d="M103 525q-18 18 -18 48t18 48.5t48 18.5t48 -18.5t18 -48.5t-18 -48t-48 -18t-48 18zM39 -160q38 25 56 59t15 91l-15 319q-2 33 11.5 52t41.5 19q27 0 40 -19t12 -52l-10 -319q-2 -66 -20.5 -118.5t-47 -82t-58.5 -29.5q-19 0 -31.5 13t-12.5 33t19 34z" />
    <glyph glyph-name="k" unicode="k" horiz-adv-x="476" 
d="M449.5 -7.5q6.5 -12.5 6.5 -24.5t-8.5 -21t-21.5 -9q-12 0 -22 6.5t-30 30.5l-170 201l-46 -29l-3 -145q-1 -30 -11 -47t-29 -17t-29 17t-11 47l-15 567q-1 33 12.5 52t40.5 19t40 -19t12 -52l-6 -355l160 129q29 23 41.5 30t25.5 7q18 0 29 -11.5t11 -29.5
q0 -14 -9.5 -25.5t-31.5 -24.5l-109 -68l148 -192q19 -24 25.5 -36.5z" />
    <glyph glyph-name="l" unicode="l" horiz-adv-x="225" 
d="M72.5 621q13.5 19 40.5 19t40 -19t12 -52l-10 -567q-1 -30 -11 -47t-29 -17t-29 17t-11 47l-15 567q-1 33 12.5 52z" />
    <glyph glyph-name="m" unicode="m" horiz-adv-x="759" 
d="M639 355.5q34 -24.5 52.5 -68.5t17.5 -100l-5 -185q-1 -30 -10.5 -47t-27.5 -17t-28 17.5t-11 47.5l-7 186q-2 59 -23 90t-61 31q-29 0 -55.5 -20t-41.5 -52l-5 -236q-1 -30 -10.5 -47t-27.5 -17t-28 17.5t-11 47.5l-7 186q-2 59 -23 90t-61 31q-31 0 -58.5 -17.5
t-44.5 -47.5l-8 -243q-1 -30 -11 -47t-29 -17q-37 0 -40 64l-15 307q-2 33 11.5 52t41.5 19q25 0 38 -16.5t14 -45.5q22 28 56.5 45t70.5 17q45 0 80.5 -18.5t52.5 -51.5q24 31 61 50.5t76 19.5q43 0 77 -24.5z" />
    <glyph glyph-name="n" unicode="n" horiz-adv-x="509" 
d="M384.5 355.5q36.5 -24.5 56 -68.5t18.5 -100l-5 -185q-1 -30 -10.5 -47t-27.5 -17t-28 17.5t-11 47.5l-7 186q-2 57 -26 87.5t-68 30.5q-34 0 -64.5 -17.5t-48.5 -47.5l-8 -240q-1 -30 -11 -47t-29 -17q-37 0 -40 64l-15 307q-2 33 11.5 52t41.5 19q26 0 38.5 -17
t13.5 -46q24 28 61 45.5t76 17.5q46 0 82.5 -24.5z" />
    <glyph glyph-name="o" unicode="o" horiz-adv-x="512" 
d="M146.5 -32.5q-49.5 29.5 -78 80.5t-28.5 114q0 61 28.5 110.5t78 78.5t109.5 29t109.5 -29t78 -78.5t28.5 -110.5q0 -63 -28.5 -114t-78 -80.5t-109.5 -29.5t-109.5 29.5zM168.5 51.5q33.5 -42.5 87.5 -42.5t87.5 42.5t33.5 110.5q0 65 -33.5 106t-87.5 41t-87.5 -41
t-33.5 -106q0 -68 33.5 -110.5z" />
    <glyph glyph-name="p" unicode="p" horiz-adv-x="519" 
d="M384.5 352.5q43.5 -27.5 69 -75t25.5 -105.5q0 -64 -28 -117.5t-77 -85t-108 -31.5q-34 0 -62 9t-46 24l-3 -147q-1 -30 -11 -47t-29 -17t-29 17t-11 47l-15 485q-1 33 12.5 52t40.5 19q42 0 50 -44q24 20 57 32t68 12q53 0 96.5 -27.5zM199 15.5q23 -6.5 47 -6.5
q65 0 101.5 43.5t36.5 119.5q0 64 -33.5 100t-92.5 36q-25 0 -50 -9.5t-44 -26.5l-5 -240q17 -10 40 -16.5z" />
    <glyph glyph-name="q" unicode="q" horiz-adv-x="509" 
d="M447 361q13 -19 12 -52l-10 -485q-1 -30 -11 -47t-29 -17t-29 17t-11 47l-5 165q-25 -23 -60 -37t-73 -14q-53 0 -96.5 27.5t-69 75t-25.5 105.5q0 64 28 117.5t77 85t108 31.5q34 0 61.5 -8.5t45.5 -23.5q11 32 47 32q27 0 40 -19zM168.5 46q33.5 -36 92.5 -36
q28 0 55 11.5t46 31.5l-7 236q-35 20 -82 20q-65 0 -101.5 -43.5t-36.5 -119.5q0 -64 33.5 -100z" />
    <glyph glyph-name="r" unicode="r" horiz-adv-x="446" 
d="M393 345.5q33 -34.5 33 -84.5q0 -20 -12.5 -33.5t-31.5 -13.5q-12 0 -23 9t-15 21q-9 32 -22.5 49t-41.5 17q-30 0 -60.5 -28t-47.5 -66l-7 -214q-1 -30 -11 -47t-29 -17q-37 0 -40 64l-15 307q-2 33 11.5 52t41.5 19q27 0 40 -19t12 -52v-10q22 35 56.5 58t74.5 23
q54 0 87 -34.5z" />
    <glyph glyph-name="s" unicode="s" horiz-adv-x="456" 
d="M42.5 76.5q12.5 13.5 30.5 13.5q32 0 47 -37q12 -28 40 -41.5t78 -13.5q49 0 74.5 19t25.5 56q0 64 -97 64q-103 0 -153 28.5t-50 87.5t52.5 93t141.5 34q71 0 117 -20t46 -52q0 -17 -10.5 -29t-26.5 -12q-17 0 -29 12q-43 43 -108 43q-41 0 -68 -15.5t-27 -42.5t24 -39
t74 -12q202 0 202 -127q0 -69 -54.5 -108.5t-147.5 -39.5q-88 0 -141 28t-53 77q0 20 12.5 33.5z" />
    <glyph glyph-name="t" unicode="t" horiz-adv-x="363" 
d="M337 37q12 -12 12 -29q0 -29 -25 -46.5t-67 -17.5q-78 0 -114 52t-38 162l-3 139h-48q-16 0 -27 10t-11 26t11 26.5t27 10.5h46l-3 127q-1 26 14 40.5t39 14.5t38 -14.5t13 -39.5l-3 -128h96q14 0 24 -10.5t10 -26.5t-9.5 -26t-24.5 -10h-98l-6 -219q-1 -32 8 -48t32 -16
q33 0 48 20q12 15 31 15q16 0 28 -12z" />
    <glyph glyph-name="u" unicode="u" horiz-adv-x="519" 
d="M447.5 361q13.5 -19 11.5 -52l-15 -307q-3 -64 -40 -64q-19 0 -29 17t-11 47v12q-22 -33 -62.5 -54.5t-84.5 -21.5q-69 0 -113.5 53.5t-47.5 139.5l-6 178q-1 33 12 52t40 19q28 0 41.5 -19t11.5 -52l-9 -180q-3 -63 21.5 -90.5t75.5 -27.5q37 0 69 20.5t49 54.5l-7 223
q-1 33 12 52t40 19q28 0 41.5 -19z" />
    <glyph glyph-name="v" unicode="v" horiz-adv-x="439" 
d="M255.5 -49.5q-15.5 -12.5 -37.5 -12.5q-21 0 -35.5 12t-26.5 40l-118 277q-18 44 -18 69q0 19 14 31.5t35 12.5q17 0 29.5 -10t18.5 -28l97 -298q2 -5 5.5 -5t4.5 5l98 298q6 18 18.5 28t29.5 10q21 0 35 -12.5t14 -31.5q0 -25 -18 -69l-119 -277q-11 -27 -26.5 -39.5z
" />
    <glyph glyph-name="w" unicode="w" horiz-adv-x="675" 
d="M337.5 225q-2.5 0 -4.5 -5l-74 -226q-16 -50 -64 -50q-44 0 -62 51l-99 274q-14 39 -14 68q0 18 14 30.5t32 12.5q16 0 27 -9.5t16 -27.5l81 -292q1 -4 6 -4t6 4l77 281q14 48 59 48t58 -48l76 -281q1 -4 6 -4t6 4l82 292q5 18 16 27.5t27 9.5q18 0 32 -12.5t14 -30.5
q0 -29 -14 -68l-100 -274q-18 -51 -64 -51t-62 50l-74 226q-1 5 -3.5 5z" />
    <glyph glyph-name="x" unicode="x" horiz-adv-x="473" 
d="M447 -31q0 -11 -9.5 -21t-20.5 -10q-10 0 -18.5 5t-22.5 20l-139 149l-140 -149q-14 -15 -22.5 -20t-18.5 -5q-11 0 -20.5 10t-9.5 21q0 12 9 23l147 178l-104 111q-17 18 -23.5 30.5t-6.5 25.5q0 17 12.5 30t29.5 13q15 0 29 -9.5t33 -32.5l85 -102l84 102
q19 23 33 32.5t29 9.5q17 0 29.5 -13t12.5 -30q0 -13 -6.5 -25.5t-23.5 -30.5l-104 -111l147 -178q9 -11 9 -23z" />
    <glyph glyph-name="y" unicode="y" horiz-adv-x="451" 
d="M411 367.5q14 -12.5 14 -31.5q0 -25 -18 -69l-119 -277q-55 -128 -95 -179t-77 -51q-16 0 -28 12.5t-12 29.5q0 20 19 34q12 7 39 36.5t50 65.5l-140 329q-18 42 -18 69q0 19 14 31.5t35 12.5q17 0 29.5 -10t18.5 -28l106 -298l99 298q6 18 18.5 28t29.5 10
q21 0 35 -12.5z" />
    <glyph glyph-name="z" unicode="z" horiz-adv-x="432" 
d="M37 3l207 286q5 6 5 11q0 6 -10 6h-171q-18 0 -28 8.5t-10 22.5q0 15 10.5 24t27.5 9h280q14 0 24 -10t10 -23q0 -11 -4.5 -20.5t-15.5 -22.5l-215 -269q-3 -3 -3 -7q0 -2 2 -4t5 -2h217q15 0 24.5 -8.5t9.5 -22.5q0 -15 -9 -24t-25 -9h-300q-16 0 -27 10.5t-11 25.5
q0 8 7 19z" />
    <glyph glyph-name="braceleft" unicode="{" horiz-adv-x="476" 
d="M186 364q28 10 42.5 33.5t14.5 57.5v120q0 59 10 90.5t34 44t70 12.5h45q11 0 17.5 -9t6.5 -26q0 -36 -24 -36q-36 0 -48.5 -22t-12.5 -81v-114q0 -55 -19.5 -87.5t-65.5 -44.5q46 -12 65.5 -44.5t19.5 -87.5v-114q0 -59 12.5 -81t48.5 -22q24 0 24 -36q0 -17 -6.5 -26
t-17.5 -9h-45q-46 0 -70 12.5t-34 44t-10 90.5v120q0 34 -14.5 57.5t-42.5 33.5q-36 13 -36 39v46q0 26 36 39z" />
    <glyph glyph-name="bar" unicode="|" horiz-adv-x="500" 
d="M286 -98.5q-14 -14.5 -36 -14.5t-36 14.5t-14 36.5v688q0 22 14 36.5t36 14.5t36 -14.5t14 -36.5v-688q0 -22 -14 -36.5z" />
    <glyph glyph-name="braceright" unicode="}" horiz-adv-x="476" 
d="M290 240q-28 -10 -42.5 -33.5t-14.5 -57.5v-120q0 -59 -10 -90.5t-34 -44t-70 -12.5h-45q-11 0 -17.5 9t-6.5 26q0 36 24 36q36 0 48.5 22t12.5 81v114q0 55 19.5 87.5t65.5 44.5q-46 12 -65.5 44.5t-19.5 87.5v114q0 59 -12.5 81t-48.5 22q-24 0 -24 36q0 17 6.5 26
t17.5 9h45q46 0 70 -12.5t34 -44t10 -90.5v-120q0 -34 14.5 -57.5t42.5 -33.5q36 -13 36 -39v-46q0 -26 -36 -39z" />
    <glyph glyph-name="asciitilde" unicode="~" horiz-adv-x="600" 
d="M461.5 373.5q10.5 7.5 26.5 7.5q31 0 46.5 -13.5t15.5 -39.5q0 -45 -34 -75.5t-86 -30.5q-29 0 -60 8.5t-80 26.5q-32 12 -52.5 18t-34.5 6q-29 0 -45 -26q-13 -21 -22 -27t-29 -6q-57 0 -57 55q0 44 34.5 74t85.5 30q30 0 59.5 -8.5t80.5 -26.5q33 -12 52.5 -18t34.5 -6
q31 0 44 24q10 20 20.5 27.5z" />
    <glyph glyph-name="exclamdown" unicode="&#xa1;" horiz-adv-x="232" 
d="M164 596q18 -18 18 -48t-18 -48.5t-48 -18.5t-48 18.5t-18 48.5t18 48t48 18t48 -18zM75 293q1 61 41 61q38 0 40 -61l16 -472q1 -28 -14.5 -44.5t-41.5 -16.5t-41.5 16.5t-14.5 44.5z" />
    <glyph glyph-name="uniFFE0" unicode="&#xa2;" horiz-adv-x="900" 
d="M610.5 100.5q-37.5 -28.5 -97.5 -36.5v-126q0 -22 -14 -36.5t-36 -14.5t-36 14.5t-14 36.5v130q-72 18 -116 77.5t-44 139.5q0 77 43.5 132.5t116.5 75.5v133q0 22 14 36.5t36 14.5t36 -14.5t14 -36.5v-124q56 -5 93 -32t37 -62q0 -18 -13.5 -32t-31.5 -14q-24 0 -38 22
q-18 29 -47 40v-282q26 13 42 50q5 10 17.5 17.5t25.5 7.5q20 0 35 -15.5t15 -35.5q0 -37 -37.5 -65.5zM365.5 201q17.5 -36 47.5 -53v269q-31 -17 -48 -51t-17 -81q0 -48 17.5 -84z" />
    <glyph glyph-name="uniFFE0" unicode="&#xffe0;" horiz-adv-x="900" 
d="M610.5 100.5q-37.5 -28.5 -97.5 -36.5v-126q0 -22 -14 -36.5t-36 -14.5t-36 14.5t-14 36.5v130q-72 18 -116 77.5t-44 139.5q0 77 43.5 132.5t116.5 75.5v133q0 22 14 36.5t36 14.5t36 -14.5t14 -36.5v-124q56 -5 93 -32t37 -62q0 -18 -13.5 -32t-31.5 -14q-24 0 -38 22
q-18 29 -47 40v-282q26 13 42 50q5 10 17.5 17.5t25.5 7.5q20 0 35 -15.5t15 -35.5q0 -37 -37.5 -65.5zM365.5 201q17.5 -36 47.5 -53v269q-31 -17 -48 -51t-17 -81q0 -48 17.5 -84z" />
    <glyph glyph-name="uniFFE1" unicode="&#xa3;" horiz-adv-x="900" 
d="M691.5 11.5q9.5 -9.5 9.5 -27.5q0 -36 -36 -36h-383q-48 0 -61 36q-2 5 -2 15q0 24 33 47q49 36 73 73.5t24 81.5q0 24 -12 53h-139v74h97q-19 32 -29.5 58t-10.5 54q0 57 32.5 102.5t90 71.5t130.5 26q53 0 100 -13t70 -35q19 -17 19 -36q0 -12 -9 -23q-5 -7 -13 -10.5
t-16 -3.5q-10 0 -19 7q-21 19 -53.5 29.5t-67.5 10.5q-44 0 -80.5 -16.5t-57 -45.5t-20.5 -64q0 -30 10.5 -56t29.5 -56h277v-74h-234q11 -27 11 -57q0 -109 -115 -176h325q17 0 26.5 -9.5z" />
    <glyph glyph-name="uniFFE1" unicode="&#xffe1;" horiz-adv-x="900" 
d="M691.5 11.5q9.5 -9.5 9.5 -27.5q0 -36 -36 -36h-383q-48 0 -61 36q-2 5 -2 15q0 24 33 47q49 36 73 73.5t24 81.5q0 24 -12 53h-139v74h97q-19 32 -29.5 58t-10.5 54q0 57 32.5 102.5t90 71.5t130.5 26q53 0 100 -13t70 -35q19 -17 19 -36q0 -12 -9 -23q-5 -7 -13 -10.5
t-16 -3.5q-10 0 -19 7q-21 19 -53.5 29.5t-67.5 10.5q-44 0 -80.5 -16.5t-57 -45.5t-20.5 -64q0 -30 10.5 -56t29.5 -56h277v-74h-234q11 -27 11 -57q0 -109 -115 -176h325q17 0 26.5 -9.5z" />
    <glyph glyph-name="currency" unicode="&#xa4;" horiz-adv-x="694" 
d="M532 183l112 -111l-67 -67l-115 115q-51 -31 -115 -31q-63 0 -116 31l-114 -115l-67 67l112 112q-38 52 -38 118t38 118l-112 112l67 67l114 -115q53 31 116 31t116 -31l114 115l67 -67l-112 -112q38 -52 38 -118q0 -65 -38 -119zM235.5 232q17.5 -32 47 -50.5
t64.5 -18.5t64.5 18.5t47 50.5t17.5 70t-17.5 70t-47 50.5t-64.5 18.5t-64.5 -18.5t-47 -50.5t-17.5 -70t17.5 -70z" />
    <glyph glyph-name="uniFFE5" unicode="&#xa5;" horiz-adv-x="900" 
d="M495 126l-1 -24h236v-80h-238l-1 -29q-1 -25 -12.5 -40t-29.5 -15q-17 0 -27.5 14.5t-11.5 40.5l-1 29h-239v80h237l-1 24q-1 33 -12 56h-224v80h179l-149 266q-12 22 -18 36.5t-6 25.5q0 21 15 35.5t36 14.5q32 0 51 -41l156 -337h34l154 337q19 41 51 41q21 0 36 -14.5
t15 -35.5q0 -12 -5.5 -25t-18.5 -37l-148 -266h178v-80h-222q-12 -22 -13 -56z" />
    <glyph glyph-name="uniFFE5" unicode="&#xffe5;" horiz-adv-x="900" 
d="M495 126l-1 -24h236v-80h-238l-1 -29q-1 -25 -12.5 -40t-29.5 -15q-17 0 -27.5 14.5t-11.5 40.5l-1 29h-239v80h237l-1 24q-1 33 -12 56h-224v80h179l-149 266q-12 22 -18 36.5t-6 25.5q0 21 15 35.5t36 14.5q32 0 51 -41l156 -337h34l154 337q19 41 51 41q21 0 36 -14.5
t15 -35.5q0 -12 -5.5 -25t-18.5 -37l-148 -266h178v-80h-222q-12 -22 -13 -56z" />
    <glyph glyph-name="section" unicode="&#xa7;" horiz-adv-x="456" 
d="M426 86q0 -69 -54.5 -108.5t-147.5 -39.5q-88 0 -141 28t-53 77q0 20 12.5 33.5t30.5 13.5q32 0 47 -37q12 -28 40 -41.5t78 -13.5q49 0 74.5 19t25.5 56q0 64 -97 64q-103 0 -153 28.5t-50 87.5q0 57 51 92q-51 29 -51 88t52.5 93t141.5 34q71 0 117 -20t46 -52
q0 -17 -10.5 -29t-26.5 -12q-17 0 -29 12q-43 43 -108 43q-41 0 -68 -15.5t-27 -42.5t24 -39t74 -12q202 0 202 -127q0 -58 -38 -94q38 -31 38 -86zM150 225q24 -12 74 -12q57 0 96 -10q18 20 18 50q0 64 -97 64q-19 0 -51 2q-29 -5 -46.5 -19.5t-17.5 -35.5q0 -27 24 -39z
" />
    <glyph glyph-name="dieresis" unicode="&#xa8;" horiz-adv-x="600" 
d="M156 728.5q-17 16.5 -17 43.5q0 28 17 44.5t44 16.5t44 -16.5t17 -44.5q0 -27 -17 -43.5t-44 -16.5t-44 16.5zM356 816.5q17 16.5 44 16.5t44 -16.5t17 -44.5q0 -27 -17 -43.5t-44 -16.5t-44 16.5t-17 43.5q0 28 17 44.5z" />
    <glyph glyph-name="ordfeminine" unicode="&#xaa;" horiz-adv-x="381" 
d="M321 593l-7 -205q0 -19 -7 -30.5t-19 -11.5q-24 0 -27 38q-15 -17 -40.5 -27.5t-52.5 -10.5q-54 0 -91 40t-37 98q0 43 19 78.5t51.5 56.5t71.5 21q23 0 41.5 -6t30.5 -16q8 22 32 22q37 0 35 -47zM126.5 417.5q22.5 -23.5 61.5 -23.5q20 0 39.5 9t31.5 24l-7 152
q-24 14 -56 14q-43 0 -67.5 -29t-24.5 -80q0 -43 22.5 -66.5z" />
    <glyph glyph-name="guillemotleft" unicode="&#xab;" horiz-adv-x="571" 
d="M137 325l152 217q13 19 34 19q6 0 16 -4q22 -9 22 -34q0 -18 -13 -37l-129 -184l129 -184q13 -19 13 -37q0 -25 -22 -34q-10 -4 -16 -4q-21 0 -34 19l-152 217q-7 8 -7 23t7 23zM297 325l152 217q13 19 34 19q6 0 16 -4q22 -9 22 -34q0 -18 -13 -37l-129 -184l129 -184
q13 -19 13 -37q0 -25 -22 -34q-10 -4 -16 -4q-21 0 -34 19l-152 217q-7 11 -7 23q0 13 7 23z" />
    <glyph glyph-name="uni00AD" unicode="&#xad;" horiz-adv-x="600" 
d="M550 302q0 -40 -50 -40h-400q-50 0 -50 40t50 40h400q50 0 50 -40z" />
    <glyph glyph-name="uni00AD" unicode="&#x2013;" horiz-adv-x="600" 
d="M550 302q0 -40 -50 -40h-400q-50 0 -50 40t50 40h400q50 0 50 -40z" />
    <glyph glyph-name="registered" unicode="&#xae;" horiz-adv-x="900" 
d="M673 681q100 -56 157.5 -154t57.5 -218t-57.5 -218t-157.5 -154t-223 -56t-223 56t-157.5 154t-57.5 218t57.5 218t157.5 154t223 56t223 -56zM133.5 119.5q47.5 -85.5 131 -134.5t185.5 -49t185.5 49t131 134.5t47.5 189.5t-47.5 189.5t-131 134.5t-185.5 49t-185.5 -49
t-131 -134.5t-47.5 -189.5t47.5 -189.5zM298 542q12 13 32 13h142q80 0 124 -35.5t44 -101.5q0 -51 -28 -89t-77 -55l99 -126q12 -16 16.5 -25.5t4.5 -19.5q0 -12 -8.5 -21t-20.5 -9q-11 0 -20 6t-24 24l-134 160h-76l-2 -142q0 -20 -10.5 -34t-26.5 -14q-15 0 -25 13
t-11 35l-10 387q-1 21 11 34zM452 327q50 0 76 22.5t26 65.5q0 38 -24 56t-73 18h-73q-7 0 -7.5 -0.5t-0.5 -6.5l-3 -155h79z" />
    <glyph glyph-name="degree" unicode="&#xb0;" horiz-adv-x="420" 
d="M133 535.5q-34 18.5 -53.5 51t-19.5 72.5t19.5 72.5t53.5 51.5t77 19t77 -19t53.5 -51.5t19.5 -72.5t-19.5 -72.5t-53.5 -51t-77 -18.5t-77 18.5zM146 593q26 -27 64 -27t64 27t26 66q0 40 -26 66.5t-64 26.5t-64 -26.5t-26 -66.5q0 -39 26 -66z" />
    <glyph glyph-name="plusminus" unicode="&#xb1;" horiz-adv-x="700" 
d="M74.5 342q-11.5 12 -11.5 30t11.5 30t28.5 12h200v207q0 17 14.5 27.5t37.5 10.5t37.5 -10.5t14.5 -27.5v-207h190q17 0 28.5 -12t11.5 -30t-11.5 -30t-28.5 -12h-190v-207q0 -17 -14.5 -27.5t-37.5 -10.5t-37.5 10.5t-14.5 27.5v207h-200q-17 0 -28.5 12zM74.5 -3
q11.5 12 28.5 12h494q17 0 28.5 -12t11.5 -30t-11.5 -30t-28.5 -12h-494q-17 0 -28.5 12t-11.5 30t11.5 30z" />
    <glyph glyph-name="uni00B2" unicode="&#xb2;" horiz-adv-x="404" 
d="M65 242l136 134q41 39 59.5 73.5t18.5 70.5q0 35 -17.5 54.5t-48.5 19.5q-62 0 -95 -86q-3 -8 -11 -13.5t-18 -5.5q-14 0 -23 9.5t-9 24.5q0 31 19 58t53 43t76 16q63 0 102 -31.5t39 -85.5q0 -45 -24 -84.5t-78 -90.5l-119 -112q-3 -3 -3 -6q0 -6 9 -6h220q10 0 16 -6
t6 -16t-6.5 -17t-15.5 -7h-271q-13 0 -21.5 8.5t-8.5 20.5q0 20 15 35z" />
    <glyph glyph-name="uni00B3" unicode="&#xb3;" horiz-adv-x="384" 
d="M55 225.5q19 -23.5 52.5 -38.5t74.5 -15q68 0 110 35t42 96q0 45 -30 77t-70 36q36 10 62 41.5t26 71.5q0 49 -37 80t-96 31q-41 0 -73 -14t-49.5 -36.5t-17.5 -46.5q0 -13 8 -21.5t20 -8.5q8 0 14.5 4.5t10.5 11.5q18 36 37.5 51t48.5 15q31 0 49.5 -18.5t18.5 -50.5
q0 -79 -116 -93q-16 -2 -16 -19q0 -9 4.5 -14.5t11.5 -6.5q132 -9 132 -95q0 -39 -22.5 -60.5t-61.5 -21.5q-36 0 -58.5 17.5t-38.5 54.5q-7 15 -25 15q-13 0 -21.5 -8t-8.5 -22q0 -24 19 -47.5z" />
    <glyph glyph-name="acute" unicode="&#xb4;" horiz-adv-x="600" 
d="M297 830q12 7 24 7q18 0 34 -13t16 -34q0 -26 -24 -50l-56 -55q-13 -13 -31 -13q-12 0 -23 8q-17 12 -17 32q0 11 7 23l49 75q9 13 21 20z" />
    <glyph glyph-name="paragraph" unicode="&#xb6;" horiz-adv-x="614" 
d="M82 257q-56 56 -56 155q0 110 59 164t179 54h245q20 0 32.5 -13t12.5 -34v-598q0 -20 -12.5 -33.5t-31.5 -13.5t-31.5 13.5t-12.5 33.5v553h-97v-553q0 -20 -13 -33.5t-31 -13.5q-19 0 -31.5 13.5t-12.5 33.5v216h-43q-100 0 -156 56z" />
    <glyph glyph-name="periodcentered" unicode="&#xb7;" horiz-adv-x="432" 
d="M168 254q-18 18 -18 48t18 48.5t48 18.5t48 -18.5t18 -48.5t-18 -48t-48 -18t-48 18z" />
    <glyph glyph-name="cedilla" unicode="&#xb8;" horiz-adv-x="600" 
d="M226 -190q-5 0 -9 2.5t-3 6.5l20 119h90l-19 -69q48 -1 77.5 -20t29.5 -52q0 -38 -51.5 -65t-148.5 -27q-16 0 -24.5 10.5t-8.5 24.5t9 24t24 9q9 -1 25 -1q38 0 56.5 8.5t18.5 21.5q0 17 -33 17q-24 0 -50 -8z" />
    <glyph glyph-name="uni00B9" unicode="&#xb9;" horiz-adv-x="370" 
d="M183 634.5q12 5.5 25 5.5q16 0 26 -10.5t10 -27.5l-9 -393q-1 -17 -8.5 -27t-19.5 -10q-11 0 -18 9.5t-8 27.5l-9 336l-52 -42q-13 -12 -27 -12q-11 0 -19 8.5t-8 19.5q0 14 8 20l83 76q14 14 26 19.5z" />
    <glyph glyph-name="ordmasculine" unicode="&#xba;" horiz-adv-x="368" 
d="M111 365.5q-33 19.5 -52 53.5t-19 76q0 40 19 73.5t52 52.5t73 19t73 -19t52 -52.5t19 -73.5q0 -42 -19 -76t-52 -53.5t-73 -19.5t-73 19.5zM125.5 421.5q22.5 -28.5 58.5 -28.5t58.5 28.5t22.5 73.5q0 44 -22.5 71t-58.5 27t-58.5 -27t-22.5 -71q0 -45 22.5 -73.5z" />
    <glyph glyph-name="guillemotright" unicode="&#xbb;" horiz-adv-x="571" 
d="M274 279l-152 -217q-13 -19 -34 -19q-6 0 -16 4q-22 9 -22 34q0 18 13 37l129 184l-129 184q-13 19 -13 37q0 25 22 34q10 4 16 4q21 0 34 -19l152 -217q7 -10 7 -23q0 -12 -7 -23zM352 302l-129 184q-13 19 -13 37q0 25 22 34q10 4 16 4q21 0 34 -19l152 -217
q7 -8 7 -23t-7 -23l-152 -217q-13 -19 -34 -19q-6 0 -16 4q-22 9 -22 34q0 18 13 37z" />
    <glyph glyph-name="onequarter" unicode="&#xbc;" horiz-adv-x="900" 
d="M716 718.5q12 -10.5 12 -26.5q0 -10 -6 -19l-460 -766q-21 -34 -47 -34q-17 0 -29 10.5t-12 26.5q0 8 6 19l460 766q21 34 47 34q17 0 29 -10.5zM74 539l83 76q14 14 26 19.5t25 5.5q16 0 26.5 -10.5t9.5 -27.5l-9 -393q-1 -17 -8.5 -27t-19.5 -10q-11 0 -18 9.5t-8 27.5
l-9 336l-52 -42q-13 -12 -27 -12q-11 0 -19 8.5t-8 19.5q0 14 8 20zM513 110l192 273q16 23 48 23q19 0 32 -13t12 -32l-5 -256h64q11 0 17 -5.5t6 -15.5t-6.5 -17t-16.5 -7h-65l-2 -85q0 -16 -8 -26.5t-20 -10.5t-19 9.5t-7 27.5l-1 85h-203q-11 0 -18.5 7.5t-7.5 19.5
t8 23zM733 105l-4 214l-164 -214h168z" />
    <glyph glyph-name="onehalf" unicode="&#xbd;" horiz-adv-x="900" 
d="M186 -127q-17 0 -29 10.5t-12 26.5q0 8 6 19l460 766q21 34 47 34q17 0 29 -10.5t12 -26.5q0 -8 -6 -19l-460 -766q-21 -34 -47 -34zM74 539l83 76q14 14 26 19.5t25 5.5q16 0 26.5 -10.5t9.5 -27.5l-9 -393q-1 -17 -8.5 -27t-19.5 -10q-11 0 -18 9.5t-8 27.5l-9 336
l-52 -42q-13 -12 -27 -12q-11 0 -19 8.5t-8 19.5q0 14 8 20zM565 12l136 134q41 41 59.5 75t18.5 69t-17.5 54.5t-48.5 19.5q-62 0 -95 -86q-3 -8 -11 -13.5t-18 -5.5q-14 0 -23 9.5t-9 24.5q0 31 19 58t53 43t76 16q63 0 102 -31.5t39 -85.5q0 -45 -24 -84.5t-78 -90.5
l-119 -112q-3 -3 -3 -6q0 -6 9 -6h220q10 0 16 -6t6 -16t-6.5 -17t-15.5 -7h-271q-13 0 -21.5 8.5t-8.5 20.5q0 20 15 35z" />
    <glyph glyph-name="threequarters" unicode="&#xbe;" horiz-adv-x="900" 
d="M746 718.5q12 -10.5 12 -26.5q0 -10 -6 -19l-460 -766q-21 -34 -47 -34q-17 0 -29 10.5t-12 26.5q0 8 6 19l460 766q21 34 47 34q17 0 29 -10.5zM44.5 295q8.5 8 21.5 8q18 0 25 -15q16 -37 38.5 -54.5t58.5 -17.5q39 0 61.5 21.5t22.5 60.5q0 86 -132 95q-7 1 -11.5 6.5
t-4.5 14.5q0 17 16 19q116 14 116 93q0 32 -18.5 50.5t-49.5 18.5q-29 0 -48.5 -15t-37.5 -51q-4 -7 -10.5 -11.5t-14.5 -4.5q-12 0 -20 8.5t-8 21.5q0 24 17.5 46.5t49.5 36.5t73 14q59 0 96 -31t37 -80q0 -40 -26 -71.5t-62 -41.5q40 -4 70 -36t30 -77q0 -61 -42 -96
t-110 -35q-41 0 -74.5 15t-52.5 38.5t-19 47.5q0 14 8.5 22zM513 110l192 273q16 23 48 23q19 0 32 -13t12 -32l-5 -256h64q11 0 17 -5.5t6 -15.5t-6.5 -17t-16.5 -7h-65l-2 -85q0 -16 -8 -26.5t-20 -10.5t-19 9.5t-7 27.5l-1 85h-203q-11 0 -18.5 7.5t-7.5 19.5t8 23z
M733 105l-4 214l-164 -214h168z" />
    <glyph glyph-name="questiondown" unicode="&#xbf;" horiz-adv-x="530" 
d="M317 596q18 -18 18 -48t-18 -48.5t-48 -18.5t-48 18.5t-18 48.5t18 48t48 18t48 -18zM82.5 13q22.5 32 66.5 72q36 33 53.5 55t18.5 50l8 144q1 18 11 28.5t25 10.5q17 0 25.5 -8.5t10.5 -26.5l10 -148q3 -37 -16 -64.5t-57 -63.5q-35 -33 -53.5 -58.5t-18.5 -58.5
q0 -48 29 -77.5t76 -29.5q46 0 77.5 24t31.5 61q0 18 -13 40q-10 14 -10 31q0 23 16 38.5t38 15.5q30 0 49.5 -28.5t19.5 -71.5q0 -55 -27.5 -97.5t-77 -66.5t-113.5 -24q-94 0 -148 47t-54 128q0 46 22.5 78z" />
    <glyph glyph-name="AE" unicode="&#xc6;" horiz-adv-x="900" 
d="M856 9q10 -10 10 -25t-10 -25.5t-24 -10.5h-302q-21 0 -32 13t-12 37l-4 136h-259l-118 -153q-19 -25 -30.5 -34t-26.5 -9q-14 0 -24.5 9.5t-10.5 23.5q0 16 13 33l433 587q16 22 29.5 30.5t33.5 8.5h300q14 0 24 -10t10 -25t-10 -25.5t-24 -10.5h-228q-20 0 -20 -20
l-4 -200h242q14 0 24 -10t10 -25t-10 -25t-24 -10h-243l-4 -230q0 -20 20 -20h247q14 0 24 -10zM480 204l-7 254l-196 -254h203z" />
    <glyph glyph-name="Eth" unicode="&#xd0;" horiz-adv-x="671" 
d="M535 546.5q86 -83.5 86 -248.5q0 -175 -86.5 -262.5t-254.5 -87.5h-150q-21 0 -32 13t-12 37l-7 266h-38q-16 0 -27 10.5t-11 24.5t11 24.5t27 10.5h36l-7 241q-1 23 17 39t44 16h149q169 0 255 -83.5zM185 19h108q108 0 168.5 71.5t60.5 207.5q0 129 -59 195t-170 66
h-99q-20 0 -20 -20l-4 -205h105q14 0 24 -10.5t10 -24.5q0 -15 -10 -25t-24 -10h-106l-4 -225q0 -20 20 -20z" />
    <glyph glyph-name="multiply" unicode="&#xd7;" horiz-adv-x="600" 
d="M512 101q0 -19 -15 -34q-12 -11 -29 -11q-23 0 -37 17l-131 144l-131 -143q-16 -18 -38 -18q-14 0 -27 11q-15 15 -15 34q0 18 13 32l137 150l-137 150q-13 14 -13 32q0 20 15 35q11 11 28 11q21 0 37 -18l131 -143l131 143q17 18 38 18q15 0 28 -11q15 -15 15 -33
q0 -17 -14 -33l-138 -150l138 -151q14 -16 14 -32z" />
    <glyph glyph-name="Oslash" unicode="&#xd8;" horiz-adv-x="742" 
d="M663.5 455q28.5 -66 28.5 -145q0 -103 -41.5 -188.5t-115 -134.5t-164.5 -49q-71 0 -133 31l-36 -62q-10 -17 -19 -25.5t-22 -8.5q-17 0 -31.5 12t-14.5 28q0 6 5 16l50 86q-57 52 -88.5 128.5t-31.5 166.5q0 94 40 169.5t113 118t168 42.5q77 0 143 -30l26 45
q10 17 19 25.5t22 8.5q17 0 31.5 -12t14.5 -28q0 -6 -5 -16l-39 -67q52 -45 80.5 -111zM166 193q18 -56 50 -98l257 444q-46 26 -102 26q-65 0 -116 -34t-79 -92t-28 -129q0 -61 18 -117zM371 13q62 0 113 40.5t80.5 108.5t29.5 148q0 50 -15 95.5t-42 80.5l-259 -447
q43 -26 93 -26z" />
    <glyph glyph-name="Thorn" unicode="&#xde;" horiz-adv-x="600" 
d="M508.5 465.5q60.5 -52.5 60.5 -149.5q0 -67 -31 -118t-87.5 -79.5t-131.5 -28.5h-152l-2 -88q-1 -30 -11 -47t-29 -17t-29 17t-11 47l-15 567q-1 33 12.5 52t40.5 19t40 -19t12 -52l-1 -51h159q115 0 175.5 -52.5zM303 156q81 0 124.5 40.5t43.5 115.5q0 68 -40.5 103
t-120.5 35h-137l-5 -294h135z" />
    <glyph glyph-name="germandbls" unicode="&#xdf;" horiz-adv-x="587" 
d="M120 588q58 52 168 52q61 0 109 -23t75 -64t27 -94q0 -61 -30 -100.5t-71 -49.5q32 -3 65.5 -23.5t56.5 -58.5t23 -88q0 -53 -28.5 -99.5t-77 -74t-106.5 -27.5q-57 0 -88.5 12.5t-31.5 35.5q0 14 9 22t21 6q42 -8 74 -8q64 0 100 34.5t36 91.5q0 76 -43.5 107.5
t-143.5 31.5q-36 0 -36 35q0 33 36 33q138 0 138 115q0 50 -31 82t-81 32q-124 0 -127 -137l-8 -437q-1 -27 -12 -41.5t-27 -14.5q-17 0 -28 14t-12 42l-12 445q-2 97 56 149z" />
    <glyph glyph-name="ae" unicode="&#xe6;" horiz-adv-x="794" 
d="M745.5 76.5q13.5 -12.5 13.5 -33.5q0 -28 -22 -52t-62.5 -38.5t-94.5 -14.5q-77 0 -131 42q-8 -42 -38 -42q-35 0 -40 58q-23 -26 -61 -42t-79 -16q-53 0 -96.5 27.5t-69 75t-25.5 105.5q0 64 28 117.5t77 85t108 31.5q34 0 62 -9t46 -24q12 33 48 33q37 0 48 -34
q53 34 123 34q51 0 93 -20t66.5 -54.5t24.5 -76.5q0 -81 -79 -81h-225q4 -61 36.5 -99.5t83.5 -38.5q66 0 92 56q4 10 16 16.5t24 6.5q20 0 33.5 -12.5zM168.5 46q33.5 -36 92.5 -36q31 0 60 13.5t47 36.5l-11 228q-37 21 -84 21q-65 0 -101.5 -43.5t-36.5 -119.5
q0 -64 33.5 -100zM643 214q20 0 26.5 5t6.5 20q0 31 -26 52t-66 21q-48 0 -78.5 -25.5t-41.5 -72.5h179z" />
    <glyph glyph-name="eth" unicode="&#xf0;" horiz-adv-x="512" 
d="M472 162q0 -63 -28.5 -114t-78 -80.5t-109.5 -29.5t-109.5 29.5t-78 80.5t-28.5 114q0 61 28.5 110.5t78 78.5t109.5 29q48 0 91 -19q-26 61 -66 106l-38 -32l-55 53l37 31q-22 16 -50 32q-32 17 -32 36q0 5 4 15q9 22 29 22q10 0 29 -7q44 -18 82 -45l50 42l55 -53
l-48 -40q57 -62 90 -150t37 -193q1 -5 1 -16zM168.5 51.5q33.5 -42.5 87.5 -42.5t87.5 42.5t33.5 110.5q0 65 -33.5 106t-87.5 41t-87.5 -41t-33.5 -106q0 -68 33.5 -110.5z" />
    <glyph glyph-name="divide" unicode="&#xf7;" horiz-adv-x="600" 
d="M245.5 449.5q-22.5 22.5 -22.5 54.5t22.5 54.5t54.5 22.5t54.5 -22.5t22.5 -54.5t-22.5 -54.5t-54.5 -22.5t-54.5 22.5zM61.5 315q13.5 12 34.5 12h408q21 0 34.5 -12t13.5 -31t-13.5 -31t-34.5 -12h-408q-21 0 -34.5 12t-13.5 31t13.5 31zM245.5 118.5
q22.5 22.5 54.5 22.5t54.5 -22.5t22.5 -54.5t-22.5 -54.5t-54.5 -22.5t-54.5 22.5t-22.5 54.5t22.5 54.5z" />
    <glyph glyph-name="oslash" unicode="&#xf8;" horiz-adv-x="512" 
d="M472 163q0 -63 -28.5 -114.5t-78 -81t-109.5 -29.5q-70 0 -123 39l-36 -39q-16 -18 -35 -18q-14 0 -23 12q-5 6 -5 16q0 16 24 43l28 31q-46 60 -46 141q0 61 28.5 110.5t78 78.5t109.5 29q69 0 124 -38l35 38q17 18 35 18q14 0 23 -12q5 -6 5 -16q0 -16 -24 -43l-27 -30
q45 -58 45 -135zM148 89l179 196q-30 25 -71 25q-54 0 -87.5 -41t-33.5 -106q0 -38 13 -74zM256 9q54 0 87.5 43t33.5 111q0 38 -12 68l-180 -196q31 -26 71 -26z" />
    <glyph glyph-name="thorn" unicode="&#xfe;" horiz-adv-x="600" 
d="M384.5 352.5q43.5 -27.5 69 -75t25.5 -105.5q0 -64 -28 -117.5t-77 -85t-108 -31.5q-34 0 -63 9.5t-46 24.5l-2 -148q-1 -30 -11 -47t-29 -17t-29 17t-11 47l-15 745q-1 33 12.5 52t40.5 19t40 -19t12 -52l-3 -234q24 21 57 33t69 12q53 0 96.5 -27.5zM197.5 15.5
q23.5 -6.5 48.5 -6.5q65 0 101.5 43.5t36.5 119.5q0 64 -33.5 100t-92.5 36q-27 0 -52.5 -10.5t-44.5 -28.5l-3 -236q16 -11 39.5 -17.5z" />
    <glyph glyph-name="dcroat" unicode="&#x111;" horiz-adv-x="519" 
d="M499.5 537q9.5 -10 9.5 -26t-9.5 -26t-24.5 -10h-18l-8 -473q-1 -30 -11 -47t-29 -17q-18 0 -28 15t-12 41q-24 -25 -61 -40.5t-77 -15.5q-53 0 -96.5 27.5t-69 75t-25.5 105.5q0 64 28 117.5t77 85t108 31.5q34 0 61.5 -8.5t45.5 -23.5l-4 127h-135q-16 0 -27 10t-11 26
t11 26t27 10h134l-1 22q-1 33 12.5 52t40.5 19t40 -19t12 -52v-22h16q15 0 24.5 -10zM168.5 46q33.5 -36 92.5 -36q30 0 59 13.5t47 35.5l-5 226q-17 10 -40.5 17t-48.5 7q-65 0 -101.5 -43.5t-36.5 -119.5q0 -64 33.5 -100z" />
    <glyph glyph-name="Hbar" unicode="&#x126;" horiz-adv-x="682" 
d="M669 509.5q10 -10.5 10 -24.5q0 -15 -10 -25t-24 -10h-35l-8 -448q-1 -30 -11 -47t-29 -17t-29 17t-11 47l-7 282h-345l-5 -282q-1 -30 -11 -47t-29 -17t-29 17t-11 47l-12 448h-32q-16 0 -27 10.5t-11 24.5t11 24.5t27 10.5h30l-1 49q-1 33 12.5 52t40.5 19t40 -19
t12 -52l-1 -49h334l-1 49q-1 33 12.5 52t40.5 19t40 -19t12 -52l-1 -49h34q14 0 24 -10.5zM513 357l-3 93h-337l-2 -93h342z" />
    <glyph glyph-name="hbar" unicode="&#x127;" horiz-adv-x="509" 
d="M384.5 355.5q36.5 -24.5 56 -68.5t18.5 -100l-5 -185q-1 -30 -10.5 -47t-27.5 -17t-28 17.5t-11 47.5l-7 186q-2 57 -26 87.5t-68 30.5q-36 0 -68 -19.5t-49 -51.5l-4 -234q-1 -30 -11 -47t-29 -17t-29 17t-11 47l-13 473h-14q-16 0 -27 10t-11 26t11 26t27 10h13l-1 22
q-1 33 12.5 52t40.5 19t40 -19t12 -52v-22h137q15 0 24.5 -10t9.5 -26t-9.5 -26t-24.5 -10h-139l-3 -164q24 31 62.5 50t79.5 19q46 0 82.5 -24.5z" />
    <glyph glyph-name="dotlessi" unicode="&#x131;" horiz-adv-x="245" 
d="M81.5 361q13.5 19 41.5 19q27 0 40 -19t12 -52l-10 -307q-1 -30 -11 -47t-29 -17q-37 0 -40 64l-15 307q-2 33 11.5 52z" />
    <glyph glyph-name="IJ" unicode="&#x132;" horiz-adv-x="845" 
d="M82.5 621q13.5 19 40.5 19t40 -19t12 -52l-10 -567q-1 -30 -11 -47t-29 -17t-29 17t-11 47l-15 567q-1 33 12.5 52zM313 218.5q13 13.5 32 13.5t32.5 -13.5t13.5 -33.5q0 -92 38 -134.5t123 -42.5q74 0 110.5 41t34.5 115l-11 419q-1 25 14 41t38 16t37 -16t13 -41
l-7 -393q-2 -122 -64 -187t-182 -65q-70 0 -123 30.5t-82.5 86.5t-29.5 130q0 20 13 33.5z" />
    <glyph glyph-name="ij" unicode="&#x133;" horiz-adv-x="529" 
d="M78 525q-18 18 -18 48t18 48.5t48 18.5t48 -18.5t18 -48.5t-18 -48t-48 -18t-48 18zM81.5 361q13.5 19 41.5 19q27 0 40 -19t12 -52l-10 -307q-1 -30 -11 -47t-29 -17q-37 0 -40 64l-15 307q-2 33 11.5 52zM291 -160q38 25 56 59t15 91l-15 319q-2 33 11.5 52t41.5 19
q27 0 40 -19t12 -52l-10 -319q-2 -66 -20.5 -118.5t-47 -82t-58.5 -29.5q-19 0 -31.5 13t-12.5 33t19 34zM355 621.5q18 18.5 48 18.5t48 -18.5t18 -48.5t-18 -48t-48 -18t-48 18t-18 48t18 48.5z" />
    <glyph glyph-name="kgreenlandic" unicode="&#x138;" horiz-adv-x="476" 
d="M449.5 -7.5q6.5 -12.5 6.5 -24.5t-8.5 -21t-21.5 -9q-12 0 -22 6.5t-30 30.5l-170 201l-44 -28l-5 -146q-1 -30 -11 -47t-29 -17q-37 0 -40 64l-15 307q-2 33 11.5 52t41.5 19q27 0 40 -19t12 -52l-3 -92l157 126q29 23 41.5 30t25.5 7q18 0 29 -11.5t11 -29.5
q0 -14 -9.5 -25.5t-31.5 -24.5l-109 -68l148 -192q19 -24 25.5 -36.5z" />
    <glyph glyph-name="Ldot" unicode="&#x13f;" horiz-adv-x="576" 
d="M82.5 615.5q13.5 14.5 39.5 14.5t39.5 -14.5t12.5 -40.5l-9 -536q0 -20 20 -20h339q14 0 23 -9t9 -26q0 -15 -9.5 -25.5t-23.5 -10.5h-393q-21 0 -32 13t-12 37l-16 577q-1 26 12.5 40.5zM378 361.5q18 18.5 48 18.5t48 -18.5t18 -48.5t-18 -48t-48 -18t-48 18t-18 48
t18 48.5z" />
    <glyph glyph-name="ldot" unicode="&#x140;" horiz-adv-x="410" 
d="M72.5 621q13.5 19 40.5 19t40 -19t12 -52l-10 -567q-1 -30 -11 -47t-29 -17t-29 17t-11 47l-15 567q-1 33 12.5 52zM278 361.5q18 18.5 48 18.5t48 -18.5t18 -48.5t-18 -48t-48 -18t-48 18t-18 48t18 48.5z" />
    <glyph glyph-name="Lslash" unicode="&#x141;" horiz-adv-x="576" 
d="M547 10q9 -9 9 -26q0 -15 -9.5 -25.5t-23.5 -10.5h-393q-21 0 -32 13t-12 37l-6 216l-14 -7q-15 -6 -25 -6q-19 0 -30 21q-4 7 -4 15q0 20 30 33l41 19l-8 286q-1 26 12.5 40.5t39.5 14.5t39.5 -14.5t12.5 -40.5l-4 -243l150 70q15 6 25 6q20 0 30 -21q4 -7 4 -15
q0 -19 -30 -33l-180 -84l-4 -216q0 -20 20 -20h339q14 0 23 -9z" />
    <glyph glyph-name="lslash" unicode="&#x142;" horiz-adv-x="286" 
d="M279 363q0 -19 -30 -42l-59 -44l-5 -275q-1 -30 -11 -47t-29 -17t-29 17t-11 47l-5 208l-34 -25q-16 -12 -29 -12q-16 0 -26 19q-4 10 -4 14q0 19 30 42l60 45l-7 276q-1 33 12.5 52t40.5 19t40 -19t12 -52l-4 -206l29 21q17 12 29 12q17 0 26 -19q4 -10 4 -14z" />
    <glyph glyph-name="napostrophe" unicode="&#x149;" horiz-adv-x="509" 
d="M64 690.5q18 -20.5 18 -56.5q0 -42 -16 -85.5t-39.5 -72.5t-44.5 -29q-22 0 -32 21q-2 4 -2 9q0 17 13 27q18 14 30 39.5t12 38.5q-26 5 -39.5 21.5t-13.5 42.5q0 30 18 47.5t48 17.5t48 -20.5zM71.5 361q13.5 19 41.5 19q26 0 38.5 -17t13.5 -46q24 28 61 45.5t76 17.5
q46 0 82.5 -24.5t56 -68.5t18.5 -100l-5 -185q-1 -30 -10.5 -47t-27.5 -17t-28 17.5t-11 47.5l-7 186q-2 57 -26 87.5t-68 30.5q-34 0 -64.5 -17.5t-48.5 -47.5l-8 -240q-1 -30 -11 -47t-29 -17q-37 0 -40 64l-15 307q-2 33 11.5 52z" />
    <glyph glyph-name="Eng" unicode="&#x14a;" horiz-adv-x="692" 
d="M607 623.5q16 -16.5 15 -40.5l-10 -590q-2 -66 -20.5 -119t-47 -83.5t-58.5 -30.5q-19 0 -31.5 13t-12.5 33t19 34q29 19 46.5 44t22.5 62q-16 10 -26 24l-306 477q-6 9 -14 9q-12 0 -12 -18l-10 -445q-1 -25 -12 -40t-27 -15t-27 14.5t-12 40.5l-14 590q-1 27 14.5 42
t45.5 15q40 0 66 -41l309 -492q6 -9 12 -9q5 0 8 4t3 11l-9 470q-1 25 13.5 41t36.5 16t38 -16.5z" />
    <glyph glyph-name="eng" unicode="&#x14b;" horiz-adv-x="509" 
d="M384.5 355.5q36.5 -24.5 56 -68.5t18.5 -100l-5 -185v-2q-2 -68 -20.5 -123t-47 -86t-58.5 -31q-19 0 -31.5 13t-12.5 33t19 34q39 26 57.5 62t16.5 96v5l-7 186q-2 57 -26 87.5t-68 30.5q-34 0 -64.5 -17.5t-48.5 -47.5l-8 -240q-1 -30 -11 -47t-29 -17q-37 0 -40 64
l-15 307q-2 33 11.5 52t41.5 19q26 0 38.5 -17t13.5 -46q24 28 61 45.5t76 17.5q46 0 82.5 -24.5z" />
    <glyph glyph-name="OE" unicode="&#x152;" horiz-adv-x="900" 
d="M856 9q10 -10 10 -25t-10 -25.5t-24 -10.5h-300q-21 0 -32 13t-12 37l-1 33q-34 -44 -79 -68.5t-97 -24.5q-74 0 -133.5 49t-93.5 134.5t-34 188.5q0 94 32.5 169.5t92 118t136.5 42.5q93 0 161 -63q0 25 13.5 39t38.5 14h298q14 0 24 -10t10 -25t-10 -25.5t-24 -10.5
h-226q-20 0 -20 -20l-4 -200h240q14 0 24 -10t10 -25t-10 -25t-24 -10h-241l-4 -230q0 -20 20 -20h245q14 0 24 -10zM169.5 162q21.5 -68 59 -108.5t82.5 -40.5t82.5 40.5t59 108.5t21.5 148q0 71 -20.5 129t-58 92t-84.5 34t-84.5 -34t-58 -92t-20.5 -129q0 -80 21.5 -148z
" />
    <glyph glyph-name="oe" unicode="&#x153;" horiz-adv-x="808" 
d="M759.5 76.5q13.5 -12.5 13.5 -33.5q0 -28 -22 -52t-62.5 -38.5t-94.5 -14.5q-53 0 -97 21t-73 60q-30 -38 -73.5 -59.5t-94.5 -21.5q-60 0 -109.5 29.5t-78 80.5t-28.5 114q0 61 28.5 110.5t78 78.5t109.5 29q50 0 93.5 -20.5t73.5 -57.5q29 37 73 57.5t98 20.5
q51 0 93 -20t66.5 -54.5t24.5 -76.5q0 -81 -79 -81h-225q4 -61 36.5 -99.5t83.5 -38.5q66 0 92 56q4 10 16 16.5t24 6.5q20 0 33.5 -12.5zM168.5 51.5q33.5 -42.5 87.5 -42.5t87.5 42.5t33.5 110.5q0 65 -33.5 106t-87.5 41t-87.5 -41t-33.5 -106q0 -68 33.5 -110.5z
M657 214q20 0 26.5 5t6.5 20q0 31 -26 52t-66 21q-48 0 -78.5 -25.5t-41.5 -72.5h179z" />
    <glyph glyph-name="Tbar" unicode="&#x166;" horiz-adv-x="663" 
d="M629 619.5q10 -10.5 10 -24.5q0 -15 -10 -25t-24 -10h-218l-5 -230h143q14 0 24 -10.5t10 -24.5q0 -15 -10 -25t-24 -10h-145l-6 -267q-1 -25 -12.5 -40t-29.5 -15q-17 0 -27.5 14.5t-11.5 40.5l-7 267h-144q-16 0 -27 10.5t-11 24.5t11 24.5t27 10.5h142l-7 230h-215
q-16 0 -27 10.5t-11 24.5t11 24.5t27 10.5h543q14 0 24 -10.5z" />
    <glyph glyph-name="tbar" unicode="&#x167;" horiz-adv-x="363" 
d="M337 37q12 -12 12 -29q0 -29 -25 -46.5t-67 -17.5q-78 0 -114 52t-38 162v9h-51q-16 0 -27 10t-11 26t11 26.5t27 10.5h49l-1 57h-48q-16 0 -27 10t-11 26t11 26.5t27 10.5h46l-3 127q-1 26 14 40.5t39 14.5t38 -14.5t13 -39.5l-3 -128h96q14 0 24 -10.5t10 -26.5
t-9.5 -26t-24.5 -10h-98l-2 -57h100q14 0 24 -10.5t10 -26.5t-9.5 -26t-24.5 -10h-102l-2 -89q-1 -32 8 -48t32 -16q33 0 48 20q12 15 31 15q16 0 28 -12z" />
    <glyph glyph-name="caron" unicode="&#x2c7;" horiz-adv-x="600" 
d="M267 673l-136 171h110l70 -90l70 90h110l-136 -171h-88z" />
    <glyph glyph-name="uni02D0" unicode="&#x2d0;" horiz-adv-x="600" 
d="M383 561l-83 -165l-83 165h166zM300 205l83 -165h-166z" />
    <glyph glyph-name="breve" unicode="&#x2d8;" horiz-adv-x="600" 
d="M434 719q-47 -47 -123 -47t-123 47t-47 125h100q0 -40 19.5 -66t50.5 -26t50.5 26t19.5 66h100q0 -78 -47 -125z" />
    <glyph glyph-name="dotaccent" unicode="&#x2d9;" horiz-adv-x="600" 
d="M245 714.5q-21 20.5 -21 54.5t21 55t55 21t55 -21t21 -55t-21 -54.5t-55 -20.5t-55 20.5z" />
    <glyph glyph-name="ring" unicode="&#x2da;" horiz-adv-x="600" 
d="M238 700.5q-24 23.5 -24 60.5q0 38 24 61t62 23t62 -23t24 -61q0 -37 -24 -60.5t-62 -23.5t-62 23.5zM257 717q17 -17 43 -17t43 17t17 44q0 28 -17 45t-43 17t-43 -17t-17 -45q0 -27 17 -44z" />
    <glyph glyph-name="ogonek" unicode="&#x2db;" horiz-adv-x="600" 
d="M387 -181q23 0 36 -19q11 -17 11 -33q0 -23 -18 -33q-16 -9 -47 -16.5t-59 -7.5q-65 0 -104.5 31.5t-39.5 91.5q0 33 16.5 62t38.5 43h90q-17 -22 -26 -42t-9 -43q0 -28 12.5 -41.5t29.5 -13.5q25 0 47 15q9 6 22 6z" />
    <glyph glyph-name="tilde" unicode="&#x2dc;" horiz-adv-x="600" 
d="M489 722.5q-30 -44.5 -88 -44.5q-40 0 -70 14t-66 39q-21 15 -32.5 21t-22.5 6q-17 0 -23.5 -18t-7.5 -54h-100q3 63 33 107.5t88 44.5q40 0 70 -14t66 -39q21 -15 32.5 -21t22.5 -6q17 0 23.5 18t7.5 54h100q-3 -63 -33 -107.5z" />
    <glyph glyph-name="hungarumlaut" unicode="&#x2dd;" horiz-adv-x="600" 
d="M244 837q18 0 33 -12q17 -13 17 -34q0 -23 -20 -48l-47 -58q-11 -13 -30 -13q-15 0 -24 8q-18 14 -18 32q0 11 6 21l41 77q14 27 42 27zM352 810q14 27 42 27q18 0 33 -12q17 -13 17 -34q0 -23 -20 -48l-47 -58q-11 -13 -30 -13q-15 0 -24 8q-18 14 -18 32q0 11 6 21z
" />
    <glyph glyph-name="Alpha" unicode="&#x391;" horiz-adv-x="655" 
d="M635 -24q0 -18 -10.5 -28t-27.5 -10t-27 9.5t-20 33.5l-64 153h-317l-64 -153q-10 -23 -20.5 -33t-26.5 -10q-17 0 -27.5 10t-10.5 28q0 13 6 28l243 593q18 43 60 43q39 0 57 -43l243 -593q6 -15 6 -28zM457 204l-129 310l-130 -310h259z" />
    <glyph glyph-name="Beta" unicode="&#x392;" horiz-adv-x="634" 
d="M554 266q36 -45 36 -115q0 -59 -26.5 -105t-76.5 -72t-117 -26h-240q-20 0 -31.5 13t-12.5 37l-16 577q-1 26 12.5 40.5t36.5 14.5h217q111 0 169.5 -40.5t58.5 -119.5q0 -54 -30 -96t-74 -53q58 -10 94 -55zM171 16q5 -5 22 -5h147q77 0 119.5 38.5t42.5 104.5
q0 62 -42.5 98t-118.5 36h-171l-4 -251q0 -16 5 -21zM334 352q64 0 99 29t35 80q0 96 -139 96h-128q-17 0 -22 -5t-5 -21l-3 -179h163z" />
    <glyph glyph-name="Gamma" unicode="&#x393;" horiz-adv-x="570" 
d="M82.5 615.5q13.5 14.5 36.5 14.5h395q14 0 24 -10.5t10 -26.5t-9.5 -26t-24.5 -10h-313q-17 0 -22 -5t-5 -21l-9 -529q-1 -30 -11 -47t-29 -17q-37 0 -40 64l-15 573q-1 26 12.5 40.5z" />
    <glyph glyph-name="uni0394" unicode="&#x394;" horiz-adv-x="684" 
d="M302.5 627q18.5 14 39.5 14t39.5 -14t28.5 -39l229 -567q5 -13 5 -24q0 -21 -15.5 -35t-39.5 -14h-494q-24 0 -39.5 14t-15.5 35q0 11 5 24l229 567q10 25 28.5 39zM550 17l-208 516l-208 -516h416z" />
    <glyph glyph-name="Epsilon" unicode="&#x395;" horiz-adv-x="590" 
d="M546 9q10 -10 10 -25t-10 -25.5t-24 -10.5h-392q-21 0 -32 13t-12 37l-16 577q-1 26 12.5 40.5t39.5 14.5h390q14 0 24 -10t10 -25t-10 -25.5t-24 -10.5h-318q-20 0 -20 -20l-4 -200h332q14 0 24 -10t10 -25t-10 -25t-24 -10h-333l-4 -230q0 -20 20 -20h337q14 0 24 -10z
" />
    <glyph glyph-name="Zeta" unicode="&#x396;" horiz-adv-x="590" 
d="M47 14l358 531q5 8 5 11q0 7 -13 7h-325q-17 0 -27.5 9t-10.5 25q0 14 11 23.5t27 9.5h434q14 0 24 -9t10 -22q0 -22 -15 -44l-372 -516q-7 -10 -7 -16q0 -10 19 -10h357q15 0 24.5 -9t9.5 -23t-9.5 -23.5t-24.5 -9.5h-445q-16 0 -27 10.5t-11 25.5q0 18 8 30z" />
    <glyph glyph-name="Eta" unicode="&#x397;" horiz-adv-x="682" 
d="M600 621q13 -19 12 -52l-10 -567q-1 -30 -11 -47t-29 -17t-29 17t-11 47l-7 282h-345l-5 -282q-1 -30 -11 -47t-29 -17t-29 17t-11 47l-15 567q-1 33 12.5 52t40.5 19t40 -19t12 -52l-4 -212h342l-6 212q-1 33 12.5 52t40.5 19t40 -19z" />
    <glyph glyph-name="Theta" unicode="&#x398;" horiz-adv-x="742" 
d="M206.5 -13q-73.5 49 -115 134.5t-41.5 188.5q0 94 40 169.5t113 118t168 42.5t168 -42.5t113 -118t40 -169.5q0 -103 -41.5 -188.5t-115 -134.5t-164.5 -49t-164.5 49zM177.5 162q29.5 -68 80.5 -108.5t113 -40.5t113 40.5t80.5 108.5t29.5 148q0 71 -28 129t-79 92
t-116 34t-116 -34t-79 -92t-28 -129q0 -80 29.5 -148zM225 322.5q11 10.5 27 10.5h243q14 0 24 -10.5t10 -26.5t-9.5 -26t-24.5 -10h-243q-16 0 -27 10t-11 26t11 26.5z" />
    <glyph glyph-name="Iota" unicode="&#x399;" horiz-adv-x="245" 
d="M82.5 621q13.5 19 40.5 19t40 -19t12 -52l-10 -567q-1 -30 -11 -47t-29 -17t-29 17t-11 47l-15 567q-1 33 12.5 52z" />
    <glyph glyph-name="Kappa" unicode="&#x39a;" horiz-adv-x="600" 
d="M579.5 -6q6.5 -14 6.5 -27q0 -12 -8.5 -20.5t-19.5 -8.5q-13 0 -23.5 7t-33.5 30l-316 311l-15 -11l-5 -273q-1 -30 -11 -47t-29 -17t-29 17t-11 47l-15 567q-1 33 12.5 52t40.5 19t40 -19t12 -52l-4 -223l293 258q23 20 37 28t27 8q16 0 28 -12t12 -29q0 -13 -7.5 -24
t-31.5 -29l-273 -206l297 -312q20 -20 26.5 -34z" />
    <glyph glyph-name="Lambda" unicode="&#x39b;" horiz-adv-x="655" 
d="M635 -24q0 -18 -10.5 -28t-27.5 -10t-27 9.5t-20 33.5l-222 533l-223 -533q-10 -23 -20.5 -33t-26.5 -10q-17 0 -27.5 10t-10.5 28q0 13 6 28l243 593q18 43 60 43q39 0 57 -43l243 -593q6 -15 6 -28z" />
    <glyph glyph-name="Mu" unicode="&#x39c;" horiz-adv-x="794" 
d="M92 622q23 18 56 18q63 0 83 -63l147 -474q7 -20 19 -20t19 20l147 474q20 63 83 63q33 0 56 -18t22 -49l-14 -580q-1 -26 -12 -40.5t-27 -14.5t-27 15t-12 40l-7 438q0 14 -7 14q-5 0 -9 -11l-166 -464q-6 -17 -16.5 -24.5t-29.5 -7.5t-29.5 7.5t-16.5 24.5l-166 464
q-4 11 -9 11q-7 0 -7 -14l-7 -438q-1 -25 -12 -40t-27 -15t-27 14.5t-12 40.5l-14 580q-1 31 22 49z" />
    <glyph glyph-name="Nu" unicode="&#x39d;" horiz-adv-x="692" 
d="M84.5 625q15.5 15 45.5 15q40 0 66 -41l309 -492q6 -9 12 -9q5 0 8 4t3 11l-9 470q-1 25 13.5 41t36.5 16t38 -16.5t15 -40.5l-10 -590q-1 -25 -13.5 -40t-34.5 -15q-19 0 -34.5 8.5t-25.5 23.5l-306 477q-6 9 -14 9q-12 0 -12 -18l-10 -445q-1 -25 -12 -40t-27 -15
t-27 14.5t-12 40.5l-14 590q-1 27 14.5 42z" />
    <glyph glyph-name="Xi" unicode="&#x39e;" horiz-adv-x="663" 
d="M35 567q-11 10 -11 26t11 26.5t27 10.5h543q14 0 24 -10.5t10 -26.5t-9.5 -26t-24.5 -10h-543q-16 0 -27 10zM35 10.5q11 10.5 27 10.5h543q14 0 24 -10.5t10 -26.5t-9.5 -26t-24.5 -10h-543q-16 0 -27 10t-11 26t11 26.5zM105 310.5q11 10.5 27 10.5h403q14 0 24 -10.5
t10 -26.5t-9.5 -26t-24.5 -10h-403q-16 0 -27 10t-11 26t11 26.5z" />
    <glyph glyph-name="Omicron" unicode="&#x39f;" horiz-adv-x="742" 
d="M206.5 -13q-73.5 49 -115 134.5t-41.5 188.5q0 94 40 169.5t113 118t168 42.5t168 -42.5t113 -118t40 -169.5q0 -103 -41.5 -188.5t-115 -134.5t-164.5 -49t-164.5 49zM177.5 162q29.5 -68 80.5 -108.5t113 -40.5t113 40.5t80.5 108.5t29.5 148q0 71 -28 129t-79 92
t-116 34t-116 -34t-79 -92t-28 -129q0 -80 29.5 -148z" />
    <glyph glyph-name="Pi" unicode="&#x3a0;" horiz-adv-x="682" 
d="M82.5 611q13.5 19 40.5 19h437q27 0 40 -19t12 -52l-10 -557q-1 -30 -11 -47t-29 -17t-29 17t-11 47l-15 555h-332l-10 -555q-1 -30 -11 -47t-29 -17t-29 17t-11 47l-15 557q-1 33 12.5 52z" />
    <glyph glyph-name="Rho" unicode="&#x3a1;" horiz-adv-x="593" 
d="M508.5 577.5q60.5 -52.5 60.5 -149.5q0 -67 -31 -118t-87.5 -79.5t-131.5 -28.5h-151l-3 -207q-1 -24 -12 -40.5t-29 -16.5q-17 0 -27.5 16.5t-11.5 40.5l-15 580q-1 26 12.5 40.5t36.5 14.5h214q115 0 175.5 -52.5zM303 268q81 0 124.5 40.5t43.5 115.5q0 68 -40.5 103
t-120.5 35h-109q-17 0 -22 -5t-5 -21l-4 -268h133z" />
    <glyph glyph-name="Sigma" unicode="&#x3a3;" horiz-adv-x="503" 
d="M439.5 10q13.5 -10 13.5 -26t-13.5 -26t-33.5 -10h-284q-28 0 -45 16t-17 41q0 17 9 35l139 249l-139 249q-9 18 -9 35q0 25 17 41t45 16h284q20 0 33.5 -10t13.5 -26t-13.5 -26t-33.5 -10h-225l116 -248q7 -13 7 -23q0 -8 -5 -16l-155 -251h262q20 0 33.5 -10z" />
    <glyph glyph-name="Tau" unicode="&#x3a4;" horiz-adv-x="663" 
d="M629 619.5q10 -10.5 10 -26.5t-9.5 -26t-24.5 -10h-218l-13 -564q-1 -25 -12.5 -40t-29.5 -15q-17 0 -27.5 14.5t-11.5 40.5l-16 564h-215q-16 0 -27 10t-11 26t11 26.5t27 10.5h543q14 0 24 -10.5z" />
    <glyph glyph-name="Upsilon" unicode="&#x3a5;" horiz-adv-x="608" 
d="M45 625.5q15 14.5 36 14.5q32 0 51 -41l159 -344q7 -13 14 -13q8 0 14 13l157 344q19 41 51 41q21 0 36 -14.5t15 -35.5q0 -12 -5.5 -25t-18.5 -37l-189 -340q-15 -25 -16 -62l-4 -133q-1 -25 -12.5 -40t-29.5 -15q-17 0 -27.5 14.5t-11.5 40.5l-4 133q-1 38 -15 62
l-191 340q-12 22 -18 36.5t-6 25.5q0 21 15 35.5z" />
    <glyph glyph-name="Phi" unicode="&#x3a6;" horiz-adv-x="742" 
d="M656.5 163q-35.5 -60 -99 -97.5t-144.5 -45.5v-18q-1 -30 -11 -47t-29 -17t-29 17t-11 47v18q-82 7 -146.5 44.5t-100.5 97.5t-36 134q0 70 33 126t93.5 91t141.5 44v12q-1 33 12.5 52t40.5 19t40 -19t12 -52v-12q81 -8 142 -43t94 -91.5t33 -126.5q0 -73 -35.5 -133z
M199.5 164.5q51.5 -55.5 131.5 -68.5l-11 385q-78 -14 -125 -64t-47 -121q0 -76 51.5 -131.5zM543.5 166q50.5 55 50.5 130q0 71 -47 121t-126 64l-6 -384q78 14 128.5 69z" />
    <glyph glyph-name="Chi" unicode="&#x3a7;" horiz-adv-x="623" 
d="M595 -27q0 -11 -9 -20t-20 -9q-12 0 -20.5 4.5t-18.5 17.5l-215 262l-216 -262q-10 -13 -18.5 -17.5t-20.5 -4.5q-10 0 -19.5 9t-9.5 20q0 14 8 24l222 295l-202 246q-16 20 -22 32.5t-6 25.5q0 17 13.5 30.5t31.5 13.5q17 0 30.5 -9.5t30.5 -32.5l178 -235l177 235
q17 23 30.5 32.5t30.5 9.5q18 0 31.5 -13.5t13.5 -30.5q0 -13 -6 -25.5t-22 -32.5l-202 -246l222 -295q8 -10 8 -24z" />
    <glyph glyph-name="Psi" unicode="&#x3a8;" horiz-adv-x="728" 
d="M654.5 625.5q14.5 -14.5 13.5 -40.5l-10 -241q-11 -263 -251 -284l-1 -58q-1 -30 -11 -47t-29 -17t-29 17t-11 47l-2 57q-243 19 -254 285l-10 241q-1 26 13.5 40.5t38.5 14.5t38.5 -14.5t13.5 -40.5l-6 -241q-3 -93 40 -145.5t124 -63.5l-11 434q-1 33 12.5 52t40.5 19
t40 -19t12 -52l-8 -433q80 11 122.5 63t39.5 145l-6 241q-1 26 13.5 40.5t38.5 14.5t38.5 -14.5z" />
    <glyph glyph-name="uni03A9" unicode="&#x3a9;" horiz-adv-x="740" 
d="M74 33h82q-39 37 -69.5 117t-30.5 163q0 99 38 173t109 114t167 40t167 -40t109 -114t38 -173q0 -83 -30.5 -163t-69.5 -117h82q34 0 34 -37q0 -22 -12 -35t-32 -13h-149q-20 0 -32 13t-12 35q0 17 4 26.5t14 16.5q47 34 73 101.5t26 154.5q0 127 -55.5 198.5
t-154.5 71.5t-154.5 -71.5t-55.5 -198.5q0 -87 26 -154.5t73 -101.5q10 -7 14 -16.5t4 -26.5q0 -22 -12 -35t-32 -13h-149q-20 0 -32 13t-12 35q0 37 34 37z" />
    <glyph glyph-name="alpha" unicode="&#x3b1;" horiz-adv-x="529" 
d="M509 -31q0 -31 -49 -31q-38 0 -56.5 14.5t-22.5 48.5q-24 -27 -66 -45t-84 -18q-53 0 -96.5 28t-69 76.5t-25.5 107.5q0 65 28 117.5t76.5 82.5t108.5 30q71 0 114 -31q5 15 18 23t32 8q26 0 40 -15t13 -43l-11 -285q-1 -21 5 -30t24 -12q21 -3 21 -26zM168.5 47
q33.5 -37 92.5 -37q34 0 66 18.5t49 47.5l-10 202q-46 30 -92 30q-65 0 -102 -42t-37 -116q0 -66 33.5 -103z" />
    <glyph glyph-name="beta" unicode="&#x3b2;" horiz-adv-x="584" 
d="M257.5 -53q-12.5 9 -12.5 24q0 19 10 29t29 10q75 0 121 35.5t46 95.5q0 49 -33 82t-95 42q-20 3 -31.5 14t-11.5 26q0 16 11 26.5t32 12.5q48 5 76 36.5t28 75.5q0 51 -34 81t-91 30q-70 0 -109.5 -45t-39.5 -125v-590q0 -21 -13 -34t-33 -13q-21 0 -34 13t-13 34v590
q0 112 65 177.5t177 65.5q63 0 113 -24t78 -66.5t28 -95.5q0 -58 -31 -95t-83 -53q63 -9 100 -51t37 -112q0 -61 -31.5 -107.5t-88.5 -72t-131 -25.5q-23 0 -35.5 9z" />
    <glyph glyph-name="gamma" unicode="&#x3b3;" horiz-adv-x="442" 
d="M403 363.5q16 -16.5 13 -41.5q-12 -106 -57 -199.5t-126 -180.5q9 -62 12 -132q1 -22 -9.5 -36t-26.5 -14q-19 0 -30 13t-13 34q-6 101 -39 225.5t-90 261.5q-11 23 -11 44q0 20 12 31t35 11q17 0 29.5 -8t18.5 -23q68 -153 99 -320q41 60 64.5 141t29.5 164
q1 21 14 33.5t33 12.5q26 0 42 -16.5z" />
    <glyph glyph-name="delta" unicode="&#x3b4;" horiz-adv-x="506" 
d="M428.5 255q31.5 -46 31.5 -113q0 -93 -56.5 -148.5t-150.5 -55.5t-150.5 55.5t-56.5 148.5q0 72 34.5 118t100.5 63q-49 38 -72 78t-23 87q0 71 53 111t148 40q54 0 92.5 -20.5t38.5 -48.5q0 -6 -3 -14q-9 -23 -31 -23q-13 0 -25 9q-42 31 -93 31q-34 0 -56.5 -24
t-22.5 -59q0 -36 28 -66.5t103 -75.5q79 -47 110.5 -93zM176 41.5q28 -36.5 77 -36.5q48 0 76.5 34.5t28.5 93.5q0 87 -102 142q-50 -8 -79 -43.5t-29 -89.5q0 -64 28 -100.5z" />
    <glyph glyph-name="epsilon" unicode="&#x3b5;" horiz-adv-x="372" 
d="M91 -27q-41 35 -41 94q0 32 18.5 60.5t46.5 42.5q-24 17 -39 43.5t-15 53.5q0 50 36.5 81.5t94.5 31.5q38 0 69.5 -13.5t50 -36.5t18.5 -50q0 -17 -11 -28.5t-27 -11.5q-11 0 -20 6.5t-14 16.5q-14 28 -28.5 39t-36.5 11t-34 -12.5t-12 -34.5q0 -32 23 -50.5t69 -18.5
q10 0 17 -9.5t7 -21.5q0 -13 -7 -21.5t-18 -9.5q-55 -7 -80.5 -24t-25.5 -48q0 -59 61 -59q28 0 44.5 11.5t30.5 42.5q9 22 34 22q17 0 28.5 -11t11.5 -29q0 -27 -20 -50.5t-53 -37.5t-70 -14q-67 0 -108 35z" />
    <glyph glyph-name="zeta" unicode="&#x3b6;" horiz-adv-x="441" 
d="M325.5 -232q-10.5 -8 -26.5 -8q-26 0 -41.5 12.5t-11.5 30.5q1 5 6 28t5 38q0 39 -22 64t-77 50q-49 20 -70.5 64t-21.5 128q0 128 53.5 226t154.5 158h-183q-20 0 -31.5 9.5t-11.5 24.5q0 16 11.5 26.5t31.5 10.5h262q22 0 35 -11t13 -32q0 -27 -25 -42
q-103 -66 -154.5 -151.5t-51.5 -193.5q0 -69 19 -104.5t67 -57.5q54 -26 78.5 -55.5t24.5 -68.5q0 -24 -5.5 -58t-14.5 -66q-3 -14 -13.5 -22z" />
    <glyph glyph-name="eta" unicode="&#x3b7;" horiz-adv-x="568" 
d="M465.5 325.5q44.5 -53.5 42.5 -149.5l-7 -358q-1 -58 -35 -58q-19 0 -28 14t-10 44l-7 360q-1 64 -27.5 95t-74.5 31q-36 0 -67.5 -20t-50.5 -53l-10 -233q-1 -31 -10 -45t-27 -14q-17 0 -26 13.5t-11 45.5l-15 244q-3 56 -52 56q-11 0 -18.5 10t-7.5 25q0 19 9.5 28.5
t29.5 12.5q38 5 88 5q26 0 40.5 -15t13.5 -42l-1 -14q25 32 63.5 51.5t79.5 19.5q74 0 118.5 -53.5z" />
    <glyph glyph-name="theta" unicode="&#x3b8;" horiz-adv-x="600" 
d="M449 599q59 -41 91 -117t32 -179q0 -106 -33.5 -189t-93 -129.5t-134.5 -46.5t-134.5 46.5t-93 129.5t-33.5 189q0 103 32 179t91 117t138 41t138 -41zM467 321q-4 111 -46 177.5t-110 66.5t-110 -66.5t-46 -177.5h312zM185 126q21 -53 54 -83t72 -30t72 30t54 83t27 122
h-306q6 -69 27 -122z" />
    <glyph glyph-name="iota" unicode="&#x3b9;" horiz-adv-x="310" 
d="M73.5 365q13.5 14 37.5 14q22 0 35.5 -14t13.5 -37v-240q0 -41 21 -56.5t69 -15.5q18 0 29 -10t11 -28q0 -19 -13 -29.5t-37 -10.5q-91 0 -135.5 36.5t-44.5 117.5v236q0 23 13.5 37z" />
    <glyph glyph-name="kappa" unicode="&#x3ba;" horiz-adv-x="446" 
d="M419.5 -7.5q6.5 -12.5 6.5 -24.5t-8.5 -21t-21.5 -9q-12 0 -22 6.5t-30 30.5l-159 189l-28 -18l-7 -144q-3 -64 -40 -64q-19 0 -29 17t-11 47l-10 307q-1 33 12 52t40 19q28 0 41.5 -19t11.5 -52l-5 -93l159 127q29 23 41.5 30t25.5 7q18 0 29 -11.5t11 -29.5
q0 -14 -9.5 -25.5t-31.5 -24.5l-129 -81l138 -179q19 -24 25.5 -36.5z" />
    <glyph glyph-name="lambda" unicode="&#x3bb;" horiz-adv-x="518" 
d="M488 -22q0 -18 -9.5 -29t-25.5 -11q-14 0 -21.5 6t-14.5 23l-117 277l-154 -284q-7 -13 -13 -17.5t-16 -4.5q-17 0 -27 10.5t-10 26.5q0 12 6 26l162 366l-43 102q-19 45 -48 64t-71 16q-24 -2 -36.5 4t-16.5 22q-1 4 -1 10q0 24 25.5 39t66.5 15q73 0 119.5 -43.5
t82.5 -144.5l156 -442q6 -17 6 -31z" />
    <glyph glyph-name="uni03BC" unicode="&#x3bc;" horiz-adv-x="532" 
d="M458.5 364.5q14.5 -15.5 13.5 -42.5l-15 -325q-1 -31 -10 -45t-26 -14q-18 0 -27.5 14t-10.5 45v5q-24 -28 -63.5 -46t-80.5 -18q-45 0 -83 24l-2 -70q-2 -59 -37 -59q-18 0 -26.5 14t-10.5 46l-20 429q-1 27 13.5 42.5t40.5 15.5t40.5 -15.5t12.5 -41.5v-2l-6 -208
q5 -48 32 -73.5t73 -25.5q33 0 63 17t50 46l-14 245q-2 27 12.5 42.5t40.5 15.5t40.5 -15.5z" />
    <glyph glyph-name="nu" unicode="&#x3bd;" horiz-adv-x="461" 
d="M266 -51q-16 -11 -37 -11q-23 0 -39 13t-28 43l-117 267q-19 42 -19 71q0 21 15 34.5t38 13.5q19 0 33 -11t20 -30l74 -269q3 -12 9.5 -18t14.5 -6q15 0 25 16q37 55 56 124t19 146q0 20 15 34t37 14q23 0 38 -13.5t15 -34.5q0 -48 -21 -113.5t-51.5 -128.5t-59.5 -101
q-21 -29 -37 -40z" />
    <glyph glyph-name="xi" unicode="&#x3be;" horiz-adv-x="395" 
d="M48.5 558.5q-10.5 11.5 -10.5 33.5q0 17 13.5 27.5t34.5 10.5h221q21 0 34.5 -10.5t13.5 -27.5q0 -22 -12 -33t-38 -15q-69 -7 -105.5 -34.5t-36.5 -74.5q0 -75 96 -84q29 -3 40 -15.5t11 -41.5q0 -47 -46 -54q-101 -17 -101 -96q0 -40 21 -64t62 -51q28 -19 44.5 -33
t27 -36t10.5 -54q0 -64 -21.5 -105t-54.5 -41q-19 0 -30 9t-11 23q0 6 3 14q19 39 19 80q0 29 -19 50t-57 50q-33 24 -53 43.5t-34 47t-14 64.5q0 54 39.5 94.5t104.5 59.5q-68 7 -106 36.5t-38 82.5q0 43 22 74t76 59h-76q-19 0 -29.5 11.5z" />
    <glyph glyph-name="omicron" unicode="&#x3bf;" horiz-adv-x="512" 
d="M146.5 -32.5q-49.5 29.5 -78 80.5t-28.5 114q0 61 28.5 110.5t78 78.5t109.5 29t109.5 -29t78 -78.5t28.5 -110.5q0 -63 -28.5 -114t-78 -80.5t-109.5 -29.5t-109.5 29.5zM168.5 51.5q33.5 -42.5 87.5 -42.5t87.5 42.5t33.5 110.5q0 65 -33.5 106t-87.5 41t-87.5 -41
t-33.5 -106q0 -68 33.5 -110.5z" />
    <glyph glyph-name="pi" unicode="&#x3c0;" horiz-adv-x="592" 
d="M479 31q12 -9 44 -9q19 0 30 -8.5t11 -23.5q0 -42 -70 -42q-100 0 -106 95l-14 251h-138l-12 -296q-1 -31 -10.5 -45.5t-26.5 -14.5t-26.5 14.5t-11.5 45.5l-18 296h-74q-18 0 -29.5 11t-11.5 27t12 27t29 11h482q16 0 26.5 -11t10.5 -27t-10.5 -27t-26.5 -11h-63
l-8 -226q-1 -28 11 -37z" />
    <glyph glyph-name="rho" unicode="&#x3c1;" horiz-adv-x="512" 
d="M365.5 351q49.5 -29 78 -78.5t28.5 -110.5q0 -63 -28.5 -114t-78 -80.5t-109.5 -29.5q-70 0 -126 40l-3 -108q-1 -60 -37 -60q-35 0 -38 60l-11 271q-1 7 -1 21q0 61 28.5 110.5t78 78.5t109.5 29t109.5 -29zM168.5 51.5q33.5 -42.5 87.5 -42.5t87.5 42.5t33.5 110.5
q0 65 -33.5 106t-87.5 41t-87.5 -41t-33.5 -106q0 -68 33.5 -110.5z" />
    <glyph glyph-name="sigma" unicode="&#x3c3;" horiz-adv-x="550" 
d="M520 360q10 -10 10 -26q0 -15 -9.5 -25t-24.5 -10h-77q25 -28 39 -64.5t14 -77.5q0 -61 -28.5 -111t-78 -79t-109.5 -29t-109.5 29t-78 79t-28.5 111q0 59 28.5 108t78 77t109.5 28h240q14 0 24 -10zM168.5 50.5q33.5 -41.5 87.5 -41.5t87.5 41.5t33.5 106.5
q0 63 -33.5 102.5t-87.5 39.5t-87.5 -39.5t-33.5 -102.5q0 -65 33.5 -106.5z" />
    <glyph glyph-name="tau" unicode="&#x3c4;" horiz-adv-x="446" 
d="M417.5 359.5q10.5 -10.5 10.5 -26.5q0 -17 -10.5 -28t-26.5 -11h-111l-7 -218q-1 -29 12 -41.5t42 -12.5q15 0 26 -10t11 -24q0 -19 -16 -29.5t-49 -10.5q-52 0 -85 25.5t-36 85.5l-12 235h-107q-18 0 -29.5 11t-11.5 28q0 16 12 26.5t29 10.5h332q16 0 26.5 -10.5z" />
    <glyph glyph-name="upsilon" unicode="&#x3c5;" horiz-adv-x="512" 
d="M70 364q15 16 41 16t41.5 -15.5t14.5 -43.5l-4 -198q-1 -52 22.5 -80.5t68.5 -28.5q39 0 61 12.5t32.5 42.5t10.5 84q0 55 -13 170q-3 26 11 41.5t39 15.5q50 0 56 -60q5 -53 5 -91q0 -143 -51.5 -217t-150.5 -74q-85 0 -130.5 46t-52.5 140l-15 198q-1 26 14 42z" />
    <glyph glyph-name="phi" unicode="&#x3c6;" horiz-adv-x="512" 
d="M423.5 14.5q-48.5 -58.5 -124.5 -72.5l-1 -80q-1 -30 -11 -47t-29 -17t-29 17t-11 47l-2 79q-77 14 -126.5 72.5t-49.5 138.5q0 74 46 130t119 72l-2 75q-1 33 12.5 52t40.5 19t40 -19t12 -52l-1 -74q73 -17 119 -73t46 -130q0 -79 -48.5 -137.5zM156.5 66.5
q21.5 -36.5 57.5 -50.5l-7 263q-33 -14 -52.5 -48t-19.5 -79q0 -49 21.5 -85.5zM356.5 67.5q20.5 35.5 20.5 84.5q0 45 -19.5 78.5t-52.5 48.5l-4 -261q35 14 55.5 49.5z" />
    <glyph glyph-name="chi" unicode="&#x3c7;" horiz-adv-x="557" 
d="M522 -165.5q11 -10.5 11 -26.5t-11 -27t-27 -11h-70q-16 0 -25 5t-16 16l-108 203l-151 -210q-9 -14 -18 -19t-24 -5q-12 0 -21.5 10t-9.5 22t9 26l168 264l-113 212h-50q-19 0 -30.5 10.5t-11.5 27.5q0 15 12 26.5t30 11.5h77q27 0 43 -10t26 -32l73 -158l105 166
q15 25 28.5 34.5t31.5 9.5q20 0 34.5 -14.5t14.5 -32.5q0 -15 -5.5 -28t-19.5 -35l-143 -199l104 -226h60q16 0 27 -10.5z" />
    <glyph glyph-name="psi" unicode="&#x3c8;" horiz-adv-x="579" 
d="M531 247q0 -131 -51.5 -210.5t-146.5 -95.5l-2 -117q-1 -30 -11 -47t-29 -17t-29 17t-11 47l-2 116q-85 9 -133.5 56t-53.5 128l-14 199q-2 25 13.5 41t42.5 16q25 0 40.5 -16.5t14.5 -42.5l-4 -198q-1 -42 23.5 -70t68.5 -37l-11 551q-1 33 12.5 52t40.5 19t40 -19
t12 -52l-7 -551q51 10 73.5 49t22.5 120q0 61 -10 138q-3 24 11.5 40.5t39.5 16.5q24 0 38.5 -16t17.5 -44q4 -35 4 -73z" />
    <glyph glyph-name="omega" unicode="&#x3c9;" horiz-adv-x="770" 
d="M100 380q26 0 40.5 -15.5t10.5 -40.5q-13 -115 -13 -171q0 -54 10.5 -84t33 -42.5t61.5 -12.5q44 0 68 28.5t23 81.5l-4 198q-1 27 14 42.5t41 15.5t41 -15.5t14 -42.5l-4 -198q-1 -53 23 -81.5t68 -28.5q39 0 61.5 12.5t33 42.5t10.5 84q0 56 -13 171l-1 9q0 21 14 34
t38 13q49 0 56 -60q4 -41 4 -88q0 -144 -51.5 -219t-151.5 -75q-95 0 -141 60q-43 -60 -143 -60t-151.5 75t-51.5 219q0 47 4 88q8 60 56 60z" />
    <glyph glyph-name="uni0401" unicode="&#x401;" horiz-adv-x="590" 
d="M176 728.5q-17 16.5 -17 43.5q0 28 17 44.5t44 16.5t44 -16.5t17 -44.5q0 -27 -17 -43.5t-44 -16.5t-44 16.5zM82.5 615.5q13.5 14.5 39.5 14.5h390q14 0 24 -10t10 -25t-10 -25.5t-24 -10.5h-318q-20 0 -20 -20l-4 -200h332q14 0 24 -10t10 -25t-10 -25t-24 -10h-333
l-4 -230q0 -20 20 -20h337q14 0 24 -10t10 -25t-10 -25.5t-24 -10.5h-392q-21 0 -32 13t-12 37l-16 577q-1 26 12.5 40.5zM376 816.5q17 16.5 44 16.5t44 -16.5t17 -44.5q0 -27 -17 -43.5t-44 -16.5t-44 16.5t-17 43.5q0 28 17 44.5z" />
    <glyph glyph-name="uni0410" unicode="&#x410;" horiz-adv-x="655" 
d="M635 -24q0 -18 -10.5 -28t-27.5 -10t-27 9.5t-20 33.5l-64 153h-317l-64 -153q-10 -23 -20.5 -33t-26.5 -10q-17 0 -27.5 10t-10.5 28q0 13 6 28l243 593q18 43 60 43q39 0 57 -43l243 -593q6 -15 6 -28zM457 204l-129 310l-130 -310h259z" />
    <glyph glyph-name="uni0411" unicode="&#x411;" horiz-adv-x="634" 
d="M533 303.5q57 -54.5 57 -152.5q0 -59 -26.5 -105t-76.5 -72t-117 -26h-240q-20 0 -31.5 13t-12.5 37l-16 577q-1 26 12.5 40.5t36.5 14.5h395q14 0 24 -10.5t10 -26.5t-9.5 -26t-24.5 -10h-313q-17 0 -22 -5t-5 -21l-3 -173h164q141 0 198 -54.5zM171 16q5 -5 22 -5h147
q77 0 119.5 38.5t42.5 104.5q0 62 -42.5 98t-118.5 36h-171l-4 -251q0 -16 5 -21z" />
    <glyph glyph-name="uni0412" unicode="&#x412;" horiz-adv-x="634" 
d="M554 266q36 -45 36 -115q0 -59 -26.5 -105t-76.5 -72t-117 -26h-240q-20 0 -31.5 13t-12.5 37l-16 577q-1 26 12.5 40.5t36.5 14.5h217q111 0 169.5 -40.5t58.5 -119.5q0 -54 -30 -96t-74 -53q58 -10 94 -55zM171 16q5 -5 22 -5h147q77 0 119.5 38.5t42.5 104.5
q0 62 -42.5 98t-118.5 36h-171l-4 -251q0 -16 5 -21zM334 352q64 0 99 29t35 80q0 96 -139 96h-128q-17 0 -22 -5t-5 -21l-3 -179h163z" />
    <glyph glyph-name="uni0413" unicode="&#x413;" horiz-adv-x="580" 
d="M82.5 615.5q13.5 14.5 36.5 14.5h395q14 0 24 -10.5t10 -26.5t-9.5 -26t-24.5 -10h-313q-17 0 -22 -5t-5 -21l-9 -529q-1 -30 -11 -47t-29 -17q-37 0 -40 64l-15 573q-1 26 12.5 40.5z" />
    <glyph glyph-name="uni0414" unicode="&#x414;" horiz-adv-x="658" 
d="M623.5 11.5q10.5 -10.5 10.5 -33.5v-77q0 -23 -12.5 -37t-34.5 -14t-34.5 11.5t-12.5 28.5v58h-422v-48q0 -23 -12.5 -37t-34.5 -14t-34.5 14t-12.5 37v78q0 23 10.5 33.5t32.5 10.5h48q10 46 10 121q0 32 -1 48l-18 385q-2 25 11.5 39.5t37.5 14.5h364q23 0 36.5 -14.5
t12.5 -40.5l-16 -553h39q22 0 32.5 -10.5zM471 22l-12 511q-1 17 -6 21.5t-21 4.5h-190q-17 0 -22 -5t-5 -21v-343q0 -110 -19 -168h275z" />
    <glyph glyph-name="uni0415" unicode="&#x415;" horiz-adv-x="590" 
d="M546 9q10 -10 10 -25t-10 -25.5t-24 -10.5h-392q-21 0 -32 13t-12 37l-16 577q-1 26 12.5 40.5t39.5 14.5h390q14 0 24 -10t10 -25t-10 -25.5t-24 -10.5h-318q-20 0 -20 -20l-4 -200h332q14 0 24 -10t10 -25t-10 -25t-24 -10h-333l-4 -230q0 -20 20 -20h337q14 0 24 -10z
" />
    <glyph glyph-name="uni0416" unicode="&#x416;" horiz-adv-x="874" 
d="M853 -8q7 -13 7 -25t-8.5 -20.5t-19.5 -8.5q-14 0 -25.5 7t-31.5 30l-278 312l-13 -12l-5 -273q-1 -30 -11 -47t-29 -17t-29 17t-11 47l-7 272l-15 13l-278 -312q-20 -23 -31.5 -30t-25.5 -7q-11 0 -19.5 8.5t-8.5 20.5t7 25t26 36l262 316l-238 202q-24 21 -31.5 31
t-7.5 22q0 17 12 29t28 12q14 0 29 -8t35 -28l254 -258l-6 223q-1 33 12.5 52t40.5 19t40 -19t12 -52l-4 -222l253 257q20 20 35 28t29 8q16 0 28 -12t12 -29q0 -12 -7.5 -22t-31.5 -31l-238 -202l262 -316q19 -23 26 -36z" />
    <glyph glyph-name="uni0417" unicode="&#x417;" horiz-adv-x="534" 
d="M64.5 17.5q28.5 -35.5 79 -57.5t112.5 -22q102 0 165 52.5t63 143.5q0 46 -21.5 83.5t-56 60t-72.5 26.5q53 15 92.5 62.5t39.5 107.5q0 49 -25.5 86.5t-71 58.5t-103.5 21q-61 0 -109 -21t-74.5 -54.5t-26.5 -69.5q0 -19 12 -32t30 -13q11 0 21.5 6.5t15.5 16.5
q27 54 56.5 76.5t73.5 22.5q46 0 73.5 -27.5t27.5 -75.5q0 -59 -42 -93.5t-131 -45.5q-24 -3 -24 -29q0 -13 6 -21.5t17 -9.5q198 -14 198 -143q0 -58 -33 -90.5t-92 -32.5q-55 0 -88.5 26t-57.5 82q-10 23 -37 23q-20 0 -33 -13t-13 -33q0 -36 28.5 -71.5z" />
    <glyph glyph-name="uni0418" unicode="&#x418;" horiz-adv-x="692" 
d="M596 -47.5q-11 -14.5 -27 -14.5t-27 15t-12 40l-10 445q0 18 -12 18q-8 0 -14 -9l-306 -477q-10 -15 -25.5 -23.5t-34.5 -8.5q-22 0 -34.5 15t-13.5 40l-10 590q-1 24 15 40.5t38 16.5t36.5 -16t13.5 -41l-9 -470q0 -7 3 -11t8 -4q6 0 12 9l309 492q26 41 66 41
q30 0 45.5 -15t14.5 -42l-14 -590q-1 -26 -12 -40.5z" />
    <glyph glyph-name="uni0419" unicode="&#x419;" horiz-adv-x="692" 
d="M474 719q-47 -47 -123 -47t-123 47t-47 125h100q0 -40 19.5 -66t50.5 -26t50.5 26t19.5 66h100q0 -78 -47 -125zM85 623.5q16 16.5 38 16.5t36.5 -16t13.5 -41l-9 -470q0 -7 3 -11t8 -4q6 0 12 9l309 492q26 41 66 41q30 0 45.5 -15t14.5 -42l-14 -590q-1 -26 -12 -40.5
t-27 -14.5t-27 15t-12 40l-10 445q0 18 -12 18q-8 0 -14 -9l-306 -477q-10 -15 -25.5 -23.5t-34.5 -8.5q-22 0 -34.5 15t-13.5 40l-10 590q-1 24 15 40.5z" />
    <glyph glyph-name="uni041A" unicode="&#x41a;" horiz-adv-x="600" 
d="M579.5 -6q6.5 -14 6.5 -27q0 -12 -8.5 -20.5t-19.5 -8.5q-13 0 -23.5 7t-33.5 30l-316 311l-15 -11l-5 -273q-1 -30 -11 -47t-29 -17t-29 17t-11 47l-15 567q-1 33 12.5 52t40.5 19t40 -19t12 -52l-4 -223l293 258q23 20 37 28t27 8q16 0 28 -12t12 -29q0 -13 -7.5 -24
t-31.5 -29l-273 -206l297 -312q20 -20 26.5 -34z" />
    <glyph glyph-name="uni041B" unicode="&#x41b;" horiz-adv-x="639" 
d="M45 16q34 22 46.5 52t10.5 85l-17 423q-1 25 12 39.5t37 14.5h386q23 0 36.5 -14.5t12.5 -40.5l-16 -582q-1 -26 -11.5 -40.5t-27.5 -14.5q-18 0 -29.5 15t-12.5 40l-12 538q0 16 -5 21t-22 5h-211q-17 0 -22 -4.5t-6 -21.5l-11 -379q-2 -60 -19 -109t-42.5 -77
t-52.5 -28q-18 0 -30.5 12.5t-12.5 29.5q0 22 19 36z" />
    <glyph glyph-name="uni041C" unicode="&#x41c;" horiz-adv-x="794" 
d="M92 622q23 18 56 18q63 0 83 -63l147 -474q7 -20 19 -20t19 20l147 474q20 63 83 63q33 0 56 -18t22 -49l-14 -580q-1 -26 -12 -40.5t-27 -14.5t-27 15t-12 40l-7 438q0 14 -7 14q-5 0 -9 -11l-166 -464q-6 -17 -16.5 -24.5t-29.5 -7.5t-29.5 7.5t-16.5 24.5l-166 464
q-4 11 -9 11q-7 0 -7 -14l-7 -438q-1 -25 -12 -40t-27 -15t-27 14.5t-12 40.5l-14 580q-1 31 22 49z" />
    <glyph glyph-name="uni041D" unicode="&#x41d;" horiz-adv-x="682" 
d="M600 621q13 -19 12 -52l-10 -567q-1 -30 -11 -47t-29 -17t-29 17t-11 47l-7 282h-345l-5 -282q-1 -30 -11 -47t-29 -17t-29 17t-11 47l-15 567q-1 33 12.5 52t40.5 19t40 -19t12 -52l-4 -212h342l-6 212q-1 33 12.5 52t40.5 19t40 -19z" />
    <glyph glyph-name="uni041E" unicode="&#x41e;" horiz-adv-x="742" 
d="M206.5 -13q-73.5 49 -115 134.5t-41.5 188.5q0 94 40 169.5t113 118t168 42.5t168 -42.5t113 -118t40 -169.5q0 -103 -41.5 -188.5t-115 -134.5t-164.5 -49t-164.5 49zM177.5 162q29.5 -68 80.5 -108.5t113 -40.5t113 40.5t80.5 108.5t29.5 148q0 71 -28 129t-79 92
t-116 34t-116 -34t-79 -92t-28 -129q0 -80 29.5 -148z" />
    <glyph glyph-name="uni041F" unicode="&#x41f;" horiz-adv-x="658" 
d="M82.5 615.5q13.5 14.5 36.5 14.5h420q23 0 36.5 -14.5t12.5 -40.5l-16 -582q-1 -26 -11.5 -40.5t-27.5 -14.5q-18 0 -29.5 15t-12.5 40l-12 538q0 16 -5 21t-22 5h-246q-17 0 -22 -5t-5 -21l-12 -538q-1 -25 -12.5 -40t-29.5 -15q-17 0 -27.5 14.5t-11.5 40.5l-16 582
q-1 26 12.5 40.5z" />
    <glyph glyph-name="uni0420" unicode="&#x420;" horiz-adv-x="593" 
d="M508.5 577.5q60.5 -52.5 60.5 -149.5q0 -67 -31 -118t-87.5 -79.5t-131.5 -28.5h-151l-3 -207q-1 -24 -12 -40.5t-29 -16.5q-17 0 -27.5 16.5t-11.5 40.5l-15 580q-1 26 12.5 40.5t36.5 14.5h214q115 0 175.5 -52.5zM303 268q81 0 124.5 40.5t43.5 115.5q0 68 -40.5 103
t-120.5 35h-109q-17 0 -22 -5t-5 -21l-4 -268h133z" />
    <glyph glyph-name="uni0421" unicode="&#x421;" horiz-adv-x="633" 
d="M558 119q19 0 32.5 -13.5t13.5 -33.5q0 -36 -32 -67t-86.5 -49t-118.5 -18q-91 0 -163.5 47t-113 130.5t-40.5 190.5q0 102 40.5 177.5t115.5 116t177 40.5q55 0 105 -16t80 -42.5t30 -56.5q0 -19 -13.5 -32.5t-33.5 -13.5q-18 0 -32 15q-65 71 -155 71q-64 0 -113 -32.5
t-76 -91t-27 -135.5q0 -83 28.5 -150t77.5 -105t110 -38q100 0 157 86q14 20 37 20z" />
    <glyph glyph-name="uni0422" unicode="&#x422;" horiz-adv-x="663" 
d="M629 619.5q10 -10.5 10 -26.5t-9.5 -26t-24.5 -10h-218l-13 -564q-1 -25 -12.5 -40t-29.5 -15q-17 0 -27.5 14.5t-11.5 40.5l-16 564h-215q-16 0 -27 10t-11 26t11 26.5t27 10.5h543q14 0 24 -10.5z" />
    <glyph glyph-name="uni0423" unicode="&#x423;" horiz-adv-x="570" 
d="M525.5 626.5q14.5 -13.5 14.5 -32.5q0 -20 -21 -66l-174 -371q-52 -111 -119 -165t-151 -54q-22 0 -33.5 11.5t-11.5 29.5t11.5 29.5t33.5 11.5q126 0 194 128l-215 381q-21 36 -21 65q0 19 14.5 32.5t33.5 13.5q16 0 27.5 -9.5t21.5 -30.5l171 -373l142 373q15 40 49 40
q19 0 33.5 -13.5z" />
    <glyph glyph-name="uni0424" unicode="&#x424;" horiz-adv-x="742" 
d="M656.5 163q-35.5 -60 -99 -97.5t-144.5 -45.5v-18q-1 -30 -11 -47t-29 -17t-29 17t-11 47v18q-82 7 -146.5 44.5t-100.5 97.5t-36 134q0 70 33 126t93.5 91t141.5 44v12q-1 33 12.5 52t40.5 19t40 -19t12 -52v-12q81 -8 142 -43t94 -91.5t33 -126.5q0 -73 -35.5 -133z
M199.5 164.5q51.5 -55.5 131.5 -68.5l-11 385q-78 -14 -125 -64t-47 -121q0 -76 51.5 -131.5zM543.5 166q50.5 55 50.5 130q0 71 -47 121t-126 64l-6 -384q78 14 128.5 69z" />
    <glyph glyph-name="uni0425" unicode="&#x425;" horiz-adv-x="623" 
d="M595 -27q0 -11 -9 -20t-20 -9q-12 0 -20.5 4.5t-18.5 17.5l-215 262l-216 -262q-10 -13 -18.5 -17.5t-20.5 -4.5q-10 0 -19.5 9t-9.5 20q0 14 8 24l222 295l-202 246q-16 20 -22 32.5t-6 25.5q0 17 13.5 30.5t31.5 13.5q17 0 30.5 -9.5t30.5 -32.5l178 -235l177 235
q17 23 30.5 32.5t30.5 9.5q18 0 31.5 -13.5t13.5 -30.5q0 -13 -6 -25.5t-22 -32.5l-202 -246l222 -295q8 -10 8 -24z" />
    <glyph glyph-name="uni0426" unicode="&#x426;" horiz-adv-x="647" 
d="M565 621q13 -19 12 -52l-10 -745q-1 -30 -11 -47t-29 -17t-29 17t-11 47l-2 124h-359q-19 0 -31 12.5t-13 32.5l-12 593q-1 21 14 37.5t38 16.5t38.5 -16.5t14.5 -37.5l-10 -537q0 -20 4.5 -24.5t23.5 -4.5h290l-11 549q-1 33 12.5 52t40.5 19t40 -19z" />
    <glyph glyph-name="uni0427" unicode="&#x427;" horiz-adv-x="628" 
d="M546 621q13 -19 12 -52l-10 -567q-1 -30 -11 -47t-29 -17t-29 17t-11 47l-6 243q-27 -34 -74.5 -53t-108.5 -19q-102 0 -158 54t-60 162l-8 197q-1 22 14.5 38t37.5 16t37.5 -16t14.5 -38l-5 -207q-1 -50 13 -78.5t47.5 -41.5t92.5 -13q54 0 94 23.5t60 67.5l-6 232
q-1 33 12.5 52t40.5 19t40 -19z" />
    <glyph glyph-name="uni0428" unicode="&#x428;" horiz-adv-x="900" 
d="M84 624q15 16 38 16t38.5 -15.5t14.5 -35.5l-11 -519q-1 -25 2 -34t12 -12t34 -3h145q25 0 34.5 3t12.5 12.5t2 33.5l-8 515q-1 26 13.5 40.5t38.5 14.5t38.5 -14.5t13.5 -40.5l-11 -515q-1 -25 2 -34t12 -12t34 -3h146q25 0 34.5 3t12.5 12.5t2 33.5l-8 515
q-1 26 13.5 40.5t38.5 14.5t38.5 -14.5t13.5 -40.5l-14 -594q-1 -19 -13 -31t-31 -12h-646q-19 0 -31 12.5t-13 32.5l-12 596q-1 19 14 35z" />
    <glyph glyph-name="uni0429" unicode="&#x429;" horiz-adv-x="900" 
d="M879.5 6.5q13.5 -14.5 11.5 -40.5l-12 -151q-5 -55 -39 -55q-17 0 -28 14.5t-14 40.5l-12 107q-2 17 -6.5 21.5t-20.5 4.5h-633q-19 0 -31 12.5t-13 32.5l-12 596q-1 19 14 35t38 16t38.5 -15.5t14.5 -35.5l-11 -519q-1 -25 2 -34t12 -12t34 -3h125q25 0 34.5 3
t12.5 12.5t2 33.5l-8 515q-1 26 13.5 40.5t38.5 14.5t38.5 -14.5t13.5 -40.5l-11 -515q-1 -25 2 -34t12 -12t34 -3h126q25 0 34.5 3t12.5 12.5t2 33.5l-8 515q-1 26 13.5 40.5t38.5 14.5t38.5 -14.5t13.5 -40.5l-13 -564h65q24 0 37.5 -14.5z" />
    <glyph glyph-name="uni042A" unicode="&#x42a;" horiz-adv-x="692" 
d="M591 303.5q57 -54.5 57 -152.5q0 -59 -26.5 -105t-76.5 -72t-117 -26h-240q-20 0 -31.5 13t-12.5 37l-15 559h-69q-15 0 -24.5 10t-9.5 26t10 26.5t24 10.5h123q22 0 37.5 -16.5t14.5 -40.5l-4 -215h162q141 0 198 -54.5zM229 16q5 -5 22 -5h147q77 0 119.5 38.5
t42.5 104.5q0 62 -42.5 98t-118.5 36h-170l-5 -251q0 -16 5 -21z" />
    <glyph glyph-name="uni042B" unicode="&#x42b;" horiz-adv-x="845" 
d="M532 303.5q57 -54.5 57 -152.5q0 -59 -26.5 -105t-76.5 -72t-117 -26h-240q-20 0 -31.5 13t-12.5 37l-15 585q-1 24 15.5 40.5t38.5 16.5t37.5 -16.5t14.5 -40.5l-5 -225h163q141 0 198 -54.5zM170 16q5 -5 22 -5h147q77 0 119.5 38.5t42.5 104.5q0 62 -42.5 98
t-118.5 36h-170l-5 -251q0 -16 5 -21zM682.5 621q13.5 19 40.5 19t40 -19t12 -52l-10 -567q-1 -30 -11 -47t-29 -17t-29 17t-11 47l-15 567q-1 33 12.5 52z" />
    <glyph glyph-name="uni042C" unicode="&#x42c;" horiz-adv-x="633" 
d="M532 303.5q57 -54.5 57 -152.5q0 -59 -26.5 -105t-76.5 -72t-117 -26h-240q-20 0 -31.5 13t-12.5 37l-15 585q-1 24 15.5 40.5t38.5 16.5t37.5 -16.5t14.5 -40.5l-5 -225h163q141 0 198 -54.5zM170 16q5 -5 22 -5h147q77 0 119.5 38.5t42.5 104.5q0 62 -42.5 98
t-118.5 36h-170l-5 -251q0 -16 5 -21z" />
    <glyph glyph-name="uni042D" unicode="&#x42d;" horiz-adv-x="633" 
d="M427 599.5q75 -40.5 115.5 -116t40.5 -177.5q0 -107 -40.5 -190.5t-113 -130.5t-163.5 -47q-64 0 -118.5 18t-86.5 49t-32 67q0 20 13.5 33.5t32.5 13.5q23 0 37 -20q57 -86 157 -86q54 0 100 31t75.5 86.5t37.5 125.5h-323q-16 0 -27 10t-11 26t11 26.5t27 10.5h325
q-4 70 -32 123.5t-75 83t-108 29.5q-90 0 -155 -71q-13 -15 -32 -15q-20 0 -33.5 13.5t-13.5 32.5q0 30 30 56.5t80 42.5t105 16q102 0 177 -40.5z" />
    <glyph glyph-name="uni042E" unicode="&#x42e;" horiz-adv-x="900" 
d="M716 597.5q64 -42.5 99 -118t35 -169.5q0 -103 -36.5 -188.5t-100.5 -134.5t-144 -49q-77 0 -139 45.5t-99.5 124.5t-41.5 176h-119l-5 -282q-1 -30 -11 -47t-29 -17t-29 17t-11 47l-15 567q-1 33 12.5 52t40.5 19t40 -19t12 -52l-4 -212h119q8 83 45 147t97.5 100
t136.5 36q83 0 147 -42.5zM410 162q24 -68 66 -108.5t93 -40.5t93 40.5t66 108.5t24 148q0 71 -23 129t-65 92t-95 34t-95 -34t-65 -92t-23 -129q0 -80 24 -148z" />
    <glyph glyph-name="uni042F" unicode="&#x42f;" horiz-adv-x="642" 
d="M559.5 615.5q13.5 -14.5 12.5 -40.5l-15 -580q-1 -24 -11.5 -40.5t-27.5 -16.5q-18 0 -29 16.5t-12 40.5l-4 227h-135l-205 -245q-20 -24 -31 -31.5t-24 -7.5q-11 0 -19.5 8.5t-8.5 20.5t5.5 24t23.5 35l159 206q-77 21 -121 76t-44 132q0 91 60.5 140.5t175.5 49.5h214
q23 0 36.5 -14.5zM214.5 326.5q43.5 -38.5 124.5 -38.5h133l-4 248q0 16 -5 21t-22 5h-109q-80 0 -120.5 -32t-40.5 -94q0 -71 43.5 -109.5z" />
    <glyph glyph-name="uni0430" unicode="&#x430;" horiz-adv-x="521" 
d="M449 361q13 -19 12 -52l-10 -307q-1 -30 -11 -47t-29 -17q-35 0 -40 58q-23 -26 -61 -42t-79 -16q-53 0 -96.5 27.5t-69 75t-25.5 105.5q0 64 28 117.5t77 85t108 31.5q34 0 62 -9t46 -24q12 33 48 33q27 0 40 -19zM168.5 46q33.5 -36 92.5 -36q31 0 60 13.5t47 36.5
l-11 228q-37 21 -84 21q-65 0 -101.5 -43.5t-36.5 -119.5q0 -64 33.5 -100z" />
    <glyph glyph-name="uni0431" unicode="&#x431;" horiz-adv-x="512" 
d="M365.5 351q49.5 -29 78 -78.5t28.5 -110.5q0 -63 -28.5 -114t-78 -80.5t-109.5 -29.5t-109.5 29.5t-78 80.5t-28.5 114q0 193 43.5 295.5t137.5 134.5q37 12 97 22q57 9 83 19q17 7 30 7q20 0 29 -21q3 -7 3 -15q0 -20 -32 -37q-24 -13 -50.5 -19.5t-63.5 -12.5
q-54 -8 -77 -17q-40 -16 -63.5 -56t-34.5 -113q51 31 114 31q60 0 109.5 -29zM168.5 51.5q33.5 -42.5 87.5 -42.5t87.5 42.5t33.5 110.5q0 65 -33.5 106t-87.5 41t-87.5 -41t-33.5 -106q0 -68 33.5 -110.5z" />
    <glyph glyph-name="uni0432" unicode="&#x432;" horiz-adv-x="431" 
d="M373 140q14 -26 14 -61q0 -59 -38.5 -95t-101.5 -36h-139q-18 0 -28.5 11.5t-10.5 30.5l-9 334q-1 21 10.5 33.5t30.5 12.5h126q70 0 107.5 -27.5t37.5 -78.5q0 -26 -10.5 -48t-28.5 -36q26 -14 40 -40zM229 10q39 0 60 18.5t21 52.5q0 31 -21 48t-59 17h-86l-2 -136h87z
M226 209q64 0 64 49q0 22 -16.5 32.5t-50.5 10.5h-78l-1 -92h82z" />
    <glyph glyph-name="uni0433" unicode="&#x433;" horiz-adv-x="368" 
d="M72 355.5q13 14.5 37 14.5h195q14 0 24 -10.5t10 -26.5t-9.5 -26t-24.5 -10h-113q-16 0 -21 -4.5t-6 -21.5l-9 -269q-1 -30 -11 -47t-29 -17q-37 0 -40 64l-15 313q-1 26 12 40.5z" />
    <glyph glyph-name="uni0434" unicode="&#x434;" horiz-adv-x="495" 
d="M485 -18v-51q0 -22 -12.5 -35t-32.5 -13q-19 0 -32 11.5t-13 28.5v25h-294v-18q0 -21 -13 -34.5t-33 -13.5t-32.5 13.5t-12.5 34.5v52q0 43 43 43h20q5 30 5 64q0 22 -1 34l-12 197q-2 22 11 36t35 14h284q22 0 34.5 -13.5t11.5 -36.5l-9 -295h11q42 0 42 -43zM348 25
l-7 270h-175v-172q0 -57 -9 -98h191z" />
    <glyph glyph-name="uni0435" unicode="&#x435;" horiz-adv-x="470" 
d="M421.5 76.5q13.5 -12.5 13.5 -33.5q0 -28 -22 -52t-62.5 -38.5t-94.5 -14.5q-62 0 -111.5 29t-77 80t-27.5 115q0 63 27.5 113t76.5 77.5t112 27.5q51 0 93 -20t66.5 -54.5t24.5 -76.5q0 -81 -79 -81h-225q4 -61 36.5 -99.5t83.5 -38.5q66 0 92 56q4 10 16 16.5t24 6.5
q20 0 33.5 -12.5zM319 214q20 0 26.5 5t6.5 20q0 31 -26 52t-66 21q-48 0 -78.5 -25.5t-41.5 -72.5h179z" />
    <glyph glyph-name="uni0436" unicode="&#x436;" horiz-adv-x="667" 
d="M640.5 -7.5q6.5 -12.5 6.5 -24.5t-8.5 -21t-21.5 -9q-12 0 -22 6.5t-30 30.5l-159 189l-28 -18l-7 -144q-3 -64 -40 -64q-19 0 -29 17t-11 47l-5 146l-25 16l-159 -189q-20 -24 -30 -30.5t-22 -6.5q-13 0 -21.5 9t-8.5 21t6.5 24.5t25.5 36.5l138 179l-129 81
q-22 13 -31.5 24.5t-9.5 25.5q0 18 11 29.5t29 11.5q13 0 25.5 -7t41.5 -30l157 -126l-3 92q-1 33 12 52t40 19q28 0 41.5 -19t11.5 -52l-5 -93l159 127q29 23 41.5 30t25.5 7q18 0 29 -11.5t11 -29.5q0 -14 -9.5 -25.5t-31.5 -24.5l-129 -81l138 -179q19 -24 25.5 -36.5z
" />
    <glyph glyph-name="uni0437" unicode="&#x437;" horiz-adv-x="372" 
d="M103 -48q-33 14 -53 37.5t-20 50.5q0 18 11.5 29t28.5 11q25 0 34 -22q14 -31 30.5 -42.5t44.5 -11.5q61 0 61 59q0 31 -25.5 48t-80.5 24q-11 1 -18 9.5t-7 21.5q0 12 7 21.5t17 9.5q46 0 69 18.5t23 50.5q0 22 -12 34.5t-34 12.5t-36.5 -11t-28.5 -39q-5 -10 -14 -16.5
t-20 -6.5q-16 0 -27 11.5t-11 28.5q0 27 18.5 50t50 36.5t69.5 13.5q58 0 94.5 -31.5t36.5 -81.5q0 -27 -15 -53.5t-39 -43.5q28 -14 46.5 -42.5t18.5 -60.5q0 -59 -41 -94t-108 -35q-37 0 -70 14z" />
    <glyph glyph-name="uni0438" unicode="&#x438;" horiz-adv-x="473" 
d="M401 367.5q13 -12.5 12 -33.5l-8 -351q-1 -20 -10.5 -32.5t-25.5 -12.5q-15 0 -25 12.5t-11 31.5l-7 250l-172 -270q-7 -12 -20 -18t-26 -6q-19 0 -30.5 12.5t-11.5 32.5l-6 351q0 19 12.5 32.5t31.5 13.5t31 -13t12 -33l-5 -259l173 276q17 29 50 29q23 0 36 -12.5z" />
    <glyph glyph-name="uni0439" unicode="&#x439;" horiz-adv-x="473" 
d="M115 505q-47 47 -47 125h100q0 -40 19.5 -66t50.5 -26t50.5 26t19.5 66h100q0 -78 -47 -125t-123 -47t-123 47zM72.5 366.5q12.5 13.5 31.5 13.5t31 -13t12 -33l-5 -259l173 276q17 29 50 29q23 0 36 -12.5t12 -33.5l-8 -351q-1 -20 -10.5 -32.5t-25.5 -12.5
q-15 0 -25 12.5t-11 31.5l-7 250l-172 -270q-7 -12 -20 -18t-26 -6q-19 0 -30.5 12.5t-11.5 32.5l-6 351q0 19 12.5 32.5z" />
    <glyph glyph-name="uni043A" unicode="&#x43a;" horiz-adv-x="446" 
d="M419.5 -7.5q6.5 -12.5 6.5 -24.5t-8.5 -21t-21.5 -9q-12 0 -22 6.5t-30 30.5l-159 189l-28 -18l-7 -144q-3 -64 -40 -64q-19 0 -29 17t-11 47l-10 307q-1 33 12 52t40 19q28 0 41.5 -19t11.5 -52l-5 -93l159 127q29 23 41.5 30t25.5 7q18 0 29 -11.5t11 -29.5
q0 -14 -9.5 -25.5t-31.5 -24.5l-129 -81l138 -179q19 -24 25.5 -36.5z" />
    <glyph glyph-name="uni043B" unicode="&#x43b;" horiz-adv-x="505" 
d="M60 31q21 14 29.5 45t5.5 87l-7 138q-2 31 16 50t49 19h237q26 0 41.5 -19t13.5 -50l-13 -303q-2 -27 -11.5 -43.5t-25.5 -16.5t-26.5 17t-11.5 43l-12 281q-2 19 -19 19h-119q-19 0 -21 -19l-11 -165q-4 -57 -19.5 -96.5t-36 -59.5t-39.5 -20t-32.5 14t-13.5 33
q0 27 26 46z" />
    <glyph glyph-name="uni043C" unicode="&#x43c;" horiz-adv-x="650" 
d="M80 362.5q21 17.5 55 17.5q30 0 47.5 -12.5t30.5 -44.5l97 -248q5 -12 11 -12q7 0 11 12l96 248q22 57 85 57q34 0 56 -18t21 -45l-16 -318q-3 -61 -40 -61q-36 0 -38 61l-5 205q0 10 -7 10q-6 0 -10 -9l-112 -236q-7 -15 -17.5 -23t-23.5 -8q-14 0 -25 8t-17 23
l-102 227q-4 9 -10 9q-7 0 -7 -10l-5 -196q-2 -61 -38 -61q-38 0 -41 61l-16 318q-1 28 20 45.5z" />
    <glyph glyph-name="uni043D" unicode="&#x43d;" horiz-adv-x="492" 
d="M420 361q13 -19 12 -52l-10 -307q-1 -30 -11 -47t-29 -17q-37 0 -40 64l-6 122h-177l-4 -122q-1 -30 -11 -47t-29 -17q-37 0 -40 64l-15 307q-2 33 11.5 52t41.5 19q27 0 40 -19t12 -52l-4 -112h171l-5 112q-2 33 11.5 52t41.5 19q27 0 40 -19z" />
    <glyph glyph-name="uni043E" unicode="&#x43e;" horiz-adv-x="512" 
d="M146.5 -32.5q-49.5 29.5 -78 80.5t-28.5 114q0 61 28.5 110.5t78 78.5t109.5 29t109.5 -29t78 -78.5t28.5 -110.5q0 -63 -28.5 -114t-78 -80.5t-109.5 -29.5t-109.5 29.5zM168.5 51.5q33.5 -42.5 87.5 -42.5t87.5 42.5t33.5 110.5q0 65 -33.5 106t-87.5 41t-87.5 -41
t-33.5 -106q0 -68 33.5 -110.5z" />
    <glyph glyph-name="uni043F" unicode="&#x43f;" horiz-adv-x="502" 
d="M73.5 353.5q15.5 16.5 42.5 16.5h270q27 0 42.5 -16.5t13.5 -43.5l-16 -310q-1 -30 -10.5 -46t-25.5 -16t-26.5 16.5t-12.5 44.5l-12 279q-1 19 -20 19h-136q-19 0 -20 -19l-12 -279q-2 -28 -12.5 -44.5t-26.5 -16.5t-25.5 16t-10.5 46l-16 310q-2 27 13.5 43.5z" />
    <glyph glyph-name="uni0440" unicode="&#x440;" horiz-adv-x="519" 
d="M384.5 352.5q43.5 -27.5 69 -75t25.5 -105.5q0 -64 -28 -117.5t-77 -85t-108 -31.5q-34 0 -62 9t-46 24l-3 -147q-1 -30 -11 -47t-29 -17t-29 17t-11 47l-15 485q-1 33 12.5 52t40.5 19q42 0 50 -44q24 20 57 32t68 12q53 0 96.5 -27.5zM199 15.5q23 -6.5 47 -6.5
q65 0 101.5 43.5t36.5 119.5q0 64 -33.5 100t-92.5 36q-25 0 -50 -9.5t-44 -26.5l-5 -240q17 -10 40 -16.5z" />
    <glyph glyph-name="uni0441" unicode="&#x441;" horiz-adv-x="471" 
d="M359.5 86.5q12.5 7.5 25.5 7.5q20 0 35 -15.5t15 -35.5q0 -29 -23 -53t-64 -38t-92 -14q-61 0 -110.5 29t-77.5 80.5t-28 114.5t30 112.5t83.5 77.5t122.5 28q43 0 78 -13t55.5 -35t20.5 -47q0 -18 -13.5 -32t-31.5 -14q-24 0 -38 22q-16 25 -37 36t-50 11
q-57 0 -91 -39.5t-34 -106.5q0 -68 33.5 -110t87.5 -42q32 0 52 13.5t34 45.5q5 10 17.5 17.5z" />
    <glyph glyph-name="uni0442" unicode="&#x442;" horiz-adv-x="463" 
d="M429 359.5q10 -10.5 10 -24.5q0 -15 -10 -25t-24 -10h-119l-12 -307q-1 -25 -12.5 -40t-29.5 -15q-17 0 -27 14.5t-12 40.5l-15 307h-116q-16 0 -27 10.5t-11 24.5t11 24.5t27 10.5h343q14 0 24 -10.5z" />
    <glyph glyph-name="uni0443" unicode="&#x443;" horiz-adv-x="451" 
d="M411 367.5q14 -12.5 14 -31.5q0 -25 -18 -69l-119 -277q-55 -128 -95 -179t-77 -51q-16 0 -28 12.5t-12 29.5q0 20 19 34q12 7 39 36.5t50 65.5l-140 329q-18 42 -18 69q0 19 14 31.5t35 12.5q17 0 29.5 -10t18.5 -28l106 -298l99 298q6 18 18.5 28t29.5 10
q21 0 35 -12.5z" />
    <glyph glyph-name="uni0444" unicode="&#x444;" horiz-adv-x="512" 
d="M423.5 14.5q-48.5 -58.5 -124.5 -72.5l-1 -80q-1 -30 -11 -47t-29 -17t-29 17t-11 47l-2 79q-77 14 -126.5 72.5t-49.5 138.5q0 74 46 130t119 72l-2 75q-1 33 12.5 52t40.5 19t40 -19t12 -52l-1 -74q73 -17 119 -73t46 -130q0 -79 -48.5 -137.5zM156.5 66.5
q21.5 -36.5 57.5 -50.5l-7 263q-33 -14 -52.5 -48t-19.5 -79q0 -49 21.5 -85.5zM356.5 67.5q20.5 35.5 20.5 84.5q0 45 -19.5 78.5t-52.5 48.5l-4 -261q35 14 55.5 49.5z" />
    <glyph glyph-name="uni0445" unicode="&#x445;" horiz-adv-x="473" 
d="M447 -31q0 -11 -9.5 -21t-20.5 -10q-10 0 -18.5 5t-22.5 20l-139 149l-140 -149q-14 -15 -22.5 -20t-18.5 -5q-11 0 -20.5 10t-9.5 21q0 12 9 23l147 178l-104 111q-17 18 -23.5 30.5t-6.5 25.5q0 17 12.5 30t29.5 13q15 0 29 -9.5t33 -32.5l85 -102l84 102
q19 23 33 32.5t29 9.5q17 0 29.5 -13t12.5 -30q0 -13 -6.5 -25.5t-23.5 -30.5l-104 -111l147 -178q9 -11 9 -23z" />
    <glyph glyph-name="uni0446" unicode="&#x446;" horiz-adv-x="600" 
d="M466.5 361q13.5 -19 12.5 -52l-15 -485q-1 -30 -11 -47t-29 -17t-29 17t-11 47l-3 124h-254q-20 0 -32.5 13t-13.5 34l-12 328q-1 24 13 40.5t38 16.5t38.5 -16.5t13.5 -39.5l-11 -276q-1 -16 4.5 -22t21.5 -6h193l-6 289q-1 33 12 52t40 19t40.5 -19z" />
    <glyph glyph-name="uni0447" unicode="&#x447;" horiz-adv-x="519" 
d="M447.5 361q13.5 -19 11.5 -52l-15 -307q-3 -64 -40 -64q-19 0 -29 17t-11 47l-4 108q-22 -32 -61.5 -52t-81.5 -20q-69 0 -111 47t-48 126l-8 98q-2 32 11 51.5t41 19.5t41.5 -19t11.5 -52l-5 -100q-3 -55 19.5 -76.5t73.5 -21.5q35 0 66.5 19t48.5 50l-4 129
q-1 33 12 52t40 19q28 0 41.5 -19z" />
    <glyph glyph-name="uni0448" unicode="&#x448;" horiz-adv-x="779" 
d="M74 364q15 16 37 16q23 0 38 -16t14 -36l-11 -270q-1 -23 6.5 -30.5t29.5 -7.5h119q23 0 30.5 8t6.5 30l-6 266q-1 27 13 41.5t38 14.5t38 -14.5t13 -41.5l-8 -266q-1 -22 6.5 -30t30.5 -8h122q22 0 29.5 7.5t6.5 30.5l-11 270q-1 20 14 36t38 16q22 0 37 -16t14 -37
l-12 -332q-1 -21 -13.5 -34t-32.5 -13h-543q-20 0 -32.5 13t-13.5 34l-12 332q-1 21 14 37z" />
    <glyph glyph-name="uni0449" unicode="&#x449;" horiz-adv-x="821" 
d="M779.5 6.5q13.5 -14.5 11.5 -40.5l-12 -151q-5 -55 -39 -55q-17 0 -28 14.5t-14 40.5l-12 107q-2 17 -6.5 21.5t-20.5 4.5h-541q-20 0 -32.5 13t-13.5 34l-12 332q-1 21 14 37t37 16q23 0 38 -16t14 -36l-11 -270q-1 -23 6.5 -30.5t29.5 -7.5h119q23 0 30.5 8t6.5 30
l-6 266q-1 27 13 41.5t38 14.5t38 -14.5t13 -41.5l-8 -266q-1 -22 6.5 -30t30.5 -8h122v1h15q13 2 17.5 10.5t3.5 26.5l-11 270q-1 20 14 36t38 16q22 0 37 -16t14 -37l-11 -306h34q24 0 37.5 -14.5z" />
    <glyph glyph-name="uni044A" unicode="&#x44a;" horiz-adv-x="487" 
d="M407.5 195.5q39.5 -39.5 39.5 -102.5q0 -68 -41 -106.5t-109 -38.5h-134q-18 0 -28 11.5t-11 30.5l-12 281q-1 17 -6 21.5t-21 4.5h-33q-15 0 -24.5 10t-9.5 26t10 26.5t24 10.5h113q23 0 36.5 -14.5t12.5 -40.5l-2 -80h84q72 0 111.5 -39.5zM279 10q44 0 67.5 20
t23.5 59q0 36 -24 56.5t-66 20.5h-69l-4 -156h72z" />
    <glyph glyph-name="uni044B" unicode="&#x44b;" horiz-adv-x="615" 
d="M357.5 195.5q39.5 -39.5 39.5 -102.5q0 -68 -41 -106.5t-109 -38.5h-134q-18 0 -28 11.5t-11 30.5l-14 334v4q0 25 13.5 38.5t37.5 13.5t38 -14.5t13 -41.5l-1 -89h85q72 0 111.5 -39.5zM229 10q44 0 67.5 20t23.5 59q0 36 -24 56.5t-66 20.5h-71l-2 -156h72zM461.5 361
q13.5 19 41.5 19q27 0 40 -19t12 -52l-10 -307q-1 -30 -11 -47t-29 -17q-37 0 -40 64l-15 307q-2 33 11.5 52z" />
    <glyph glyph-name="uni044C" unicode="&#x44c;" horiz-adv-x="437" 
d="M357.5 195.5q39.5 -39.5 39.5 -102.5q0 -68 -41 -106.5t-109 -38.5h-134q-18 0 -28 11.5t-11 30.5l-14 334v4q0 25 13.5 38.5t37.5 13.5t38 -14.5t13 -41.5l-1 -89h85q72 0 111.5 -39.5zM229 10q44 0 67.5 20t23.5 59q0 36 -24 56.5t-66 20.5h-71l-2 -156h72z" />
    <glyph glyph-name="uni044D" unicode="&#x44d;" horiz-adv-x="471" 
d="M317.5 352q53.5 -28 83.5 -77.5t30 -112.5t-28 -114.5t-77.5 -80.5t-110.5 -29q-51 0 -92 14t-64 38t-23 53q0 20 15 35.5t35 15.5q13 0 25.5 -7.5t17.5 -17.5q14 -32 34 -45.5t52 -13.5q47 0 79 33t40 87h-174q-16 0 -27 10t-11 26t11 26.5t27 10.5h172
q-10 50 -41.5 77.5t-79.5 27.5q-29 0 -50 -11t-37 -36q-14 -22 -38 -22q-18 0 -31.5 14t-13.5 32q0 25 20.5 47t55.5 35t78 13q69 0 122.5 -28z" />
    <glyph glyph-name="uni044E" unicode="&#x44e;" horiz-adv-x="712" 
d="M565.5 351q49.5 -29 78 -78.5t28.5 -110.5q0 -63 -28.5 -114t-78 -80.5t-109.5 -29.5q-54 0 -99.5 24t-75.5 66t-38 96h-84l-4 -122q-1 -30 -11 -47t-29 -17q-37 0 -40 64l-15 307q-2 33 11.5 52t41.5 19q27 0 40 -19t12 -52l-4 -112h82q8 53 37.5 94.5t75.5 65t100 23.5
q60 0 109.5 -29zM368.5 51.5q33.5 -42.5 87.5 -42.5t87.5 42.5t33.5 110.5q0 65 -33.5 106t-87.5 41t-87.5 -41t-33.5 -106q0 -68 33.5 -110.5z" />
    <glyph glyph-name="uni044F" unicode="&#x44f;" horiz-adv-x="433" 
d="M362 357q12 -13 11 -34l-8 -337q-1 -20 -12 -34t-27 -14q-17 0 -28 13.5t-11 33.5l-2 118h-56l-114 -137q-13 -15 -22.5 -21.5t-21.5 -6.5q-13 0 -22 9.5t-9 22.5q0 10 4 19.5t15 23.5l80 104q-40 17 -63 50.5t-23 77.5q0 60 40 92.5t112 32.5h125q20 0 32 -13z
M161.5 190q20.5 -18 60.5 -18h62l-2 128h-63q-40 0 -59 -14.5t-19 -43.5q0 -34 20.5 -52z" />
    <glyph glyph-name="uni0451" unicode="&#x451;" horiz-adv-x="470" 
d="M98 468.5q-17 16.5 -17 43.5q0 28 17 44.5t44 16.5t44 -16.5t17 -44.5q0 -27 -17 -43.5t-44 -16.5t-44 16.5zM67.5 275q27.5 50 76.5 77.5t112 27.5q51 0 93 -20t66.5 -54.5t24.5 -76.5q0 -81 -79 -81h-225q4 -61 36.5 -99.5t83.5 -38.5q66 0 92 56q4 10 16 16.5t24 6.5
q20 0 33.5 -12.5t13.5 -33.5q0 -28 -22 -52t-62.5 -38.5t-94.5 -14.5q-62 0 -111.5 29t-77 80t-27.5 115q0 63 27.5 113zM319 214q20 0 26.5 5t6.5 20q0 31 -26 52t-66 21q-48 0 -78.5 -25.5t-41.5 -72.5h179zM298 556.5q17 16.5 44 16.5t44 -16.5t17 -44.5q0 -27 -17 -43.5
t-44 -16.5t-44 16.5t-17 43.5q0 28 17 44.5z" />
    <glyph glyph-name="uni2010" unicode="&#x2010;" horiz-adv-x="900" 
d="M850 302q0 -40 -50 -40h-700q-50 0 -50 40t50 40h700q50 0 50 -40z" />
    <glyph glyph-name="emdash" unicode="&#x2014;" horiz-adv-x="900" 
d="M850 302q0 -40 -50 -40h-700q-50 0 -50 40t50 40h700q50 0 50 -40z" />
    <glyph glyph-name="uni2015" unicode="&#x2015;" horiz-adv-x="900" 
d="M850 302q0 -40 -50 -40h-700q-50 0 -50 40t50 40h700q50 0 50 -40z" />
    <glyph glyph-name="uni2016" unicode="&#x2016;" horiz-adv-x="500" 
d="M186 -98.5q-14 -14.5 -36 -14.5t-36 14.5t-14 36.5v688q0 22 14 36.5t36 14.5t36 -14.5t14 -36.5v-688q0 -22 -14 -36.5zM300 626q0 22 14 36.5t36 14.5t36 -14.5t14 -36.5v-688q0 -22 -14 -36.5t-36 -14.5t-36 14.5t-14 36.5v688z" />
    <glyph glyph-name="quoteleft" unicode="&#x2018;" horiz-adv-x="262" 
d="M167.5 647q-8.5 -17 -8.5 -30q26 -5 39.5 -21.5t13.5 -42.5q0 -30 -18 -47.5t-48 -17.5t-48 20.5t-18 56.5q0 42 13.5 80.5t34.5 62.5t42 24q22 0 32 -21q2 -4 2 -9q0 -17 -13 -27q-15 -11 -23.5 -28z" />
    <glyph glyph-name="quoteright" unicode="&#x2019;" horiz-adv-x="262" 
d="M94.5 563q8.5 17 8.5 30q-26 5 -39.5 21.5t-13.5 42.5q0 30 18 47.5t48 17.5t48 -20.5t18 -56.5q0 -42 -13.5 -80.5t-34.5 -62.5t-42 -24q-22 0 -32 21q-2 4 -2 9q0 17 13 27q15 11 23.5 28z" />
    <glyph glyph-name="quotedblleft" unicode="&#x201c;" horiz-adv-x="442" 
d="M167.5 647q-8.5 -17 -8.5 -30q26 -5 39.5 -21.5t13.5 -42.5q0 -30 -18 -47.5t-48 -17.5t-48 20.5t-18 56.5q0 42 13.5 80.5t34.5 62.5t42 24q22 0 32 -21q2 -4 2 -9q0 -17 -13 -27q-15 -11 -23.5 -28zM273.5 645.5q13.5 38.5 34.5 62.5t42 24q22 0 32 -21q2 -4 2 -9
q0 -17 -13 -27q-15 -11 -23.5 -28t-8.5 -30q26 -5 39.5 -21.5t13.5 -42.5q0 -30 -18 -47.5t-48 -17.5t-48 20.5t-18 56.5q0 42 13.5 80.5z" />
    <glyph glyph-name="quotedblright" unicode="&#x201d;" horiz-adv-x="442" 
d="M94.5 563q8.5 17 8.5 30q-26 5 -39.5 21.5t-13.5 42.5q0 30 18 47.5t48 17.5t48 -20.5t18 -56.5q0 -42 -13.5 -80.5t-34.5 -62.5t-42 -24q-22 0 -32 21q-2 4 -2 9q0 17 13 27q15 11 23.5 28zM248 704.5q18 17.5 48 17.5t48 -20.5t18 -56.5q0 -42 -13.5 -80.5t-34.5 -62.5
t-42 -24q-22 0 -32 21q-2 4 -2 9q0 17 13 27q15 11 23.5 28t8.5 30q-26 5 -39.5 21.5t-13.5 42.5q0 30 18 47.5z" />
    <glyph glyph-name="dagger" unicode="&#x2020;" horiz-adv-x="400" 
d="M355.5 618q14.5 -12 14.5 -29q0 -18 -14.5 -30t-36.5 -12h-68v-199q0 -23 -15 -37t-40 -14t-40 14t-15 37v199h-60q-22 0 -36.5 12t-14.5 30q0 17 14.5 29t36.5 12h60v85q0 23 15 37t40 14t40 -14t15 -37v-85h68q22 0 36.5 -12z" />
    <glyph glyph-name="daggerdbl" unicode="&#x2021;" horiz-adv-x="400" 
d="M355.5 474q14.5 -12 14.5 -29q0 -18 -14.5 -30t-36.5 -12h-68v-55q0 -23 -15 -37t-40 -14t-40 14t-15 37v55h-60q-22 0 -36.5 12t-14.5 30q0 17 14.5 29t36.5 12h60v91h-60q-22 0 -36.5 12t-14.5 30q0 17 14.5 29t36.5 12h60v55q0 23 15 37t40 14t40 -14t15 -37v-55h68
q22 0 36.5 -12t14.5 -29q0 -18 -14.5 -30t-36.5 -12h-68v-91h68q22 0 36.5 -12z" />
    <glyph glyph-name="twodotenleader" unicode="&#x2025;" horiz-adv-x="482" 
d="M68 254q-18 18 -18 48t18 48.5t48 18.5t48 -18.5t18 -48.5t-18 -48t-48 -18t-48 18zM318 350.5q18 18.5 48 18.5t48 -18.5t18 -48.5t-18 -48t-48 -18t-48 18t-18 48t18 48.5z" />
    <glyph glyph-name="ellipsis" unicode="&#x2026;" horiz-adv-x="732" 
d="M68 254q-18 18 -18 48t18 48.5t48 18.5t48 -18.5t18 -48.5t-18 -48t-48 -18t-48 18zM318 350.5q18 18.5 48 18.5t48 -18.5t18 -48.5t-18 -48t-48 -18t-48 18t-18 48t18 48.5zM568 350.5q18 18.5 48 18.5t48 -18.5t18 -48.5t-18 -48t-48 -18t-48 18t-18 48t18 48.5z" />
    <glyph glyph-name="perthousand" unicode="&#x2030;" horiz-adv-x="900" 
d="M257 368q-35 -46 -95 -46q-59 0 -94.5 46t-35.5 124q0 71 35 112t95 41t95 -41t35 -112q0 -78 -35 -124zM474 624q12 16 29 16q16 0 24.5 -10t8.5 -26q0 -26 -19 -54l-403 -596q-10 -16 -28 -16q-16 0 -24.5 10t-8.5 26q0 26 19 54zM121 414q14 -27 41 -27t41.5 27
t14.5 78q0 43 -14.5 65.5t-41.5 22.5q-26 0 -40.5 -23t-14.5 -65q0 -51 14 -78zM338 215q35 41 96 41q60 0 95 -41t35 -112q0 -78 -35.5 -124t-94.5 -46q-60 0 -95.5 46t-35.5 124q0 71 35 112zM392.5 25q14.5 -27 41.5 -27t41.5 27t14.5 78q0 43 -14.5 65.5t-41.5 22.5
q-26 0 -41 -23t-15 -65q0 -51 14.5 -78zM643 215q35 41 95 41q61 0 95.5 -41t34.5 -112q0 -78 -35 -124t-95 -46q-59 0 -94.5 46t-35.5 124q0 71 35 112zM697 25q14 -27 41 -27t42 27t15 78q0 42 -15 65t-42 23q-26 0 -40.5 -23t-14.5 -65q0 -51 14 -78z" />
    <glyph glyph-name="minute" unicode="&#x2032;" horiz-adv-x="364" 
d="M182 784q14 11 33 11q18 0 28.5 -14.5t10.5 -36.5q0 -19 -7 -37l-72 -190q-5 -15 -14 -23.5t-19 -8.5q-32 0 -32 37q0 17 6 39l48 195q4 17 18 28z" />
    <glyph glyph-name="second" unicode="&#x2033;" horiz-adv-x="534" 
d="M182.5 784q13.5 11 32.5 11q18 0 28.5 -14.5t10.5 -36.5q0 -19 -7 -37l-72 -190q-13 -32 -33 -32q-32 0 -32 37q0 17 6 39l48 195q5 17 18.5 28zM334 756q4 17 18 28t33 11q18 0 28.5 -14.5t10.5 -36.5q0 -19 -7 -37l-72 -190q-5 -15 -14 -23.5t-19 -8.5q-32 0 -32 37
q0 17 6 39z" />
    <glyph glyph-name="uni203B" unicode="&#x203b;" horiz-adv-x="800" 
d="M351 557q-18 18 -18 47q0 30 18 48t48 18t48 -18t18 -48q0 -29 -18 -47t-48 -18t-48 18zM92 393q18 18 47 18q30 0 48 -18t18 -48t-18 -48t-48 -18q-29 0 -47 18t-18 48t18 48zM105 62q0 16 19 36l227 246l-227 246q-19 20 -19 37q0 13 12 22q11 8 22 8q19 0 40 -22
l220 -239l220 239q21 22 40 22q12 0 23 -8q12 -9 12 -22q0 -17 -19 -37l-227 -246l226 -246q20 -22 20 -37q0 -12 -12 -21t-24 -9q-20 0 -39 22l-220 238l-220 -238q-19 -22 -38 -22q-12 0 -24 9t-12 22zM351 132q18 18 48 18t48 -18t18 -48q0 -29 -18 -47t-48 -18t-48 18
t-18 47q0 30 18 48zM612 393q18 18 47 18q30 0 48 -18t18 -48t-18 -48t-48 -18q-29 0 -47 18t-18 48t18 48z" />
    <glyph glyph-name="uni2074" unicode="&#x2074;" horiz-adv-x="397" 
d="M383 333.5q6 -5.5 6 -15.5t-6.5 -17t-16.5 -7h-65l-2 -85q0 -16 -8 -26.5t-20 -10.5q-11 0 -18 9.5t-8 27.5l-1 85h-203q-11 0 -18.5 7.5t-7.5 19.5t8 23l192 273q16 23 48 23q19 0 31.5 -13t12.5 -32l-5 -256h64q11 0 17 -5.5zM243 339l-4 214l-164 -214h168z" />
    <glyph glyph-name="uni207F" unicode="&#x207f;" horiz-adv-x="376" 
d="M298 604.5q29 -35.5 28 -92.5l-3 -124q-2 -42 -25 -42q-13 0 -19.5 11.5t-6.5 31.5l-5 124q-2 38 -17.5 58.5t-45.5 20.5q-22 0 -42.5 -12t-32.5 -31l-5 -161q-1 -19 -8 -30.5t-19 -11.5q-24 0 -27 42l-10 205q-1 22 8 34.5t28 12.5q34 0 34 -42q16 19 40.5 30.5
t51.5 11.5q47 0 76 -35.5z" />
    <glyph glyph-name="uni2081" unicode="&#x2081;" horiz-adv-x="370" 
d="M183 409.5q12 5.5 25 5.5q16 0 26 -10.5t10 -27.5l-9 -393q-1 -17 -8.5 -27t-19.5 -10q-11 0 -18 9.5t-8 27.5l-9 336l-52 -42q-13 -12 -27 -12q-11 0 -19 8.5t-8 19.5q0 14 8 20l83 76q14 14 26 19.5z" />
    <glyph glyph-name="uni2082" unicode="&#x2082;" horiz-adv-x="404" 
d="M65 12l136 134q41 39 59.5 73.5t18.5 70.5q0 35 -17.5 54.5t-48.5 19.5q-62 0 -95 -86q-3 -8 -11 -13.5t-18 -5.5q-14 0 -23 9.5t-9 24.5q0 31 19 58t53 43t76 16q63 0 102 -31.5t39 -85.5q0 -45 -24 -84.5t-78 -90.5l-119 -112q-3 -3 -3 -6q0 -6 9 -6h220q10 0 16 -6
t6 -16t-6.5 -17t-15.5 -7h-271q-13 0 -21.5 8.5t-8.5 20.5q0 20 15 35z" />
    <glyph glyph-name="uni2083" unicode="&#x2083;" horiz-adv-x="384" 
d="M55 -8.5q19 -23.5 52.5 -38.5t74.5 -15q68 0 110 35t42 96q0 45 -30 77t-70 36q36 10 62 41.5t26 71.5q0 49 -37 80t-96 31q-41 0 -73 -14t-49.5 -36.5t-17.5 -46.5q0 -13 8 -21.5t20 -8.5q8 0 14.5 4.5t10.5 11.5q18 36 37.5 51t48.5 15q31 0 49.5 -18.5t18.5 -50.5
q0 -79 -116 -93q-16 -2 -16 -19q0 -9 4.5 -14.5t11.5 -6.5q132 -9 132 -95q0 -39 -22.5 -60.5t-61.5 -21.5q-36 0 -58.5 17.5t-38.5 54.5q-7 15 -25 15q-13 0 -21.5 -8t-8.5 -22q0 -24 19 -47.5z" />
    <glyph glyph-name="uni2084" unicode="&#x2084;" horiz-adv-x="397" 
d="M383 99.5q6 -5.5 6 -15.5t-6.5 -17t-16.5 -7h-65l-2 -85q0 -16 -8 -26.5t-20 -10.5q-11 0 -18 9.5t-8 27.5l-1 85h-203q-11 0 -18.5 7.5t-7.5 19.5t8 23l192 273q16 23 48 23q19 0 31.5 -13t12.5 -32l-5 -256h64q11 0 17 -5.5zM243 105l-4 214l-164 -214h168z" />
    <glyph glyph-name="uniFFE6" unicode="&#x20a9;" horiz-adv-x="900" 
d="M870 252h-101l-63 -254q-7 -30 -26.5 -45t-46.5 -15q-29 0 -49.5 15t-26.5 45l-53 254h-109l-54 -254q-7 -30 -27 -45t-47 -15q-61 0 -75 60l-61 254h-101v80h82l-47 193q-12 48 -12 71q0 18 14 31t33 13q18 0 30.5 -11t16.5 -29l52 -268h133l55 255q6 26 22.5 39.5
t40.5 13.5q49 0 60 -53l55 -255h133l52 268q8 40 43 40q23 0 38.5 -15t15.5 -37q0 -19 -11 -66l-47 -190h81v-80zM247 85q1 -8 6 -12.5t10 -4.5q6 0 10.5 4.5t5.5 12.5l36 167h-100zM487 332l-27 128q-1 6 -4 9t-6 3q-7 0 -10 -12l-27 -128h74zM619 85q1 -8 6 -12.5t10 -4.5
q6 0 10.5 4.5t5.5 12.5l32 167h-100z" />
    <glyph glyph-name="uniFFE6" unicode="&#xffe6;" horiz-adv-x="900" 
d="M870 252h-101l-63 -254q-7 -30 -26.5 -45t-46.5 -15q-29 0 -49.5 15t-26.5 45l-53 254h-109l-54 -254q-7 -30 -27 -45t-47 -15q-61 0 -75 60l-61 254h-101v80h82l-47 193q-12 48 -12 71q0 18 14 31t33 13q18 0 30.5 -11t16.5 -29l52 -268h133l55 255q6 26 22.5 39.5
t40.5 13.5q49 0 60 -53l55 -255h133l52 268q8 40 43 40q23 0 38.5 -15t15.5 -37q0 -19 -11 -66l-47 -190h81v-80zM247 85q1 -8 6 -12.5t10 -4.5q6 0 10.5 4.5t5.5 12.5l36 167h-100zM487 332l-27 128q-1 6 -4 9t-6 3q-7 0 -10 -12l-27 -128h74zM619 85q1 -8 6 -12.5t10 -4.5
q6 0 10.5 4.5t5.5 12.5l32 167h-100z" />
    <glyph glyph-name="Euro" unicode="&#x20ac;" horiz-adv-x="734" 
d="M680.5 105.5q13.5 -13.5 13.5 -33.5q0 -36 -32 -67t-86.5 -49t-118.5 -18q-104 0 -182.5 60t-112.5 164h-112v80h94q-4 28 -4 64q0 29 3 56h-93v80h112q34 94 114.5 146t196.5 52q55 0 105 -16t80 -42.5t30 -56.5q0 -19 -13.5 -32.5t-33.5 -13.5q-18 0 -32 15
q-65 71 -155 71q-64 0 -113 -32.5t-76 -90.5h245v-80h-268q-4 -24 -4 -56q0 -31 5 -64h267v-80h-246q27 -69 77.5 -109t112.5 -40q100 0 157 86q14 20 37 20q19 0 32.5 -13.5z" />
    <glyph glyph-name="uni2103" unicode="&#x2103;" horiz-adv-x="683" 
d="M46.5 654q-31.5 29 -31.5 71t31.5 71t77.5 29t77.5 -29t31.5 -71t-31.5 -71t-77.5 -29t-77.5 29zM84 683q16 -17 40 -17t40 17t16 42t-16 42t-40 17t-40 -17t-16 -42t16 -42zM140.5 483.5q40.5 75.5 115.5 116t177 40.5q55 0 105 -16t80 -42.5t30 -56.5
q0 -19 -13.5 -32.5t-33.5 -13.5q-18 0 -32 15q-65 71 -155 71q-64 0 -113 -32.5t-76 -91t-27 -135.5q0 -83 28.5 -150t77.5 -105t110 -38q100 0 157 86q14 20 37 20q19 0 32.5 -13.5t13.5 -33.5q0 -36 -32 -67t-86.5 -49t-118.5 -18q-91 0 -163.5 47t-113 130.5t-40.5 190.5
q0 102 40.5 177.5z" />
    <glyph glyph-name="uni2109" unicode="&#x2109;" horiz-adv-x="753" 
d="M201.5 796q31.5 -29 31.5 -71t-31.5 -71t-77.5 -29t-77.5 29t-31.5 71t31.5 71t77.5 29t77.5 -29zM84 683q16 -17 40 -17t40 17t16 42t-16 42t-40 17t-40 -17t-16 -42t16 -42zM242.5 615.5q13.5 14.5 36.5 14.5h399q15 0 24.5 -10t9.5 -24q0 -15 -10 -26.5t-24 -11.5
h-317q-17 0 -22 -5t-5 -21l-4 -220h335q14 0 24 -10t10 -25t-10 -25t-24 -10h-336l-4 -249q-1 -25 -11.5 -40t-29.5 -15q-18 0 -28 14t-11 41l-15 582q-1 26 12.5 40.5z" />
    <glyph glyph-name="uni2113" unicode="&#x2113;" horiz-adv-x="225" 
d="M72.5 621q13.5 19 40.5 19t40 -19t12 -52l-10 -567q-1 -30 -11 -47t-29 -17t-29 17t-11 47l-15 567q-1 33 12.5 52z" />
    <glyph glyph-name="uni2116" unicode="&#x2116;" horiz-adv-x="900" 
d="M427 624q12 -16 12 -41l-6 -590q0 -26 -11 -40.5t-31 -14.5q-16 0 -29 8.5t-19 23.5l-197 472v-4l-6 -445q0 -55 -36 -55q-18 0 -26 14t-9 41l-9 590q-1 28 11.5 42.5t37.5 14.5q34 0 52 -41l197 -482l-6 466q0 26 11.5 41.5t31.5 15.5t32 -16zM490.5 273.5
q19.5 49.5 54 78t77.5 28.5t77 -28.5t53.5 -78t19.5 -111.5q0 -64 -19.5 -115t-53.5 -80t-77 -29t-77.5 29t-54 80t-19.5 115q0 62 19.5 111.5zM573 53q20 -44 49 -44t49 44t20 109q0 62 -20 104.5t-49 42.5t-49 -42.5t-20 -104.5q0 -65 20 -109zM775.5 -27.5
q15.5 18.5 40.5 18.5t40.5 -18.5t15.5 -48.5t-15.5 -48t-40.5 -18t-40.5 18t-15.5 48t15.5 48.5z" />
    <glyph glyph-name="uni2121" unicode="&#x2121;" horiz-adv-x="900" 
d="M826.5 622.5q11.5 -17.5 10.5 -53.5l-7 -567q-1 -32 -9.5 -48t-28.5 -16t-29 16t-9 48l-11 567q-2 71 47 71q25 0 36.5 -17.5zM24.5 620q10.5 10 26.5 10h382q16 0 25 -10t9 -27t-9 -26.5t-25 -9.5h-144l-9 -564q0 -55 -39 -55q-36 0 -38 55l-11 564h-141q-17 0 -27 10
t-10 26q0 17 10.5 27zM397.5 275.5q20.5 49.5 57 77t84.5 27.5q39 0 71 -20t50.5 -54.5t18.5 -76.5q0 -41 -16 -61t-50 -20h-149q3 -60 24.5 -99t50.5 -39q36 0 55 56q3 9 15 16t23 7q20 0 31.5 -12.5t11.5 -33.5q0 -45 -39 -75t-97 -30q-47 0 -84 28.5t-57.5 79.5
t-20.5 116q0 64 20.5 113.5zM584 214q8 0 10.5 4t2.5 21q0 31 -16 52t-39 21q-29 0 -48 -25.5t-27 -72.5h117z" />
    <glyph glyph-name="trademark" unicode="&#x2122;" horiz-adv-x="900" 
d="M825 636q16 -14 15 -36l-8 -347q-1 -19 -9.5 -31.5t-23.5 -12.5t-24 12.5t-9 31.5l-4 235l-91 -252q-5 -14 -13.5 -20.5t-23.5 -6.5q-27 0 -36 27l-90 253l-4 -236q0 -19 -9 -31.5t-24 -12.5t-24 12.5t-10 31.5l-9 347q-1 22 15.5 36t42.5 14q21 0 36.5 -11.5t22.5 -32.5
l87 -285q3 -4 2 -4q1 0 3 4l88 285q14 44 59 44q25 0 41 -14zM33.5 634.5q9.5 9.5 23.5 9.5h316q12 0 21 -9.5t9 -22.5t-8.5 -22t-21.5 -9h-117l-6 -328q0 -19 -10 -31.5t-25 -12.5t-24.5 11.5t-10.5 31.5l-8 329h-115q-14 0 -23.5 9t-9.5 22t9.5 22.5z" />
    <glyph glyph-name="uni2126" unicode="&#x2126;" horiz-adv-x="900" 
d="M154 33h82q-39 37 -69.5 117t-30.5 163q0 99 38 173t109 114t167 40t167 -40t109 -114t38 -173q0 -83 -30.5 -163t-69.5 -117h82q34 0 34 -37q0 -22 -12 -35t-32 -13h-149q-20 0 -32 13t-12 35q0 17 4 26.5t14 16.5q47 34 73 101.5t26 154.5q0 127 -55.5 198.5
t-154.5 71.5t-154.5 -71.5t-55.5 -198.5q0 -87 26 -154.5t73 -101.5q10 -7 14 -16.5t4 -26.5q0 -22 -12 -35t-32 -13h-149q-20 0 -32 13t-12 35q0 37 34 37z" />
    <glyph glyph-name="uni212B" unicode="&#x212b;" horiz-adv-x="655" 
d="M264 700.5q-24 23.5 -24 60.5q0 38 24 61t62 23t62 -23t24 -61q0 -37 -24 -60.5t-62 -23.5t-62 23.5zM269 597q18 43 60 43q39 0 57 -43l243 -593q6 -15 6 -28q0 -18 -10.5 -28t-27.5 -10t-27 9.5t-20 33.5l-64 153h-317l-64 -153q-10 -23 -20.5 -33t-26.5 -10
q-17 0 -27.5 10t-10.5 28q0 13 6 28zM457 204l-129 310l-130 -310h259zM283 717q17 -17 43 -17t43 17t17 44q0 28 -17 45t-43 17t-43 -17t-17 -45q0 -27 17 -44z" />
    <glyph glyph-name="uni2153" unicode="&#x2153;" horiz-adv-x="900" 
d="M186 -127q-17 0 -29 10.5t-12 26.5q0 8 6 19l460 766q21 34 47 34q17 0 29 -10.5t12 -26.5q0 -8 -6 -19l-460 -766q-21 -34 -47 -34zM74 539l83 76q14 14 26 19.5t25 5.5q16 0 26.5 -10.5t9.5 -27.5l-9 -393q-1 -17 -8.5 -27t-19.5 -10q-11 0 -18 9.5t-8 27.5l-9 336
l-52 -42q-13 -12 -27 -12q-11 0 -19 8.5t-8 19.5q0 14 8 20zM555 -8.5q19 -23.5 52.5 -38.5t74.5 -15q68 0 110 35t42 96q0 45 -30 77t-70 36q36 10 62 41.5t26 71.5q0 49 -37 80t-96 31q-41 0 -73 -14t-49.5 -36.5t-17.5 -46.5q0 -13 8 -21.5t20 -8.5q8 0 14.5 4.5
t10.5 11.5q18 36 37.5 51t48.5 15q31 0 49.5 -18.5t18.5 -50.5q0 -79 -116 -93q-16 -2 -16 -19q0 -9 4.5 -14.5t11.5 -6.5q132 -9 132 -95q0 -39 -22.5 -60.5t-61.5 -21.5q-36 0 -58.5 17.5t-38.5 54.5q-7 15 -25 15q-13 0 -21.5 -8t-8.5 -22q0 -24 19 -47.5z" />
    <glyph glyph-name="uni2154" unicode="&#x2154;" horiz-adv-x="900" 
d="M255 -127q-17 0 -29 10.5t-12 26.5q0 8 6 19l460 766q21 34 47 34q17 0 29 -10.5t12 -26.5q0 -8 -6 -19l-460 -766q-21 -34 -47 -34zM49 242l136 134q41 41 59.5 75t18.5 69t-17.5 54.5t-48.5 19.5q-62 0 -95 -86q-3 -8 -11 -13.5t-18 -5.5q-14 0 -23 9.5t-9 24.5
q0 31 19 58t53 43t76 16q63 0 102 -31.5t39 -85.5q0 -45 -24 -84.5t-78 -90.5l-119 -112q-3 -3 -3 -6q0 -6 9 -6h220q10 0 16 -6t6 -16t-6.5 -17t-15.5 -7h-271q-13 0 -21.5 8.5t-8.5 20.5q0 20 15 35zM585 -8.5q19 -23.5 52.5 -38.5t74.5 -15q68 0 110 35t42 96
q0 45 -30 77t-70 36q36 10 62 41.5t26 71.5q0 49 -37 80t-96 31q-41 0 -73 -14t-49.5 -36.5t-17.5 -46.5q0 -13 8 -21.5t20 -8.5q8 0 14.5 4.5t10.5 11.5q18 36 37.5 51t48.5 15q31 0 49.5 -18.5t18.5 -50.5q0 -79 -116 -93q-16 -2 -16 -19q0 -9 4.5 -14.5t11.5 -6.5
q132 -9 132 -95q0 -39 -22.5 -60.5t-61.5 -21.5q-36 0 -58.5 17.5t-38.5 54.5q-7 15 -25 15q-13 0 -21.5 -8t-8.5 -22q0 -24 19 -47.5z" />
    <glyph glyph-name="oneeighth" unicode="&#x215b;" horiz-adv-x="900" 
d="M676 718.5q12 -10.5 12 -26.5q0 -10 -6 -19l-460 -766q-21 -34 -47 -34q-17 0 -29 10.5t-12 26.5q0 8 6 19l460 766q21 34 47 34q17 0 29 -10.5zM74 539l83 76q14 14 26 19.5t25 5.5q16 0 26.5 -10.5t9.5 -27.5l-9 -393q-1 -17 -8.5 -27t-19.5 -10q-11 0 -18 9.5t-8 27.5
l-9 336l-52 -42q-13 -12 -27 -12q-11 0 -19 8.5t-8 19.5q0 14 8 20zM543 144.5q25 34.5 62 45.5q-32 19 -49 44.5t-17 55.5q0 52 42 84t109 32q64 0 106 -32.5t42 -80.5q0 -33 -18 -60.5t-45 -42.5q43 -19 63 -47t20 -68q0 -63 -45 -100t-122 -37q-82 0 -127.5 34.5
t-45.5 96.5q0 41 25 75.5zM610 6.5q29 -24.5 77 -24.5q47 0 76.5 23.5t29.5 60.5q0 36 -27.5 57.5t-95.5 39.5l-23 7q-30 -14 -48 -40.5t-18 -57.5q0 -41 29 -65.5zM628.5 247.5q26.5 -19.5 90.5 -37.5l13 -4q22 17 33.5 39.5t11.5 46.5q0 32 -24 52.5t-63 20.5t-63.5 -19
t-24.5 -48q0 -31 26.5 -50.5z" />
    <glyph glyph-name="threeeighths" unicode="&#x215c;" horiz-adv-x="900" 
d="M707 718.5q12 -10.5 12 -26.5q0 -10 -6 -19l-460 -766q-21 -34 -47 -34q-17 0 -29 10.5t-12 26.5q0 8 6 19l460 766q21 34 47 34q17 0 29 -10.5zM44.5 295q8.5 8 21.5 8q18 0 25 -15q16 -37 38.5 -54.5t58.5 -17.5q39 0 61.5 21.5t22.5 60.5q0 86 -132 95q-7 1 -11.5 6.5
t-4.5 14.5q0 17 16 19q116 14 116 93q0 32 -18.5 50.5t-49.5 18.5q-29 0 -48.5 -15t-37.5 -51q-4 -7 -10.5 -11.5t-14.5 -4.5q-12 0 -20 8.5t-8 21.5q0 24 17.5 46.5t49.5 36.5t73 14q59 0 96 -31t37 -80q0 -40 -26 -71.5t-62 -41.5q40 -4 70 -36t30 -77q0 -61 -42 -96
t-110 -35q-41 0 -74.5 15t-52.5 38.5t-19 47.5q0 14 8.5 22zM543 144.5q25 34.5 62 45.5q-32 19 -49 44.5t-17 55.5q0 52 42 84t109 32q64 0 106 -32.5t42 -80.5q0 -33 -18 -60.5t-45 -42.5q43 -19 63 -47t20 -68q0 -63 -45 -100t-122 -37q-82 0 -127.5 34.5t-45.5 96.5
q0 41 25 75.5zM610 6.5q29 -24.5 77 -24.5q47 0 76.5 23.5t29.5 60.5q0 36 -27.5 57.5t-95.5 39.5l-23 7q-30 -14 -48 -40.5t-18 -57.5q0 -41 29 -65.5zM628.5 247.5q26.5 -19.5 90.5 -37.5l13 -4q22 17 33.5 39.5t11.5 46.5q0 32 -24 52.5t-63 20.5t-63.5 -19t-24.5 -48
q0 -31 26.5 -50.5z" />
    <glyph glyph-name="fiveeighths" unicode="&#x215d;" horiz-adv-x="900" 
d="M717 718.5q12 -10.5 12 -26.5q0 -10 -6 -19l-460 -766q-21 -34 -47 -34q-17 0 -29 10.5t-12 26.5q0 8 6 19l460 766q21 34 47 34q17 0 29 -10.5zM40 282q8 8 22 8t25 -15q22 -28 46.5 -43.5t55.5 -15.5q49 0 74 31.5t25 84.5q0 44 -25 69t-64 25q-31 0 -56 -14.5
t-43 -33.5q-9 -10 -13.5 -12.5t-15.5 -2.5q-23 0 -25 25l-7 214q0 11 8.5 19.5t21.5 8.5h230q11 0 18.5 -7t7.5 -17t-7.5 -17.5t-18.5 -7.5h-191l-10 -157q23 24 53 36.5t63 12.5q61 0 99.5 -37.5t38.5 -97.5q0 -78 -45.5 -124t-127.5 -46q-39 0 -73 13t-54 34t-20 45
q0 14 8 22zM553 144.5q25 34.5 62 45.5q-32 19 -49 44.5t-17 55.5q0 52 42 84t109 32q64 0 106 -32.5t42 -80.5q0 -33 -18 -60.5t-45 -42.5q43 -19 63 -47t20 -68q0 -63 -45 -100t-122 -37q-82 0 -127.5 34.5t-45.5 96.5q0 41 25 75.5zM620 6.5q29 -24.5 77 -24.5
q47 0 76.5 23.5t29.5 60.5q0 36 -27.5 57.5t-95.5 39.5l-23 7q-30 -14 -48 -40.5t-18 -57.5q0 -41 29 -65.5zM638.5 247.5q26.5 -19.5 90.5 -37.5l13 -4q22 17 33.5 39.5t11.5 46.5q0 32 -24 52.5t-63 20.5t-63.5 -19t-24.5 -48q0 -31 26.5 -50.5z" />
    <glyph glyph-name="seveneighths" unicode="&#x215e;" horiz-adv-x="900" 
d="M675 718.5q12 -10.5 12 -26.5q0 -10 -6 -19l-460 -766q-21 -34 -47 -34q-17 0 -29 10.5t-12 26.5q0 8 6 19l460 766q21 34 47 34q17 0 29 -10.5zM34.5 623q7.5 7 17.5 7h280q10 0 16.5 -7t6.5 -17q0 -8 -4.5 -18t-16.5 -27q-61 -85 -98 -186t-40 -173q-3 -34 -26 -34
q-12 0 -17.5 10.5t-5.5 35.5q0 75 38.5 182.5t89.5 183.5h-223q-10 0 -17.5 7.5t-7.5 17.5q0 11 7.5 18zM553 144.5q25 34.5 62 45.5q-32 19 -49 44.5t-17 55.5q0 52 42 84t109 32q64 0 106 -32.5t42 -80.5q0 -33 -18 -60.5t-45 -42.5q43 -19 63 -47t20 -68q0 -63 -45 -100
t-122 -37q-82 0 -127.5 34.5t-45.5 96.5q0 41 25 75.5zM620 6.5q29 -24.5 77 -24.5q47 0 76.5 23.5t29.5 60.5q0 36 -27.5 57.5t-95.5 39.5l-23 7q-30 -14 -48 -40.5t-18 -57.5q0 -41 29 -65.5zM638.5 247.5q26.5 -19.5 90.5 -37.5l13 -4q22 17 33.5 39.5t11.5 46.5
q0 32 -24 52.5t-63 20.5t-63.5 -19t-24.5 -48q0 -31 26.5 -50.5z" />
    <glyph glyph-name="uni2160" unicode="&#x2160;" horiz-adv-x="245" 
d="M82.5 621q13.5 19 40.5 19t40 -19t12 -52l-10 -567q-1 -30 -11 -47t-29 -17t-29 17t-11 47l-15 567q-1 33 12.5 52z" />
    <glyph glyph-name="uni2161" unicode="&#x2161;" horiz-adv-x="490" 
d="M82.5 621q13.5 19 40.5 19t40 -19t12 -52l-10 -567q-1 -30 -11 -47t-29 -17t-29 17t-11 47l-15 567q-1 33 12.5 52zM327.5 621q13.5 19 40.5 19t40 -19t12 -52l-10 -567q-1 -30 -11 -47t-29 -17t-29 17t-11 47l-15 567q-1 33 12.5 52z" />
    <glyph glyph-name="uni2162" unicode="&#x2162;" horiz-adv-x="735" 
d="M82.5 621q13.5 19 40.5 19t40 -19t12 -52l-10 -567q-1 -30 -11 -47t-29 -17t-29 17t-11 47l-15 567q-1 33 12.5 52zM327.5 621q13.5 19 40.5 19t40 -19t12 -52l-10 -567q-1 -30 -11 -47t-29 -17t-29 17t-11 47l-15 567q-1 33 12.5 52zM572.5 621q13.5 19 40.5 19t40 -19
t12 -52l-10 -567q-1 -30 -11 -47t-29 -17t-29 17t-11 47l-15 567q-1 33 12.5 52z" />
    <glyph glyph-name="uni2163" unicode="&#x2163;" horiz-adv-x="889" 
d="M82.5 621q13.5 19 40.5 19t40 -19t12 -52l-10 -567q-1 -30 -11 -47t-29 -17t-29 17t-11 47l-15 567q-1 33 12.5 52zM268.5 626q13.5 14 34.5 14q36 0 50 -39l199 -538q3 -9 10 -9q8 0 11 9l198 538q14 39 50 39q21 0 34.5 -14t13.5 -36q0 -23 -17 -64l-227 -536
q-11 -27 -26.5 -39.5t-37.5 -12.5q-21 0 -36 12.5t-26 39.5l-227 536q-17 41 -17 64q0 22 13.5 36z" />
    <glyph glyph-name="uni2164" unicode="&#x2164;" horiz-adv-x="654" 
d="M363.5 -49.5q-15.5 -12.5 -37.5 -12.5q-21 0 -36 12.5t-26 39.5l-227 536q-17 41 -17 64q0 22 13.5 36t34.5 14q36 0 50 -39l199 -538q3 -9 10 -9q8 0 11 9l198 538q14 39 50 39q21 0 34.5 -14t13.5 -36q0 -23 -17 -64l-227 -536q-11 -27 -26.5 -39.5z" />
    <glyph glyph-name="uni2165" unicode="&#x2165;" horiz-adv-x="889" 
d="M363.5 -49.5q-15.5 -12.5 -37.5 -12.5q-21 0 -36 12.5t-26 39.5l-227 536q-17 41 -17 64q0 22 13.5 36t34.5 14q36 0 50 -39l199 -538q3 -9 10 -9q8 0 11 9l198 538q14 39 50 39q21 0 34.5 -14t13.5 -36q0 -23 -17 -64l-227 -536q-11 -27 -26.5 -39.5zM726.5 621
q13.5 19 40.5 19t40 -19t12 -52l-10 -567q-1 -30 -11 -47t-29 -17t-29 17t-11 47l-15 567q-1 33 12.5 52z" />
    <glyph glyph-name="uni2166" unicode="&#x2166;" horiz-adv-x="900" 
d="M286 -49q-17 -13 -40 -13q-22 0 -38.5 13t-23.5 39l-147 536l-9 31q-8 21 -8 33q0 22 13.5 36t34.5 14q18 0 32 -10.5t18 -28.5l119 -538q3 -9 11 -9q3 0 6 2.5t4 6.5l118 538q4 18 18 28.5t32 10.5q21 0 34.5 -14t13.5 -36q0 -10 -4 -22.5t-5 -15.5l-8 -26l-147 -536
q-7 -26 -24 -39zM551.5 621q13.5 19 40.5 19t40 -19t12 -52l-10 -567q-1 -30 -11 -47t-29 -17t-29 17t-11 47l-15 567q-1 33 12.5 52zM737.5 621q13.5 19 40.5 19t40 -19t12 -52l-10 -567q-1 -30 -11 -47t-29 -17t-29 17t-11 47l-15 567q-1 33 12.5 52z" />
    <glyph glyph-name="uni2167" unicode="&#x2167;" horiz-adv-x="900" 
d="M237.5 -49q-16.5 -13 -38.5 -13q-21 0 -37.5 13t-22.5 39l-108 536q-11 49 -11 64q0 22 13 36t33 14q18 0 31.5 -10.5t16.5 -28.5l76 -538q1 -4 4 -6.5t6 -2.5q9 0 10 9l75 538q3 18 16.5 28.5t31.5 10.5q20 0 33 -14t13 -36q0 -15 -11 -64l-108 -536q-6 -26 -22.5 -39z
M434 621q13 19 39 19q52 0 50 -71l-10 -567q0 -29 -10 -46.5t-28 -17.5t-27.5 17t-10.5 47l-15 567q-1 33 12 52zM587.5 621q12.5 19 39.5 19q26 0 38.5 -19t11.5 -52l-10 -567q-1 -30 -10.5 -47t-27.5 -17t-28 17.5t-11 46.5l-14 567q-1 33 11.5 52zM741.5 621
q12.5 19 38.5 19q52 0 50 -71l-9 -567q-1 -29 -11 -46.5t-28 -17.5t-27.5 17t-10.5 47l-15 567q0 33 12.5 52z" />
    <glyph glyph-name="uni2168" unicode="&#x2168;" horiz-adv-x="838" 
d="M163 621q13 -19 12 -52l-10 -567q-1 -30 -11 -47t-29 -17t-29 17t-11 47l-15 567q-1 33 12.5 52t40.5 19t40 -19zM251 -3l222 295l-202 246q-16 20 -22 32.5t-6 25.5q0 17 13.5 30.5t31.5 13.5q17 0 30.5 -9.5t30.5 -32.5l178 -235l177 235q17 23 30.5 32.5t30.5 9.5
q18 0 31.5 -13.5t13.5 -30.5q0 -13 -6 -25.5t-22 -32.5l-202 -246l222 -295q8 -10 8 -24q0 -11 -9 -20t-20 -9q-12 0 -20.5 4.5t-18.5 17.5l-215 262l-216 -262q-10 -13 -18.5 -17.5t-20.5 -4.5q-10 0 -19.5 9t-9.5 20q0 14 8 24z" />
    <glyph glyph-name="uni2169" unicode="&#x2169;" horiz-adv-x="623" 
d="M595 -27q0 -11 -9 -20t-20 -9q-12 0 -20.5 4.5t-18.5 17.5l-215 262l-216 -262q-10 -13 -18.5 -17.5t-20.5 -4.5q-10 0 -19.5 9t-9.5 20q0 14 8 24l222 295l-202 246q-16 20 -22 32.5t-6 25.5q0 17 13.5 30.5t31.5 13.5q17 0 30.5 -9.5t30.5 -32.5l178 -235l177 235
q17 23 30.5 32.5t30.5 9.5q18 0 31.5 -13.5t13.5 -30.5q0 -13 -6 -25.5t-22 -32.5l-202 -246l222 -295q8 -10 8 -24z" />
    <glyph glyph-name="uni2170" unicode="&#x2170;" horiz-adv-x="252" 
d="M78 525q-18 18 -18 48t18 48.5t48 18.5t48 -18.5t18 -48.5t-18 -48t-48 -18t-48 18zM81.5 361q13.5 19 41.5 19q27 0 40 -19t12 -52l-10 -307q-1 -30 -11 -47t-29 -17q-37 0 -40 64l-15 307q-2 33 11.5 52z" />
    <glyph glyph-name="uni2171" unicode="&#x2171;" horiz-adv-x="504" 
d="M78 525q-18 18 -18 48t18 48.5t48 18.5t48 -18.5t18 -48.5t-18 -48t-48 -18t-48 18zM81.5 361q13.5 19 41.5 19q27 0 40 -19t12 -52l-10 -307q-1 -30 -11 -47t-29 -17q-37 0 -40 64l-15 307q-2 33 11.5 52zM330 621.5q18 18.5 48 18.5t48 -18.5t18 -48.5t-18 -48t-48 -18
t-48 18t-18 48t18 48.5zM333.5 361q13.5 19 41.5 19q27 0 40 -19t12 -52l-10 -307q-1 -30 -11 -47t-29 -17q-37 0 -40 64l-15 307q-2 33 11.5 52z" />
    <glyph glyph-name="uni2172" unicode="&#x2172;" horiz-adv-x="756" 
d="M78 525q-18 18 -18 48t18 48.5t48 18.5t48 -18.5t18 -48.5t-18 -48t-48 -18t-48 18zM81.5 361q13.5 19 41.5 19q27 0 40 -19t12 -52l-10 -307q-1 -30 -11 -47t-29 -17q-37 0 -40 64l-15 307q-2 33 11.5 52zM330 621.5q18 18.5 48 18.5t48 -18.5t18 -48.5t-18 -48t-48 -18
t-48 18t-18 48t18 48.5zM333.5 361q13.5 19 41.5 19q27 0 40 -19t12 -52l-10 -307q-1 -30 -11 -47t-29 -17q-37 0 -40 64l-15 307q-2 33 11.5 52zM582 621.5q18 18.5 48 18.5t48 -18.5t18 -48.5t-18 -48t-48 -18t-48 18t-18 48t18 48.5zM585.5 361q13.5 19 41.5 19
q27 0 40 -19t12 -52l-10 -307q-1 -30 -11 -47t-29 -17q-37 0 -40 64l-15 307q-2 33 11.5 52z" />
    <glyph glyph-name="uni2173" unicode="&#x2173;" horiz-adv-x="691" 
d="M78 525q-18 18 -18 48t18 48.5t48 18.5t48 -18.5t18 -48.5t-18 -48t-48 -18t-48 18zM81.5 361q13.5 19 41.5 19q27 0 40 -19t12 -52l-10 -307q-1 -30 -11 -47t-29 -17q-37 0 -40 64l-15 307q-2 33 11.5 52zM286 367.5q14 12.5 35 12.5q17 0 29.5 -10t18.5 -28l97 -298
q2 -5 5.5 -5t4.5 5l98 298q6 18 18.5 28t29.5 10q21 0 35 -12.5t14 -31.5q0 -25 -18 -69l-119 -277q-11 -27 -26.5 -39.5t-37.5 -12.5q-21 0 -35.5 12t-26.5 40l-118 277q-18 44 -18 69q0 19 14 31.5z" />
    <glyph glyph-name="uni2174" unicode="&#x2174;" horiz-adv-x="439" 
d="M255.5 -49.5q-15.5 -12.5 -37.5 -12.5q-21 0 -35.5 12t-26.5 40l-118 277q-18 44 -18 69q0 19 14 31.5t35 12.5q17 0 29.5 -10t18.5 -28l97 -298q2 -5 5.5 -5t4.5 5l98 298q6 18 18.5 28t29.5 10q21 0 35 -12.5t14 -31.5q0 -25 -18 -69l-119 -277q-11 -27 -26.5 -39.5z
" />
    <glyph glyph-name="uni2175" unicode="&#x2175;" horiz-adv-x="691" 
d="M517 525q-18 18 -18 48t18 48.5t48 18.5t48 -18.5t18 -48.5t-18 -48t-48 -18t-48 18zM34 367.5q14 12.5 35 12.5q17 0 29.5 -10t18.5 -28l97 -298q2 -5 5.5 -5t4.5 5l98 298q6 18 18.5 28t29.5 10q21 0 35 -12.5t14 -31.5q0 -25 -18 -69l-119 -277q-11 -27 -26.5 -39.5
t-37.5 -12.5q-21 0 -35.5 12t-26.5 40l-118 277q-18 44 -18 69q0 19 14 31.5zM520.5 361q13.5 19 41.5 19q27 0 40 -19t12 -52l-10 -307q-1 -30 -11 -47t-29 -17q-37 0 -40 64l-15 307q-2 33 11.5 52z" />
    <glyph glyph-name="uni2176" unicode="&#x2176;" horiz-adv-x="900" 
d="M507 525q-18 18 -18 48t18 48.5t48 18.5t48 -18.5t18 -48.5t-18 -48t-48 -18t-48 18zM34 367.5q14 12.5 35 12.5q17 0 29.5 -10t18.5 -28l97 -298q2 -5 5.5 -5t4.5 5l98 298q6 18 18.5 28t29.5 10q21 0 35 -12.5t14 -31.5q0 -25 -18 -69l-119 -277q-11 -27 -26.5 -39.5
t-37.5 -12.5q-21 0 -35.5 12t-26.5 40l-118 277q-18 44 -18 69q0 19 14 31.5zM510.5 361q13.5 19 41.5 19q27 0 40 -19t12 -52l-10 -307q-1 -30 -11 -47t-29 -17q-37 0 -40 64l-15 307q-2 33 11.5 52zM726 621.5q18 18.5 48 18.5t48 -18.5t18 -48.5t-18 -48t-48 -18t-48 18
t-18 48t18 48.5zM729.5 361q13.5 19 41.5 19q27 0 40 -19t12 -52l-10 -307q-1 -30 -11 -47t-29 -17q-37 0 -40 64l-15 307q-2 33 11.5 52z" />
    <glyph glyph-name="uni2177" unicode="&#x2177;" horiz-adv-x="900" 
d="M363.5 525q-15.5 18 -15.5 48t15.5 48.5t41.5 18.5t42 -18.5t16 -48.5t-16 -48t-42 -18t-41.5 18zM32 367.5q12 12.5 31 12.5q15 0 26.5 -10t14.5 -28l54 -298q1 -5 4.5 -5t4.5 5l55 298q3 18 15 28t27 10q18 0 30.5 -12.5t12.5 -31.5q0 -17 -10 -49l-6 -20l-73 -277
q-7 -26 -22 -39t-34 -13q-40 0 -54 52l-72 277l-6 20q-10 32 -10 49q0 19 12 31.5zM367 361q12 19 36 19t35 -19t10 -52l-9 -307q-1 -30 -9.5 -47t-25.5 -17q-31 0 -34 64l-13 307q-2 33 10 52zM552.5 621.5q15.5 18.5 41.5 18.5t41.5 -18.5t15.5 -48.5t-15.5 -48t-41.5 -18
t-41.5 18t-15.5 48t15.5 48.5zM556 361q12 19 36 19t35 -19t10 -52l-9 -307q-1 -30 -9.5 -47t-25.5 -17q-31 0 -34 64l-13 307q-2 33 10 52zM741.5 621.5q15.5 18.5 41.5 18.5t41.5 -18.5t15.5 -48.5t-15.5 -48t-41.5 -18t-41.5 18t-15.5 48t15.5 48.5zM744.5 361
q11.5 19 35.5 19q46 0 46 -71l-9 -307q-1 -30 -9.5 -47t-25.5 -17q-16 0 -24.5 17t-10.5 47l-13 307q-1 33 10.5 52z" />
    <glyph glyph-name="uni2178" unicode="&#x2178;" horiz-adv-x="725" 
d="M174 621.5q18 -18.5 18 -48.5t-18 -48t-48 -18t-48 18t-18 48t18 48.5t48 18.5t48 -18.5zM81.5 361q13.5 19 41.5 19q27 0 40 -19t12 -52l-10 -307q-1 -30 -11 -47t-29 -17q-37 0 -40 64l-15 307q-2 33 11.5 52zM287 -8l147 178l-104 111q-17 18 -23.5 30.5t-6.5 25.5
q0 17 12.5 30t29.5 13q15 0 29 -9.5t33 -32.5l85 -102l84 102q19 23 33 32.5t29 9.5q17 0 29.5 -13t12.5 -30q0 -13 -6.5 -25.5t-23.5 -30.5l-104 -111l147 -178q9 -11 9 -23q0 -11 -9.5 -21t-20.5 -10q-10 0 -18.5 5t-22.5 20l-139 149l-140 -149q-14 -15 -22.5 -20
t-18.5 -5q-11 0 -20.5 10t-9.5 21q0 12 9 23z" />
    <glyph glyph-name="uni2179" unicode="&#x2179;" horiz-adv-x="473" 
d="M447 -31q0 -11 -9.5 -21t-20.5 -10q-10 0 -18.5 5t-22.5 20l-139 149l-140 -149q-14 -15 -22.5 -20t-18.5 -5q-11 0 -20.5 10t-9.5 21q0 12 9 23l147 178l-104 111q-17 18 -23.5 30.5t-6.5 25.5q0 17 12.5 30t29.5 13q15 0 29 -9.5t33 -32.5l85 -102l84 102
q19 23 33 32.5t29 9.5q17 0 29.5 -13t12.5 -30q0 -13 -6.5 -25.5t-23.5 -30.5l-104 -111l147 -178q9 -11 9 -23z" />
    <glyph glyph-name="arrowleft" unicode="&#x2190;" horiz-adv-x="900" 
d="M808.5 365q14.5 -12 14.5 -31q0 -21 -13.5 -34t-36.5 -13h-554q-7 0 -10 1l6 -7l124 -124q19 -19 19 -40q0 -14 -10 -24q-11 -11 -25 -11q-18 0 -39 19l-195 194q-16 18 -16 36q0 20 16 36l195 195q19 19 40 19q15 0 24 -10q10 -10 10 -25q0 -19 -18 -39l-129 -130h8h552
q23 0 37.5 -12z" />
    <glyph glyph-name="arrowup" unicode="&#x2191;" horiz-adv-x="900" 
d="M699 454q0 -15 -10 -25q-11 -11 -25 -11q-19 0 -39 20l-130 130l-1 -547q0 -23 -12 -37t-31 -14t-31.5 14t-12.5 37l-1 546l-131 -131q-18 -18 -39 -18q-15 0 -25 10t-10 25q0 21 18 39l196 196q16 16 36 16q19 0 36 -17l194 -194q18 -19 18 -39z" />
    <glyph glyph-name="arrowright" unicode="&#x2192;" horiz-adv-x="900" 
d="M823 331q0 -20 -16 -36l-195 -194q-21 -19 -39 -19q-14 0 -25 11q-10 10 -10 24q0 21 19 40l124 124l6 7q-3 -1 -10 -1h-554q-23 0 -36.5 13t-13.5 34q0 19 14.5 31t37.5 12h560l-4 4l-125 126q-18 20 -18 39q0 15 10 25q9 10 24 10q21 0 40 -19l195 -195q16 -15 16 -36z
" />
    <glyph glyph-name="arrowdown" unicode="&#x2193;" horiz-adv-x="900" 
d="M699 220q0 -19 -18 -39l-194 -194q-17 -17 -36 -17q-20 0 -36 16l-196 196q-18 18 -18 39q0 15 10 25t25 10q21 0 39 -18l131 -131l1 546q0 23 12.5 37t31.5 14t31 -14t12 -37l1 -547l130 130q20 20 39 20q14 0 25 -11q10 -10 10 -25z" />
    <glyph glyph-name="arrowboth" unicode="&#x2194;" horiz-adv-x="900" 
d="M823 332q0 -4 -2 -14q-3 -12 -14 -23l-195 -194q-21 -19 -39 -19q-14 0 -25 11q-10 10 -10 24q0 21 19 40l124 124q4 4 5 6h-467q-7 0 -10 1l6 -7l124 -124q19 -19 19 -40q0 -14 -10 -24q-11 -11 -25 -11q-18 0 -39 19l-195 194q-16 18 -16 36q0 20 16 36l195 195
q19 19 40 19q15 0 24 -10q10 -10 10 -25q0 -19 -18 -39l-129 -130h8h466l-129 130q-18 20 -18 39q0 15 10 25q9 10 24 10q21 0 40 -19l195 -195l5 -5q11 -13 11 -30z" />
    <glyph glyph-name="arrowupdn" unicode="&#x2195;" horiz-adv-x="900" 
d="M664 256q14 0 25 -11q10 -10 10 -25q0 -19 -18 -39l-194 -194q-7 -7 -13 -10q-10 -7 -23 -7q-11 0 -19 4q-10 5 -17 12l-196 196q-18 18 -18 39q0 15 10 25t25 10q21 0 39 -18l132 -132l-1 461l-131 -131q-18 -18 -39 -18q-15 0 -25 10t-10 25q0 21 18 39l196 196
q16 16 36 16q19 0 36 -17l194 -194q18 -19 18 -39q0 -15 -10 -25q-11 -11 -25 -11q-19 0 -39 20l-130 130l-1 -463l131 131q20 20 39 20z" />
    <glyph glyph-name="uni2196" unicode="&#x2196;" horiz-adv-x="900" 
d="M726 106q0 -17 -12 -29t-29 -12q-19 0 -38 17l-387 386v-183q0 -24 -11 -38t-28 -14t-28 14t-12 37v274q0 23 14 37.5t36 14.5h278q22 0 36 -11.5t14 -28.5t-14 -28t-36 -11h-186l386 -387q17 -17 17 -38z" />
    <glyph glyph-name="uni2197" unicode="&#x2197;" horiz-adv-x="900" 
d="M712 595.5q14 -14.5 14 -37.5v-274q-1 -23 -12 -37t-28 -14t-28 14t-11 38v183l-387 -386q-19 -17 -38 -17q-17 0 -29 12t-12 29q0 21 17 38l386 387h-186q-22 0 -36 11t-14 28t14 28.5t36 11.5h278q22 0 36 -14.5z" />
    <glyph glyph-name="uni2198" unicode="&#x2198;" horiz-adv-x="900" 
d="M714 428q11 -14 12 -37v-274q0 -23 -14 -37.5t-36 -14.5h-278q-22 0 -36 11.5t-14 28.5t14 28t36 11h186l-386 387q-17 17 -17 38q0 17 12 29t29 12q19 0 38 -17l387 -386v183q0 24 11 38t28 14t28 -14z" />
    <glyph glyph-name="uni2199" unicode="&#x2199;" horiz-adv-x="900" 
d="M726 569q0 -21 -17 -38l-386 -387h186q22 0 36 -11t14 -28t-14 -28.5t-36 -11.5h-278q-22 0 -36 14.5t-14 37.5v274q1 23 12 37t28 14t28 -14t11 -38v-183l387 386q19 17 38 17q17 0 29 -12t12 -29z" />
    <glyph glyph-name="arrowdblright" unicode="&#x21d2;" horiz-adv-x="900" 
d="M841 331q0 -19 -13 -33l-202 -221q-19 -22 -42 -22q-13 0 -22 9q-11 11 -11 27q0 18 16 37l65 69h-527q-22 0 -36.5 13t-14.5 32t14.5 32t36.5 13h611l41 44l-43 46h-609q-22 0 -36.5 13t-14.5 32t14.5 32t36.5 13h526l-65 70q-15 17 -15 36q0 15 11 28q10 8 21 8
q21 0 43 -22l202 -223q13 -14 13 -33z" />
    <glyph glyph-name="arrowdblboth" unicode="&#x21d4;" horiz-adv-x="900" 
d="M843 331q0 -19 -13 -33l-202 -221q-19 -22 -42 -22q-13 0 -22 9q-11 11 -11 27q0 18 16 37l65 69h-369l65 -69q16 -19 16 -37q0 -16 -11 -27q-9 -9 -22 -9q-23 0 -42 22l-202 221q-13 16 -13 33t13 33l202 223q22 22 43 22q11 0 21 -8q11 -13 11 -28q0 -19 -15 -36
l-65 -70h367l-65 70q-15 17 -15 36q0 15 11 28q10 8 21 8q21 0 43 -22l202 -223q13 -14 13 -33zM181 287h537l41 44l-43 46h-533l-43 -46z" />
    <glyph glyph-name="universal" unicode="&#x2200;" horiz-adv-x="655" 
d="M624.5 630q10.5 -10 10.5 -28q0 -13 -6 -28l-243 -593q-18 -43 -57 -43q-42 0 -60 43l-243 593q-6 15 -6 28q0 18 10.5 28t27.5 10q16 0 26.5 -10t20.5 -33l64 -153h317l64 153q10 24 20 33.5t27 9.5t27.5 -10zM328 64l129 310h-259z" />
    <glyph glyph-name="partialdiff" unicode="&#x2202;" horiz-adv-x="620" 
d="M414 534.5q-46 61.5 -125 113.5q-35 24 -35 51q0 15 10 28q12 15 33 15q13 0 26 -7q118 -68 182.5 -196t64.5 -294q0 -91 -32.5 -159.5t-92 -106.5t-137.5 -38q-75 0 -134 34t-91.5 95.5t-32.5 140.5q0 81 31 142t88.5 94.5t134.5 33.5q59 0 102 -20.5t61 -53.5
q-7 66 -53 127.5zM308 21q77 0 118 50.5t41 143.5q0 92 -39 139t-116 47q-76 0 -117 -50t-41 -142q0 -188 154 -188z" />
    <glyph glyph-name="existential" unicode="&#x2203;" horiz-adv-x="600" 
d="M63.5 27q-13.5 12 -13.5 31t13.5 31t34.5 12h348v157h-348q-21 0 -34.5 12t-13.5 31t13.5 31t34.5 12h348v157h-348q-21 0 -34.5 12t-13.5 31t13.5 31t34.5 12h404q21 0 34.5 -13.5t13.5 -34.5v-476q0 -21 -13.5 -34.5t-34.5 -13.5h-404q-21 0 -34.5 12z" />
    <glyph glyph-name="gradient" unicode="&#x2207;" horiz-adv-x="684" 
d="M50 622h584v-56l-190 -620h-204l-190 620v56zM325 16h34l164 530h-362z" />
    <glyph glyph-name="element" unicode="&#x2208;" horiz-adv-x="600" 
d="M536.5 271q-13.5 -12 -34.5 -12h-346q10 -83 64 -120t162 -37h120q21 0 34.5 -12t13.5 -31t-13.5 -31t-34.5 -12h-180q-83 0 -144.5 35t-94.5 99.5t-33 151.5t33 151.5t94.5 99.5t144.5 35h180q21 0 34.5 -12t13.5 -31t-13.5 -31t-34.5 -12h-120q-107 0 -161.5 -37.5
t-64.5 -119.5h346q21 0 34.5 -12t13.5 -31t-13.5 -31z" />
    <glyph glyph-name="suchthat" unicode="&#x220b;" horiz-adv-x="600" 
d="M422.5 553q61.5 -35 94.5 -99.5t33 -151.5t-33 -151.5t-94.5 -99.5t-144.5 -35h-180q-21 0 -34.5 12t-13.5 31t13.5 31t34.5 12h120q108 0 162 37t64 120h-346q-21 0 -34.5 12t-13.5 31t13.5 31t34.5 12h346q-10 82 -64.5 119.5t-161.5 37.5h-120q-21 0 -34.5 12
t-13.5 31t13.5 31t34.5 12h180q83 0 144.5 -35z" />
    <glyph glyph-name="product" unicode="&#x220f;" horiz-adv-x="600" 
d="M592 619q11 -11 11 -27t-11 -27t-27 -11h-73l-3 -558q0 -26 -15.5 -42t-40.5 -16q-24 0 -38.5 16t-14.5 42l-6 558h-112l-3 -558q0 -26 -15.5 -42t-40.5 -16q-24 0 -38.5 16t-14.5 42l-6 558h-69q-18 0 -30 11t-12 27q0 15 12.5 26.5t29.5 11.5h490q16 0 27 -11z" />
    <glyph glyph-name="summation" unicode="&#x2211;" horiz-adv-x="600" 
d="M520 -87h-460v67l214 315l-214 315v67h460v-76h-337l197 -306l-197 -306h337v-76z" />
    <glyph glyph-name="radical" unicode="&#x221a;" horiz-adv-x="611" 
d="M587.5 784q13.5 -12 13.5 -31t-10.5 -31t-25.5 -12h-60l-245 -866q-4 -14 -15 -22.5t-27 -8.5h-20q-16 0 -27 8.5t-15 24.5l-104 410q-2 6 -2 17q0 18 8.5 30t23.5 14h3l8 1q17 0 29 -10.5t15 -27.5l66 -314q4 -19 5 -63q1 5 4 31t6 37l211 793q4 14 15.5 23t26.5 9h82
q21 0 34.5 -12z" />
    <glyph glyph-name="proportional" unicode="&#x221d;" horiz-adv-x="600" 
d="M575 131q0 -13 -5 -19q-10 -15 -29 -15q-17 0 -36 17q-48 42 -101 106q-43 -54 -86 -85.5t-93 -31.5q-54 0 -96.5 23t-66.5 64.5t-24 93.5t24 93.5t66.5 64.5t96.5 23q50 0 93 -31.5t86 -85.5q57 68 101 106q17 15 36 15q21 0 28 -15q5 -10 5 -19q0 -11 -5 -21t-13 -17
q-44 -35 -103 -113q60 -79 103 -113q19 -16 19 -40zM151.5 210q27.5 -28 73.5 -28q30 0 57.5 21.5t72.5 80.5q-45 59 -72.5 80.5t-57.5 21.5q-46 0 -73.5 -28t-27.5 -74t27.5 -74z" />
    <glyph glyph-name="infinity" unicode="&#x221e;" horiz-adv-x="797" 
d="M672 468q43 -26 67.5 -71.5t24.5 -100.5t-24.5 -100.5t-67.5 -71.5t-95 -26t-94.5 32t-83.5 86q-42 -55 -84.5 -86.5t-94.5 -31.5t-94.5 26t-67.5 71.5t-25 100.5t25 100.5t67.5 71.5t94.5 26t94.5 -31.5t84.5 -86.5q41 54 83.5 86t94.5 32t95 -26zM154.5 216.5
q25.5 -31.5 65.5 -31.5q25 0 51.5 24t71.5 87q-45 63 -71.5 87t-51.5 24q-40 0 -65.5 -31.5t-25.5 -79.5t25.5 -79.5zM525 209.5q27 -24.5 52 -24.5q40 0 65.5 31.5t25.5 79.5t-25.5 79.5t-65.5 31.5q-25 0 -52 -24.5t-70 -86.5q43 -62 70 -86.5z" />
    <glyph glyph-name="angle" unicode="&#x2220;" horiz-adv-x="600" 
d="M56 23l346 371l63 -52l-298 -318h333v-76h-444v75z" />
    <glyph glyph-name="uni2225" unicode="&#x2225;" horiz-adv-x="554" 
d="M203.5 515q10.5 -12 10.5 -32v-476q0 -20 -10.5 -32t-26.5 -12t-26.5 12t-10.5 32v476q0 20 10.5 32t26.5 12t26.5 -12zM340 483q0 20 10.5 32t26.5 12t26.5 -12t10.5 -32v-476q0 -20 -10.5 -32t-26.5 -12t-26.5 12t-10.5 32v476z" />
    <glyph glyph-name="logicaland" unicode="&#x2227;" horiz-adv-x="600" 
d="M286 516.5q12 8.5 29 8.5t29 -8.5t21 -27.5l190 -378q8 -15 8 -32q0 -26 -26 -38q-13 -6 -26 -6q-30 0 -46 34l-150 300l-150 -300q-16 -36 -46 -36q-11 0 -25 6q-27 12 -27 41q0 16 8 31l190 378q9 19 21 27.5z" />
    <glyph glyph-name="logicalor" unicode="&#x2228;" horiz-adv-x="600" 
d="M67 478q0 29 27 41q14 6 25 6q30 0 46 -36l150 -300l150 300q16 34 46 34q13 0 26 -6q26 -12 26 -38q0 -17 -8 -32l-190 -378q-9 -19 -21 -27.5t-29 -8.5t-29 8.5t-21 27.5l-190 378q-8 15 -8 31z" />
    <glyph glyph-name="intersection" unicode="&#x2229;" horiz-adv-x="600" 
d="M521.5 27q-13.5 -15 -38.5 -15t-38.5 15t-13.5 42v138q0 86 -35 136t-96 50t-96 -50t-35 -136v-138q0 -27 -13.5 -42t-38.5 -15t-38.5 15t-13.5 42v138q0 81 29.5 142t82.5 94.5t123 33.5t123 -33.5t82.5 -94.5t29.5 -142v-138q0 -27 -13.5 -42z" />
    <glyph glyph-name="union" unicode="&#x222a;" horiz-adv-x="600" 
d="M505.5 140q-29.5 -61 -82.5 -94.5t-123 -33.5t-123 33.5t-82.5 94.5t-29.5 142v138q0 27 13.5 42t38.5 15t38.5 -15t13.5 -42v-138q0 -86 35 -136t96 -50t96 50t35 136v138q0 27 13.5 42t38.5 15t38.5 -15t13.5 -42v-138q0 -81 -29.5 -142z" />
    <glyph glyph-name="integral" unicode="&#x222b;" horiz-adv-x="600" 
d="M118 -143q7 11 15 11q7 0 13.5 -1t12.5 -1q70 0 75 100l30 663q3 64 49.5 105t116.5 41q31 0 45.5 -9.5t14.5 -29.5q0 -14 -7 -25t-15 -11q-7 0 -13.5 1t-12.5 1q-70 0 -75 -100l-30 -663q-3 -64 -49.5 -105t-116.5 -41q-31 0 -45.5 9.5t-14.5 29.5q0 14 7 25z" />
    <glyph glyph-name="uni222C" unicode="&#x222c;" horiz-adv-x="739" 
d="M77 -143q7 11 15 11q7 0 13.5 -1t12.5 -1q70 0 75 100l30 663q3 64 49.5 105t116.5 41q31 0 45.5 -9.5t14.5 -29.5q0 -14 -7 -25t-15 -11q-7 0 -13.5 1t-12.5 1q-70 0 -75 -100l-30 -663q-3 -64 -49.5 -105t-116.5 -41q-31 0 -45.5 9.5t-14.5 29.5q0 14 7 25zM297 -143
q7 11 15 11q7 0 13.5 -1t12.5 -1q70 0 75 100l30 663q3 64 49.5 105t116.5 41q31 0 45.5 -9.5t14.5 -29.5q0 -14 -7 -25t-15 -11q-7 0 -13.5 1t-12.5 1q-70 0 -75 -100l-30 -663q-3 -64 -49.5 -105t-116.5 -41q-31 0 -45.5 9.5t-14.5 29.5q0 14 7 25z" />
    <glyph glyph-name="uni222E" unicode="&#x222e;" horiz-adv-x="600" 
d="M477 117q-52 -65 -142 -76l-5 -102q-3 -64 -49.5 -105t-116.5 -41q-31 0 -45.5 9.5t-14.5 29.5q0 14 7 25t15 11q7 0 13.5 -1t12.5 -1q70 0 75 100l4 82q-75 20 -117.5 82.5t-42.5 153.5q0 98 48.5 162t132.5 79l5 104q3 64 49.5 105t116.5 41q31 0 45.5 -9.5t14.5 -29.5
q0 -14 -7 -25t-15 -11q-7 0 -13.5 1t-12.5 1q-70 0 -75 -100l-4 -79q81 -17 127 -80.5t46 -158.5q0 -102 -52 -167zM145.5 157.5q31.5 -52.5 86.5 -72.5l19 403q-64 -16 -100.5 -70t-36.5 -134q0 -74 31.5 -126.5zM445.5 144.5q40.5 55.5 40.5 139.5q0 78 -35 132t-96 71
l-19 -410q69 12 109.5 67.5z" />
    <glyph glyph-name="therefore" unicode="&#x2234;" horiz-adv-x="600" 
d="M361 446q19 -19 19 -46t-19 -46t-46 -19t-46 19t-19 46t19 46t46 19t46 -19zM69 146q19 19 46 19t46 -19t19 -46t-19 -46t-46 -19t-46 19t-19 46t19 46zM469 146q19 19 46 19t46 -19t19 -46t-19 -46t-46 -19t-46 19t-19 46t19 46z" />
    <glyph glyph-name="uni2235" unicode="&#x2235;" horiz-adv-x="630" 
d="M69 354q-19 19 -19 46t19 46t46 19t46 -19t19 -46t-19 -46t-46 -19t-46 19zM269 146q19 19 46 19t46 -19t19 -46t-19 -46t-46 -19t-46 19t-19 46t19 46zM469 446q19 19 46 19t46 -19t19 -46t-19 -46t-46 -19t-46 19t-19 46t19 46z" />
    <glyph glyph-name="similar" unicode="&#x223c;" horiz-adv-x="600" 
d="M461.5 373.5q10.5 7.5 26.5 7.5q31 0 46.5 -13.5t15.5 -39.5q0 -45 -34 -75.5t-86 -30.5q-29 0 -60 8.5t-80 26.5q-32 12 -52.5 18t-34.5 6q-29 0 -45 -26q-13 -21 -22 -27t-29 -6q-57 0 -57 55q0 44 34.5 74t85.5 30q30 0 59.5 -8.5t80.5 -26.5q33 -12 52.5 -18t34.5 -6
q31 0 44 24q10 20 20.5 27.5z" />
    <glyph glyph-name="uni223D" unicode="&#x223d;" horiz-adv-x="600" 
d="M397 281q-15 0 -34.5 -6t-52.5 -18q-51 -18 -80.5 -26.5t-59.5 -8.5q-51 0 -85.5 30t-34.5 74q0 55 57 55q20 0 29 -6t22 -27q16 -26 45 -26q14 0 34.5 6t52.5 18q49 18 80 26.5t60 8.5q52 0 86 -30.5t34 -75.5q0 -26 -15.5 -39.5t-46.5 -13.5q-16 0 -26.5 7.5
t-20.5 27.5q-13 24 -44 24z" />
    <glyph glyph-name="uni2252" unicode="&#x2252;" horiz-adv-x="600" 
d="M184 668q18 -18 18 -48t-18 -48.5t-48 -18.5t-48 18.5t-18 48.5t18 48t48 18t48 -18zM101 224h398q48 0 48 -47t-48 -47h-398q-48 0 -48 47t48 47zM101 464h398q48 0 48 -47t-48 -47h-398q-48 0 -48 47t48 47zM416 22.5q18 18.5 48 18.5t48 -18.5t18 -48.5t-18 -48
t-48 -18t-48 18t-18 48t18 48.5z" />
    <glyph glyph-name="notequal" unicode="&#x2260;" horiz-adv-x="600" 
d="M547 177q0 -47 -48 -47h-229l-63 -121h-115l63 121h-54q-48 0 -48 47t48 47h103l77 146h-180q-48 0 -48 47t48 47h229l63 121h115l-63 -121h54q48 0 48 -47t-48 -47h-103l-77 -146h180q48 0 48 -47z" />
    <glyph glyph-name="equivalence" unicode="&#x2261;" horiz-adv-x="600" 
d="M63.5 576q13.5 12 34.5 12h404q21 0 34.5 -12t13.5 -31t-13.5 -31t-34.5 -12h-404q-21 0 -34.5 12t-13.5 31t13.5 31zM63.5 90q13.5 12 34.5 12h404q21 0 34.5 -12t13.5 -31t-13.5 -31t-34.5 -12h-404q-21 0 -34.5 12t-13.5 31t13.5 31zM63.5 333q13.5 12 34.5 12h404
q21 0 34.5 -12t13.5 -31t-13.5 -31t-34.5 -12h-404q-21 0 -34.5 12t-13.5 31t13.5 31z" />
    <glyph glyph-name="lessequal" unicode="&#x2264;" horiz-adv-x="700" 
d="M480 629q19 0 35 -20l1 -1q12 -15 12 -27q0 -18 -23 -34l-247 -178l247 -178q23 -17 23 -34q0 -15 -13 -29q-16 -19 -35 -19q-14 0 -31 12l-281 201q-17 12 -24.5 23t-7.5 24t7.5 24t24.5 23l281 201q17 12 31 12zM129 9h441q47 0 47 -42t-47 -42h-441q-47 0 -47 42
t47 42z" />
    <glyph glyph-name="greaterequal" unicode="&#x2265;" horiz-adv-x="700" 
d="M555.5 393q7.5 -11 7.5 -24t-7.5 -24t-24.5 -23l-281 -201q-16 -12 -31 -12q-19 0 -35 19q-13 14 -13 29q0 17 23 34l247 178l-247 178q-23 16 -23 34q0 12 12 27l1 1q16 20 35 20q15 0 31 -12l281 -201q17 -12 24.5 -23zM129 9h441q47 0 47 -42t-47 -42h-441
q-47 0 -47 42t47 42z" />
    <glyph glyph-name="uni226A" unicode="&#x226a;" horiz-adv-x="860" 
d="M483 634q19 0 36 -17q11 -13 11 -26q0 -20 -26 -43l-305 -266l305 -266q25 -21 25 -43q0 -13 -11 -27q-15 -16 -34 -16q-17 0 -37 15l-335 287q-18 15 -25 26t-7 24t7 24t25 26l335 287q18 15 36 15zM347 306q7 11 25 26l335 287q18 15 36 15q19 0 36 -17q11 -13 11 -26
q0 -20 -26 -43l-305 -266l305 -266q25 -21 25 -43q0 -13 -11 -27q-15 -17 -35 -17q-19 0 -36 16l-335 287q-18 15 -25 26t-7 24t7 24z" />
    <glyph glyph-name="uni226B" unicode="&#x226b;" horiz-adv-x="860" 
d="M513 306q7 -11 7 -24t-7 -24t-25 -26l-335 -287q-17 -16 -36 -16q-20 0 -35 17q-11 14 -11 27q0 22 25 43l305 266l-305 266q-26 23 -26 43q0 13 11 26q17 17 36 17q18 0 36 -15l335 -287q18 -15 25 -26zM377 634q18 0 36 -15l335 -287q18 -15 25 -26t7 -24t-7 -24
t-25 -26l-335 -287q-19 -15 -37 -15q-19 0 -34 16q-11 14 -11 27q0 22 25 43l305 266l-305 266q-26 23 -26 43q0 13 11 26q17 17 36 17z" />
    <glyph glyph-name="propersubset" unicode="&#x2282;" horiz-adv-x="600" 
d="M83 453.5q33 64.5 94.5 99.5t144.5 35h180q21 0 34.5 -12t13.5 -31t-13.5 -31t-34.5 -12h-120q-119 0 -173.5 -47.5t-54.5 -152.5q0 -106 53.5 -153t174.5 -47h120q21 0 34.5 -12t13.5 -31t-13.5 -31t-34.5 -12h-180q-83 0 -144.5 35t-94.5 99.5t-33 151.5t33 151.5z" />
    <glyph glyph-name="propersuperset" unicode="&#x2283;" horiz-adv-x="600" 
d="M517 150.5q-33 -64.5 -94.5 -99.5t-144.5 -35h-180q-21 0 -34.5 12t-13.5 31t13.5 31t34.5 12h120q121 0 174.5 47t53.5 153q0 105 -54.5 152.5t-173.5 47.5h-120q-21 0 -34.5 12t-13.5 31t13.5 31t34.5 12h180q83 0 144.5 -35t94.5 -99.5t33 -151.5t-33 -151.5z" />
    <glyph glyph-name="reflexsubset" unicode="&#x2286;" horiz-adv-x="700" 
d="M589.5 234.5q10.5 -11.5 10.5 -30.5t-10.5 -30.5t-27.5 -11.5h-244q-73 0 -129 28.5t-87 81t-31 120.5q0 101 66.5 160.5t180.5 59.5h244q17 0 27.5 -11.5t10.5 -30.5t-10.5 -30.5t-27.5 -11.5h-244q-67 0 -105 -36t-38 -100q0 -66 39 -106t104 -40h244q17 0 27.5 -11.5z
M74.5 -8q11.5 12 28.5 12h494q17 0 28.5 -12t11.5 -30t-11.5 -30t-28.5 -12h-494q-17 0 -28.5 12t-11.5 30t11.5 30z" />
    <glyph glyph-name="reflexsuperset" unicode="&#x2287;" horiz-adv-x="700" 
d="M486 286q39 40 39 106q0 64 -38 100t-105 36h-244q-17 0 -27.5 11.5t-10.5 30.5t10.5 30.5t27.5 11.5h244q114 0 180.5 -59.5t66.5 -160.5q0 -68 -31 -120.5t-87 -81t-129 -28.5h-244q-17 0 -27.5 11.5t-10.5 30.5t10.5 30.5t27.5 11.5h244q65 0 104 40zM74.5 -8
q11.5 12 28.5 12h494q17 0 28.5 -12t11.5 -30t-11.5 -30t-28.5 -12h-494q-17 0 -28.5 12t-11.5 30t11.5 30z" />
    <glyph glyph-name="uni2299" unicode="&#x2299;" horiz-adv-x="900" 
d="M221 -72.5q-98 52.5 -152 148.5t-54 224t54 224t152 148.5t228 52.5q131 0 229.5 -52.5t152.5 -148.5t54 -224t-54 -224t-152.5 -148.5t-229.5 -52.5q-130 0 -228 52.5zM146.5 116q42.5 -79 121 -122t181.5 -43q104 0 182 43t120.5 122t42.5 184t-42.5 184t-120.5 122
t-182 43q-103 0 -181.5 -43t-121 -122t-42.5 -184t42.5 -184zM383 231q28 -29 66 -29q39 0 66.5 29t27.5 69t-27.5 69t-66.5 29q-38 0 -66 -29t-28 -69t28 -69z" />
    <glyph glyph-name="uni22A5" unicode="&#x22a5;" horiz-adv-x="672" 
d="M602 27v-76h-532v76h214v458h104v-458h214z" />
    <glyph glyph-name="uni2312" unicode="&#x2312;" horiz-adv-x="600" 
d="M122.5 616q24.5 43 71 67t106.5 24t106.5 -24t71 -67t22.5 -98h-105q3 49 -22 75t-73 26t-73 -26t-22 -75h-105q-2 55 22.5 98z" />
    <glyph glyph-name="uni2460" unicode="&#x2460;" horiz-adv-x="900" 
d="M227 -63q-100 56 -157.5 154t-57.5 218t57.5 218t157.5 154t223 56t223 -56t157.5 -154t57.5 -218t-57.5 -218t-157.5 -154t-223 -56t-223 56zM133.5 119.5q47.5 -85.5 131 -134.5t185.5 -49t185.5 49t131 134.5t47.5 189.5t-47.5 189.5t-131 134.5t-185.5 49t-185.5 -49
t-131 -134.5t-47.5 -189.5t47.5 -189.5zM349 434l83 76q14 14 26 19.5t25 5.5q16 0 26 -10.5t10 -27.5l-9 -393q-1 -17 -8.5 -27t-19.5 -10q-11 0 -18 9.5t-8 27.5l-9 336l-52 -42q-13 -12 -27 -12q-11 0 -19 8.5t-8 19.5q0 14 8 20z" />
    <glyph glyph-name="uni2461" unicode="&#x2461;" horiz-adv-x="900" 
d="M227 -63q-100 56 -157.5 154t-57.5 218t57.5 218t157.5 154t223 56t223 -56t157.5 -154t57.5 -218t-57.5 -218t-157.5 -154t-223 -56t-223 56zM133.5 119.5q47.5 -85.5 131 -134.5t185.5 -49t185.5 49t131 134.5t47.5 189.5t-47.5 189.5t-131 134.5t-185.5 49t-185.5 -49
t-131 -134.5t-47.5 -189.5t47.5 -189.5zM314 134l136 134q41 39 59.5 73.5t18.5 70.5q0 35 -17.5 54.5t-48.5 19.5q-62 0 -95 -86q-3 -8 -11 -13.5t-18 -5.5q-14 0 -23 9.5t-9 24.5q0 31 19 58t53 43t76 16q63 0 102 -31.5t39 -85.5q0 -45 -24 -84.5t-78 -90.5l-119 -112
q-3 -3 -3 -6q0 -6 9 -6h220q10 0 16 -6t6 -16t-6.5 -17t-15.5 -7h-271q-13 0 -21.5 8.5t-8.5 20.5q0 20 15 35z" />
    <glyph glyph-name="uni2462" unicode="&#x2462;" horiz-adv-x="900" 
d="M227 -63q-100 56 -157.5 154t-57.5 218t57.5 218t157.5 154t223 56t223 -56t157.5 -154t57.5 -218t-57.5 -218t-157.5 -154t-223 -56t-223 56zM133.5 119.5q47.5 -85.5 131 -134.5t185.5 -49t185.5 49t131 134.5t47.5 189.5t-47.5 189.5t-131 134.5t-185.5 49t-185.5 -49
t-131 -134.5t-47.5 -189.5t47.5 -189.5zM324 120.5q19 -23.5 52.5 -38.5t74.5 -15q68 0 110 35t42 96q0 45 -30 77t-70 36q36 10 62 41.5t26 71.5q0 49 -37 80t-96 31q-41 0 -73 -14t-49.5 -36.5t-17.5 -46.5q0 -13 8 -21.5t20 -8.5q8 0 14.5 4.5t10.5 11.5q18 36 37.5 51
t48.5 15q31 0 49.5 -18.5t18.5 -50.5q0 -79 -116 -93q-16 -2 -16 -19q0 -9 4.5 -14.5t11.5 -6.5q132 -9 132 -95q0 -39 -22.5 -60.5t-61.5 -21.5q-36 0 -58.5 17.5t-38.5 54.5q-7 15 -25 15q-13 0 -21.5 -8t-8.5 -22q0 -24 19 -47.5z" />
    <glyph glyph-name="uni2463" unicode="&#x2463;" horiz-adv-x="900" 
d="M673 681q100 -56 157.5 -154t57.5 -218t-57.5 -218t-157.5 -154t-223 -56t-223 56t-157.5 154t-57.5 218t57.5 218t157.5 154t223 56t223 -56zM133.5 119.5q47.5 -85.5 131 -134.5t185.5 -49t185.5 49t131 134.5t47.5 189.5t-47.5 189.5t-131 134.5t-185.5 49t-185.5 -49
t-131 -134.5t-47.5 -189.5t47.5 -189.5zM274 239l192 273q16 23 48 23q19 0 31.5 -13t12.5 -32l-5 -256h64q11 0 17 -5.5t6 -15.5t-6.5 -17t-16.5 -7h-65l-2 -85q0 -16 -8 -26.5t-20 -10.5q-11 0 -18 9.5t-8 27.5l-1 85h-203q-11 0 -18.5 7.5t-7.5 19.5t8 23zM494 234
l-4 214l-164 -214h168z" />
    <glyph glyph-name="uni2464" unicode="&#x2464;" horiz-adv-x="900" 
d="M227 -63q-100 56 -157.5 154t-57.5 218t57.5 218t157.5 154t223 56t223 -56t157.5 -154t57.5 -218t-57.5 -218t-157.5 -154t-223 -56t-223 56zM133.5 119.5q47.5 -85.5 131 -134.5t185.5 -49t185.5 49t131 134.5t47.5 189.5t-47.5 189.5t-131 134.5t-185.5 49t-185.5 -49
t-131 -134.5t-47.5 -189.5t47.5 -189.5zM307 184q8 8 22 8t25 -15q22 -28 46.5 -43.5t55.5 -15.5q49 0 74 31.5t25 84.5q0 44 -25 69t-64 25q-31 0 -56 -14.5t-43 -33.5q-9 -10 -13.5 -12.5t-15.5 -2.5q-23 0 -25 25l-7 214q0 11 8.5 19.5t21.5 8.5h230q11 0 18.5 -7
t7.5 -17t-7.5 -17.5t-18.5 -7.5h-191l-10 -157q23 24 53 36.5t63 12.5q61 0 99.5 -37.5t38.5 -97.5q0 -78 -45.5 -124t-127.5 -46q-39 0 -73 13t-54 34t-20 45q0 14 8 22z" />
    <glyph glyph-name="uni2465" unicode="&#x2465;" horiz-adv-x="900" 
d="M673 681q100 -56 157.5 -154t57.5 -218t-57.5 -218t-157.5 -154t-223 -56t-223 56t-157.5 154t-57.5 218t57.5 218t157.5 154t223 56t223 -56zM133.5 119.5q47.5 -85.5 131 -134.5t185.5 -49t185.5 49t131 134.5t47.5 189.5t-47.5 189.5t-131 134.5t-185.5 49t-185.5 -49
t-131 -134.5t-47.5 -189.5t47.5 -189.5zM336.5 471q51.5 64 142.5 64q43 0 74.5 -16.5t31.5 -39.5q0 -13 -9 -22.5t-21 -9.5q-14 0 -25 12q-21 25 -57 25q-54 0 -86.5 -48.5t-36.5 -131.5q21 25 53 40.5t74 15.5q60 0 99 -38t39 -101q0 -69 -44.5 -111.5t-117.5 -42.5
q-80 0 -124 59.5t-44 167.5q0 113 51.5 177zM383 153.5q27 -38.5 70 -38.5t69.5 28t26.5 75q0 44 -24.5 70.5t-65.5 26.5q-30 0 -57.5 -15.5t-50.5 -40.5q5 -67 32 -105.5z" />
    <glyph glyph-name="uni2466" unicode="&#x2466;" horiz-adv-x="900" 
d="M227 -63q-100 56 -157.5 154t-57.5 218t57.5 218t157.5 154t223 56t223 -56t157.5 -154t57.5 -218t-57.5 -218t-157.5 -154t-223 -56t-223 56zM133.5 119.5q47.5 -85.5 131 -134.5t185.5 -49t185.5 49t131 134.5t47.5 189.5t-47.5 189.5t-131 134.5t-185.5 49t-185.5 -49
t-131 -134.5t-47.5 -189.5t47.5 -189.5zM293.5 525q7.5 7 17.5 7h280q10 0 16.5 -7t6.5 -17q0 -8 -4.5 -18t-16.5 -27q-61 -85 -98 -186t-40 -173q-3 -34 -26 -34q-12 0 -17.5 10.5t-5.5 35.5q0 75 38.5 182.5t89.5 183.5h-223q-10 0 -17.5 7.5t-7.5 17.5q0 11 7.5 18z" />
    <glyph glyph-name="uni2467" unicode="&#x2467;" horiz-adv-x="900" 
d="M673 681q100 -56 157.5 -154t57.5 -218t-57.5 -218t-157.5 -154t-223 -56t-223 56t-157.5 154t-57.5 218t57.5 218t157.5 154t223 56t223 -56zM133.5 119.5q47.5 -85.5 131 -134.5t185.5 -49t185.5 49t131 134.5t47.5 189.5t-47.5 189.5t-131 134.5t-185.5 49t-185.5 -49
t-131 -134.5t-47.5 -189.5t47.5 -189.5zM305 273.5q25 34.5 62 45.5q-32 19 -49 44.5t-17 55.5q0 52 42 84t109 32q64 0 106 -32.5t42 -80.5q0 -33 -18 -60.5t-45 -42.5q43 -19 63 -47t20 -68q0 -63 -45 -100t-122 -37q-82 0 -127.5 34.5t-45.5 96.5q0 41 25 75.5z
M372 135.5q29 -24.5 77 -24.5q47 0 76.5 23.5t29.5 60.5q0 36 -27.5 57.5t-95.5 39.5l-23 7q-30 -14 -48 -40.5t-18 -57.5q0 -41 29 -65.5zM390.5 376.5q26.5 -19.5 90.5 -37.5l13 -4q22 17 33.5 39.5t11.5 46.5q0 32 -24 52.5t-63 20.5t-63.5 -19t-24.5 -48
q0 -31 26.5 -50.5z" />
    <glyph glyph-name="uni2468" unicode="&#x2468;" horiz-adv-x="900" 
d="M673 681q100 -56 157.5 -154t57.5 -218t-57.5 -218t-157.5 -154t-223 -56t-223 56t-157.5 154t-57.5 218t57.5 218t157.5 154t223 56t223 -56zM133.5 119.5q47.5 -85.5 131 -134.5t185.5 -49t185.5 49t131 134.5t47.5 189.5t-47.5 189.5t-131 134.5t-185.5 49t-185.5 -49
t-131 -134.5t-47.5 -189.5t47.5 -189.5zM329 492.5q44 42.5 117 42.5q80 0 124.5 -59.5t44.5 -167.5q0 -112 -52 -176.5t-143 -64.5q-44 0 -75 17t-31 42q0 13 8.5 21.5t21.5 8.5q15 0 25 -13q25 -28 58 -28q53 0 86 49.5t36 133.5q-21 -25 -53 -40.5t-73 -15.5
q-60 0 -99 38t-39 101q0 69 44 111.5zM374.5 313.5q24.5 -26.5 66.5 -26.5q54 0 107 55q-5 67 -31.5 105t-69.5 38q-44 0 -70.5 -27.5t-26.5 -73.5q0 -44 24.5 -70.5z" />
    <glyph glyph-name="uni2469" unicode="&#x2469;" horiz-adv-x="900" 
d="M227 -63q-100 56 -157.5 154t-57.5 218t57.5 218t157.5 154t223 56t223 -56t157.5 -154t57.5 -218t-57.5 -218t-157.5 -154t-223 -56t-223 56zM133.5 119.5q47.5 -85.5 131 -134.5t185.5 -49t185.5 49t131 134.5t47.5 189.5t-47.5 189.5t-131 134.5t-185.5 49t-185.5 -49
t-131 -134.5t-47.5 -189.5t47.5 -189.5zM139 428l83 76q14 14 26 19.5t25 5.5q16 0 26.5 -10.5t9.5 -27.5l-9 -393q-1 -17 -8.5 -27t-19.5 -10q-11 0 -18 9.5t-8 27.5l-9 336l-52 -42q-13 -12 -27 -12q-11 0 -19 8.5t-8 19.5q0 14 8 20zM424.5 468.5q50.5 60.5 136.5 60.5
t136.5 -60.5t50.5 -164.5q0 -70 -24 -125.5t-66.5 -86.5t-96.5 -31t-96.5 31t-66.5 86.5t-24 125.5q0 104 50.5 164.5zM459.5 206q15.5 -44 42 -69.5t59.5 -25.5t59.5 25.5t42 69.5t15.5 98q0 80 -32 127.5t-85 47.5t-85 -47.5t-32 -127.5q0 -54 15.5 -98z" />
    <glyph glyph-name="uni246A" unicode="&#x246a;" horiz-adv-x="900" 
d="M227 -63q-100 56 -157.5 154t-57.5 218t57.5 218t157.5 154t223 56t223 -56t157.5 -154t57.5 -218t-57.5 -218t-157.5 -154t-223 -56t-223 56zM133.5 119.5q47.5 -85.5 131 -134.5t185.5 -49t185.5 49t131 134.5t47.5 189.5t-47.5 189.5t-131 134.5t-185.5 49t-185.5 -49
t-131 -134.5t-47.5 -189.5t47.5 -189.5zM206 428l83 76q14 14 26 19.5t25 5.5q16 0 26.5 -10.5t9.5 -27.5l-9 -393q-1 -17 -8.5 -27t-19.5 -10q-11 0 -18 9.5t-8 27.5l-9 336l-52 -42q-13 -12 -27 -12q-11 0 -19 8.5t-8 19.5q0 14 8 20zM466 428l83 76q14 14 26 19.5t25 5.5
q16 0 26.5 -10.5t9.5 -27.5l-9 -393q-1 -17 -8.5 -27t-19.5 -10q-11 0 -18 9.5t-8 27.5l-9 336l-52 -42q-13 -12 -27 -12q-11 0 -19 8.5t-8 19.5q0 14 8 20z" />
    <glyph glyph-name="uni246B" unicode="&#x246b;" horiz-adv-x="900" 
d="M227 -63q-100 56 -157.5 154t-57.5 218t57.5 218t157.5 154t223 56t223 -56t157.5 -154t57.5 -218t-57.5 -218t-157.5 -154t-223 -56t-223 56zM133.5 119.5q47.5 -85.5 131 -134.5t185.5 -49t185.5 49t131 134.5t47.5 189.5t-47.5 189.5t-131 134.5t-185.5 49t-185.5 -49
t-131 -134.5t-47.5 -189.5t47.5 -189.5zM162 428l83 76q14 14 26 19.5t25 5.5q16 0 26.5 -10.5t9.5 -27.5l-9 -393q-1 -17 -8.5 -27t-19.5 -10q-11 0 -18 9.5t-8 27.5l-9 336l-52 -42q-13 -12 -27 -12q-11 0 -19 8.5t-8 19.5q0 14 8 20zM417 131l136 134q41 39 59.5 73.5
t18.5 70.5q0 35 -17.5 54.5t-48.5 19.5q-62 0 -95 -86q-3 -8 -11 -13.5t-18 -5.5q-14 0 -23 9.5t-9 24.5q0 31 19 58t53 43t76 16q63 0 102 -31.5t39 -85.5q0 -45 -24 -84.5t-78 -90.5l-119 -112q-3 -3 -3 -6q0 -6 9 -6h220q10 0 16 -6t6 -16t-6.5 -17t-15.5 -7h-271
q-13 0 -21.5 8.5t-8.5 20.5q0 20 15 35z" />
    <glyph glyph-name="uni246C" unicode="&#x246c;" horiz-adv-x="900" 
d="M227 -63q-100 56 -157.5 154t-57.5 218t57.5 218t157.5 154t223 56t223 -56t157.5 -154t57.5 -218t-57.5 -218t-157.5 -154t-223 -56t-223 56zM133.5 119.5q47.5 -85.5 131 -134.5t185.5 -49t185.5 49t131 134.5t47.5 189.5t-47.5 189.5t-131 134.5t-185.5 49t-185.5 -49
t-131 -134.5t-47.5 -189.5t47.5 -189.5zM172 434l83 76q14 14 26 19.5t25 5.5q16 0 26.5 -10.5t9.5 -27.5l-9 -393q-1 -17 -8.5 -27t-19.5 -10q-11 0 -18 9.5t-8 27.5l-9 336l-52 -42q-13 -12 -27 -12q-11 0 -19 8.5t-8 19.5q0 14 8 20zM424 120.5q19 -23.5 52.5 -38.5
t74.5 -15q68 0 110 35t42 96q0 45 -30 77t-70 36q36 10 62 41.5t26 71.5q0 49 -37 80t-96 31q-41 0 -73 -14t-49.5 -36.5t-17.5 -46.5q0 -13 8 -21.5t20 -8.5q8 0 14.5 4.5t10.5 11.5q18 36 37.5 51t48.5 15q31 0 49.5 -18.5t18.5 -50.5q0 -79 -116 -93q-16 -2 -16 -19
q0 -9 4.5 -14.5t11.5 -6.5q132 -9 132 -95q0 -39 -22.5 -60.5t-61.5 -21.5q-36 0 -58.5 17.5t-38.5 54.5q-7 15 -25 15q-13 0 -21.5 -8t-8.5 -22q0 -24 19 -47.5z" />
    <glyph glyph-name="uni246D" unicode="&#x246d;" horiz-adv-x="900" 
d="M673 681q100 -56 157.5 -154t57.5 -218t-57.5 -218t-157.5 -154t-223 -56t-223 56t-157.5 154t-57.5 218t57.5 218t157.5 154t223 56t223 -56zM133.5 119.5q47.5 -85.5 131 -134.5t185.5 -49t185.5 49t131 134.5t47.5 189.5t-47.5 189.5t-131 134.5t-185.5 49t-185.5 -49
t-131 -134.5t-47.5 -189.5t47.5 -189.5zM172 434l83 76q14 14 26 19.5t25 5.5q16 0 26.5 -10.5t9.5 -27.5l-9 -393q-1 -17 -8.5 -27t-19.5 -10q-11 0 -18 9.5t-8 27.5l-9 336l-52 -42q-13 -12 -27 -12q-11 0 -19 8.5t-8 19.5q0 14 8 20zM378 239l192 273q16 23 48 23
q19 0 31.5 -13t12.5 -32l-5 -256h64q11 0 17 -5.5t6 -15.5t-6.5 -17t-16.5 -7h-65l-2 -85q0 -16 -8 -26.5t-20 -10.5q-11 0 -18 9.5t-8 27.5l-1 85h-203q-11 0 -18.5 7.5t-7.5 19.5t8 23zM598 234l-4 214l-164 -214h168z" />
    <glyph glyph-name="uni246E" unicode="&#x246e;" horiz-adv-x="900" 
d="M227 -63q-100 56 -157.5 154t-57.5 218t57.5 218t157.5 154t223 56t223 -56t157.5 -154t57.5 -218t-57.5 -218t-157.5 -154t-223 -56t-223 56zM133.5 119.5q47.5 -85.5 131 -134.5t185.5 -49t185.5 49t131 134.5t47.5 189.5t-47.5 189.5t-131 134.5t-185.5 49t-185.5 -49
t-131 -134.5t-47.5 -189.5t47.5 -189.5zM169 434l83 76q14 14 26 19.5t25 5.5q16 0 26.5 -10.5t9.5 -27.5l-9 -393q-1 -17 -8.5 -27t-19.5 -10q-11 0 -18 9.5t-8 27.5l-9 336l-52 -42q-13 -12 -27 -12q-11 0 -19 8.5t-8 19.5q0 14 8 20zM417 182q8 8 22 8t25 -15
q22 -28 46.5 -43.5t55.5 -15.5q49 0 74 31.5t25 84.5q0 44 -25 69t-64 25q-31 0 -56 -14.5t-43 -33.5q-9 -10 -13.5 -12.5t-15.5 -2.5q-23 0 -25 25l-7 214q0 11 8.5 19.5t21.5 8.5h230q11 0 18.5 -7t7.5 -17t-7.5 -17.5t-18.5 -7.5h-191l-10 -157q23 24 53 36.5t63 12.5
q61 0 99.5 -37.5t38.5 -97.5q0 -78 -45.5 -124t-127.5 -46q-39 0 -73 13t-54 34t-20 45q0 14 8 22z" />
    <glyph glyph-name="uni2474" unicode="&#x2474;" horiz-adv-x="900" 
d="M170 706q20 19 39 19q12 0 20 -8q11 -11 11 -24q0 -18 -17 -37q-117 -137 -117 -355t117 -355q17 -19 17 -37q0 -13 -11 -24q-8 -8 -20 -8q-19 0 -39 19q-140 133 -140 405t140 405zM349 434l83 76q14 14 26 19.5t25 5.5q16 0 26 -10.5t10 -27.5l-9 -393q-1 -17 -8.5 -27
t-19.5 -10q-11 0 -18 9.5t-8 27.5l-9 336l-52 -42q-13 -12 -27 -12q-11 0 -19 8.5t-8 19.5q0 14 8 20zM660 -91q0 18 17 37q117 137 117 355t-117 355q-17 19 -17 37q0 13 11 24q8 8 20 8q19 0 39 -19q140 -133 140 -405t-140 -405q-20 -19 -39 -19q-12 0 -20 8
q-11 11 -11 24z" />
    <glyph glyph-name="uni2475" unicode="&#x2475;" horiz-adv-x="900" 
d="M170 706q20 19 39 19q12 0 20 -8q11 -11 11 -24q0 -18 -17 -37q-117 -137 -117 -355t117 -355q17 -19 17 -37q0 -13 -11 -24q-8 -8 -20 -8q-19 0 -39 19q-140 133 -140 405t140 405zM314 134l136 134q41 39 59.5 73.5t18.5 70.5q0 35 -17.5 54.5t-48.5 19.5
q-62 0 -95 -86q-3 -8 -11 -13.5t-18 -5.5q-14 0 -23 9.5t-9 24.5q0 31 19 58t53 43t76 16q63 0 102 -31.5t39 -85.5q0 -45 -24 -84.5t-78 -90.5l-119 -112q-3 -3 -3 -6q0 -6 9 -6h220q10 0 16 -6t6 -16t-6.5 -17t-15.5 -7h-271q-13 0 -21.5 8.5t-8.5 20.5q0 20 15 35z
M660 -91q0 18 17 37q117 137 117 355t-117 355q-17 19 -17 37q0 13 11 24q8 8 20 8q19 0 39 -19q140 -133 140 -405t-140 -405q-20 -19 -39 -19q-12 0 -20 8q-11 11 -11 24z" />
    <glyph glyph-name="uni2476" unicode="&#x2476;" horiz-adv-x="900" 
d="M170 706q20 19 39 19q12 0 20 -8q11 -11 11 -24q0 -18 -17 -37q-117 -137 -117 -355t117 -355q17 -19 17 -37q0 -13 -11 -24q-8 -8 -20 -8q-19 0 -39 19q-140 133 -140 405t140 405zM324 120.5q19 -23.5 52.5 -38.5t74.5 -15q68 0 110 35t42 96q0 45 -30 77t-70 36
q36 10 62 41.5t26 71.5q0 49 -37 80t-96 31q-41 0 -73 -14t-49.5 -36.5t-17.5 -46.5q0 -13 8 -21.5t20 -8.5q8 0 14.5 4.5t10.5 11.5q18 36 37.5 51t48.5 15q31 0 49.5 -18.5t18.5 -50.5q0 -79 -116 -93q-16 -2 -16 -19q0 -9 4.5 -14.5t11.5 -6.5q132 -9 132 -95
q0 -39 -22.5 -60.5t-61.5 -21.5q-36 0 -58.5 17.5t-38.5 54.5q-7 15 -25 15q-13 0 -21.5 -8t-8.5 -22q0 -24 19 -47.5zM660 -91q0 18 17 37q117 137 117 355t-117 355q-17 19 -17 37q0 13 11 24q8 8 20 8q19 0 39 -19q140 -133 140 -405t-140 -405q-20 -19 -39 -19
q-12 0 -20 8q-11 11 -11 24z" />
    <glyph glyph-name="uni2477" unicode="&#x2477;" horiz-adv-x="900" 
d="M240 693q0 -18 -17 -37q-117 -137 -117 -355t117 -355q17 -19 17 -37q0 -13 -11 -24q-8 -8 -20 -8q-19 0 -39 19q-140 133 -140 405t140 405q20 19 39 19q12 0 20 -8q11 -11 11 -24zM274 239l192 273q16 23 48 23q19 0 31.5 -13t12.5 -32l-5 -256h64q11 0 17 -5.5
t6 -15.5t-6.5 -17t-16.5 -7h-65l-2 -85q0 -16 -8 -26.5t-20 -10.5q-11 0 -18 9.5t-8 27.5l-1 85h-203q-11 0 -18.5 7.5t-7.5 19.5t8 23zM494 234l-4 214l-164 -214h168zM660 -91q0 18 17 37q117 137 117 355t-117 355q-17 19 -17 37q0 13 11 24q8 8 20 8q19 0 39 -19
q140 -133 140 -405t-140 -405q-20 -19 -39 -19q-12 0 -20 8q-11 11 -11 24z" />
    <glyph glyph-name="uni2478" unicode="&#x2478;" horiz-adv-x="900" 
d="M170 706q20 19 39 19q12 0 20 -8q11 -11 11 -24q0 -18 -17 -37q-117 -137 -117 -355t117 -355q17 -19 17 -37q0 -13 -11 -24q-8 -8 -20 -8q-19 0 -39 19q-140 133 -140 405t140 405zM307 184q8 8 22 8t25 -15q22 -28 46.5 -43.5t55.5 -15.5q49 0 74 31.5t25 84.5
q0 44 -25 69t-64 25q-31 0 -56 -14.5t-43 -33.5q-9 -10 -13.5 -12.5t-15.5 -2.5q-23 0 -25 25l-7 214q0 11 8.5 19.5t21.5 8.5h230q11 0 18.5 -7t7.5 -17t-7.5 -17.5t-18.5 -7.5h-191l-10 -157q23 24 53 36.5t63 12.5q61 0 99.5 -37.5t38.5 -97.5q0 -78 -45.5 -124
t-127.5 -46q-39 0 -73 13t-54 34t-20 45q0 14 8 22zM660 -91q0 18 17 37q117 137 117 355t-117 355q-17 19 -17 37q0 13 11 24q8 8 20 8q19 0 39 -19q140 -133 140 -405t-140 -405q-20 -19 -39 -19q-12 0 -20 8q-11 11 -11 24z" />
    <glyph glyph-name="uni2479" unicode="&#x2479;" horiz-adv-x="900" 
d="M240 693q0 -18 -17 -37q-117 -137 -117 -355t117 -355q17 -19 17 -37q0 -13 -11 -24q-8 -8 -20 -8q-19 0 -39 19q-140 133 -140 405t140 405q20 19 39 19q12 0 20 -8q11 -11 11 -24zM336.5 471q51.5 64 142.5 64q43 0 74.5 -16.5t31.5 -39.5q0 -13 -9 -22.5t-21 -9.5
q-14 0 -25 12q-21 25 -57 25q-54 0 -86.5 -48.5t-36.5 -131.5q21 25 53 40.5t74 15.5q60 0 99 -38t39 -101q0 -69 -44.5 -111.5t-117.5 -42.5q-80 0 -124 59.5t-44 167.5q0 113 51.5 177zM383 153.5q27 -38.5 70 -38.5t69.5 28t26.5 75q0 44 -24.5 70.5t-65.5 26.5
q-30 0 -57.5 -15.5t-50.5 -40.5q5 -67 32 -105.5zM660 -91q0 18 17 37q117 137 117 355t-117 355q-17 19 -17 37q0 13 11 24q8 8 20 8q19 0 39 -19q140 -133 140 -405t-140 -405q-20 -19 -39 -19q-12 0 -20 8q-11 11 -11 24z" />
    <glyph glyph-name="uni247A" unicode="&#x247a;" horiz-adv-x="900" 
d="M170 706q20 19 39 19q12 0 20 -8q11 -11 11 -24q0 -18 -17 -37q-117 -137 -117 -355t117 -355q17 -19 17 -37q0 -13 -11 -24q-8 -8 -20 -8q-19 0 -39 19q-140 133 -140 405t140 405zM293.5 525q7.5 7 17.5 7h280q10 0 16.5 -7t6.5 -17q0 -8 -4.5 -18t-16.5 -27
q-61 -85 -98 -186t-40 -173q-3 -34 -26 -34q-12 0 -17.5 10.5t-5.5 35.5q0 75 38.5 182.5t89.5 183.5h-223q-10 0 -17.5 7.5t-7.5 17.5q0 11 7.5 18zM660 -91q0 18 17 37q117 137 117 355t-117 355q-17 19 -17 37q0 13 11 24q8 8 20 8q19 0 39 -19q140 -133 140 -405
t-140 -405q-20 -19 -39 -19q-12 0 -20 8q-11 11 -11 24z" />
    <glyph glyph-name="uni247B" unicode="&#x247b;" horiz-adv-x="900" 
d="M240 693q0 -18 -17 -37q-117 -137 -117 -355t117 -355q17 -19 17 -37q0 -13 -11 -24q-8 -8 -20 -8q-19 0 -39 19q-140 133 -140 405t140 405q20 19 39 19q12 0 20 -8q11 -11 11 -24zM305 273.5q25 34.5 62 45.5q-32 19 -49 44.5t-17 55.5q0 52 42 84t109 32
q64 0 106 -32.5t42 -80.5q0 -33 -18 -60.5t-45 -42.5q43 -19 63 -47t20 -68q0 -63 -45 -100t-122 -37q-82 0 -127.5 34.5t-45.5 96.5q0 41 25 75.5zM372 135.5q29 -24.5 77 -24.5q47 0 76.5 23.5t29.5 60.5q0 36 -27.5 57.5t-95.5 39.5l-23 7q-30 -14 -48 -40.5t-18 -57.5
q0 -41 29 -65.5zM390.5 376.5q26.5 -19.5 90.5 -37.5l13 -4q22 17 33.5 39.5t11.5 46.5q0 32 -24 52.5t-63 20.5t-63.5 -19t-24.5 -48q0 -31 26.5 -50.5zM660 -91q0 18 17 37q117 137 117 355t-117 355q-17 19 -17 37q0 13 11 24q8 8 20 8q19 0 39 -19q140 -133 140 -405
t-140 -405q-20 -19 -39 -19q-12 0 -20 8q-11 11 -11 24z" />
    <glyph glyph-name="uni247C" unicode="&#x247c;" horiz-adv-x="900" 
d="M240 693q0 -18 -17 -37q-117 -137 -117 -355t117 -355q17 -19 17 -37q0 -13 -11 -24q-8 -8 -20 -8q-19 0 -39 19q-140 133 -140 405t140 405q20 19 39 19q12 0 20 -8q11 -11 11 -24zM329 492.5q44 42.5 117 42.5q80 0 124.5 -59.5t44.5 -167.5q0 -112 -52 -176.5
t-143 -64.5q-44 0 -75 17t-31 42q0 13 8.5 21.5t21.5 8.5q15 0 25 -13q25 -28 58 -28q53 0 86 49.5t36 133.5q-21 -25 -53 -40.5t-73 -15.5q-60 0 -99 38t-39 101q0 69 44 111.5zM374.5 313.5q24.5 -26.5 66.5 -26.5q54 0 107 55q-5 67 -31.5 105t-69.5 38
q-44 0 -70.5 -27.5t-26.5 -73.5q0 -44 24.5 -70.5zM660 -91q0 18 17 37q117 137 117 355t-117 355q-17 19 -17 37q0 13 11 24q8 8 20 8q19 0 39 -19q140 -133 140 -405t-140 -405q-20 -19 -39 -19q-12 0 -20 8q-11 11 -11 24z" />
    <glyph glyph-name="uni247D" unicode="&#x247d;" horiz-adv-x="900" 
d="M170 706q20 19 39 19q12 0 20 -8q11 -11 11 -24q0 -18 -17 -37q-117 -137 -117 -355t117 -355q17 -19 17 -37q0 -13 -11 -24q-8 -8 -20 -8q-19 0 -39 19q-140 133 -140 405t140 405zM139 428l83 76q14 14 26 19.5t25 5.5q16 0 26.5 -10.5t9.5 -27.5l-9 -393
q-1 -17 -8.5 -27t-19.5 -10q-11 0 -18 9.5t-8 27.5l-9 336l-52 -42q-13 -12 -27 -12q-11 0 -19 8.5t-8 19.5q0 14 8 20zM424.5 468.5q50.5 60.5 136.5 60.5t136.5 -60.5t50.5 -164.5q0 -70 -24 -125.5t-66.5 -86.5t-96.5 -31t-96.5 31t-66.5 86.5t-24 125.5
q0 104 50.5 164.5zM459.5 206q15.5 -44 42 -69.5t59.5 -25.5t59.5 25.5t42 69.5t15.5 98q0 80 -32 127.5t-85 47.5t-85 -47.5t-32 -127.5q0 -54 15.5 -98zM660 -91q0 18 17 37q117 137 117 355t-117 355q-17 19 -17 37q0 13 11 24q8 8 20 8q19 0 39 -19q140 -133 140 -405
t-140 -405q-20 -19 -39 -19q-12 0 -20 8q-11 11 -11 24z" />
    <glyph glyph-name="uni247E" unicode="&#x247e;" horiz-adv-x="900" 
d="M170 706q20 19 39 19q12 0 20 -8q11 -11 11 -24q0 -18 -17 -37q-117 -137 -117 -355t117 -355q17 -19 17 -37q0 -13 -11 -24q-8 -8 -20 -8q-19 0 -39 19q-140 133 -140 405t140 405zM206 428l83 76q14 14 26 19.5t25 5.5q16 0 26.5 -10.5t9.5 -27.5l-9 -393
q-1 -17 -8.5 -27t-19.5 -10q-11 0 -18 9.5t-8 27.5l-9 336l-52 -42q-13 -12 -27 -12q-11 0 -19 8.5t-8 19.5q0 14 8 20zM466 428l83 76q14 14 26 19.5t25 5.5q16 0 26.5 -10.5t9.5 -27.5l-9 -393q-1 -17 -8.5 -27t-19.5 -10q-11 0 -18 9.5t-8 27.5l-9 336l-52 -42
q-13 -12 -27 -12q-11 0 -19 8.5t-8 19.5q0 14 8 20zM660 -91q0 18 17 37q117 137 117 355t-117 355q-17 19 -17 37q0 13 11 24q8 8 20 8q19 0 39 -19q140 -133 140 -405t-140 -405q-20 -19 -39 -19q-12 0 -20 8q-11 11 -11 24z" />
    <glyph glyph-name="uni247F" unicode="&#x247f;" horiz-adv-x="900" 
d="M170 706q20 19 39 19q12 0 20 -8q11 -11 11 -24q0 -18 -17 -37q-117 -137 -117 -355t117 -355q17 -19 17 -37q0 -13 -11 -24q-8 -8 -20 -8q-19 0 -39 19q-140 133 -140 405t140 405zM162 428l83 76q14 14 26 19.5t25 5.5q16 0 26.5 -10.5t9.5 -27.5l-9 -393
q-1 -17 -8.5 -27t-19.5 -10q-11 0 -18 9.5t-8 27.5l-9 336l-52 -42q-13 -12 -27 -12q-11 0 -19 8.5t-8 19.5q0 14 8 20zM417 131l136 134q41 39 59.5 73.5t18.5 70.5q0 35 -17.5 54.5t-48.5 19.5q-62 0 -95 -86q-3 -8 -11 -13.5t-18 -5.5q-14 0 -23 9.5t-9 24.5q0 31 19 58
t53 43t76 16q63 0 102 -31.5t39 -85.5q0 -45 -24 -84.5t-78 -90.5l-119 -112q-3 -3 -3 -6q0 -6 9 -6h220q10 0 16 -6t6 -16t-6.5 -17t-15.5 -7h-271q-13 0 -21.5 8.5t-8.5 20.5q0 20 15 35zM660 -91q0 18 17 37q117 137 117 355t-117 355q-17 19 -17 37q0 13 11 24q8 8 20 8
q19 0 39 -19q140 -133 140 -405t-140 -405q-20 -19 -39 -19q-12 0 -20 8q-11 11 -11 24z" />
    <glyph glyph-name="uni2480" unicode="&#x2480;" horiz-adv-x="900" 
d="M170 706q20 19 39 19q12 0 20 -8q11 -11 11 -24q0 -18 -17 -37q-117 -137 -117 -355t117 -355q17 -19 17 -37q0 -13 -11 -24q-8 -8 -20 -8q-19 0 -39 19q-140 133 -140 405t140 405zM172 434l83 76q14 14 26 19.5t25 5.5q16 0 26.5 -10.5t9.5 -27.5l-9 -393
q-1 -17 -8.5 -27t-19.5 -10q-11 0 -18 9.5t-8 27.5l-9 336l-52 -42q-13 -12 -27 -12q-11 0 -19 8.5t-8 19.5q0 14 8 20zM424 120.5q19 -23.5 52.5 -38.5t74.5 -15q68 0 110 35t42 96q0 45 -30 77t-70 36q36 10 62 41.5t26 71.5q0 49 -37 80t-96 31q-41 0 -73 -14
t-49.5 -36.5t-17.5 -46.5q0 -13 8 -21.5t20 -8.5q8 0 14.5 4.5t10.5 11.5q18 36 37.5 51t48.5 15q31 0 49.5 -18.5t18.5 -50.5q0 -79 -116 -93q-16 -2 -16 -19q0 -9 4.5 -14.5t11.5 -6.5q132 -9 132 -95q0 -39 -22.5 -60.5t-61.5 -21.5q-36 0 -58.5 17.5t-38.5 54.5
q-7 15 -25 15q-13 0 -21.5 -8t-8.5 -22q0 -24 19 -47.5zM660 -91q0 18 17 37q117 137 117 355t-117 355q-17 19 -17 37q0 13 11 24q8 8 20 8q19 0 39 -19q140 -133 140 -405t-140 -405q-20 -19 -39 -19q-12 0 -20 8q-11 11 -11 24z" />
    <glyph glyph-name="uni2481" unicode="&#x2481;" horiz-adv-x="900" 
d="M223 -54q17 -19 17 -37q0 -13 -11 -24q-8 -8 -20 -8q-19 0 -39 19q-140 133 -140 405t140 405q20 19 39 19q12 0 20 -8q11 -11 11 -24q0 -18 -17 -37q-117 -137 -117 -355t117 -355zM172 434l83 76q14 14 26 19.5t25 5.5q16 0 26.5 -10.5t9.5 -27.5l-9 -393
q-1 -17 -8.5 -27t-19.5 -10q-11 0 -18 9.5t-8 27.5l-9 336l-52 -42q-13 -12 -27 -12q-11 0 -19 8.5t-8 19.5q0 14 8 20zM378 239l192 273q16 23 48 23q19 0 31.5 -13t12.5 -32l-5 -256h64q11 0 17 -5.5t6 -15.5t-6.5 -17t-16.5 -7h-65l-2 -85q0 -16 -8 -26.5t-20 -10.5
q-11 0 -18 9.5t-8 27.5l-1 85h-203q-11 0 -18.5 7.5t-7.5 19.5t8 23zM598 234l-4 214l-164 -214h168zM660 -91q0 18 17 37q117 137 117 355t-117 355q-17 19 -17 37q0 13 11 24q8 8 20 8q19 0 39 -19q140 -133 140 -405t-140 -405q-20 -19 -39 -19q-12 0 -20 8
q-11 11 -11 24z" />
    <glyph glyph-name="uni2482" unicode="&#x2482;" horiz-adv-x="900" 
d="M170 706q20 19 39 19q12 0 20 -8q11 -11 11 -24q0 -18 -17 -37q-117 -137 -117 -355t117 -355q17 -19 17 -37q0 -13 -11 -24q-8 -8 -20 -8q-19 0 -39 19q-140 133 -140 405t140 405zM169 434l83 76q14 14 26 19.5t25 5.5q16 0 26.5 -10.5t9.5 -27.5l-9 -393
q-1 -17 -8.5 -27t-19.5 -10q-11 0 -18 9.5t-8 27.5l-9 336l-52 -42q-13 -12 -27 -12q-11 0 -19 8.5t-8 19.5q0 14 8 20zM417 182q8 8 22 8t25 -15q22 -28 46.5 -43.5t55.5 -15.5q49 0 74 31.5t25 84.5q0 44 -25 69t-64 25q-31 0 -56 -14.5t-43 -33.5q-9 -10 -13.5 -12.5
t-15.5 -2.5q-23 0 -25 25l-7 214q0 11 8.5 19.5t21.5 8.5h230q11 0 18.5 -7t7.5 -17t-7.5 -17.5t-18.5 -7.5h-191l-10 -157q23 24 53 36.5t63 12.5q61 0 99.5 -37.5t38.5 -97.5q0 -78 -45.5 -124t-127.5 -46q-39 0 -73 13t-54 34t-20 45q0 14 8 22zM660 -91q0 18 17 37
q117 137 117 355t-117 355q-17 19 -17 37q0 13 11 24q8 8 20 8q19 0 39 -19q140 -133 140 -405t-140 -405q-20 -19 -39 -19q-12 0 -20 8q-11 11 -11 24z" />
    <glyph glyph-name="uni249C" unicode="&#x249c;" horiz-adv-x="900" 
d="M240 693q0 -18 -17 -37q-117 -137 -117 -355t117 -355q17 -19 17 -37q0 -13 -11 -24q-8 -8 -20 -8q-19 0 -39 19q-140 133 -140 405t140 405q20 19 39 19q12 0 20 -8q11 -11 11 -24zM300 384q20 38 55 60.5t77 22.5q24 0 44.5 -6.5t32.5 -17.5q8 24 35 24q20 0 29 -13.5
t8 -37.5l-7 -219q-1 -21 -8 -33.5t-21 -12.5q-25 0 -28 42q-16 -18 -43.5 -30t-56.5 -12q-38 0 -69.5 19.5t-49.5 54t-18 75.5q0 46 20 84zM372 228.5q24 -25.5 66 -25.5q23 0 43.5 10t33.5 26l-8 161q-24 16 -60 16q-47 0 -73 -31t-26 -85q0 -46 24 -71.5zM660 -91
q0 18 17 37q117 137 117 355t-117 355q-17 19 -17 37q0 13 11 24q8 8 20 8q19 0 39 -19q140 -133 140 -405t-140 -405q-20 -19 -39 -19q-12 0 -20 8q-11 11 -11 24z" />
    <glyph glyph-name="uni249D" unicode="&#x249d;" horiz-adv-x="900" 
d="M240 693q0 -18 -17 -37q-117 -137 -117 -355t117 -355q17 -19 17 -37q0 -13 -11 -24q-8 -8 -20 -8q-19 0 -39 19q-140 133 -140 405t140 405q20 19 39 19q12 0 20 -8q11 -11 11 -24zM338.5 556q9.5 14 29.5 14t29 -13.5t8 -37.5l-3 -167q18 15 41.5 23.5t49.5 8.5
q37 0 68.5 -19.5t49.5 -54t18 -75.5q0 -45 -20 -83.5t-55 -61t-77 -22.5q-26 0 -47.5 8t-33.5 20q-7 -28 -27 -28q-13 0 -20.5 12.5t-7.5 33.5l-11 405q-1 23 8.5 37zM463 119q46 0 72 31t26 85q0 46 -24 72t-66 26q-19 0 -37.5 -8t-32.5 -21l-3 -167q27 -18 65 -18z
M660 -91q0 18 17 37q117 137 117 355t-117 355q-17 19 -17 37q0 13 11 24q8 8 20 8q19 0 39 -19q140 -133 140 -405t-140 -405q-20 -19 -39 -19q-12 0 -20 8q-11 11 -11 24z" />
    <glyph glyph-name="uni249E" unicode="&#x249e;" horiz-adv-x="900" 
d="M170 706q20 19 39 19q12 0 20 -8q11 -11 11 -24q0 -18 -17 -37q-117 -137 -117 -355t117 -355q17 -19 17 -37q0 -13 -11 -24q-8 -8 -20 -8q-19 0 -39 19q-140 133 -140 405t140 405zM356.5 423.5q47.5 43.5 121.5 43.5q46 0 78 -20.5t32 -47.5q0 -13 -9.5 -23t-22.5 -10
q-17 0 -27 16q-22 33 -62 33q-41 0 -65.5 -28t-24.5 -76t24 -78t63 -30q23 0 37 10t24 32q4 7 13 12.5t18 5.5q14 0 25 -11.5t11 -25.5q0 -31 -36.5 -53t-91.5 -22q-44 0 -79.5 21t-55.5 57.5t-20 81.5q0 69 47.5 112.5zM660 -91q0 18 17 37q117 137 117 355t-117 355
q-17 19 -17 37q0 13 11 24q8 8 20 8q19 0 39 -19q140 -133 140 -405t-140 -405q-20 -19 -39 -19q-12 0 -20 8q-11 11 -11 24z" />
    <glyph glyph-name="uni249F" unicode="&#x249f;" horiz-adv-x="900" 
d="M240 693q0 -18 -17 -37q-117 -137 -117 -355t117 -355q17 -19 17 -37q0 -13 -11 -24q-8 -8 -20 -8q-19 0 -39 19q-140 133 -140 405t140 405q20 19 39 19q12 0 20 -8q11 -11 11 -24zM300 320q20 38 55 60.5t77 22.5q50 0 76 -23l-4 158q-1 23 8.5 37t29.5 14t29 -13.5
t8 -37.5l-7 -405q-1 -21 -8 -33.5t-21 -12.5q-25 0 -28 40q-17 -18 -43.5 -29t-55.5 -11q-37 0 -68.5 19.5t-49.5 54t-18 75.5q0 46 20 84zM372 164.5q24 -25.5 66 -25.5q22 0 42.5 9.5t33.5 25.5l-4 161q-25 17 -64 17q-46 0 -72 -31t-26 -85q0 -46 24 -71.5zM660 -91
q0 18 17 37q117 137 117 355t-117 355q-17 19 -17 37q0 13 11 24q8 8 20 8q19 0 39 -19q140 -133 140 -405t-140 -405q-20 -19 -39 -19q-12 0 -20 8q-11 11 -11 24z" />
    <glyph glyph-name="uni24A0" unicode="&#x24a0;" horiz-adv-x="900" 
d="M240 693q0 -18 -17 -37q-117 -137 -117 -355t117 -355q17 -19 17 -37q0 -13 -11 -24q-8 -8 -20 -8q-19 0 -39 19q-140 133 -140 405t140 405q20 19 39 19q12 0 20 -8q11 -11 11 -24zM350 423.5q43 43.5 111 43.5q56 0 94 -31t38 -77q0 -58 -57 -58h-161q3 -44 26.5 -71
t59.5 -27q47 0 66 40q3 7 11.5 11.5t17.5 4.5q14 0 23.5 -9t9.5 -24q0 -31 -35 -53t-93 -22q-67 0 -110.5 45t-43.5 115q0 69 43 112.5zM506 348q14 0 19 4t5 14q0 22 -18.5 37t-47.5 15q-34 0 -56 -18t-29 -52h127zM660 -91q0 18 17 37q117 137 117 355t-117 355
q-17 19 -17 37q0 13 11 24q8 8 20 8q19 0 39 -19q140 -133 140 -405t-140 -405q-20 -19 -39 -19q-12 0 -20 8q-11 11 -11 24z" />
    <glyph glyph-name="uni24A1" unicode="&#x24a1;" horiz-adv-x="900" 
d="M240 693q0 -18 -17 -37q-117 -137 -117 -355t117 -355q17 -19 17 -37q0 -13 -11 -24q-8 -8 -20 -8q-19 0 -39 19q-140 133 -140 405t140 405q20 19 39 19q12 0 20 -8q11 -11 11 -24zM334.5 349q7.5 7 19.5 7h27l-2 71q-1 56 31.5 89t86.5 33q30 0 48 -14t18 -36
q0 -14 -9 -22.5t-21 -8.5t-21 13q-11 16 -26 16q-32 0 -32 -60l-2 -81h84q10 0 17 -7t7 -19t-7 -19t-17 -7h-85l-5 -217q-1 -19 -9 -29.5t-20 -10.5t-19.5 11t-8.5 29l-6 217h-29q-12 0 -19.5 7t-7.5 19t7.5 19zM660 -91q0 18 17 37q117 137 117 355t-117 355q-17 19 -17 37
q0 13 11 24q8 8 20 8q19 0 39 -19q140 -133 140 -405t-140 -405q-20 -19 -39 -19q-12 0 -20 8q-11 11 -11 24z" />
    <glyph glyph-name="uni24A2" unicode="&#x24a2;" horiz-adv-x="900" 
d="M240 693q0 -18 -17 -37q-117 -137 -117 -355t117 -355q17 -19 17 -37q0 -13 -11 -24q-8 -8 -20 -8q-19 0 -39 19q-140 133 -140 405t140 405q20 19 39 19q12 0 20 -8q11 -11 11 -24zM340 479.5q42 41.5 105 41.5q50 0 79 -23q4 11 13 17t22 6q17 0 28 -11.5t10 -27.5
l-6 -229q-1 -83 -43 -128.5t-114 -45.5q-56 0 -95.5 22t-39.5 54q0 12 8.5 20.5t21.5 8.5t20 -10q9 -13 34 -28.5t63 -15.5q45 0 68 27t20 74l-2 44q-17 -16 -43.5 -26t-56.5 -10q-58 0 -96 36.5t-38 98.5q0 64 42 105.5zM388 311q23 -23 63 -23q20 0 40.5 8t37.5 22l-7 137
q-28 16 -63 16q-45 0 -69.5 -25.5t-24.5 -71.5q0 -40 23 -63zM660 -91q0 18 17 37q117 137 117 355t-117 355q-17 19 -17 37q0 13 11 24q8 8 20 8q19 0 39 -19q140 -133 140 -405t-140 -405q-20 -19 -39 -19q-12 0 -20 8q-11 11 -11 24z" />
    <glyph glyph-name="uni24A3" unicode="&#x24a3;" horiz-adv-x="900" 
d="M240 693q0 -18 -17 -37q-117 -137 -117 -355t117 -355q17 -19 17 -37q0 -13 -11 -24q-8 -8 -20 -8q-19 0 -39 19q-140 133 -140 405t140 405q20 19 39 19q12 0 20 -8q11 -11 11 -24zM329.5 576q9.5 14 29.5 14t29 -13.5t8 -37.5l-3 -185q16 22 43.5 36t57.5 14
q50 0 81.5 -38.5t30.5 -99.5l-4 -132q0 -21 -7 -33.5t-20 -12.5t-20 12.5t-8 34.5l-5 133q-2 40 -18.5 62t-48.5 22q-25 0 -47.5 -13.5t-35.5 -36.5l-3 -168q-1 -21 -8 -33.5t-21 -12.5q-13 0 -20.5 12.5t-7.5 33.5l-11 405q-1 23 8.5 37zM660 -91q0 18 17 37
q117 137 117 355t-117 355q-17 19 -17 37q0 13 11 24q8 8 20 8q19 0 39 -19q140 -133 140 -405t-140 -405q-20 -19 -39 -19q-12 0 -20 8q-11 11 -11 24z" />
    <glyph glyph-name="uni24A4" unicode="&#x24a4;" horiz-adv-x="900" 
d="M170 706q20 19 39 19q12 0 20 -8q11 -11 11 -24q0 -18 -17 -37q-117 -137 -117 -355t117 -355q17 -19 17 -37q0 -13 -11 -24q-8 -8 -20 -8q-19 0 -39 19q-140 133 -140 405t140 405zM416 556.5q13 13.5 34 13.5t34 -13.5t13 -34.5q0 -22 -12.5 -34.5t-34.5 -12.5
t-34.5 12.5t-12.5 34.5q0 21 13 34.5zM418.5 370q9.5 14 29.5 14t29 -13.5t8 -37.5l-7 -219q-1 -21 -8 -33.5t-21 -12.5q-13 0 -20 12.5t-8 33.5l-11 219q-1 23 8.5 37zM660 -91q0 18 17 37q117 137 117 355t-117 355q-17 19 -17 37q0 13 11 24q8 8 20 8q19 0 39 -19
q140 -133 140 -405t-140 -405q-20 -19 -39 -19q-12 0 -20 8q-11 11 -11 24z" />
    <glyph glyph-name="uni24A5" unicode="&#x24a5;" horiz-adv-x="900" 
d="M170 706q20 19 39 19q12 0 20 -8q11 -11 11 -24q0 -18 -17 -37q-117 -137 -117 -355t117 -355q17 -19 17 -37q0 -13 -11 -24q-8 -8 -20 -8q-19 0 -39 19q-140 133 -140 405t140 405zM382 43q27 18 39.5 42.5t10.5 64.5l-10 228q-2 23 8 37t30 14q37 0 37 -51l-7 -228
q-1 -47 -14.5 -84.5t-34 -58.5t-41.5 -21q-14 0 -23 9t-9 24q0 13 14 24zM427.5 601q12.5 13 34.5 13q21 0 34 -13t13 -35q0 -21 -13 -34t-34 -13q-22 0 -34.5 13t-12.5 34q0 22 12.5 35zM660 -91q0 18 17 37q117 137 117 355t-117 355q-17 19 -17 37q0 13 11 24q8 8 20 8
q19 0 39 -19q140 -133 140 -405t-140 -405q-20 -19 -39 -19q-12 0 -20 8q-11 11 -11 24z" />
    <glyph glyph-name="uni24A6" unicode="&#x24a6;" horiz-adv-x="900" 
d="M240 693q0 -18 -17 -37q-117 -137 -117 -355t117 -355q17 -19 17 -37q0 -13 -11 -24q-8 -8 -20 -8q-19 0 -39 19q-140 133 -140 405t140 405q20 19 39 19q12 0 20 -8q11 -11 11 -24zM345.5 566.5q9.5 13.5 28.5 13.5q38 0 38 -51l-5 -254l115 93q21 16 29.5 21t17.5 5
q13 0 21 -8.5t8 -20.5q0 -10 -7 -18.5t-22 -17.5l-78 -49l106 -137q13 -18 17.5 -26.5t4.5 -16.5q0 -9 -6 -15.5t-15 -6.5t-16 5t-21 22l-121 143l-34 -21l-2 -103q0 -21 -7.5 -33.5t-20.5 -12.5q-14 0 -21 12.5t-8 33.5l-10 405q-1 24 8.5 37.5zM660 -91q0 18 17 37
q117 137 117 355t-117 355q-17 19 -17 37q0 13 11 24q8 8 20 8q19 0 39 -19q140 -133 140 -405t-140 -405q-20 -19 -39 -19q-12 0 -20 8q-11 11 -11 24z" />
    <glyph glyph-name="uni24A7" unicode="&#x24a7;" horiz-adv-x="900" 
d="M170 706q20 19 39 19q12 0 20 -8q11 -11 11 -24q0 -18 -17 -37q-117 -137 -117 -355t117 -355q17 -19 17 -37q0 -13 -11 -24q-8 -8 -20 -8q-19 0 -39 19q-140 133 -140 405t140 405zM420.5 546q9.5 14 29.5 14t29 -13.5t8 -37.5l-7 -405q-1 -21 -8 -33.5t-21 -12.5
q-13 0 -20.5 12.5t-7.5 33.5l-11 405q-1 23 8.5 37zM660 -91q0 18 17 37q117 137 117 355t-117 355q-17 19 -17 37q0 13 11 24q8 8 20 8q19 0 39 -19q140 -133 140 -405t-140 -405q-20 -19 -39 -19q-12 0 -20 8q-11 11 -11 24z" />
    <glyph glyph-name="uni24A8" unicode="&#x24a8;" horiz-adv-x="900" 
d="M223 -54q17 -19 17 -37q0 -13 -11 -24q-8 -8 -20 -8q-19 0 -39 19q-140 133 -140 405t140 405q20 19 39 19q12 0 20 -8q11 -11 11 -24q0 -18 -17 -37q-117 -137 -117 -355t117 -355zM227 443q10 14 30 14q34 0 37 -44q16 20 40.5 32t49.5 12q33 0 58 -13.5t37 -36.5
q18 22 44.5 36t53.5 14q47 0 76.5 -39t28.5 -99l-3 -132q-1 -22 -8 -34t-19 -12q-13 0 -20.5 13t-7.5 34l-5 132q-2 42 -17 64.5t-43 22.5q-21 0 -40 -14.5t-30 -38.5l-3 -167q-2 -46 -27 -46q-13 0 -20 12.5t-8 34.5l-5 132q-2 42 -17 64.5t-43 22.5q-22 0 -42 -13t-31 -33
l-6 -174q-1 -21 -8 -33.5t-21 -12.5q-26 0 -29 46l-10 219q-2 23 8 37zM660 -91q0 18 17 37q117 137 117 355t-117 355q-17 19 -17 37q0 13 11 24q8 8 20 8q19 0 39 -19q140 -133 140 -405t-140 -405q-20 -19 -39 -19q-12 0 -20 8q-11 11 -11 24z" />
    <glyph glyph-name="uni24A9" unicode="&#x24a9;" horiz-adv-x="900" 
d="M240 693q0 -18 -17 -37q-117 -137 -117 -355t117 -355q17 -19 17 -37q0 -13 -11 -24q-8 -8 -20 -8q-19 0 -39 19q-140 133 -140 405t140 405q20 19 39 19q12 0 20 -8q11 -11 11 -24zM315.5 443q9.5 14 29.5 14q18 0 27.5 -12.5t9.5 -33.5q17 21 43.5 33.5t54.5 12.5
q50 0 81.5 -39t30.5 -99l-4 -132q0 -21 -7 -33.5t-20 -12.5t-20 12.5t-8 34.5l-5 132q-2 41 -18.5 63t-48.5 22q-24 0 -45.5 -12.5t-35.5 -33.5l-5 -172q-1 -21 -8 -33.5t-21 -12.5q-13 0 -20 12.5t-8 33.5l-11 219q-1 23 8.5 37zM660 -91q0 18 17 37q117 137 117 355
t-117 355q-17 19 -17 37q0 13 11 24q8 8 20 8q19 0 39 -19q140 -133 140 -405t-140 -405q-20 -19 -39 -19q-12 0 -20 8q-11 11 -11 24z" />
    <glyph glyph-name="uni24AA" unicode="&#x24aa;" horiz-adv-x="900" 
d="M170 706q20 19 39 19q12 0 20 -8q11 -11 11 -24q0 -18 -17 -37q-117 -137 -117 -355t117 -355q17 -19 17 -37q0 -13 -11 -24q-8 -8 -20 -8q-19 0 -39 19q-140 133 -140 405t140 405zM316.5 390q20.5 36 55.5 56.5t78 20.5t78 -20.5t55.5 -56.5t20.5 -79
q0 -45 -20.5 -81.5t-55.5 -57.5t-78 -21t-78 21t-55.5 57.5t-20.5 81.5q0 43 20.5 79zM388 232.5q24 -30.5 62 -30.5t62 30.5t24 78.5q0 47 -24 76t-62 29t-62 -29t-24 -76q0 -48 24 -78.5zM660 -91q0 18 17 37q117 137 117 355t-117 355q-17 19 -17 37q0 13 11 24q8 8 20 8
q19 0 39 -19q140 -133 140 -405t-140 -405q-20 -19 -39 -19q-12 0 -20 8q-11 11 -11 24z" />
    <glyph glyph-name="uni24AB" unicode="&#x24ab;" horiz-adv-x="900" 
d="M240 693q0 -18 -17 -37q-117 -137 -117 -355t117 -355q17 -19 17 -37q0 -13 -11 -24q-8 -8 -20 -8q-19 0 -39 19q-140 133 -140 405t140 405q20 19 39 19q12 0 20 -8q11 -11 11 -24zM338.5 487.5q9.5 13.5 29.5 13.5q29 0 36 -31q17 14 40.5 22.5t48.5 8.5
q37 0 68.5 -19.5t49.5 -53.5t18 -75q0 -46 -20 -84t-55 -60.5t-77 -22.5q-24 0 -44 6.5t-33 16.5l-2 -105q-2 -45 -29 -45q-13 0 -20.5 12t-7.5 33l-11 347q-1 23 8.5 36.5zM463 236q46 0 72 31.5t26 85.5q0 46 -24 71.5t-66 25.5q-18 0 -35.5 -7t-31.5 -19l-3 -171
q28 -17 62 -17zM660 -91q0 18 17 37q117 137 117 355t-117 355q-17 19 -17 37q0 13 11 24q8 8 20 8q19 0 39 -19q140 -133 140 -405t-140 -405q-20 -19 -39 -19q-12 0 -20 8q-11 11 -11 24z" />
    <glyph glyph-name="uni24AC" unicode="&#x24ac;" horiz-adv-x="900" 
d="M240 693q0 -18 -17 -37q-117 -137 -117 -355t117 -355q17 -19 17 -37q0 -13 -11 -24q-8 -8 -20 -8q-19 0 -39 19q-140 133 -140 405t140 405q20 19 39 19q12 0 20 -8q11 -11 11 -24zM301 416q20 38 55 60.5t77 22.5q49 0 76 -22q8 22 34 22q20 0 29 -13.5t8 -36.5
l-7 -347q-2 -45 -29 -45q-13 0 -20 12t-8 33l-4 118q-17 -16 -42 -26t-53 -10q-37 0 -68.5 19.5t-49.5 53.5t-18 75q0 46 20 84zM373 260.5q24 -25.5 66 -25.5q20 0 39 8.5t33 22.5l-6 168q-23 15 -58 15q-46 0 -72 -31.5t-26 -85.5q0 -46 24 -71.5zM660 -91q0 18 17 37
q117 137 117 355t-117 355q-17 19 -17 37q0 13 11 24q8 8 20 8q19 0 39 -19q140 -133 140 -405t-140 -405q-20 -19 -39 -19q-12 0 -20 8q-11 11 -11 24z" />
    <glyph glyph-name="uni24AD" unicode="&#x24ad;" horiz-adv-x="900" 
d="M240 693q0 -18 -17 -37q-117 -137 -117 -355t117 -355q17 -19 17 -37q0 -13 -11 -24q-8 -8 -20 -8q-19 0 -39 19q-140 133 -140 405t140 405q20 19 39 19q12 0 20 -8q11 -11 11 -24zM359 433q10 14 30 14t29 -13.5t8 -37.5v-6q16 24 40 40.5t53 16.5q39 0 62.5 -24.5
t23.5 -60.5q0 -14 -9 -24t-22 -10q-9 0 -17 6.5t-10 15.5q-8 24 -17 35.5t-29 11.5q-21 0 -43 -19.5t-34 -46.5l-5 -154q-1 -21 -8 -33.5t-21 -12.5q-13 0 -20 12.5t-8 33.5l-11 219q-2 23 8 37zM660 -91q0 18 17 37q117 137 117 355t-117 355q-17 19 -17 37q0 13 11 24
q8 8 20 8q19 0 39 -19q140 -133 140 -405t-140 -405q-20 -19 -39 -19q-12 0 -20 8q-11 11 -11 24z" />
    <glyph glyph-name="uni24AE" unicode="&#x24ae;" horiz-adv-x="900" 
d="M170 706q20 19 39 19q12 0 20 -8q11 -11 11 -24q0 -18 -17 -37q-117 -137 -117 -355t117 -355q17 -19 17 -37q0 -13 -11 -24q-8 -8 -20 -8q-19 0 -39 19q-140 133 -140 405t140 405zM317.5 250q8.5 10 21.5 10q24 0 34 -27q8 -20 28.5 -29.5t55.5 -9.5t53.5 14t18.5 40
q0 45 -70 45q-73 0 -109 20.5t-36 62.5t37.5 66.5t101.5 24.5q50 0 83 -14.5t33 -37.5q0 -12 -7 -20.5t-19 -8.5t-21 9q-30 30 -77 30q-29 0 -48.5 -11t-19.5 -30t17 -27.5t53 -8.5q144 0 144 -91q0 -50 -38.5 -78t-105.5 -28q-62 0 -100 20t-38 55q0 14 8.5 24zM660 -91
q0 18 17 37q117 137 117 355t-117 355q-17 19 -17 37q0 13 11 24q8 8 20 8q19 0 39 -19q140 -133 140 -405t-140 -405q-20 -19 -39 -19q-12 0 -20 8q-11 11 -11 24z" />
    <glyph glyph-name="uni24AF" unicode="&#x24af;" horiz-adv-x="900" 
d="M240 693q0 -18 -17 -37q-117 -137 -117 -355t117 -355q17 -19 17 -37q0 -13 -11 -24q-8 -8 -20 -8q-19 0 -39 19q-140 133 -140 405t140 405q20 19 39 19q12 0 20 -8q11 -11 11 -24zM332 387.5q8 7.5 19 7.5h32l-2 91q0 18 10.5 28.5t27.5 10.5t27 -10.5t10 -27.5l-2 -92
h68q10 0 17 -7.5t7 -18.5q0 -12 -6.5 -19t-17.5 -7h-70l-4 -156q-1 -23 5.5 -34.5t22.5 -11.5q24 0 35 14q8 11 22 11q12 0 20 -8.5t8 -20.5q0 -21 -17.5 -33.5t-47.5 -12.5q-56 0 -81.5 37t-27.5 116l-2 99h-34q-11 0 -19 7.5t-8 18.5t8 18.5zM660 -91q0 18 17 37
q117 137 117 355t-117 355q-17 19 -17 37q0 13 11 24q8 8 20 8q19 0 39 -19q140 -133 140 -405t-140 -405q-20 -19 -39 -19q-12 0 -20 8q-11 11 -11 24z" />
    <glyph glyph-name="uni24B0" unicode="&#x24b0;" horiz-adv-x="900" 
d="M240 693q0 -18 -17 -37q-117 -137 -117 -355t117 -355q17 -19 17 -37q0 -13 -11 -24q-8 -8 -20 -8q-19 0 -39 19q-140 133 -140 405t140 405q20 19 39 19q12 0 20 -8q11 -11 11 -24zM341 458q20 0 29.5 -14t7.5 -37l-6 -128q-2 -46 15 -65.5t54 -19.5q26 0 49.5 15.5
t35.5 40.5l-5 157q-1 24 8.5 37.5t28.5 13.5q20 0 29.5 -14t8.5 -37l-11 -219q-3 -46 -29 -46q-13 0 -20.5 12.5t-7.5 33.5v9q-15 -24 -44.5 -39.5t-60.5 -15.5q-50 0 -81.5 38.5t-33.5 99.5l-5 127q0 51 38 51zM660 -91q0 18 17 37q117 137 117 355t-117 355q-17 19 -17 37
q0 13 11 24q8 8 20 8q19 0 39 -19q140 -133 140 -405t-140 -405q-20 -19 -39 -19q-12 0 -20 8q-11 11 -11 24z" />
    <glyph glyph-name="uni24B1" unicode="&#x24b1;" horiz-adv-x="900" 
d="M170 706q20 19 39 19q12 0 20 -8q11 -11 11 -24q0 -18 -17 -37q-117 -137 -117 -355t117 -355q17 -19 17 -37q0 -13 -11 -24q-8 -8 -20 -8q-19 0 -39 19q-140 133 -140 405t140 405zM318 443q10 9 25 9q12 0 21 -7t13 -20l70 -213q1 -4 3.5 -4t3.5 4l70 213q4 13 13 20
t21 7q15 0 25 -9t10 -23q0 -19 -13 -49l-85 -198q-16 -37 -46 -37q-15 0 -25 8.5t-19 28.5l-84 198q-13 30 -13 49q0 14 10 23zM660 -91q0 18 17 37q117 137 117 355t-117 355q-17 19 -17 37q0 13 11 24q8 8 20 8q19 0 39 -19q140 -133 140 -405t-140 -405q-20 -19 -39 -19
q-12 0 -20 8q-11 11 -11 24z" />
    <glyph glyph-name="uni24B2" unicode="&#x24b2;" horiz-adv-x="900" 
d="M170 706q20 19 39 19q12 0 20 -8q11 -11 11 -24q0 -18 -17 -37q-117 -137 -117 -355t117 -355q17 -19 17 -37q0 -13 -11 -24q-8 -8 -20 -8q-19 0 -39 19q-140 133 -140 405t140 405zM240.5 439q9.5 9 23.5 9q11 0 19 -7t11 -20l58 -208q1 -4 4.5 -3.5t4.5 3.5l55 200
q9 35 42 35q32 0 41 -35l55 -200q1 -4 4 -3.5t4 3.5l59 208q3 13 11 20t19 7q14 0 23.5 -9t9.5 -22q0 -20 -10 -49l-71 -195q-13 -37 -46 -37t-44 36l-53 161q-1 4 -2.5 4t-3.5 -4l-53 -161q-11 -36 -45 -36q-32 0 -45 37l-70 195q-10 29 -10 49q0 13 9.5 22zM660 -91
q0 18 17 37q117 137 117 355t-117 355q-17 19 -17 37q0 13 11 24q8 8 20 8q19 0 39 -19q140 -133 140 -405t-140 -405q-20 -19 -39 -19q-12 0 -20 8q-11 11 -11 24z" />
    <glyph glyph-name="uni24B3" unicode="&#x24b3;" horiz-adv-x="900" 
d="M240 693q0 -18 -17 -37q-117 -137 -117 -355t117 -355q17 -19 17 -37q0 -13 -11 -24q-8 -8 -20 -8q-19 0 -39 19q-140 133 -140 405t140 405q20 19 39 19q12 0 20 -8q11 -11 11 -24zM309 182l105 127l-75 79q-21 22 -21 40q0 13 9 22t21 9q11 0 20.5 -6.5t23.5 -23.5
l61 -73l60 73q14 17 23.5 23.5t20.5 6.5q12 0 21 -9t9 -22q0 -18 -21 -40l-75 -79l105 -127q7 -9 7 -17q0 -7 -7 -14.5t-15 -7.5q-7 0 -12.5 3.5t-16.5 14.5l-99 106l-100 -106q-11 -11 -16.5 -14.5t-12.5 -3.5t-14.5 7.5t-7.5 14.5q0 8 7 17zM660 -91q0 18 17 37
q117 137 117 355t-117 355q-17 19 -17 37q0 13 11 24q8 8 20 8q19 0 39 -19q140 -133 140 -405t-140 -405q-20 -19 -39 -19q-12 0 -20 8q-11 11 -11 24z" />
    <glyph glyph-name="uni24B4" unicode="&#x24b4;" horiz-adv-x="900" 
d="M240 693q0 -18 -17 -37q-117 -137 -117 -355t117 -355q17 -19 17 -37q0 -13 -11 -24q-8 -8 -20 -8q-19 0 -39 19q-140 133 -140 405t140 405q20 19 39 19q12 0 20 -8q11 -11 11 -24zM326 478q10 9 25 9q12 0 21 -7t13 -20l76 -212l71 212q4 13 13 20t21 7q15 0 25 -9
t10 -22q0 -20 -13 -49l-85 -198q-39 -91 -68 -127.5t-55 -36.5q-11 0 -19.5 8.5t-8.5 21.5t13 24q9 6 28.5 26.5t35.5 46.5l-100 235q-13 29 -13 49q0 13 10 22zM660 -91q0 18 17 37q117 137 117 355t-117 355q-17 19 -17 37q0 13 11 24q8 8 20 8q19 0 39 -19
q140 -133 140 -405t-140 -405q-20 -19 -39 -19q-12 0 -20 8q-11 11 -11 24z" />
    <glyph glyph-name="uni24B5" unicode="&#x24b5;" horiz-adv-x="900" 
d="M170 706q20 19 39 19q12 0 20 -8q11 -11 11 -24q0 -18 -17 -37q-117 -137 -117 -355t117 -355q17 -19 17 -37q0 -13 -11 -24q-8 -8 -20 -8q-19 0 -39 19q-140 133 -140 405t140 405zM328 194l148 204q3 5 3 8q0 4 -7 4h-122q-13 0 -20 6t-7 16t8 17t19 7h200
q10 0 17.5 -7.5t7.5 -16.5q0 -8 -3.5 -14.5t-11.5 -16.5l-153 -192q-3 -4 -2 -6.5t5 -2.5h155q11 0 17.5 -6t6.5 -16q0 -11 -6.5 -17.5t-17.5 -6.5h-215q-11 0 -19 7.5t-8 18.5q0 6 5 14zM660 -91q0 18 17 37q117 137 117 355t-117 355q-17 19 -17 37q0 13 11 24q8 8 20 8
q19 0 39 -19q140 -133 140 -405t-140 -405q-20 -19 -39 -19q-12 0 -20 8q-11 11 -11 24z" />
    <glyph glyph-name="uni24D0" unicode="&#x24d0;" horiz-adv-x="900" 
d="M673 681q100 -56 157.5 -154t57.5 -218t-57.5 -218t-157.5 -154t-223 -56t-223 56t-157.5 154t-57.5 218t57.5 218t157.5 154t223 56t223 -56zM133.5 119.5q47.5 -85.5 131 -134.5t185.5 -49t185.5 49t131 134.5t47.5 189.5t-47.5 189.5t-131 134.5t-185.5 49t-185.5 -49
t-131 -134.5t-47.5 -189.5t47.5 -189.5zM300 384q20 38 55 60.5t77 22.5q24 0 44.5 -6.5t32.5 -17.5q8 24 35 24q20 0 29 -13.5t8 -37.5l-7 -219q-1 -21 -8 -33.5t-21 -12.5q-25 0 -28 42q-16 -18 -43.5 -30t-56.5 -12q-38 0 -69.5 19.5t-49.5 54t-18 75.5q0 46 20 84z
M372 228.5q24 -25.5 66 -25.5q23 0 43.5 10t33.5 26l-8 161q-24 16 -60 16q-47 0 -73 -31t-26 -85q0 -46 24 -71.5z" />
    <glyph glyph-name="uni24D1" unicode="&#x24d1;" horiz-adv-x="900" 
d="M673 681q100 -56 157.5 -154t57.5 -218t-57.5 -218t-157.5 -154t-223 -56t-223 56t-157.5 154t-57.5 218t57.5 218t157.5 154t223 56t223 -56zM133.5 119.5q47.5 -85.5 131 -134.5t185.5 -49t185.5 49t131 134.5t47.5 189.5t-47.5 189.5t-131 134.5t-185.5 49t-185.5 -49
t-131 -134.5t-47.5 -189.5t47.5 -189.5zM338.5 556q9.5 14 29.5 14t29 -13.5t8 -37.5l-3 -167q18 15 41.5 23.5t49.5 8.5q37 0 68.5 -19.5t49.5 -54t18 -75.5q0 -45 -20 -83.5t-55 -61t-77 -22.5q-26 0 -47.5 8t-33.5 20q-7 -28 -27 -28q-13 0 -20.5 12.5t-7.5 33.5l-11 405
q-1 23 8.5 37zM463 119q46 0 72 31t26 85q0 46 -24 72t-66 26q-19 0 -37.5 -8t-32.5 -21l-3 -167q27 -18 65 -18z" />
    <glyph glyph-name="uni24D2" unicode="&#x24d2;" horiz-adv-x="900" 
d="M227 -63q-100 56 -157.5 154t-57.5 218t57.5 218t157.5 154t223 56t223 -56t157.5 -154t57.5 -218t-57.5 -218t-157.5 -154t-223 -56t-223 56zM133.5 119.5q47.5 -85.5 131 -134.5t185.5 -49t185.5 49t131 134.5t47.5 189.5t-47.5 189.5t-131 134.5t-185.5 49t-185.5 -49
t-131 -134.5t-47.5 -189.5t47.5 -189.5zM356.5 423.5q47.5 43.5 121.5 43.5q46 0 78 -20.5t32 -47.5q0 -13 -9.5 -23t-22.5 -10q-17 0 -27 16q-22 33 -62 33q-41 0 -65.5 -28t-24.5 -76t24 -78t63 -30q23 0 37 10t24 32q4 7 13 12.5t18 5.5q14 0 25 -11.5t11 -25.5
q0 -31 -36.5 -53t-91.5 -22q-44 0 -79.5 21t-55.5 57.5t-20 81.5q0 69 47.5 112.5z" />
    <glyph glyph-name="uni24D3" unicode="&#x24d3;" horiz-adv-x="900" 
d="M673 681q100 -56 157.5 -154t57.5 -218t-57.5 -218t-157.5 -154t-223 -56t-223 56t-157.5 154t-57.5 218t57.5 218t157.5 154t223 56t223 -56zM133.5 119.5q47.5 -85.5 131 -134.5t185.5 -49t185.5 49t131 134.5t47.5 189.5t-47.5 189.5t-131 134.5t-185.5 49t-185.5 -49
t-131 -134.5t-47.5 -189.5t47.5 -189.5zM300 320q20 38 55 60.5t77 22.5q50 0 76 -23l-4 158q-1 23 8.5 37t29.5 14t29 -13.5t8 -37.5l-7 -405q-1 -21 -8 -33.5t-21 -12.5q-25 0 -28 40q-17 -18 -43.5 -29t-55.5 -11q-37 0 -68.5 19.5t-49.5 54t-18 75.5q0 46 20 84z
M372 164.5q24 -25.5 66 -25.5q22 0 42.5 9.5t33.5 25.5l-4 161q-25 17 -64 17q-46 0 -72 -31t-26 -85q0 -46 24 -71.5z" />
    <glyph glyph-name="uni24D4" unicode="&#x24d4;" horiz-adv-x="900" 
d="M673 681q100 -56 157.5 -154t57.5 -218t-57.5 -218t-157.5 -154t-223 -56t-223 56t-157.5 154t-57.5 218t57.5 218t157.5 154t223 56t223 -56zM133.5 119.5q47.5 -85.5 131 -134.5t185.5 -49t185.5 49t131 134.5t47.5 189.5t-47.5 189.5t-131 134.5t-185.5 49t-185.5 -49
t-131 -134.5t-47.5 -189.5t47.5 -189.5zM350 423.5q43 43.5 111 43.5q56 0 94 -31t38 -77q0 -58 -57 -58h-161q3 -44 26.5 -71t59.5 -27q47 0 66 40q3 7 11.5 11.5t17.5 4.5q14 0 23.5 -9t9.5 -24q0 -31 -35 -53t-93 -22q-67 0 -110.5 45t-43.5 115q0 69 43 112.5zM506 348
q14 0 19 4t5 14q0 22 -18.5 37t-47.5 15q-34 0 -56 -18t-29 -52h127z" />
    <glyph glyph-name="uni24D5" unicode="&#x24d5;" horiz-adv-x="900" 
d="M673 681q100 -56 157.5 -154t57.5 -218t-57.5 -218t-157.5 -154t-223 -56t-223 56t-157.5 154t-57.5 218t57.5 218t157.5 154t223 56t223 -56zM133.5 119.5q47.5 -85.5 131 -134.5t185.5 -49t185.5 49t131 134.5t47.5 189.5t-47.5 189.5t-131 134.5t-185.5 49t-185.5 -49
t-131 -134.5t-47.5 -189.5t47.5 -189.5zM334.5 349q7.5 7 19.5 7h27l-2 71q-1 56 31.5 89t86.5 33q30 0 48 -14t18 -36q0 -14 -9 -22.5t-21 -8.5t-21 13q-11 16 -26 16q-32 0 -32 -60l-2 -81h84q10 0 17 -7t7 -19t-7 -19t-17 -7h-85l-5 -217q-1 -19 -9 -29.5t-20 -10.5
t-19.5 11t-8.5 29l-6 217h-29q-12 0 -19.5 7t-7.5 19t7.5 19z" />
    <glyph glyph-name="uni24D6" unicode="&#x24d6;" horiz-adv-x="900" 
d="M673 681q100 -56 157.5 -154t57.5 -218t-57.5 -218t-157.5 -154t-223 -56t-223 56t-157.5 154t-57.5 218t57.5 218t157.5 154t223 56t223 -56zM133.5 119.5q47.5 -85.5 131 -134.5t185.5 -49t185.5 49t131 134.5t47.5 189.5t-47.5 189.5t-131 134.5t-185.5 49t-185.5 -49
t-131 -134.5t-47.5 -189.5t47.5 -189.5zM340 479.5q42 41.5 105 41.5q50 0 79 -23q4 11 13 17t22 6q17 0 28 -11.5t10 -27.5l-6 -229q-1 -83 -43 -128.5t-114 -45.5q-56 0 -95.5 22t-39.5 54q0 12 8.5 20.5t21.5 8.5t20 -10q9 -13 34 -28.5t63 -15.5q45 0 68 27t20 74l-2 44
q-17 -16 -43.5 -26t-56.5 -10q-58 0 -96 36.5t-38 98.5q0 64 42 105.5zM388 311q23 -23 63 -23q20 0 40.5 8t37.5 22l-7 137q-28 16 -63 16q-45 0 -69.5 -25.5t-24.5 -71.5q0 -40 23 -63z" />
    <glyph glyph-name="uni24D7" unicode="&#x24d7;" horiz-adv-x="900" 
d="M673 681q100 -56 157.5 -154t57.5 -218t-57.5 -218t-157.5 -154t-223 -56t-223 56t-157.5 154t-57.5 218t57.5 218t157.5 154t223 56t223 -56zM133.5 119.5q47.5 -85.5 131 -134.5t185.5 -49t185.5 49t131 134.5t47.5 189.5t-47.5 189.5t-131 134.5t-185.5 49t-185.5 -49
t-131 -134.5t-47.5 -189.5t47.5 -189.5zM329.5 576q9.5 14 29.5 14t29 -13.5t8 -37.5l-3 -185q16 22 43.5 36t57.5 14q50 0 81.5 -38.5t30.5 -99.5l-4 -132q0 -21 -7 -33.5t-20 -12.5t-20 12.5t-8 34.5l-5 133q-2 40 -18.5 62t-48.5 22q-25 0 -47.5 -13.5t-35.5 -36.5
l-3 -168q-1 -21 -8 -33.5t-21 -12.5q-13 0 -20.5 12.5t-7.5 33.5l-11 405q-1 23 8.5 37z" />
    <glyph glyph-name="uni24D8" unicode="&#x24d8;" horiz-adv-x="900" 
d="M227 -63q-100 56 -157.5 154t-57.5 218t57.5 218t157.5 154t223 56t223 -56t157.5 -154t57.5 -218t-57.5 -218t-157.5 -154t-223 -56t-223 56zM133.5 119.5q47.5 -85.5 131 -134.5t185.5 -49t185.5 49t131 134.5t47.5 189.5t-47.5 189.5t-131 134.5t-185.5 49t-185.5 -49
t-131 -134.5t-47.5 -189.5t47.5 -189.5zM416 556.5q13 13.5 34 13.5t34 -13.5t13 -34.5q0 -22 -12.5 -34.5t-34.5 -12.5t-34.5 12.5t-12.5 34.5q0 21 13 34.5zM418.5 370q9.5 14 29.5 14t29 -13.5t8 -37.5l-7 -219q-1 -21 -8 -33.5t-21 -12.5q-13 0 -20 12.5t-8 33.5
l-11 219q-1 23 8.5 37z" />
    </font>
</defs>
</svg>
