<?xml version="1.0" standalone="no"?>
<!DOCTYPE svg PUBLIC "-//W3C//DTD SVG 1.1//EN" "http://www.w3.org/Graphics/SVG/1.1/DTD/svg11.dtd" >
<svg xmlns="http://www.w3.org/2000/svg" xmlns:xlink="http://www.w3.org/1999/xlink" version="1.1">
<metadata>
Created by FontForge 20170731 at Thu Apr 28 02:52:45 2022
 By Aleksey,,,
Copyright (c) 2022 by Dalseo-gu. All rights reserved.
</metadata>
<defs>
<font id="DalseoDarling" horiz-adv-x="1000" vert-adv-y="1000" >
  <font-face 
    font-family="DalseoDarling"
    font-weight="400"
    font-stretch="normal"
    units-per-em="1000"
    panose-1="0 0 0 0 0 0 0 0 0 0"
    ascent="800"
    descent="-200"
    x-height="459"
    cap-height="683"
    bbox="-35 -172 1085 802"
    underline-thickness="50"
    underline-position="-200"
    unicode-range="U+0020-FFE3"
  />
<missing-glyph horiz-adv-x="840" 
 />
    <glyph glyph-name=".notdef" horiz-adv-x="840" 
 />
    <glyph glyph-name=".null" horiz-adv-x="0" vert-adv-y="0" 
 />
    <glyph glyph-name="nonmarkingreturn" horiz-adv-x="333" 
 />
    <glyph glyph-name="space" unicode=" " horiz-adv-x="250" 
 />
    <glyph glyph-name="space" unicode="&#xa0;" horiz-adv-x="250" 
 />
    <glyph glyph-name="exclam" unicode="!" horiz-adv-x="260" 
d="M130 729q29 0 65 -13l-24 -501q-1 -35 -12.5 -49.5t-35.5 -14.5q-17 0 -33 4l-26 511q-1 30 16.5 46.5t49.5 16.5zM68 23q0 26 18 44t44 18t43.5 -18t17.5 -44q0 -25 -18 -42.5t-43 -17.5q-26 0 -44 17.5t-18 42.5z" />
    <glyph glyph-name="quotedbl" unicode="&#x22;" horiz-adv-x="327" 
d="M84 792q26 0 53 -13l-17 -206q-2 -30 -12.5 -43.5t-30.5 -13.5q-6 0 -28 4l-19 216q-2 26 12.5 41t41.5 15zM244 792q26 0 53 -13l-17 -206q-2 -30 -12.5 -43.5t-30.5 -13.5q-6 0 -28 4l-19 216q-2 26 12.5 41t41.5 15z" />
    <glyph glyph-name="numbersign" unicode="#" horiz-adv-x="667" 
d="M24 221q0 10 5 28h102l39 223h-73q-33 0 -33 29q0 10 5 28h111l18 101q2 14 2 21q0 18 -6 32h81q47 0 47 -31q0 -7 -2 -19l-19 -104h139l18 101q2 14 2 21q0 18 -6 32h81q47 0 47 -31q0 -7 -2 -19l-19 -104h83q3 -15 3 -25q0 -32 -30 -32h-66l-39 -223h92q3 -15 3 -25
q0 -32 -30 -32h-75l-23 -129q-1 -4 -1 -13t2 -18t6 -13h-73q-29 0 -40.5 10t-11.5 32q0 16 5 44l15 87h-139l-23 -129q-1 -4 -1 -13t2 -18t6 -13h-73q-29 0 -40.5 10t-11.5 32q0 16 5 44l15 87h-64q-33 0 -33 29zM252 249h139l39 223h-139z" />
    <glyph glyph-name="dollar" unicode="$" horiz-adv-x="552" 
d="M219 33v40q-34 3 -77 10q-73 11 -105 28q-2 6 -2 18q0 19 9.5 31.5t21.5 10.5q35 -15 97 -27q30 -5 56 -8v196q-73 26 -122 64q-59 46 -59 101q0 74 63 105q45 23 118 29v23q0 16 -4 30.5t-10 22.5h81q36 0 45 -13t9 -37v-27q17 -2 35 -5q47 -8 85 -24q2 -29 -9.5 -45.5
t-26.5 -11.5q-45 17 -84 24v-169q67 -27 115 -61q62 -44 62 -110q0 -79 -67 -118q-43 -25 -110 -34v-77h-80q-22 0 -31.5 7t-9.5 27zM360 154q34 22 34 61q0 38 -36 61q-8 6 -18 11v-143q11 4 20 10zM195 554q-34 -19 -34 -48q0 -28 30 -47q11 -6 28 -14v119q-13 -4 -24 -10
z" />
    <glyph glyph-name="percent" unicode="%" horiz-adv-x="900" 
d="M159 -68q-19 0 -45 32l611 746q21 -9 31.5 -17.5t10.5 -19.5t-12 -26l-572 -702q-11 -13 -24 -13zM534 169q0 127 46.5 183.5t121.5 56.5t121.5 -56.5t46.5 -183.5t-46.5 -183.5t-121.5 -56.5t-121.5 56.5t-46.5 183.5zM773 132v74q0 75 -19 116.5t-52 41.5t-52 -41.5
t-19 -116.5v-74q0 -75 19 -116.5t52 -41.5t52 41.5t19 116.5zM30 469q0 127 46.5 183.5t121.5 56.5t121.5 -56.5t46.5 -183.5t-46.5 -183.5t-121.5 -56.5t-121.5 56.5t-46.5 183.5zM269 432v74q0 75 -19 116.5t-52 41.5t-52 -41.5t-19 -116.5v-74q0 -75 19 -116.5t52 -41.5
t52 41.5t19 116.5z" />
    <glyph glyph-name="ampersand" unicode="&#x26;" horiz-adv-x="642" 
d="M30 174q0 61 45 114t113 94q-55 48 -82 86t-27 79q0 37 20 71t61 55t101 21q90 0 146 -37.5t56 -113.5q0 -56 -40.5 -104t-111.5 -87l171 -176q30 41 58 116q8 5 18 5q14 0 25 -9t13 -29q-5 -24 -25 -59.5t-47 -69.5l88 -92q-26 -32 -44 -32q-13 0 -24 13l-63 68
q-40 -35 -92 -55t-113 -20q-113 0 -179.5 36t-66.5 126zM246 422q93 68 104 121q2 12 2 17q0 34 -26.5 55.5t-72.5 21.5q-45 0 -69.5 -25.5t-24.5 -60.5q0 -28 16 -50.5t71 -78.5zM278 68q47 0 85.5 17t73.5 49l-177 181q-50 -32 -78.5 -72.5t-28.5 -72.5q0 -51 33 -76.5
t92 -25.5z" />
    <glyph glyph-name="quotesingle" unicode="'" horiz-adv-x="167" 
d="M84 792q26 0 53 -13l-17 -206q-2 -30 -12.5 -43.5t-30.5 -13.5q-6 0 -28 4l-19 216q-2 26 12.5 41t41.5 15z" />
    <glyph glyph-name="parenleft" unicode="(" horiz-adv-x="314" 
d="M70 319q0 116 46 215t133 167q35 -8 35 -30q0 -10 -8 -18q-63 -61 -98.5 -146.5t-35.5 -187.5t35.5 -187.5t98.5 -146.5q8 -8 8 -18q0 -22 -35 -30q-87 68 -133 167t-46 215z" />
    <glyph glyph-name="parenright" unicode=")" horiz-adv-x="314" 
d="M30 -33q0 10 8 18q63 61 98.5 146.5t35.5 187.5t-35.5 187.5t-98.5 146.5q-8 8 -8 18q0 22 35 30q87 -68 133 -167t46 -215t-46 -215t-133 -167q-35 8 -35 30z" />
    <glyph glyph-name="asterisk" unicode="*" horiz-adv-x="416" 
d="M139 561l-109 46l19 67l113 -28l11 124h70l11 -123l113 27l19 -67l-109 -46l73 -108l-52 -42l-90 95l-98 -95l-53 42z" />
    <glyph glyph-name="plus" unicode="+" horiz-adv-x="600" 
d="M243 197v134h-175q-23 0 -23 29q0 12 3 28h195v154q0 16 -4 30.5t-10 22.5h81q36 0 45 -13t9 -37v-157h190q2 -20 2 -25q0 -32 -20 -32h-172v-176q0 -12 4.5 -25.5t10.5 -18.5h-53q-43 0 -63 21.5t-20 64.5z" />
    <glyph glyph-name="comma" unicode="," horiz-adv-x="220" 
d="M49 23q0 26 18 44t44 18q25 0 41 -17.5t20 -44.5v-3q1 -5 1 -13q0 -44 -23 -89.5t-53 -75.5q-11 -10 -25 -10q-7 0 -11 3.5t-4 9.5t4 11q49 52 50 107q-26 0 -44 17.5t-18 42.5z" />
    <glyph glyph-name="hyphen" unicode="-" horiz-adv-x="527" 
d="M50 360q0 10 5 28h419q3 -15 3 -25q0 -32 -30 -32h-364q-33 0 -33 29z" />
    <glyph glyph-name="period" unicode="." horiz-adv-x="220" 
d="M48 23q0 26 18 44t44 18t43.5 -18t17.5 -44q0 -25 -18 -42.5t-43 -17.5q-26 0 -44 17.5t-18 42.5z" />
    <glyph glyph-name="slash" unicode="/" horiz-adv-x="570" 
d="M96 -67q-18 0 -46 25l422 750q25 -6 36.5 -13t11.5 -20q0 -10 -7 -23l-392 -701q-10 -18 -25 -18z" />
    <glyph glyph-name="zero" unicode="0" horiz-adv-x="600" 
d="M35 353q0 115 35 191.5t94.5 113t135.5 36.5t135.5 -36.5t94.5 -113t35 -191.5t-35 -191.5t-94.5 -113t-135.5 -36.5t-135.5 36.5t-94.5 113t-35 191.5zM442 298v110q0 115 -39 172t-103 57t-103 -57t-39 -172v-110q0 -115 39 -172.5t103 -57.5t103 57.5t39 172.5z" />
    <glyph glyph-name="one" unicode="1" horiz-adv-x="380" 
d="M55 516q-14 0 -22.5 12t-7.5 36l162 121h83q23 0 34 -11.5t11 -30.5v-624h-80q-22 0 -31.5 7t-9.5 27v563l-127 -98q-8 -2 -12 -2z" />
    <glyph glyph-name="two" unicode="2" horiz-adv-x="510" 
d="M343 514q0 55 -35 89t-94 34q-29 0 -54 -9t-61 -27q-3 -2 -9 -2q-13 0 -20.5 14t-6.5 40q37 20 81 30.5t81 10.5q115 0 178 -51t63 -138q0 -93 -80 -190l-193 -235h279q3 -15 3 -25q0 -32 -30 -32h-363q-15 0 -26 11t-11 25q0 11 6 18l208 257q45 56 64.5 96.5t19.5 83.5
z" />
    <glyph glyph-name="three" unicode="3" horiz-adv-x="550" 
d="M121 369q0 11 4 24l79 6q77 11 111.5 43t34.5 86q0 50 -32.5 79.5t-88.5 29.5q-57 0 -119 -32q-6 -2 -9 -2q-13 0 -21 14t-6 40q32 18 80 27.5t86 9.5q107 0 170 -44.5t63 -125.5q0 -72 -48 -112q-20 -17 -47 -29q46 -13 79 -42q53 -46 53 -133q0 -97 -75 -146.5
t-196 -49.5q-59 0 -111.5 11.5t-85.5 31.5q-2 7 -2 19q0 19 9 29t22 8q41 -21 78.5 -32t87.5 -11q65 0 107.5 37.5t42.5 96.5q0 140 -170 145l-62 -2q-18 -1 -26 5t-8 19z" />
    <glyph glyph-name="four" unicode="4" horiz-adv-x="630" 
d="M490 645v-391h112q3 -15 3 -25q0 -32 -30 -32h-85v-178h-80q-22 0 -31.5 7t-9.5 27v144h-297q-15 0 -26 11t-11 25q0 9 6 18l304 436h100q23 0 34 -11.5t11 -30.5zM369 587l-215 -333h215v333z" />
    <glyph glyph-name="five" unicode="5" horiz-adv-x="530" 
d="M37 55q-2 7 -2 19q0 19 9 29t22 8q38 -21 72.5 -32t79.5 -11q38 0 71 18.5t53 52t20 78.5q0 68 -41 111.5t-113 43.5q-32 0 -69 -5t-43 -6q-4 -1 -10 -1q-17 0 -25 9t-6 26l32 288h367q3 -15 3 -25q0 -32 -30 -32h-227l-22 -204q35 6 67 6q106 0 173 -53.5t67 -151.5
q0 -105 -75 -158t-190 -53q-54 0 -103.5 11.5t-79.5 31.5z" />
    <glyph glyph-name="six" unicode="6" horiz-adv-x="560" 
d="M525 234q0 -110 -58 -166t-172 -56q-123 0 -186.5 72.5t-63.5 216.5v95q0 90 33 157q34 68 96 104.5t145 36.5q34 0 77 -10t73 -30q2 -7 2 -19q0 -19 -9 -29t-22 -8q-25 18 -59 29t-60 11q-78 0 -115.5 -55.5t-37.5 -176.5v-9q13 11 30 19q48 25 109 25q93 0 155.5 -51.5
t62.5 -155.5zM168 252v-41q0 -59 32 -100.5t85 -41.5q60 0 88.5 40t28.5 102v24q0 66 -31 107.5t-86 41.5q-56 0 -87 -39q-28 -35 -30 -93z" />
    <glyph glyph-name="seven" unicode="7" horiz-adv-x="535" 
d="M40 655q0 10 5 28h447q4 -22 4 -27q0 -12 -4 -19q-63 -143 -105.5 -275t-98.5 -339h-83q-16 0 -24.5 11t-8.5 27q0 6 2 16q49 175 93 307q40 118 92 242h-286q-33 0 -33 29z" />
    <glyph glyph-name="eight" unicode="8" horiz-adv-x="610" 
d="M45 199q0 61 41.5 109t97.5 65q-50 23 -82.5 60t-32.5 88q0 83 64.5 129.5t171.5 46.5t171.5 -46.5t64.5 -129.5q0 -51 -32.5 -88t-82.5 -60q56 -17 97.5 -65t41.5 -109q0 -95 -73 -143.5t-187 -48.5t-187 48.5t-73 143.5zM305 64q62 0 99.5 37.5t37.5 95.5
q0 51 -37 91.5t-100 49.5q-63 -9 -100 -49.5t-37 -91.5q0 -58 37.5 -95.5t99.5 -37.5zM305 396q113 28 113 129q0 50 -30.5 82.5t-78.5 32.5q-51 0 -84 -32t-33 -83q0 -101 113 -129z" />
    <glyph glyph-name="nine" unicode="9" horiz-adv-x="560" 
d="M35 472q0 67 30 117.5t84.5 77.5t125.5 27q78 0 132 -39t81 -105.5t27 -149.5v-90q-1 -90 -34 -157q-33 -68 -95 -104.5t-145 -36.5q-46 0 -92 11t-78 32q-2 7 -2 19q0 19 9 29t22 8q27 -19 64 -31t75 -12q78 0 115.5 55.5t37.5 179.5v16q-14 -11 -32 -20
q-49 -24 -110 -24q-58 0 -107 22.5t-78.5 67t-29.5 107.5zM392 473v22q0 61 -30 101.5t-87 40.5q-60 0 -88.5 -40t-28.5 -102v-10q0 -66 31 -109.5t86 -43.5q56 0 86.5 38.5t30.5 102.5z" />
    <glyph glyph-name="colon" unicode=":" horiz-adv-x="220" 
d="M48 213q0 26 18 44t44 18t43.5 -18t17.5 -44q0 -25 -18 -42.5t-43 -17.5q-26 0 -44 17.5t-18 42.5zM48 503q0 26 18 44t44 18t43.5 -18t17.5 -44q0 -25 -18 -42.5t-43 -17.5q-26 0 -44 17.5t-18 42.5z" />
    <glyph glyph-name="semicolon" unicode=";" horiz-adv-x="220" 
d="M48 503q0 26 18 44t44 18t43.5 -18t17.5 -44q0 -25 -18 -42.5t-43 -17.5q-26 0 -44 17.5t-18 42.5zM57 35q0 6 4 11q23 24 36 51.5t14 55.5q-26 0 -44 17.5t-18 42.5q0 26 18 44t44 18q25 0 41 -17.5t20 -44.5v-4q4 -46 -19.5 -95.5t-55.5 -81.5q-11 -10 -25 -10
q-7 0 -11 3.5t-4 9.5z" />
    <glyph glyph-name="less" unicode="&#x3c;" horiz-adv-x="550" 
d="M90 319l329 382q29 -7 39.5 -18.5t7.5 -29.5l-286 -334l286 -334q1 -3 1 -9q0 -14 -11 -23t-37 -16z" />
    <glyph glyph-name="equal" unicode="=" horiz-adv-x="527" 
d="M50 451q0 10 5 28h419q3 -15 3 -25q0 -32 -30 -32h-364q-33 0 -33 29zM50 261q0 10 5 28h419q3 -15 3 -25q0 -32 -30 -32h-364q-33 0 -33 29z" />
    <glyph glyph-name="greater" unicode="&#x3e;" horiz-adv-x="550" 
d="M91 -15l286 334l-286 334q-1 3 -1 9q0 14 11 23t37 16l329 -382l-329 -382q-29 7 -39.5 18.5t-7.5 29.5z" />
    <glyph glyph-name="question" unicode="?" horiz-adv-x="430" 
d="M143 301l21 36q44 74 68.5 127.5t24.5 96.5q0 47 -26.5 75.5t-72.5 28.5q-27 0 -49 -8.5t-48 -23.5q-4 -3 -10 -3q-12 0 -19.5 14.5t-6.5 40.5q31 18 68.5 27.5t74.5 9.5q91 0 151.5 -37.5t60.5 -120.5q0 -38 -12 -71t-29.5 -60t-52.5 -73l-22 -29q-3 -4 -16 -21.5
t-21.5 -34t-9.5 -26.5l-5 -55q-3 -43 -45 -43q-12 0 -34 5l-3 75q-2 43 13 70zM112 23q0 26 18 44t44 18t43.5 -18t17.5 -44q0 -25 -18 -42.5t-43 -17.5q-26 0 -44 17.5t-18 42.5z" />
    <glyph glyph-name="at" unicode="@" horiz-adv-x="834" 
d="M214 244q0 78 62.5 115t150.5 37h60q3 15 3 29q0 29 -16 44.5t-56 15.5q-54 0 -116 -32q-9 -2 -15 3.5t-6 17.5q0 13 5 24q26 15 65.5 24t76.5 9q86 0 125.5 -28.5t39.5 -90.5q0 -24 -4 -45l-21 -125l-1 -11q0 -22 11 -22q35 0 57.5 39t33.5 102q5 28 5 50
q0 63 -28.5 114t-79 80.5t-114.5 29.5q-72 0 -135 -36.5t-105.5 -99.5t-54.5 -138q-5 -29 -5 -64q0 -102 57.5 -159.5t154.5 -57.5h323q3 -15 3 -25q0 -32 -30 -32h-359q-125 0 -193 71t-68 190q0 39 7 77q17 95 78.5 175t151.5 126.5t188 46.5q88 0 161 -38.5t115.5 -105.5
t42.5 -149q0 -23 -5 -55q-12 -69 -42.5 -114t-85.5 -75q-51 -27 -109 -27q-11 0 -31 2q-29 3 -45 19t-16 34v2q-23 -19 -49 -27.5t-61 -8.5q-52 0 -89 20t-37 69zM321 244q0 -43 42 -43q33 0 61.5 24.5t42.5 61.5l12 66h-48q-46 0 -73 -22.5t-34 -62.5q-3 -13 -3 -24z" />
    <glyph glyph-name="A" unicode="A" horiz-adv-x="590" 
d="M246 655q0 20 -12 32h79q25 0 38 -8.5t19 -24.5l194 -594q4 -13 11.5 -25t14.5 -16h-93q-28 0 -44 15t-22 36l-41 131h-244l-57 -152q-6 -16 -18 -23t-34 -7h-32l237 615q4 9 4 21zM167 258h206l-93 300z" />
    <glyph glyph-name="B" unicode="B" horiz-adv-x="635" 
d="M79 121v509q0 16 -4 30.5t-10 22.5h81h8h159q109 0 174.5 -42.5t65.5 -121.5q0 -104 -108 -147q63 -12 104 -55.5t41 -107.5q0 -96 -74 -142t-197 -46l-152 -1q-46 0 -67 28.5t-21 72.5zM467 207q0 62 -39 94.5t-120 32.5h-108v-185q0 -31 5 -46t19.5 -20.5t46.5 -5.5h50
q64 1 104 34q42 35 42 96zM291 391q73 0 106 33.5t33 91.5q0 50 -34 80t-95 30h-101v-235h91z" />
    <glyph glyph-name="C" unicode="C" horiz-adv-x="590" 
d="M50 353v1q0 115 38.5 191t105.5 112.5t152 36.5q54 0 106.5 -19t92.5 -64q-4 -22 -15 -33.5t-23 -11.5q-8 0 -15 5q-62 66 -153 66q-74 0 -120.5 -57.5t-46.5 -166.5v-108q0 -113 46 -173.5t121 -60.5q58 0 98.5 21t74.5 70q7 5 16 5q14 0 26 -11t16 -32q-36 -52 -97 -81
t-127 -29q-86 0 -152.5 36.5t-105 112t-38.5 190.5z" />
    <glyph glyph-name="D" unicode="D" horiz-adv-x="655" 
d="M79 123v507q0 16 -4 30.5t-10 22.5h81h8h157q141 0 222.5 -83.5t81.5 -246.5q0 -108 -44 -182t-117 -110.5t-159 -37.5l-128 -1q-45 -1 -66.5 28t-21.5 73zM205 107q5 -15 19.5 -20.5t46.5 -5.5h40q89 0 135 55.5t46 160.5v108q0 221 -178 221h-114v-473q0 -31 5 -46z
" />
    <glyph glyph-name="E" unicode="E" horiz-adv-x="550" 
d="M79 123v507q0 16 -4 30.5t-10 22.5h440q3 -15 3 -25q0 -32 -30 -32h-278v-233h287q3 -15 3 -25q0 -32 -30 -32h-260v-174q0 -45 19 -63.5t72 -18.5h226q3 -15 3 -25q0 -32 -30 -32l-323 -1q-46 0 -67 28.5t-21 72.5z" />
    <glyph glyph-name="F" unicode="F" horiz-adv-x="530" 
d="M79 53v577q0 16 -4 30.5t-10 22.5h432q3 -15 3 -25q0 -32 -30 -32h-270v-245h279q3 -15 3 -25q0 -32 -30 -32h-252v-305h-80q-22 0 -31.5 7t-9.5 27z" />
    <glyph glyph-name="G" unicode="G" horiz-adv-x="633" 
d="M470 197v119h-107q-31 0 -31 32q0 12 3 25h202q34 0 42.5 -13t8.5 -37v-115h-1v-53q-11 -32 -45 -64.5t-88 -54.5t-120 -22q-131 0 -207.5 84t-76.5 255q0 115 38.5 191.5t106 113t153.5 36.5q57 0 114 -19t97 -64q-4 -22 -15 -33.5t-23 -11.5q-8 0 -15 5
q-32 34 -75.5 50t-89.5 16q-74 0 -121.5 -54t-47.5 -150v-159q0 -96 44 -150t114 -54q45 0 76.5 18.5t47.5 47.5t16 61z" />
    <glyph glyph-name="H" unicode="H" horiz-adv-x="660" 
d="M469 53v283h-269v-317h-80q-22 0 -31.5 7t-9.5 27v581q0 16 -4 30.5t-10 22.5h81q36 0 45 -13t9 -37v-244h269v241q0 16 -4 30.5t-10 22.5h81q36 0 45 -13t9 -37v-618h-80q-22 0 -31.5 7t-9.5 27z" />
    <glyph glyph-name="I" unicode="I" horiz-adv-x="270" 
d="M79 53v581q0 16 -4 30.5t-10 22.5h81q36 0 45 -13t9 -37v-618h-80q-22 0 -31.5 7t-9.5 27z" />
    <glyph glyph-name="J" unicode="J" horiz-adv-x="445" 
d="M22 53q-2 7 -2 19q0 19 9 29t22 8q28 -20 53.5 -30t55.5 -10q50 0 72 35.5t22 114.5v415q0 16 -4 30.5t-10 22.5h81q36 0 45 -13t9 -37v-418q0 -92 -54 -149t-147 -57q-91 0 -152 40z" />
    <glyph glyph-name="K" unicode="K" horiz-adv-x="585" 
d="M420 60l-149 280q-3 5 -6 9l-65 -74v-256h-80q-22 0 -31.5 7t-9.5 27v581q0 16 -4 30.5t-10 22.5h81q36 0 45 -13t9 -37v-266l255 290q13 14 24 20t32 6h54l-269 -303h36q28 0 45 -11.5t29 -34.5l147 -281q5 -11 15 -22.5t17 -15.5h-94q-49 0 -71 41z" />
    <glyph glyph-name="L" unicode="L" horiz-adv-x="525" 
d="M79 123v511q0 16 -4 30.5t-10 22.5h81q36 0 45 -13t9 -37v-475q0 -45 19 -63.5t72 -18.5h207q3 -15 3 -25q0 -32 -30 -32l-304 -1q-46 0 -67 28.5t-21 72.5z" />
    <glyph glyph-name="M" unicode="M" horiz-adv-x="720" 
d="M79 53v581q0 16 -4 30.5t-10 22.5h146q29 0 44.5 -14t24.5 -38l117 -329l114 381h85q36 0 45 -13t9 -37v-618h-80q-22 0 -31.5 7t-9.5 27v496l-101 -334h-66q-27 0 -40 9t-22 34l-100 291v-530h-80q-22 0 -31.5 7t-9.5 27z" />
    <glyph glyph-name="N" unicode="N" horiz-adv-x="630" 
d="M79 53v581q0 16 -4 30.5t-10 22.5h108q27 0 41.5 -14t24.5 -37l200 -456v454q0 16 -4 30.5t-10 22.5h81q36 0 45 -13t9 -37v-618h-80q-23 0 -36 11t-23 32l-221 487v-530h-80q-22 0 -31.5 7t-9.5 27z" />
    <glyph glyph-name="O" unicode="O" horiz-adv-x="680" 
d="M50 353q0 172 79 256.5t211 84.5t211 -84.5t79 -256.5t-79 -256.5t-211 -84.5t-211 84.5t-79 256.5zM507 268v170q0 95 -46 147t-121 52t-121 -52t-46 -147v-170q0 -95 46.5 -147.5t120.5 -52.5t120.5 52.5t46.5 147.5z" />
    <glyph glyph-name="P" unicode="P" horiz-adv-x="620" 
d="M79 53v577q0 16 -4 30.5t-10 22.5h81h8h122q299 0 299 -194q0 -96 -68 -148.5t-231 -52.5h-76v-269h-80q-22 0 -31.5 7t-9.5 27zM276 345q90 0 133 37t43 95v24q0 52 -43.5 88.5t-132.5 36.5h-76v-281h76z" />
    <glyph glyph-name="Q" unicode="Q" horiz-adv-x="680" 
d="M50 358q0 168 79 252t211 84t211 -84t79 -252t-79 -252q-60 -64 -150 -79q2 -61 29 -85q30 -26 72 -26q18 0 37 3.5t30 8.5q11 1 17.5 -7.5t6.5 -23.5q0 -14 -5 -28q-42 -9 -104 -9q-54 0 -100.5 19.5t-75.5 59.5q-26 37 -28 88q-91 15 -151 79q-79 84 -79 252zM507 278
v160q0 95 -46 147t-121 52t-121 -52t-46 -147v-160q0 -95 46.5 -147.5t120.5 -52.5t120.5 52.5t46.5 147.5z" />
    <glyph glyph-name="R" unicode="R" horiz-adv-x="640" 
d="M438 66l-97 196q-21 42 -49 42h1h-22h-71v-285h-80q-22 0 -31.5 7t-9.5 27v577q0 16 -4 30.5t-10 22.5h206q161 0 230 -51t69 -135q0 -90 -68 -142q-30 -22 -77 -35q7 -3 13 -8q13 -12 24 -32l111 -217q5 -11 15 -22.5t17 -15.5h-96q-50 0 -71 41zM271 361q90 0 133 36.5
t43 92.5v14q0 31 -18 59t-57.5 45.5t-100.5 17.5h-71v-265h71z" />
    <glyph glyph-name="S" unicode="S" horiz-adv-x="537" 
d="M37 55q-2 7 -2 19q0 19 9 29t22 8q37 -18 85 -30.5t88 -12.5q61 0 103 32.5t42 89.5q0 51 -32.5 83t-101.5 57q-96 36 -154 81.5t-58 111.5q0 89 67.5 130t184.5 41q93 0 170 -37q2 -26 -6 -40t-21 -14q-3 0 -9 2q-38 16 -66.5 24t-60.5 8q-61 0 -98.5 -28.5t-37.5 -75.5
q0 -39 33.5 -67.5t104.5 -55.5q61 -23 105 -47.5t73.5 -64t29.5 -94.5q0 -94 -75.5 -143t-196.5 -49q-47 0 -106.5 12t-91.5 31z" />
    <glyph glyph-name="T" unicode="T" horiz-adv-x="610" 
d="M245 53v573h-167q-33 0 -33 29q0 10 5 28h512q3 -15 3 -25q0 -32 -30 -32h-169v-607h-80q-22 0 -31.5 7t-9.5 27z" />
    <glyph glyph-name="U" unicode="U" horiz-adv-x="685" 
d="M65 687h81q36 0 45 -13t9 -37v-375q0 -92 38 -143t109 -51t109 51t38 143v372q0 16 -4 30.5t-10 22.5h81q36 0 45 -13t9 -37v-324q0 -152 -71 -226.5t-197 -74.5t-197 74.5t-71 226.5v321q0 16 -4 30.5t-10 22.5z" />
    <glyph glyph-name="V" unicode="V" horiz-adv-x="610" 
d="M236 62l-195 584q-4 13 -11.5 25t-14.5 16h93q48 0 66 -51l169 -515l168 536q6 16 18 23t34 7h32l-223 -668h-74q-48 0 -62 43z" />
    <glyph glyph-name="W" unicode="W" horiz-adv-x="850" 
d="M175 62l-134 584q-3 12 -11 24.5t-15 16.5h93q28 0 45 -15.5t21 -35.5l104 -517l116 513l-3 14q-8 32 -23 41h92q28 0 43.5 -13t19.5 -33l108 -522l120 538q6 16 18 23t34 7h32l-156 -668h-89q-26 0 -41.5 12t-20.5 31l-98 414l-104 -457h-89q-26 0 -41.5 12t-20.5 31z
" />
    <glyph glyph-name="X" unicode="X" horiz-adv-x="620" 
d="M254 349l-196 297q-22 33 -35 41h110q23 0 36 -11t20 -23.5t10 -16.5l129 -204l160 223q13 18 22 25t27 7h59l-225 -308l201 -319q24 -35 33 -41h-101q-27 0 -42 14t-28 37l-135 224l-178 -243q-13 -18 -22 -25t-27 -7h-57z" />
    <glyph glyph-name="Y" unicode="Y" horiz-adv-x="580" 
d="M238 53v266l-188 327q-7 12 -17.5 24.5t-17.5 16.5h100q27 0 40 -13t26 -38l130 -237l156 256q10 17 20 24.5t29 7.5h49l-206 -329v-339h-80q-22 0 -31.5 7t-9.5 27z" />
    <glyph glyph-name="Z" unicode="Z" horiz-adv-x="550" 
d="M43 655q0 10 5 28h454q4 -22 4 -27q0 -14 -5 -21l-335 -555h351q3 -15 3 -25q0 -32 -30 -32h-424q-15 0 -25.5 11t-10.5 25q0 8 5 18l323 549h-282q-33 0 -33 29z" />
    <glyph glyph-name="bracketleft" unicode="[" horiz-adv-x="290" 
d="M226 704v-67h-87v-631h87v-67h-161v765h161z" />
    <glyph glyph-name="backslash" unicode="\" horiz-adv-x="570" 
d="M50 675q0 13 11.5 20t36.5 13l422 -750q-28 -25 -46 -25q-14 0 -25 18l-392 701q-7 13 -7 23z" />
    <glyph glyph-name="bracketright" unicode="]" horiz-adv-x="290" 
d="M152 6v631h-87v67h161v-765h-161v67h87z" />
    <glyph glyph-name="asciicircum" unicode="^" horiz-adv-x="396" 
d="M146 701h79q29 0 42 -30l96 -225q9 -23 18 -28h-94q-31 0 -45 35l-67 176l-83 -189q-6 -12 -12 -17t-19 -5h-46z" />
    <glyph glyph-name="underscore" unicode="_" horiz-adv-x="607" 
d="M50 11q0 10 5 28h499q3 -15 3 -25q0 -32 -30 -32h-444q-33 0 -33 29z" />
    <glyph glyph-name="grave" unicode="`" horiz-adv-x="294" 
d="M219 520q-20 0 -45 32l-141 178q16 24 34.5 37t35.5 13q27 0 42 -27l117 -207q-26 -26 -43 -26z" />
    <glyph glyph-name="a" unicode="a" horiz-adv-x="560" 
d="M374 53v9q-14 -14 -29 -23q-42 -28 -112 -28q-73 0 -125.5 30.5t-52.5 109.5q0 81 67.5 119.5t165.5 38.5h85q-3 47 -25 76q-25 34 -90 34q-70 0 -137 -41q-13 -2 -22 8t-9 29q0 12 2 19q29 19 76 30t92 11q124 0 179.5 -48t55.5 -154v-254h-80q-22 0 -31.5 7t-9.5 27z
M210 226q-34 -28 -34 -75q0 -45 22 -64.5t53 -19.5t59.5 19t46.5 49q12 19 17 39v81h-72q-58 0 -92 -29z" />
    <glyph glyph-name="b" unicode="b" horiz-adv-x="590" 
d="M69 53v577q0 16 -4 30.5t-10 22.5h81q36 0 45 -13t9 -37v-215q53 53 136 53q93 0 153.5 -53.5t60.5 -156.5v-33q0 -112 -61 -164.5t-157 -52.5q-62 0 -109 28q-12 8 -23 16v-36h-80q-22 0 -31.5 7t-9.5 27zM419 218v58q0 70 -29.5 104.5t-76.5 34.5q-56 0 -90 -51
q-23 -35 -33 -82v-96q9 -48 30 -77q30 -42 92 -42q50 0 78.5 38t28.5 113z" />
    <glyph glyph-name="c" unicode="c" horiz-adv-x="500" 
d="M50 240q0 115 65.5 173t174.5 58q99 0 163 -56q-3 -25 -13 -36.5t-22 -11.5q-5 0 -10 3q-30 25 -56 35t-56 10q-57 0 -91.5 -39t-34.5 -111v-38q0 -79 33 -119.5t93 -40.5q38 0 69 14.5t60 47.5q5 3 11 3q13 0 24.5 -11.5t14.5 -35.5q-31 -36 -77.5 -55t-102.5 -19
q-117 0 -181 57t-64 172z" />
    <glyph glyph-name="d" unicode="d" horiz-adv-x="590" 
d="M404 53v10q-13 -12 -26 -21q-48 -31 -111 -31q-93 0 -155 47.5t-62 157.5v33q0 112 61.5 167t156.5 55q63 0 112 -29q12 -7 24 -16v204q0 16 -4 30.5t-10 22.5h81q36 0 45 -13t9 -37v-614h-80q-22 0 -31.5 7t-9.5 27zM278 415q-49 0 -78 -39.5t-29 -111.5v-63
q0 -69 30.5 -101.5t75.5 -32.5q59 0 93 50q23 34 34 81v100q-25 117 -126 117z" />
    <glyph glyph-name="e" unicode="e" horiz-adv-x="550" 
d="M50 240q0 115 61.5 173t163.5 58q56 0 107 -21t84.5 -71t33.5 -132q0 -43 -41 -43h-288q5 -68 36.5 -102.5t83.5 -34.5q84 0 138 62q5 3 11 3q13 0 24.5 -11.5t14.5 -35.5q-31 -36 -81 -55t-108 -19q-114 0 -177 57.5t-63 171.5zM276 415q-51 0 -78.5 -41t-27.5 -109v-4
h209q0 71 -27 112.5t-76 41.5z" />
    <glyph glyph-name="f" unicode="f" horiz-adv-x="480" 
d="M138 69v333h-70q-33 0 -33 29q0 10 5 28h98v59q0 90 47 138t132 48q44 0 79 -9.5t67 -30.5q2 -7 2 -19q0 -19 -9 -29t-22 -8q-30 21 -51.5 30.5t-51.5 9.5q-40 0 -56 -32.5t-16 -107.5v-49h180q3 -15 3 -25q0 -32 -30 -32h-153v-383h-67q-36 0 -45 13.5t-9 36.5z" />
    <glyph glyph-name="g" unicode="g" horiz-adv-x="590" 
d="M50 225v28q0 110 61.5 164t156.5 54q63 0 112 -28q13 -8 24 -17v35h67q36 0 45 -13t9 -37v-319q0 -108 -67.5 -170.5t-194.5 -62.5q-46 0 -92 11t-78 32q-2 7 -2 19q0 19 9 29t22 8q27 -19 64 -31t75 -12q55 0 86 16t44 49.5t13 89.5v5q-12 -11 -26 -20q-48 -31 -111 -31
q-93 0 -155 47t-62 154zM372 371q-32 44 -94 44q-49 0 -78 -39t-29 -108v-58q0 -66 30.5 -98t75.5 -32q59 0 93 48q23 32 34 76v95q-10 43 -32 72z" />
    <glyph glyph-name="h" unicode="h" horiz-adv-x="590" 
d="M404 53v235q0 68 -24.5 97.5t-63.5 29.5q-59 0 -93 -58q-31 -53 -33 -134v-204h-80q-22 0 -31.5 7t-9.5 27v577q0 16 -4 30.5t-10 22.5h81q36 0 45 -13t9 -37v-218q10 10 21 18q49 38 115 38q91 0 145 -44t54 -154v-254h-80q-22 0 -31.5 7t-9.5 27z" />
    <glyph glyph-name="i" unicode="i" horiz-adv-x="260" 
d="M73 53v355q0 16 -4 30.5t-10 22.5h81q36 0 45 -13t9 -37v-392h-80q-22 0 -31.5 7t-9.5 27zM57 611q0 29 21 50.5t51 21.5q29 0 50 -21.5t21 -50.5q0 -28 -21 -49t-50 -21q-30 0 -51 21t-21 49z" />
    <glyph glyph-name="j" unicode="j" horiz-adv-x="310" 
d="M-33 -112q-2 7 -2 19q0 19 9 29t22 8q35 -28 66 -28q33 0 47 26t14 86v380q0 16 -4 30.5t-10 22.5h81q36 0 45 -13t9 -37v-385q0 -81 -43 -123.5t-121 -42.5q-30 0 -57 5t-56 23zM107 611q0 29 21 50.5t51 21.5q29 0 50 -21.5t21 -50.5q0 -28 -21 -49t-50 -21
q-30 0 -51 21t-21 49z" />
    <glyph glyph-name="k" unicode="k" horiz-adv-x="550" 
d="M375 60l-89 165q-6 10 -11 17l-85 -74v-149h-80q-22 0 -31.5 7t-9.5 27v577q0 16 -4 30.5t-10 22.5h81q36 0 45 -13t9 -37v-382l207 184q15 13 30 19.5t36 6.5h62l-220 -192h42q28 0 44 -11.5t28 -34.5l89 -166q6 -12 15 -22.5t17 -15.5h-94q-48 0 -71 41z" />
    <glyph glyph-name="l" unicode="l" horiz-adv-x="255" 
d="M69 105v525q0 16 -4 30.5t-10 22.5h81q36 0 45 -13t9 -37v-570q0 -12 4.5 -25.5t10.5 -18.5h-53q-43 0 -63 21.5t-20 64.5z" />
    <glyph glyph-name="m" unicode="m" horiz-adv-x="822" 
d="M638 53v235q0 68 -20 97.5t-51 29.5q-46 0 -70.5 -48.5t-24.5 -136.5v-211h-78q-22 0 -31.5 7t-9.5 27v235q0 68 -20 97.5t-51 29.5q-45 0 -70 -49q-22 -43 -24 -119v-228h-78q-22 0 -31.5 7t-9.5 27v355q0 16 -4 30.5t-10 22.5h79q36 0 45 -13q5 -8 7 -19q42 42 101 42
q84 0 134 -44q12 -10 21 -24q48 68 130 68q84 0 134.5 -44t50.5 -154v-254h-78q-22 0 -31.5 7t-9.5 27z" />
    <glyph glyph-name="n" unicode="n" horiz-adv-x="590" 
d="M404 53v235q0 68 -24.5 97.5t-63.5 29.5q-59 0 -93 -58q-31 -53 -33 -134v-204h-80q-22 0 -31.5 7t-9.5 27v355q0 16 -4 30.5t-10 22.5h81q36 0 45 -13q8 -12 9 -33q10 10 21 18q49 38 115 38q91 0 145 -44t54 -154v-254h-80q-22 0 -31.5 7t-9.5 27z" />
    <glyph glyph-name="o" unicode="o" horiz-adv-x="570" 
d="M50 242q0 116 64 174.5t171 58.5t171 -58.5t64 -174.5t-64 -174.5t-171 -58.5t-171 58.5t-64 174.5zM399 216v52q0 64 -29 107.5t-85 43.5t-85 -43.5t-29 -107.5v-52q0 -64 29 -107.5t85 -43.5t85 43.5t29 107.5z" />
    <glyph glyph-name="p" unicode="p" horiz-adv-x="590" 
d="M69 -97v505q0 16 -4 30.5t-10 22.5h81q36 0 45 -13q7 -11 9 -30q53 53 136 53q93 0 153.5 -53.5t60.5 -156.5v-33q0 -112 -61 -164.5t-157 -52.5q-62 0 -109 28q-12 8 -23 16v-186h-80q-22 0 -31.5 7t-9.5 27zM419 218v58q0 70 -29.5 104.5t-76.5 34.5q-56 0 -90 -51
q-23 -35 -33 -82v-96q9 -48 30 -77q30 -42 92 -42q50 0 78.5 38t28.5 113z" />
    <glyph glyph-name="q" unicode="q" horiz-adv-x="590" 
d="M404 -97v160q-13 -12 -26 -21q-48 -31 -111 -31q-93 0 -155 47.5t-62 157.5v33q0 112 61.5 167t156.5 55q63 0 112 -29q12 -7 24 -16v35h67q36 0 45 -13t9 -37v-542h-80q-22 0 -31.5 7t-9.5 27zM278 415q-49 0 -78 -39.5t-29 -111.5v-63q0 -69 30.5 -101.5t75.5 -32.5
q59 0 93 50q23 34 34 81v100q-25 117 -126 117z" />
    <glyph glyph-name="r" unicode="r" horiz-adv-x="430" 
d="M69 53v355q0 16 -4 30.5t-10 22.5h81q36 0 45 -13t9 -37v-8q4 6 8 11q45 56 120 56q57 0 95 -13q2 -6 2 -17q0 -19 -10 -30t-23 -9q-24 13 -73 13q-34 0 -61.5 -26t-42.5 -67q-13 -35 -15 -73v-229h-80q-22 0 -31.5 7t-9.5 27z" />
    <glyph glyph-name="s" unicode="s" horiz-adv-x="480" 
d="M51 44q-1 6 -1 18q0 22 8.5 34t22.5 11q31 -19 68.5 -31t71.5 -12q44 0 68 17t24 45q0 27 -27.5 46t-87.5 38q-71 22 -106.5 53t-35.5 83q0 61 55.5 94t151.5 33q78 0 139 -31q2 -30 -8 -43.5t-28 -11.5q-47 31 -103 31q-46 0 -66 -15t-20 -37q0 -25 24.5 -39t90.5 -37
q68 -23 105.5 -56t37.5 -88q0 -66 -61 -101t-162 -35q-40 0 -87.5 9t-73.5 25z" />
    <glyph glyph-name="t" unicode="t" horiz-adv-x="485" 
d="M133 187v215h-75q-33 0 -33 29q0 10 5 28h103v141q0 16 -4 30.5t-10 22.5h81q36 0 45 -13t9 -37v-144h175q3 -15 3 -25q0 -32 -30 -32h-148v-214q0 -68 17 -94.5t55 -26.5q29 0 51.5 9.5t51.5 30.5q13 2 22 -8t9 -29q0 -12 -2 -19q-32 -21 -67 -30.5t-79 -9.5
q-86 0 -132.5 44t-46.5 132z" />
    <glyph glyph-name="u" unicode="u" horiz-adv-x="590" 
d="M55 461h81q36 0 45 -13t9 -37v-222q0 -68 21.5 -95t60.5 -27q60 0 96 55.5t36 144.5v141q0 16 -4 30.5t-10 22.5h81q36 0 45 -13t9 -37v-392h-80q-22 0 -31.5 7t-9.5 27v16q-12 -12 -26 -22q-50 -36 -116 -36q-91 0 -142 41.5t-51 151.5v204q0 16 -4 30.5t-10 22.5z" />
    <glyph glyph-name="v" unicode="v" horiz-adv-x="520" 
d="M185 62l-149 358q-13 33 -26 41h93q47 0 66 -51l117 -306l131 325q6 17 16 24.5t29 7.5h38l-185 -442h-68q-44 0 -62 43z" />
    <glyph glyph-name="w" unicode="w" horiz-adv-x="700" 
d="M419 61l-62 244l-76 -287h-83q-26 0 -41.5 12t-20.5 31l-95 359q-3 12 -11 24.5t-15 16.5h89q30 0 45 -13t21 -38l68 -304l87 326q-7 22 -19 29h84q30 0 44 -10.5t19 -35.5l68 -309l86 325q6 16 18 23t34 7h26l-121 -443h-83q-26 0 -41.5 12t-20.5 31z" />
    <glyph glyph-name="x" unicode="x" horiz-adv-x="520" 
d="M205 239l-148 194q-18 22 -31 28h112q29 0 41.5 -9t23.5 -25l78 -111l106 123q10 12 18 17t24 5h63l-173 -201l158 -214q17 -23 27 -27h-113q-23 0 -36 9.5t-23 24.5l-88 133l-124 -146q-9 -11 -17.5 -16t-24.5 -5h-63z" />
    <glyph glyph-name="y" unicode="y" horiz-adv-x="520" 
d="M77 -112q-2 7 -2 19q0 19 9 29t22 8q35 -28 63 -28q27 0 47 24.5t44 82.5q-21 0 -36.5 15.5t-25.5 36.5l-157 345q-5 12 -12 24.5t-14 16.5h93q27 0 42 -14.5t24 -36.5l127 -294l121 313q6 17 16 24.5t29 7.5h38l-182 -450q-25 -61 -48 -94t-47.5 -45t-57.5 -12
q-53 0 -93 28z" />
    <glyph glyph-name="z" unicode="z" horiz-adv-x="500" 
d="M30 58q0 10 6 17l253 327h-212q-33 0 -33 29q0 10 5 28h386q4 -16 4 -30q0 -12 -4 -16l-257 -335h274q3 -15 3 -25q0 -32 -30 -32h-358q-15 0 -26 11t-11 26z" />
    <glyph glyph-name="braceleft" unicode="{" horiz-adv-x="294" 
d="M116 51v196q0 29 -13.5 44.5t-52.5 15.5v67q29 0 43 5t18.5 17t4.5 37v154q0 66 24.5 91.5t80.5 25.5h43v-67h-28q-20 0 -29 -3t-13 -14t-4 -38v-145q0 -44 -11 -62t-42 -34q30 -5 41.5 -29.5t11.5 -70.5v-185q0 -23 3 -33t10.5 -13.5t24.5 -3.5h36v-67h-43
q-41 0 -63 8.5t-32 32.5t-10 71z" />
    <glyph glyph-name="bar" unicode="|" horiz-adv-x="320" 
d="M179 727q22 0 31.5 -7t9.5 -27v-804h-79q-22 0 -31.5 7t-9.5 26v805h79v0z" />
    <glyph glyph-name="braceright" unicode="}" horiz-adv-x="294" 
d="M104 56v185q0 46 11.5 70.5t41.5 29.5q-31 16 -42 34t-11 62v145q0 27 -4 38t-13 14t-29 3h-28v67h43q55 2 80 -24.5t25 -92.5v-154q0 -25 4.5 -37t18.5 -17t43 -5v-67q-39 0 -52.5 -15.5t-13.5 -44.5v-196q0 -47 -10 -71t-32 -32.5t-63 -8.5h-43v67h36q17 0 24.5 3.5
t10.5 13.5t3 33z" />
    <glyph glyph-name="asciitilde" unicode="~" horiz-adv-x="605" 
d="M329 387q33 -23 48 -29.5t40 -6.5q30 0 47 14.5t42 50.5q6 6 17 6q12 0 23 -8.5t19 -27.5q-14 -38 -53.5 -64.5t-95.5 -26.5q-36 0 -62.5 10t-55.5 29l-17 12q-29 21 -49.5 30.5t-46.5 9.5q-25 0 -44.5 -15t-41.5 -50q-6 -6 -17 -6q-12 0 -23 8.5t-19 27.5
q16 42 53.5 66.5t94.5 24.5q38 0 69.5 -13.5t71.5 -41.5z" />
    <glyph glyph-name="exclamdown" unicode="&#xa1;" horiz-adv-x="260" 
d="M129 -130q-29 0 -65 13l24 501q1 35 12.5 49.5t35.5 14.5q17 0 33 -4l26 -511q1 -30 -16.5 -46.5t-49.5 -16.5zM191 576q0 -26 -18 -44t-44 -18t-43.5 18t-17.5 44q0 25 18 42.5t43 17.5q26 0 44 -17.5t18 -42.5z" />
    <glyph glyph-name="uniFFE0" unicode="&#xa2;" horiz-adv-x="900" 
d="M433 33v43q-50 7 -92 29q-64 33 -100.5 96t-36.5 150v1q0 87 36.5 150.5t101.5 96.5q42 21 91 29v26q0 16 -4 30.5t-10 22.5h81q36 0 45 -13t9 -37v-32q21 -5 42 -12q53 -19 93 -64q-4 -22 -15 -33.5t-23 -11.5q-8 0 -15 5q-36 38 -82 54v-425q14 5 27 12q41 21 75 70
q7 5 16 5q14 0 26 -11t16 -32q-36 -52 -97 -81q-31 -15 -63 -22v-80h-80q-22 0 -31.5 7t-9.5 27zM369 523q-43 -52 -43 -142v-48q0 -94 42 -149q27 -35 65 -48v431q-38 -12 -64 -44z" />
    <glyph glyph-name="uniFFE0" unicode="&#xffe0;" horiz-adv-x="900" 
d="M433 33v43q-50 7 -92 29q-64 33 -100.5 96t-36.5 150v1q0 87 36.5 150.5t101.5 96.5q42 21 91 29v26q0 16 -4 30.5t-10 22.5h81q36 0 45 -13t9 -37v-32q21 -5 42 -12q53 -19 93 -64q-4 -22 -15 -33.5t-23 -11.5q-8 0 -15 5q-36 38 -82 54v-425q14 5 27 12q41 21 75 70
q7 5 16 5q14 0 26 -11t16 -32q-36 -52 -97 -81q-31 -15 -63 -22v-80h-80q-22 0 -31.5 7t-9.5 27zM369 523q-43 -52 -43 -142v-48q0 -94 42 -149q27 -35 65 -48v431q-38 -12 -64 -44z" />
    <glyph glyph-name="uniFFE1" unicode="&#xa3;" horiz-adv-x="900" 
d="M225 381q0 10 5 28h127l-29 109q-5 22 -5 37q0 45 29.5 79t76.5 52t98 18q44 0 79 -9.5t67 -30.5q2 -7 2 -19q0 -19 -9 -29t-22 -8q-30 21 -51.5 30.5t-51.5 9.5q-38 0 -68 -26t-30 -72q0 -19 6 -42l28 -99h162q3 -15 3 -25q0 -32 -30 -32h-120q4 -18 4 -33
q0 -107 -112 -239h318q3 -15 3 -25q0 -32 -30 -32h-403q-16 0 -27 10.5t-11 24.5q0 11 7 19q131 151 131 256q0 10 -1 19h-113q-33 0 -33 29z" />
    <glyph glyph-name="uniFFE1" unicode="&#xffe1;" horiz-adv-x="900" 
d="M225 381q0 10 5 28h127l-29 109q-5 22 -5 37q0 45 29.5 79t76.5 52t98 18q44 0 79 -9.5t67 -30.5q2 -7 2 -19q0 -19 -9 -29t-22 -8q-30 21 -51.5 30.5t-51.5 9.5q-38 0 -68 -26t-30 -72q0 -19 6 -42l28 -99h162q3 -15 3 -25q0 -32 -30 -32h-120q4 -18 4 -33
q0 -107 -112 -239h318q3 -15 3 -25q0 -32 -30 -32h-403q-16 0 -27 10.5t-11 24.5q0 11 7 19q131 151 131 256q0 10 -1 19h-113q-33 0 -33 29z" />
    <glyph glyph-name="currency" unicode="&#xa4;" horiz-adv-x="586" 
d="M47 360q0 98 69 153l-55 71q-20 25 -34 30h112q28 0 41.5 -8.5t20.5 -17t9 -11.5l16 -20q33 6 71 6q62 0 111 -15l39 43q11 12 20 17.5t26 5.5h63l-84 -97q74 -53 74 -157q0 -93 -60 -147l54 -72q17 -23 31 -29h-115q-24 0 -37.5 9.5t-26.5 27.5l-11 15q-42 -8 -84 -8
q-79 0 -132 23l-40 -45q-10 -11 -19.5 -16.5t-26.5 -5.5h-64l90 103q-58 53 -58 145zM428 337v45q0 54 -35 93t-96 39t-96 -39t-35 -93v-45q0 -54 35 -93t96 -39t96 39t35 93z" />
    <glyph glyph-name="uniFFE5" unicode="&#xa5;" horiz-adv-x="900" 
d="M397 53v99h-120q-33 0 -33 29q0 10 5 28h148v83h-120q-33 0 -33 29q0 10 5 28h132l-171 297q-7 12 -17.5 24.5t-17.5 16.5h100q27 0 40 -13t26 -38l130 -237l156 256q10 17 20 24.5t29 7.5h49l-207 -331v-7h150q3 -15 3 -25q0 -32 -30 -32h-123v-83h150q3 -15 3 -25
q0 -32 -30 -32h-123v-133h-80q-22 0 -31.5 7t-9.5 27z" />
    <glyph glyph-name="uniFFE5" unicode="&#xffe5;" horiz-adv-x="900" 
d="M397 53v99h-120q-33 0 -33 29q0 10 5 28h148v83h-120q-33 0 -33 29q0 10 5 28h132l-171 297q-7 12 -17.5 24.5t-17.5 16.5h100q27 0 40 -13t26 -38l130 -237l156 256q10 17 20 24.5t29 7.5h49l-207 -331v-7h150q3 -15 3 -25q0 -32 -30 -32h-123v-83h150q3 -15 3 -25
q0 -32 -30 -32h-123v-133h-80q-22 0 -31.5 7t-9.5 27z" />
    <glyph glyph-name="section" unicode="&#xa7;" horiz-adv-x="475" 
d="M65 64q0 22 8.5 34t22.5 11q30 -20 61 -31.5t57 -11.5q37 0 55.5 17t18.5 45q0 26 -20.5 43.5t-74.5 40.5q-63 27 -92.5 56.5t-29.5 79.5q0 61 49 94l14 8q-20 13 -34 26q-29 30 -29 80q0 61 49.5 94t137.5 33q58 0 119 -31q2 -30 -8 -43.5t-28 -11.5q-26 17 -46 24
t-42 7q-30 0 -45.5 -14.5t-15.5 -34.5q0 -24 19.5 -40.5t75.5 -38.5q59 -23 91 -56t32 -88q0 -66 -55 -101q13 -9 23 -19q32 -33 32 -88q0 -66 -55 -101t-148 -35q-32 0 -73.5 9t-67.5 25q-1 6 -1 18zM267 379q-16 14 -53 32q-4 -3 -7 -6q-15 -14 -15 -34q0 -24 19 -41
q18 -14 64 -34q13 16 13 40q0 26 -21 43z" />
    <glyph glyph-name="dieresis" unicode="&#xa8;" horiz-adv-x="446" 
d="M48 695q0 26 18 44t44 18t43.5 -18t17.5 -44q0 -25 -18 -42.5t-43 -17.5q-26 0 -44 17.5t-18 42.5zM275 695q0 26 18 44t44 18t43.5 -18t17.5 -44q0 -25 -18 -42.5t-43 -17.5q-26 0 -44 17.5t-18 42.5z" />
    <glyph glyph-name="ordfeminine" unicode="&#xaa;" horiz-adv-x="560" 
d="M233 236q-73 0 -125.5 30.5t-52.5 109.5q0 81 67.5 119.5t165.5 38.5h85q-3 47 -25 76q-25 34 -90 34q-70 0 -137 -41q-13 -2 -22 8t-9 29q0 12 2 19q29 19 76 30t92 11q124 0 179.5 -48t55.5 -154v-254h-80q-22 0 -31.5 7t-9.5 27v9q-14 -14 -29 -23q-42 -28 -112 -28z
M210 451q-34 -28 -34 -75q0 -45 22 -64.5t53 -19.5t59.5 19t46.5 49q12 19 17 39v81h-72q-58 0 -92 -29z" />
    <glyph glyph-name="guillemotleft" unicode="&#xab;" horiz-adv-x="840" vert-adv-y="1100" 
d="M526 319l229 382q29 -7 39.5 -18.5t7.5 -29.5l-186 -334l186 -334q1 -3 1 -9q0 -14 -11 -23t-37 -16zM316 319l239 382q29 -7 39.5 -18.5t7.5 -29.5l-196 -334l196 -334q1 -3 1 -9q0 -14 -11 -23t-37 -16z" />
    <glyph glyph-name="uni00AD" unicode="&#xad;" horiz-adv-x="527" 
d="M50 360q0 10 5 28h419q3 -15 3 -25q0 -32 -30 -32h-364q-33 0 -33 29z" />
    <glyph glyph-name="registered" unicode="&#xae;" horiz-adv-x="732" 
d="M50 395q0 86 41.5 157t114 111.5t160.5 40.5t160.5 -40.5t114 -111.5t41.5 -157t-41.5 -157t-114 -111.5t-160.5 -40.5t-160.5 40.5t-114 111.5t-41.5 157zM618 395q0 71 -32.5 128.5t-90 90.5t-129.5 33t-129.5 -33t-90 -90.5t-32.5 -128.5t32.5 -128.5t90 -90.5
t129.5 -33t129.5 33t90 90.5t32.5 128.5zM225 588h46h5h66q169 0 169 -105q0 -50 -43 -80q-18 -12 -44 -20q15 -4 26 -23l63 -123q3 -7 8.5 -13.5t9.5 -8.5h-64q-30 0 -40 23l-55 112q-10 21 -25 23h-15h-20v-161h-55q-13 0 -18.5 3.5t-5.5 15.5v327q0 20 -8 30zM432 479v7
q0 28 -23.5 49t-66.5 21h-30v-151h30q44 0 67 21.5t23 52.5z" />
    <glyph glyph-name="degree" unicode="&#xb0;" horiz-adv-x="420" 
d="M60 659q0 40 19.5 72.5t53.5 51.5t77 19t77 -19t53.5 -51.5t19.5 -72.5t-19.5 -72.5t-53.5 -51t-77 -18.5t-77 18.5t-53.5 51t-19.5 72.5zM300 659q0 40 -26 66.5t-64 26.5t-64 -26.5t-26 -66.5q0 -39 26 -66t64 -27t64 27t26 66z" />
    <glyph glyph-name="plusminus" unicode="&#xb1;" horiz-adv-x="602" 
d="M243 267v124h-175q-23 0 -23 29q0 12 3 28h195v144q0 16 -4 30.5t-10 22.5h81q36 0 45 -13t9 -37v-147h190q2 -20 2 -25q0 -32 -20 -32h-172v-166q0 -12 4.5 -25.5t10.5 -18.5h-53q-43 0 -63 21.5t-20 64.5zM50 41q0 10 5 28h499q3 -15 3 -25q0 -32 -30 -32h-444
q-33 0 -33 29z" />
    <glyph glyph-name="uni00B2" unicode="&#xb2;" horiz-adv-x="460" 
d="M286 576q0 39 -25 62.5t-67 23.5q-19 0 -37 -6t-42 -19q-10 -5 -18.5 5t-7.5 31q26 14 57 21.5t58 7.5q81 0 125 -35.5t44 -96.5q0 -65 -57 -134l-135 -165h195q3 -12 3 -19q0 -21 -21 -21h-255q-11 0 -18.5 8t-7.5 18q0 7 4 12l146 180q31 38 45 67.5t14 59.5z" />
    <glyph glyph-name="uni00B3" unicode="&#xb3;" horiz-adv-x="460" 
d="M66 254q-2 10 -2 13q0 13 7 20t16 5q27 -14 54 -21.5t62 -7.5q45 0 75 26t30 67q0 99 -119 102l-44 -1q-23 -1 -23 16q0 7 3 17l58 6q52 7 75.5 29.5t23.5 60.5q0 34 -21.5 54.5t-60.5 21.5q-21 0 -44.5 -6t-41.5 -16q-11 -4 -18.5 5t-6.5 31q22 13 55.5 19.5t61.5 6.5
q75 0 119 -31.5t44 -88.5q0 -68 -67 -99q43 -11 68 -41.5t25 -80.5q0 -68 -52.5 -103t-137.5 -35q-42 0 -78.5 8t-60.5 23z" />
    <glyph glyph-name="acute" unicode="&#xb4;" horiz-adv-x="280" 
d="M184 780q17 0 35.5 -13t34.5 -37l-141 -178q-25 -32 -45 -32q-17 0 -43 26l117 207q15 27 42 27z" />
    <glyph glyph-name="paragraph" unicode="&#xb6;" horiz-adv-x="645" 
d="M50 480q0 68 34.5 124.5t103.5 90t169 33.5h188v-839h-96v749h-81v-749h-96v371q-56 0 -107.5 27t-83 77.5t-31.5 115.5z" />
    <glyph glyph-name="periodcentered" unicode="&#xb7;" horiz-adv-x="240" 
d="M39 361q0 36 22 58.5t58 22.5q37 0 59.5 -22.5t22.5 -58.5q0 -34 -22.5 -56.5t-59.5 -22.5q-36 0 -58 22.5t-22 56.5z" />
    <glyph glyph-name="cedilla" unicode="&#xb8;" horiz-adv-x="252" 
d="M121 -103q26 14 26 37q0 20 -19 32q-18 12 -67 20l50 102h71l-32 -72q40 -10 60.5 -29t20.5 -51q0 -97 -194 -105l-10 49q66 4 94 17z" />
    <glyph glyph-name="uni00B9" unicode="&#xb9;" horiz-adv-x="360" 
d="M58 612l114 85h58q32 0 32 -30v-438h-56q-16 0 -22.5 5t-6.5 19v395l-89 -69q-12 -4 -21.5 4t-8.5 29z" />
    <glyph glyph-name="ordmasculine" unicode="&#xba;" horiz-adv-x="570" 
d="M50 468q0 116 64 174.5t171 58.5t171 -58.5t64 -174.5t-64 -174.5t-171 -58.5t-171 58.5t-64 174.5zM399 442v52q0 64 -29 107.5t-85 43.5t-85 -43.5t-29 -107.5v-52q0 -64 29 -107.5t85 -43.5t85 43.5t29 107.5z" />
    <glyph glyph-name="guillemotright" unicode="&#xbb;" horiz-adv-x="840" vert-adv-y="1100" 
d="M38 -15l186 334l-186 334q-1 3 -1 9q0 14 11 23t37 16l229 -382l-229 -382q-29 7 -39.5 18.5t-7.5 29.5zM238 -15l196 334l-196 334q-1 3 -1 9q0 14 11 23t37 16l239 -382l-239 -382q-29 7 -39.5 18.5t-7.5 29.5z" />
    <glyph glyph-name="onequarter" unicode="&#xbc;" horiz-adv-x="840" 
d="M140 -68q-19 0 -45 32l611 746q21 -9 31.5 -17.5t10.5 -19.5t-12 -26l-572 -702q-11 -13 -24 -13zM30 612l114 85h58q32 0 32 -30v-438h-56q-16 0 -22.5 5t-6.5 19v395l-89 -69q-12 -4 -21.5 4t-8.5 29zM745 377v-274h73q2 -14 2 -17q0 -24 -21 -24h-54v-125h-57
q-16 0 -22.5 5t-6.5 19v101h-202q-11 0 -19 8t-8 18q0 7 4 12l209 307h70q16 0 24 -8.5t8 -21.5zM659 103v234l-145 -234h145z" />
    <glyph glyph-name="onehalf" unicode="&#xbd;" horiz-adv-x="900" 
d="M120 -68q-19 0 -45 32l611 746q21 -9 31.5 -17.5t10.5 -19.5t-12 -26l-572 -702q-11 -13 -24 -13zM30 612l114 85h58q32 0 32 -30v-438h-56q-16 0 -22.5 5t-6.5 19v395l-89 -69q-12 -4 -21.5 4t-8.5 29zM767 284q0 38 -25 62t-66 24q-19 0 -36 -6t-44 -19q-11 -5 -19 4.5
t-7 31.5q26 14 57 21.5t58 7.5q81 0 125 -35.5t44 -97.5q0 -35 -15 -67t-42 -66l-135 -165h195q3 -12 3 -19q0 -21 -21 -21h-255q-11 0 -18.5 8t-7.5 18q0 7 4 12l146 180q32 40 45.5 68t13.5 59z" />
    <glyph glyph-name="threequarters" unicode="&#xbe;" horiz-adv-x="900" 
d="M206 -68q-19 0 -45 32l611 746q21 -9 31.5 -17.5t10.5 -19.5t-12 -26l-572 -702q-11 -13 -24 -13zM805 377v-274h73q2 -14 2 -17q0 -24 -21 -24h-54v-125h-57q-16 0 -22.5 5t-6.5 19v101h-202q-11 0 -19 8t-8 18q0 7 4 12l209 307h70q16 0 24 -8.5t8 -21.5zM719 103v234
l-145 -234h145zM27 254q-2 10 -2 13q0 13 7 20t16 5q27 -14 54 -21.5t62 -7.5q45 0 75 26t30 67q0 99 -119 102l-44 -1q-23 -1 -23 16q0 7 3 17l58 6q52 7 75.5 29.5t23.5 60.5q0 34 -21.5 54.5t-60.5 21.5q-21 0 -44.5 -6t-41.5 -16q-11 -4 -18.5 5t-6.5 31
q22 13 55.5 19.5t61.5 6.5q75 0 119 -31.5t44 -88.5q0 -68 -67 -99q43 -11 68 -41.5t25 -80.5q0 -68 -52.5 -103t-137.5 -35q-42 0 -78.5 8t-60.5 23z" />
    <glyph glyph-name="questiondown" unicode="&#xbf;" horiz-adv-x="430" 
d="M287 298l-21 -36q-44 -74 -68.5 -127.5t-24.5 -96.5q0 -47 26.5 -75.5t72.5 -28.5q28 0 49.5 8.5t47.5 23.5q5 3 10 3q12 0 19.5 -14.5t6.5 -40.5q-31 -18 -68.5 -27.5t-74.5 -9.5q-91 0 -151.5 37.5t-60.5 120.5q0 38 12 71t29.5 60t52.5 73l22 29q3 4 16 21.5t21.5 34
t9.5 26.5l5 55q3 43 45 43q12 0 34 -5l3 -75q2 -43 -13 -70zM318 576q0 -26 -18 -44t-44 -18t-43.5 18t-17.5 44q0 25 18 42.5t43 17.5q26 0 44 -17.5t18 -42.5z" />
    <glyph glyph-name="AE" unicode="&#xc6;" horiz-adv-x="735" 
d="M347 113v88h-167l-76 -152q-6 -16 -18 -23t-34 -7h-37l317 615q7 14 7 28t-8 21h369q3 -15 3 -25q0 -32 -30 -32h-205v-233h214q3 -15 3 -25q0 -32 -30 -32h-187v-184q0 -31 5 -46t19.5 -20.5t46.5 -5.5h173q3 -15 3 -25q0 -32 -30 -32l-260 -1q-45 0 -61.5 23t-16.5 68z
M347 258v276l-139 -276h139z" />
    <glyph glyph-name="Eth" unicode="&#xd0;" horiz-adv-x="720" 
d="M144 123v208h-61q-33 0 -33 29q0 10 5 28h89v242q0 16 -4 30.5t-10 22.5h236q141 0 222.5 -83.5t81.5 -246.5q0 -108 -44 -182t-117 -110.5t-159 -37.5l-118 -1q-45 -1 -66.5 28t-21.5 73zM270 107q5 -15 19.5 -20.5t46.5 -5.5h30q89 0 135 55.5t46 160.5v108
q0 221 -178 221h-104v-238h159q3 -15 3 -25q0 -32 -30 -32h-132v-178q0 -31 5 -46z" />
    <glyph glyph-name="multiply" unicode="&#xd7;" horiz-adv-x="540" 
d="M215 352l-158 204q-18 22 -31 28h112q29 0 41.5 -9t23.5 -25l88 -121l116 133q10 12 18 17t24 5h63l-183 -211l168 -224q15 -21 28 -27h-114q-22 0 -35 9.5t-24 24.5l-98 143l-134 -156q-9 -11 -17.5 -16t-24.5 -5h-63z" />
    <glyph glyph-name="Oslash" unicode="&#xd8;" horiz-adv-x="680" 
d="M95 10q-19 0 -45 32l62 75q-62 84 -62 236q0 172 79 256.5t211 84.5q117 0 193 -67l54 66q21 -9 31.5 -17.5t10.5 -19.5t-12 -26l-42 -51q55 -83 55 -226q0 -172 -79 -256.5t-211 -84.5q-110 0 -183 58l-38 -47q-11 -13 -24 -13zM461 585q-46 52 -121 52t-121 -52
t-46 -147v-170q0 -38 7 -69l298 362q-8 13 -17 24zM507 268v170q0 28 -4 53l-294 -358q5 -7 10 -13q47 -52 121 -52t120.5 52.5t46.5 147.5z" />
    <glyph glyph-name="Thorn" unicode="&#xde;" horiz-adv-x="623" 
d="M79 53v577q0 16 -4 30.5t-10 22.5h81q36 0 45 -13t9 -37v-105h76q299 0 299 -194q0 -96 -68 -148.5t-231 -52.5h-76v-114h-80q-22 0 -31.5 7t-9.5 27zM276 190q90 0 133 37t43 95v24q0 52 -43.5 88.5t-132.5 36.5h-76v-281h76z" />
    <glyph glyph-name="germandbls" unicode="&#xdf;" horiz-adv-x="635" 
d="M79 53v577q0 16 -4 30.5t-10 22.5h81h8h159q109 0 174.5 -42.5t65.5 -121.5q0 -104 -108 -147q63 -12 104 -55.5t41 -107.5q0 -96 -65.5 -142t-172.5 -46q-64 0 -110 28q-2 7 -2 19q0 19 9 29t22 8q35 -28 79 -28q51 0 84 34.5t33 95.5q0 62 -39 94.5t-120 32.5h-108
v-315h-80q-22 0 -31.5 7t-9.5 27zM291 391q73 0 106 33.5t33 91.5q0 50 -34 80t-95 30h-101v-235h91z" />
    <glyph glyph-name="ae" unicode="&#xe6;" horiz-adv-x="843" 
d="M50 151q0 81 67.5 119.5t165.5 38.5h76q-3 50 -21 78q-21 32 -85 32q-70 0 -137 -41q-13 -2 -22 8t-9 29q0 12 2 19q29 19 76 30t92 11q123 0 174 -48l2 -2q57 46 143 46q51 0 99.5 -21t81.5 -71t33 -132q0 -43 -41 -43h-267q5 -67 35 -102t75 -35q33 0 66.5 15t61.5 47
q5 3 11 3q13 0 24.5 -11.5t14.5 -35.5q-31 -35 -79.5 -54.5t-99.5 -19.5q-107 0 -169 57q-7 7 -13 14q-79 -71 -179 -71q-73 0 -125.5 30.5t-52.5 109.5zM359 240v15h-72q-51 0 -83.5 -29t-32.5 -75q0 -45 22 -64.5t53 -19.5q47 0 80 40q25 29 33 64v69zM575 415
q-44 0 -70 -42q-22 -34 -25 -85v-15v-12h187q0 70 -25 112t-67 42z" />
    <glyph glyph-name="eth" unicode="&#xf0;" horiz-adv-x="546" 
d="M486 687h50l-107 -91q28 -37 45 -84q31 -81 31 -176v-39q-1 -142 -58 -213q-58 -72 -177 -72q-107 0 -161.5 56t-54.5 166q0 70 28.5 116.5t75 68.5t100.5 22q59 0 100 -24q13 -8 24 -17v3q0 88 -17 138l-38 -32q-15 -13 -30 -19.5t-36 -6.5h-50l127 108q-31 36 -85 43
q-26 3 -26 22q0 15 14 37q83 0 143 -50l8 -6l28 24q15 13 30 19.5t36 6.5zM177 235v-24q0 -62 25 -102t78 -40q49 0 75.5 41t26.5 101v41q-2 59 -26 94q-25 38 -76 38q-48 0 -75.5 -41.5t-27.5 -107.5z" />
    <glyph glyph-name="divide" unicode="&#xf7;" horiz-adv-x="600" 
d="M45 350q0 12 3 28h505q2 -20 2 -25q0 -32 -20 -32h-467q-23 0 -23 29zM239 163q0 26 18 44t44 18t43.5 -18t17.5 -44q0 -25 -18 -42.5t-43 -17.5q-26 0 -44 17.5t-18 42.5zM239 533q0 26 18 44t44 18t43.5 -18t17.5 -44q0 -25 -18 -42.5t-43 -17.5q-26 0 -44 17.5
t-18 42.5z" />
    <glyph glyph-name="oslash" unicode="&#xf8;" horiz-adv-x="620" 
d="M547 461h63l-97 -85q34 -53 34 -135q0 -114 -64 -172t-171 -58q-97 0 -159 47l-15 -13q-15 -13 -30 -19.5t-36 -6.5h-62l99 88q-32 52 -32 134q0 114 64 172t171 58q96 0 157 -47l12 11q15 13 30 19.5t36 6.5zM426 215v52q0 15 -2 30l-203 -179l6 -8q29 -43 85 -43t85 43
t29 105zM397 372q-29 43 -85 43t-85 -43t-29 -105v-52q0 -15 1 -29l202 179q-2 3 -4 7z" />
    <glyph glyph-name="thorn" unicode="&#xfe;" horiz-adv-x="590" 
d="M69 -97v697q0 16 -4 30.5t-10 22.5h81q36 0 45 -13t9 -37v-185q53 53 136 53q93 0 153.5 -53.5t60.5 -156.5v-33q0 -112 -61 -164.5t-157 -52.5q-62 0 -109 28q-12 8 -23 16v-186h-80q-22 0 -31.5 7t-9.5 27zM419 218v58q0 70 -29.5 104.5t-76.5 34.5q-56 0 -90 -51
q-23 -35 -33 -82v-96q9 -48 30 -77q30 -42 92 -42q50 0 78.5 38t28.5 113z" />
    <glyph glyph-name="dcroat" unicode="&#x111;" horiz-adv-x="610" 
d="M185 531q0 10 5 28h183v71q0 16 -4 30.5t-10 22.5h81q36 0 45 -13t9 -37v-74h93q3 -15 3 -25q0 -32 -30 -32h-66v-483h-80q-22 0 -31.5 7t-9.5 27v3q-49 -45 -116 -45q-85 0 -143.5 47t-58.5 153v13q0 109 58 163t145 54q55 0 98 -29q9 -6 17 -12v102h-155q-33 0 -33 29z
M268 385q-42 0 -67 -40.5t-25 -115.5v-23q0 -71 26.5 -105t64.5 -34q52 0 80 45q17 27 26 66v107q-24 100 -105 100z" />
    <glyph glyph-name="Hbar" unicode="&#x126;" horiz-adv-x="745" 
d="M509 53v273h-269v-307h-80q-22 0 -31.5 7t-9.5 27v449h-71q-33 0 -33 29q0 10 5 28h99v75q0 16 -4 30.5t-10 22.5h81q36 0 45 -13t9 -37v-78h269v75q0 16 -4 30.5t-10 22.5h81q36 0 45 -13t9 -37v-78h97q3 -15 3 -25q0 -32 -30 -32h-70v-483h-80q-22 0 -31.5 7t-9.5 27z
M240 383h269v119h-269v-119z" />
    <glyph glyph-name="hbar" unicode="&#x127;" horiz-adv-x="590" 
d="M409 53v201q0 71 -18.5 101t-54.5 30q-30 0 -55.5 -23t-40.5 -61q-13 -34 -15 -71v-211h-80q-22 0 -31.5 7t-9.5 27v449h-51q-33 0 -33 29q0 10 5 28h79v71q0 16 -4 30.5t-10 22.5h81q36 0 45 -13t9 -37v-74h209q3 -15 3 -25q0 -32 -30 -32h-182v-107q8 8 18 14
q46 32 103 32q88 0 136 -45t48 -157v-220h-80q-22 0 -31.5 7t-9.5 27z" />
    <glyph glyph-name="dotlessi" unicode="&#x131;" horiz-adv-x="260" 
d="M73 53v355q0 16 -4 30.5t-10 22.5h81q36 0 45 -13t9 -37v-392h-80q-22 0 -31.5 7t-9.5 27z" />
    <glyph glyph-name="IJ" unicode="&#x132;" horiz-adv-x="675" 
d="M79 53v581q0 16 -4 30.5t-10 22.5h81q36 0 45 -13t9 -37v-618h-80q-22 0 -31.5 7t-9.5 27zM252 53q-2 7 -2 19q0 19 9 29t22 8q28 -20 53.5 -30t55.5 -10q50 0 72 35.5t22 114.5v415q0 16 -4 30.5t-10 22.5h81q36 0 45 -13t9 -37v-418q0 -92 -54 -149t-147 -57
q-91 0 -152 40z" />
    <glyph glyph-name="ij" unicode="&#x133;" horiz-adv-x="500" 
d="M73 53v355q0 16 -4 30.5t-10 22.5h81q36 0 45 -13t9 -37v-392h-80q-22 0 -31.5 7t-9.5 27zM57 611q0 29 21 50.5t51 21.5q29 0 50 -21.5t21 -50.5q0 -28 -21 -49t-50 -21q-30 0 -51 21t-21 49zM157 -112q-2 7 -2 19q0 19 9 29t22 8q35 -28 66 -28q33 0 47 26t14 86v380
q0 16 -4 30.5t-10 22.5h81q36 0 45 -13t9 -37v-385q0 -81 -43 -123.5t-121 -42.5q-30 0 -57 5t-56 23zM297 611q0 29 21 50.5t51 21.5q29 0 50 -21.5t21 -50.5q0 -28 -21 -49t-50 -21q-30 0 -51 21t-21 49z" />
    <glyph glyph-name="kgreenlandic" unicode="&#x138;" horiz-adv-x="550" 
d="M375 60l-89 165q-6 10 -11 17l-85 -74v-149h-80q-22 0 -31.5 7t-9.5 27v355q0 16 -4 30.5t-10 22.5h81q36 0 45 -13t9 -37v-160l207 184q15 13 30 19.5t36 6.5h62l-220 -192h42q28 0 44 -11.5t28 -34.5l89 -166q6 -12 15 -22.5t17 -15.5h-94q-48 0 -71 41z" />
    <glyph glyph-name="Ldot" unicode="&#x13f;" horiz-adv-x="525" 
d="M79 123v511q0 16 -4 30.5t-10 22.5h81q36 0 45 -13t9 -37v-475q0 -45 19 -63.5t72 -18.5h207q3 -15 3 -25q0 -32 -30 -32l-304 -1q-46 0 -67 28.5t-21 72.5zM259 401q0 29 21 50.5t51 21.5q29 0 50 -21.5t21 -50.5q0 -28 -21 -49t-50 -21q-30 0 -51 21t-21 49z" />
    <glyph glyph-name="ldot" unicode="&#x140;" horiz-adv-x="442" 
d="M69 105v525q0 16 -4 30.5t-10 22.5h81q36 0 45 -13t9 -37v-570q0 -12 4.5 -25.5t10.5 -18.5h-53q-43 0 -63 21.5t-20 64.5zM259 401q0 29 21 50.5t51 21.5q29 0 50 -21.5t21 -50.5q0 -28 -21 -49t-50 -21q-30 0 -51 21t-21 49z" />
    <glyph glyph-name="Lslash" unicode="&#x141;" horiz-adv-x="610" 
d="M428 531h62l-190 -176v-193q0 -45 19 -63.5t72 -18.5h191q3 -15 3 -25q0 -32 -30 -32l-288 -1q-46 0 -67 28.5t-21 72.5v121l-41 -38q-15 -13 -30 -19.5t-36 -6.5h-62l169 156v298q0 16 -4 30.5t-10 22.5h81q36 0 45 -13t9 -37v-190l62 58q15 13 30 19.5t36 6.5z" />
    <glyph glyph-name="lslash" unicode="&#x142;" horiz-adv-x="500" 
d="M428 531h62l-177 -164v-304q0 -12 4.5 -25.5t10.5 -18.5h-53q-43 0 -63 21.5t-20 64.5v151l-54 -50q-15 -13 -30 -19.5t-36 -6.5h-62l182 168v282q0 16 -4 30.5t-10 22.5h81q36 0 45 -13t9 -37v-174l49 46q15 13 30 19.5t36 6.5z" />
    <glyph glyph-name="napostrophe" unicode="&#x149;" horiz-adv-x="700" 
d="M514 53v235q0 68 -24.5 97.5t-63.5 29.5q-59 0 -93 -58q-31 -53 -33 -134v-204h-80q-22 0 -31.5 7t-9.5 27v355q0 16 -4 30.5t-10 22.5h81q36 0 45 -13q8 -12 9 -33q10 10 21 18q49 38 115 38q91 0 145 -44t54 -154v-254h-80q-22 0 -31.5 7t-9.5 27zM49 648q0 26 18 44
t44 18q25 0 41 -17.5t20 -44.5q3 -30 -15 -45t-46 -15v2l61 57q1 -5 1 -15q0 -44 -23 -89.5t-53 -75.5q-11 -10 -25 -10q-7 0 -11 3.5t-4 9.5t4 11q49 52 50 107q-26 0 -44 17.5t-18 42.5z" />
    <glyph glyph-name="Eng" unicode="&#x14a;" horiz-adv-x="691" 
d="M79 53v581q0 16 -4 30.5t-10 22.5h81h8h19q27 0 41.5 -14t24.5 -37l200 -456v454q0 16 -4 30.5t-10 22.5h81q36 0 45 -13t9 -37v-545q0 -108 -67.5 -170.5t-194.5 -62.5q-46 0 -92 11t-78 32q-2 7 -2 19q0 19 9 29t22 8q27 -19 64 -31t75 -12q55 0 86 16t44 50
q9 22 12 55q-10 10 -17 26l-221 487v-530h-80q-22 0 -31.5 7t-9.5 27z" />
    <glyph glyph-name="eng" unicode="&#x14b;" horiz-adv-x="590" 
d="M93 -98q-2 7 -2 19q0 19 9 29t22 8q27 -19 64 -31t75 -12q55 0 86 16t44 49.5t13 89.5v218q0 68 -24.5 97.5t-63.5 29.5q-59 0 -93 -58q-31 -53 -33 -134v-204h-80q-22 0 -31.5 7t-9.5 27v355q0 16 -4 30.5t-10 22.5h81q36 0 45 -13q8 -12 9 -33q10 10 21 18
q49 38 115 38q91 0 145 -44t54 -154v-75v-7v-99q0 -108 -67.5 -170.5t-194.5 -62.5q-46 0 -92 11t-78 32z" />
    <glyph glyph-name="OE" unicode="&#x152;" horiz-adv-x="900" 
d="M80 353q0 172 67 256.5t183 84.5q70 0 122 -31q-4 12 -9 20h367q3 -15 3 -25q0 -32 -30 -32h-205v-233h214q3 -15 3 -25q0 -32 -30 -32h-187v-174q0 -45 19 -63.5t72 -18.5h153q3 -15 3 -25q0 -32 -30 -32l-250 -1q-46 0 -67 28q-3 4 -5 8q-58 -46 -143 -46
q-116 0 -183 84.5t-67 256.5zM457 268v170q0 96 -34.5 147.5t-92.5 51.5t-92.5 -51.5t-34.5 -147.5v-170q0 -96 34.5 -148t92.5 -52t92.5 52t34.5 148z" />
    <glyph glyph-name="oe" unicode="&#x153;" horiz-adv-x="860" 
d="M55 241q0 113 62.5 171.5t162.5 58.5t162 -59h1l1 1q59 58 154 58q51 0 99 -21t80.5 -71t32.5 -132q0 -43 -41 -43h-263q5 -67 34 -102t74 -35q72 0 126 62q5 3 11 3q13 0 24.5 -11.5t14.5 -35.5q-31 -35 -78.5 -54.5t-98.5 -19.5q-107 0 -168 57l-2 2l-1 -1
q-62 -58 -162 -58t-162.5 58.5t-62.5 171.5zM384 215v52q0 61 -27 104.5t-77 43.5t-77 -43.5t-27 -104.5v-52q0 -61 27 -104.5t77 -43.5t77 43.5t27 104.5zM599 415q-44 0 -69 -41t-25 -109v-4h184q0 70 -24 112t-66 42z" />
    <glyph glyph-name="Tbar" unicode="&#x166;" horiz-adv-x="610" 
d="M245 53v349h-111q-33 0 -33 29q0 10 5 28h139v167h-167q-33 0 -33 29q0 10 5 28h512q3 -15 3 -25q0 -32 -30 -32h-169v-167h139q3 -15 3 -25q0 -32 -30 -32h-112v-383h-80q-22 0 -31.5 7t-9.5 27z" />
    <glyph glyph-name="tbar" unicode="&#x167;" horiz-adv-x="485" 
d="M133 187v115h-75q-33 0 -33 29q0 10 5 28h103v103h-75q-33 0 -33 29q0 10 5 28h103v81q0 16 -4 30.5t-10 22.5h81q36 0 45 -13t9 -37v-84h175q3 -15 3 -25q0 -32 -30 -32h-148v-103h175q3 -15 3 -25q0 -32 -30 -32h-148v-114q0 -68 17 -94.5t55 -26.5q29 0 51.5 9.5
t51.5 30.5q13 2 22 -8t9 -29q0 -12 -2 -19q-32 -21 -67 -30.5t-79 -9.5q-86 0 -132.5 44t-46.5 132z" />
    <glyph glyph-name="caron" unicode="&#x2c7;" horiz-adv-x="400" 
d="M66 782q8 0 14 -3l120 -82l120 82q6 3 14 3q12 0 22.5 -10t13.5 -32l-170 -114l-170 114q3 22 13.5 32t22.5 10z" />
    <glyph glyph-name="uni02D0" unicode="&#x2d0;" horiz-adv-x="276" 
d="M227 132h-178l91 151zM142 428l-90 151h172z" />
    <glyph glyph-name="breve" unicode="&#x2d8;" horiz-adv-x="360" 
d="M30 725q3 24 14.5 35.5t24.5 11.5q7 0 11 -3q21 -37 44.5 -54.5t55.5 -17.5t55.5 17.5t44.5 54.5q5 3 11 3q13 0 24.5 -11.5t14.5 -35.5q-21 -38 -63 -61t-87 -23t-87 23t-63 61z" />
    <glyph glyph-name="dotaccent" unicode="&#x2d9;" horiz-adv-x="242" 
d="M40 701q0 36 22 58.5t58 22.5q37 0 59.5 -22.5t22.5 -58.5q0 -34 -22.5 -56.5t-59.5 -22.5q-36 0 -58 22.5t-22 56.5z" />
    <glyph glyph-name="ring" unicode="&#x2da;" horiz-adv-x="288" 
d="M30 675q0 44 33 74.5t81 30.5t81 -30.5t33 -74.5t-33 -74.5t-81 -30.5t-81 30.5t-33 74.5zM196 675q0 23 -15 38.5t-37 15.5t-37 -15.5t-15 -38.5t15 -38.5t37 -15.5t37 15.5t15 38.5z" />
    <glyph glyph-name="ogonek" unicode="&#x2db;" horiz-adv-x="268" 
d="M49 -64q0 40 44 80.5t106 61.5l20 -47q-38 -19 -62 -47.5t-24 -49.5q0 -24 24 -37q25 -13 86 -17l-10 -49q-93 2 -138.5 28t-45.5 77z" />
    <glyph glyph-name="tilde" unicode="&#x2dc;" horiz-adv-x="518" vert-adv-y="1100" 
d="M287 697q29 -24 39.5 -30t27.5 -6q19 0 31.5 13.5t35.5 51.5q5 6 19 6t27.5 -8.5t20.5 -27.5q-11 -36 -47.5 -63.5t-87.5 -27.5q-57 0 -104 39l-14 12q-27 22 -41.5 31t-33.5 9q-16 0 -29.5 -14t-33.5 -51h-1q-4 -6 -19 -6q-14 0 -27.5 8.5t-19.5 27.5q12 40 46.5 65.5
t86.5 25.5q35 0 63.5 -14.5t60.5 -40.5z" />
    <glyph glyph-name="hungarumlaut" unicode="&#x2dd;" horiz-adv-x="445" 
d="M154 788q32 0 68 -36l-97 -195q-11 -21 -21 -31t-23 -10q-15 0 -41 17l68 218q12 37 46 37zM335 787q34 0 70 -42l-113 -185q-22 -37 -45 -37q-16 0 -42 20l86 211q14 33 44 33z" />
    <glyph glyph-name="Alpha" unicode="&#x391;" horiz-adv-x="595" 
d="M246 655q0 20 -12 32h79q25 0 38 -8.5t19 -24.5l194 -594q4 -13 11.5 -25t14.5 -16h-93q-28 0 -44 15t-22 36l-41 131h-244l-57 -152q-6 -16 -18 -23t-34 -7h-32l237 615q4 9 4 21zM167 258h206l-93 300z" />
    <glyph glyph-name="Beta" unicode="&#x392;" horiz-adv-x="640" 
d="M79 121v509q0 16 -4 30.5t-10 22.5h81h8h159q109 0 174.5 -42.5t65.5 -121.5q0 -104 -108 -147q63 -12 104 -55.5t41 -107.5q0 -96 -74 -142t-197 -46l-152 -1q-46 0 -67 28.5t-21 72.5zM467 207q0 62 -39 94.5t-120 32.5h-108v-185q0 -31 5 -46t19.5 -20.5t46.5 -5.5h50
q64 1 104 34q42 35 42 96zM291 391q73 0 106 33.5t33 91.5q0 50 -34 80t-95 30h-101v-235h91z" />
    <glyph glyph-name="Gamma" unicode="&#x393;" horiz-adv-x="530" 
d="M79 53v577q0 16 -4 30.5t-10 22.5h81h8h343q3 -15 3 -25q0 -32 -30 -32h-270v-607h-80q-22 0 -31.5 7t-9.5 27z" />
    <glyph glyph-name="uni0394" unicode="&#x394;" horiz-adv-x="595" 
d="M251 655q0 20 -12 32h79q47 0 57 -33l189 -594q4 -13 11.5 -25t14.5 -16h-585l242 615q4 9 4 21zM429 76l-144 482l-186 -482h330z" />
    <glyph glyph-name="Epsilon" unicode="&#x395;" horiz-adv-x="550" 
d="M79 123v507q0 16 -4 30.5t-10 22.5h440q3 -15 3 -25q0 -32 -30 -32h-278v-233h287q3 -15 3 -25q0 -32 -30 -32h-260v-174q0 -45 19 -63.5t72 -18.5h226q3 -15 3 -25q0 -32 -30 -32l-323 -1q-46 0 -67 28.5t-21 72.5z" />
    <glyph glyph-name="Zeta" unicode="&#x396;" horiz-adv-x="550" 
d="M43 655q0 10 5 28h454q4 -22 4 -27q0 -14 -5 -21l-335 -555h351q3 -15 3 -25q0 -32 -30 -32h-424q-15 0 -25.5 11t-10.5 25q0 8 5 18l323 549h-282q-33 0 -33 29z" />
    <glyph glyph-name="Eta" unicode="&#x397;" horiz-adv-x="660" 
d="M455 687h81q36 0 45 -13t9 -37v-618h-80q-22 0 -31.5 7t-9.5 27v283h-269v-317h-80q-22 0 -31.5 7t-9.5 27v581q0 16 -4 30.5t-10 22.5h81q36 0 45 -13t9 -37v-244h269v241q0 16 -4 30.5t-10 22.5z" />
    <glyph glyph-name="Theta" unicode="&#x398;" horiz-adv-x="680" 
d="M50 353q0 172 79 256.5t211 84.5t211 -84.5t79 -256.5t-79 -256.5t-211 -84.5t-211 84.5t-79 256.5zM507 268v170q0 95 -46 147t-121 52t-121 -52t-46 -147v-170q0 -95 46.5 -147.5t120.5 -52.5t120.5 52.5t46.5 147.5zM222 363q0 10 5 28h228q3 -15 3 -25q0 -32 -30 -32
h-173q-33 0 -33 29z" />
    <glyph glyph-name="Iota" unicode="&#x399;" horiz-adv-x="264" 
d="M79 53v581q0 16 -4 30.5t-10 22.5h81q36 0 45 -13t9 -37v-618h-80q-22 0 -31.5 7t-9.5 27z" />
    <glyph glyph-name="Kappa" unicode="&#x39a;" horiz-adv-x="585" 
d="M420 60l-149 280q-3 5 -6 9l-65 -74v-256h-80q-22 0 -31.5 7t-9.5 27v581q0 16 -4 30.5t-10 22.5h81q36 0 45 -13t9 -37v-266l255 290q13 14 24 20t32 6h54l-269 -303h36q28 0 45 -11.5t29 -34.5l147 -281q5 -11 15 -22.5t17 -15.5h-94q-49 0 -71 41z" />
    <glyph glyph-name="Lambda" unicode="&#x39b;" horiz-adv-x="595" 
d="M246 655q0 20 -12 32h79q25 0 38 -8.5t19 -24.5l194 -594q4 -13 11.5 -25t14.5 -16h-93q-28 0 -44 15t-22 36l-151 488l-191 -509q-6 -16 -18 -23t-34 -7h-32l237 615q4 9 4 21z" />
    <glyph glyph-name="Mu" unicode="&#x39c;" horiz-adv-x="720" 
d="M65 687h146q30 0 47 -14.5t22 -37.5l117 -515l114 567h85q36 0 45 -13t9 -37v-618h-80q-22 0 -31.5 7t-9.5 27v436l-101 -460h-66q-28 0 -42 9t-20 34l-100 417v-470h-80q-22 0 -31.5 7t-9.5 27v581q0 16 -4 30.5t-10 22.5z" />
    <glyph glyph-name="Nu" unicode="&#x39d;" horiz-adv-x="620" 
d="M425 687h81q36 0 45 -13t9 -37v-618h-80h-4q-20 1 -32 11q-13 11 -23 32l-221 487v-530h-80q-22 0 -31.5 7t-9.5 27v581q0 16 -4 30.5t-10 22.5h81h8h19q27 0 41.5 -14t24.5 -37l200 -456v454q0 16 -4 30.5t-10 22.5z" />
    <glyph glyph-name="Xi" unicode="&#x39e;" horiz-adv-x="610" 
d="M45 655q0 10 5 28h512q3 -15 3 -25q0 -32 -30 -32h-457q-33 0 -33 29zM45 52q0 10 5 28h512q3 -15 3 -25q0 -32 -30 -32h-457q-33 0 -33 29zM75 355q0 10 5 28h452q3 -15 3 -25q0 -32 -30 -32h-397q-33 0 -33 29z" />
    <glyph glyph-name="Omicron" unicode="&#x39f;" horiz-adv-x="680" 
d="M50 353q0 172 79 256.5t211 84.5t211 -84.5t79 -256.5t-79 -256.5t-211 -84.5t-211 84.5t-79 256.5zM507 268v170q0 95 -46 147t-121 52t-121 -52t-46 -147v-170q0 -95 46.5 -147.5t120.5 -52.5t120.5 52.5t46.5 147.5z" />
    <glyph glyph-name="Pi" unicode="&#x3a0;" horiz-adv-x="640" 
d="M449 53v573h-249v-607h-80q-22 0 -31.5 7t-9.5 27v577q0 16 -4 30.5t-10 22.5h81h8h362q36 0 45 -13t9 -37v-614h-80q-11 0 -26 8.5t-15 25.5z" />
    <glyph glyph-name="Rho" unicode="&#x3a1;" horiz-adv-x="620" 
d="M65 683h81h8h122q299 0 299 -194q0 -96 -68 -148.5t-231 -52.5h-76v-269h-80q-22 0 -31.5 7t-9.5 27v577q0 16 -4 30.5t-10 22.5zM452 477v24q0 52 -43.5 88.5t-132.5 36.5h-76v-281h76q90 0 133 37t43 95z" />
    <glyph glyph-name="Sigma" unicode="&#x3a3;" horiz-adv-x="485" 
d="M50 64l169 289l-169 289q-7 12 -17.5 24.5t-17.5 16.5h437q3 -15 3 -25q0 -32 -30 -32h-241l137 -227q14 -22 14 -46t-14 -46l-137 -227h268q3 -15 3 -25q0 -32 -30 -32h-307h-3h-2h-98q7 4 17.5 16.5t17.5 24.5z" />
    <glyph glyph-name="Tau" unicode="&#x3a4;" horiz-adv-x="610" 
d="M45 655q0 10 5 28h512q3 -15 3 -25q0 -32 -30 -32h-169v-607h-80q-22 0 -31.5 7t-9.5 27v573h-167q-33 0 -33 29z" />
    <glyph glyph-name="Upsilon" unicode="&#x3a5;" horiz-adv-x="580" 
d="M238 53v266l-188 327q-7 12 -17.5 24.5t-17.5 16.5h100q27 0 40 -13t26 -38l130 -237l156 256q10 17 20 24.5t29 7.5h49l-206 -329v-339h-80q-22 0 -31.5 7t-9.5 27z" />
    <glyph glyph-name="Phi" unicode="&#x3a6;" horiz-adv-x="720" 
d="M301 43v52q-57 7 -104 29q-70 32 -108.5 91t-38.5 138t38.5 138t108.5 91q47 21 104 28v30q0 16 -4 30.5t-10 22.5h81q36 0 45 -13t9 -37v-33q55 -7 101 -28q70 -32 108.5 -91t38.5 -138t-38.5 -138t-108.5 -91q-46 -21 -101 -28v-87h-80q-22 0 -31.5 7t-9.5 27zM222 507
q-49 -49 -49 -139v-30q0 -90 49 -140q32 -32 79 -44v396q-47 -11 -79 -43zM547 338v30q0 90 -50 139q-30 31 -75 42v-394q45 12 75 43q50 50 50 140z" />
    <glyph glyph-name="Chi" unicode="&#x3a7;" horiz-adv-x="617" 
d="M371 379l201 -319q24 -35 33 -41h-101q-27 0 -42 14t-28 37l-135 224l-178 -243q-13 -18 -22 -25t-27 -7h-57l239 330l-196 297q-22 33 -35 41h110q23 0 36 -11t20 -23.5t10 -16.5l129 -204l160 223q13 18 22 25t27 7h59z" />
    <glyph glyph-name="Psi" unicode="&#x3a8;" horiz-adv-x="745" 
d="M55 687h81q36 0 45 -13t9 -37v-145q0 -95 44 -145q29 -32 82 -44v331q0 16 -4 30.5t-10 22.5h81q36 0 45 -13t9 -37v-334q53 11 82 44q45 50 45 145v142q0 16 -4 30.5t-10 22.5h81q36 0 45 -13t9 -37v-124q0 -134 -78 -203q-62 -54 -170 -65v-226h-80q-22 0 -31.5 7
t-9.5 27v192q-108 11 -169 65q-78 69 -78 203v121q0 16 -4 30.5t-10 22.5z" />
    <glyph glyph-name="uni03A9" unicode="&#x3a9;" horiz-adv-x="720" 
d="M59 48q0 10 5 28h133v79q-54 41 -84.5 75.5t-46.5 80t-16 112.5q0 79 38.5 140.5t109 96t162.5 34.5t162.5 -34.5t109 -96t38.5 -140.5q0 -66 -16 -112t-46.5 -81t-83.5 -75v-79h133q5 -18 5 -28q0 -29 -33 -29h-143h-3h-80v130q0 16 7 26.5t23 23.5q57 43 85.5 92.5
t28.5 116.5v30q0 91 -50 145t-137 54t-137 -54t-50 -145v-30q0 -67 29 -117t86 -92q16 -13 23 -23.5t7 -26.5v-130h-74h-4h-148q-33 0 -33 29z" />
    <glyph glyph-name="alpha" unicode="&#x3b1;" horiz-adv-x="560" 
d="M374 53v9q-14 -14 -29 -23q-42 -28 -112 -28q-73 0 -125.5 30.5t-52.5 109.5q0 81 67.5 119.5t165.5 38.5h85q-3 47 -25 76q-25 34 -90 34q-70 0 -137 -41q-13 -2 -22 8t-9 29q0 12 2 19q29 19 76 30t92 11q124 0 179.5 -48t55.5 -154v-254h-80q-22 0 -31.5 7t-9.5 27z
M210 226q-34 -28 -34 -75q0 -45 22 -64.5t53 -19.5t59.5 19t46.5 49q12 19 17 39v81h-72q-58 0 -92 -29z" />
    <glyph glyph-name="beta" unicode="&#x3b2;" horiz-adv-x="615" 
d="M415 516q0 48 -34 79t-84 31q-48 0 -79.5 -36t-31.5 -106v-615h-80q-22 0 -31.5 7t-9.5 27v578q0 102 66.5 152t167.5 50q108 0 173.5 -42.5t65.5 -121.5q0 -104 -108 -147q63 -12 104 -55.5t41 -107.5q0 -96 -65.5 -142t-171.5 -46q-64 0 -110 28q-2 7 -2 19q0 19 9 29
t22 8q35 -28 79 -28q51 0 83.5 34.5t32.5 95.5t-39 94t-119 33h-19q-33 0 -33 29q0 10 5 28h30q72 0 105 33.5t33 91.5z" />
    <glyph glyph-name="gamma" unicode="&#x3b3;" horiz-adv-x="555" 
d="M216 -97v131l-166 385q-4 11 -15.5 23.5t-19.5 17.5h100q46 0 66 -51l116 -281q74 56 103.5 134.5t36.5 165.5q3 32 49 32h39q-2 -65 -23.5 -140.5t-66.5 -146.5q-40 -63 -98 -107v-197h-80q-22 0 -31.5 7t-9.5 27z" />
    <glyph glyph-name="delta" unicode="&#x3b4;" horiz-adv-x="570" 
d="M50 217q0 70 38.5 124t98.5 78q-52 26 -82 65t-30 84q0 64 61.5 95t143.5 31q48 0 93.5 -13t79.5 -43q-3 -25 -13 -36.5t-22 -11.5q-5 0 -10 3q-58 45 -122 45q-41 0 -63.5 -15.5t-22.5 -44.5q0 -28 29 -50.5t91 -56.5q43 -23 70 -40q130 -80 130 -209q0 -100 -64.5 -155
t-170.5 -55q-109 0 -172 50t-63 155zM285 68q56 0 85 42t29 99q0 64 -34 102t-110 70q-35 -14 -59.5 -51t-24.5 -92v-19q0 -64 29 -107.5t85 -43.5z" />
    <glyph glyph-name="epsilon" unicode="&#x3b5;" horiz-adv-x="415" 
d="M50 148q0 42 20 71t54 44q-49 33 -49 89t45.5 88t119.5 32q28 0 64 -7.5t57 -21.5l1 -12q0 -20 -8 -30t-19 -10q-5 0 -11 3q-42 20 -78 20q-34 -1 -51 -16.5t-17 -41.5q0 -31 19 -48.5t66 -24.5l61 -7q6 -15 6 -25q0 -27 -32 -25l-42 1q-57 -1 -80 -23t-23 -61
q0 -33 25 -53.5t65 -20.5q59 0 106 27q15 4 25.5 -5t10.5 -27q0 -8 -3 -19q-23 -17 -60.5 -25.5t-80.5 -8.5q-84 0 -137.5 35t-53.5 102z" />
    <glyph glyph-name="zeta" unicode="&#x3b6;" horiz-adv-x="490" 
d="M35 655q0 10 5 28h416q4 -22 4 -30q0 -16 -8 -24l-34 -32q-61 -57 -105.5 -104t-78.5 -105t-34 -114q0 -45 27 -82t99 -69q67 -30 93 -51.5t26 -58.5v-144h-80q-22 0 -31.5 7t-9.5 27v82q0 24 -20 40t-83 49l-54 30q-45 25 -80.5 66.5t-35.5 95.5q0 56 19 104.5t78 111.5
t174 144h-254q-33 0 -33 29z" />
    <glyph glyph-name="eta" unicode="&#x3b7;" horiz-adv-x="595" 
d="M65 461h81q36 0 45 -13q8 -12 9 -33q10 10 21 18q49 38 115 38q91 0 145 -44t54 -154v-404h-80q-22 0 -31.5 7t-9.5 27v385q0 68 -24.5 97.5t-63.5 29.5q-59 0 -92.5 -57.5t-33.5 -147.5v-191h-80q-22 0 -31.5 7t-9.5 27v355q0 16 -4 30.5t-10 22.5z" />
    <glyph glyph-name="theta" unicode="&#x3b8;" horiz-adv-x="680" 
d="M50 353q0 172 79 256.5t211 84.5t211 -84.5t79 -256.5t-79 -256.5t-211 -84.5t-211 84.5t-79 256.5zM507 268v66h-334v-66q0 -95 46.5 -147.5t120.5 -52.5t120.5 52.5t46.5 147.5zM507 438q0 95 -46 147t-121 52t-121 -52t-46 -147v-47h334v47z" />
    <glyph glyph-name="iota" unicode="&#x3b9;" horiz-adv-x="340" 
d="M79 123v285q0 16 -4 30.5t-10 22.5h81q36 0 45 -13t9 -37v-249q0 -46 10.5 -64t40.5 -18h56q3 -15 3 -25q0 -32 -30 -32l-113 -1q-45 -1 -66.5 28t-21.5 73z" />
    <glyph glyph-name="kappa" unicode="&#x3ba;" horiz-adv-x="505" 
d="M418 461h62l-216 -212h38q27 0 42.5 -11.5t29.5 -34.5l89 -146q19 -30 32 -38h-94q-27 0 -43 11.5t-28 29.5l-89 145q-5 7 -9 12l-32 -32v-166h-80q-22 0 -31.5 7t-9.5 27v355q0 16 -4 30.5t-10 22.5h81q36 0 45 -13t9 -37v-135l152 159q13 13 28.5 19.5t37.5 6.5z" />
    <glyph glyph-name="lambda" unicode="&#x3bb;" horiz-adv-x="520" 
d="M381 525l184 -506h-98q-19 0 -29 7.5t-16 24.5l-122 361l-176 -342q-13 -24 -26 -37.5t-40 -13.5h-43q8 5 15.5 20.5t10.5 20.5l179 345q12 24 26 40t34 16q-27 86 -48 125.5t-47 39.5q-20 0 -35 -5.5t-34 -22.5q-13 -2 -22 8t-9 29q0 12 2 19q20 14 62 21t71 7
q35 0 61 -11.5t51 -45.5t49 -100z" />
    <glyph glyph-name="uni03BC" unicode="&#x3bc;" horiz-adv-x="605" 
d="M65 461h81q36 0 45 -13t9 -37v-222q0 -68 21.5 -95t60.5 -27q60 0 96 55.5t36 144.5v141q0 16 -4 30.5t-10 22.5h81q36 0 45 -13t9 -37v-392h-80q-22 0 -31.5 7t-9.5 27v16q-12 -12 -26 -22q-50 -36 -116 -36q-42 0 -72 12v-154h-80q-22 0 -31.5 7t-9.5 27v505
q0 16 -4 30.5t-10 22.5z" />
    <glyph glyph-name="nu" unicode="&#x3bd;" horiz-adv-x="535" 
d="M206 53l-156 366q-4 11 -15.5 23.5t-19.5 17.5h100q46 0 66 -51l119 -307q64 87 92 174.5t25 151.5q-1 17 13 24.5t36 7.5h39q1 -94 -37.5 -207t-150.5 -234h-60q-21 0 -32 8t-19 26z" />
    <glyph glyph-name="xi" unicode="&#x3be;" horiz-adv-x="478" 
d="M65 653q0 10 5 28h352q3 -15 3 -25q0 -32 -30 -32q-83 -11 -129 -53.5t-46 -96.5q0 -48 26.5 -86.5t100.5 -38.5l69 -1q12 -21 12 -41q0 -14 -8 -23t-24 -9h-51q-95 0 -130 -34t-35 -71q0 -35 28 -69t98 -56q67 -21 93 -36t26 -40v-100h-80q-22 0 -31.5 5t-9.5 19v56
q0 17 -19.5 27.5t-84.5 35.5l-53 20q-47 18 -81.5 50.5t-34.5 83.5q0 43 32.5 83.5t94.5 69.5q-4 5 -26 27.5t-36.5 54t-14.5 65.5q0 48 33 91t84 67h-100q-33 0 -33 29z" />
    <glyph glyph-name="omicron" unicode="&#x3bf;" horiz-adv-x="570" 
d="M50 242q0 116 64 174.5t171 58.5t171 -58.5t64 -174.5t-64 -174.5t-171 -58.5t-171 58.5t-64 174.5zM399 216v52q0 64 -29 107.5t-85 43.5t-85 -43.5t-29 -107.5v-52q0 -64 29 -107.5t85 -43.5t85 43.5t29 107.5z" />
    <glyph glyph-name="pi" unicode="&#x3c0;" horiz-adv-x="680" 
d="M405 123v281h-129v-385h-80q-22 0 -31.5 7t-9.5 27v351h-77q-33 0 -33 29q0 10 5 28h582q3 -15 3 -25q0 -32 -30 -32h-79v-242q0 -46 10.5 -64t40.5 -18h55q3 -15 3 -25q0 -32 -30 -32l-112 -1q-45 -1 -66.5 28t-21.5 73z" />
    <glyph glyph-name="rho" unicode="&#x3c1;" horiz-adv-x="600" 
d="M305 415q-52 0 -83 -37.5t-31 -98.5v-94q11 -58 40 -88t81 -30q50 0 78.5 38t28.5 113v58q0 70 -31.5 104.5t-82.5 34.5zM540 261v-33q0 -112 -61 -164.5t-157 -52.5q-82 0 -131 42v-184h-80q-22 0 -31.5 7t-9.5 27v315q0 129 69.5 191t178.5 62q61 0 111.5 -23
t80.5 -70.5t30 -116.5z" />
    <glyph glyph-name="sigma" unicode="&#x3c3;" horiz-adv-x="628" 
d="M50 242q0 106 64.5 162.5t170.5 56.5h10h300q3 -15 3 -25q0 -32 -30 -32h-112q64 -57 64 -162q0 -116 -64 -174.5t-171 -58.5t-171 58.5t-64 174.5zM399 216v43q0 60 -29 103t-85 43t-85 -43t-29 -103v-43q0 -64 29 -107.5t85 -43.5t85 43.5t29 107.5z" />
    <glyph glyph-name="tau" unicode="&#x3c4;" horiz-adv-x="510" 
d="M195 123v281h-117q-33 0 -33 29q0 10 5 28h412q3 -15 3 -25q0 -32 -30 -32h-119v-242q0 -46 10.5 -64t40.5 -18h95q3 -15 3 -25q0 -32 -30 -32l-152 -1q-46 0 -67 28.5t-21 72.5z" />
    <glyph glyph-name="upsilon" unicode="&#x3c5;" horiz-adv-x="571" 
d="M280 75q58 0 80 45.5t22 139.5v211h78q22 0 31.5 -7t9.5 -27l-1 -135q-1 -139 -54 -211t-171 -72q-205 0 -205 201v251h78q22 0 31.5 -7t9.5 -27v-235q0 -70 23 -98.5t68 -28.5z" />
    <glyph glyph-name="phi" unicode="&#x3c6;" horiz-adv-x="680" 
d="M281 -97v112q-49 5 -91 20q-66 24 -103 69.5t-37 108.5t37 108.5t103 68.5q42 15 91 20v20q0 16 -4 30.5t-10 22.5h81q36 0 45 -13t9 -37v-23q47 -5 88 -20q66 -23 103 -68.5t37 -108.5t-37 -108.5t-103 -69.5q-41 -14 -88 -20v-146h-80q-22 0 -31.5 7t-9.5 27zM220 317
q-47 -40 -47 -104t47 -105q26 -23 61 -33v274q-35 -10 -61 -32zM507 213q0 64 -47 104q-26 21 -58 31v-272q32 10 58 32q47 41 47 105z" />
    <glyph glyph-name="chi" unicode="&#x3c7;" horiz-adv-x="530" 
d="M43 433q0 10 5 28h135q28 0 40 -9.5t20 -24.5l56 -111l75 123q14 22 42 22h63l-142 -201l101 -184h54q3 -15 3 -25q0 -32 -30 -32h-46h-5h-45q-17 0 -29.5 10t-19.5 24l-68 133l-107 -146q-7 -11 -16.5 -16t-25.5 -5h-63l173 220l-95 165h-42q-33 0 -33 29z" />
    <glyph glyph-name="psi" unicode="&#x3c8;" horiz-adv-x="710" 
d="M70 457h81q36 0 45 -13t9 -37v-145q0 -95 39 -147q22 -29 57 -42v467q0 16 -4 30.5t-10 22.5h81q36 0 45 -13t9 -37v-470q35 13 57 42q40 52 40 147v142q0 16 -4 30.5t-10 22.5h81q36 0 45 -13t9 -37v-124q0 -135 -74 -205q-55 -53 -144 -66v-143h-80q-22 0 -31.5 7
t-9.5 27v109q-88 13 -144 66q-73 70 -73 205v121q0 16 -4 30.5t-10 22.5z" />
    <glyph glyph-name="omega" unicode="&#x3c9;" horiz-adv-x="820" 
d="M549 75q44 0 63 46.5t19 138.5v211h78q22 0 31.5 -7t9.5 -27l-1 -135q-5 -140 -53.5 -211.5t-151.5 -71.5q-110 0 -154 69q-49 -69 -131 -69q-189 0 -189 198v254h78q22 0 31.5 -7t9.5 -27v-235q0 -67 22 -97t53 -30q46 0 70.5 48.5t24.5 136.5v211h78q22 0 31.5 -7
t9.5 -27v-235q0 -68 20 -97.5t51 -29.5z" />
    <glyph glyph-name="uni0401" unicode="&#x401;" horiz-adv-x="550" 
d="M79 123v477q0 16 -4 30.5t-10 22.5h440q3 -15 3 -25q0 -32 -30 -32h-278v-218h287q3 -15 3 -25q0 -32 -30 -32h-260v-159q0 -45 19 -63.5t72 -18.5h226q3 -15 3 -25q0 -32 -30 -32l-323 -1q-46 0 -67 28.5t-21 72.5zM345 747q0 22 15 37t37 15q21 0 36 -15t15 -37
q0 -20 -15 -35t-36 -15q-22 0 -37 14.5t-15 35.5zM139 747q0 22 15 37t37 15q21 0 36 -15t15 -37q0 -20 -15 -35t-36 -15q-22 0 -37 15t-15 35z" />
    <glyph glyph-name="uni0410" unicode="&#x410;" horiz-adv-x="595" 
d="M246 655q0 20 -12 32h79q25 0 38 -8.5t19 -24.5l194 -594q4 -13 11.5 -25t14.5 -16h-93q-28 0 -44 15t-22 36l-41 131h-244l-57 -152q-6 -16 -18 -23t-34 -7h-32l237 615q4 9 4 21zM167 258h206l-93 300z" />
    <glyph glyph-name="uni0411" unicode="&#x411;" horiz-adv-x="630" 
d="M79 121v509q0 16 -4 30.5t-10 22.5h432q3 -15 3 -25q0 -32 -30 -32h-270v-235h111q134 0 206.5 -45t72.5 -137q0 -96 -74 -142t-196 -46h-1l-152 -1q-46 0 -67 28.5t-21 72.5zM467 207q0 62 -39 94.5t-120 32.5h-108v-185q0 -31 5 -46t19.5 -20.5t46.5 -5.5h46
q67 0 108.5 34.5t41.5 95.5z" />
    <glyph glyph-name="uni0412" unicode="&#x412;" horiz-adv-x="640" 
d="M79 121v509q0 16 -4 30.5t-10 22.5h81h8h159q109 0 174.5 -42.5t65.5 -121.5q0 -104 -108 -147q63 -12 104 -55.5t41 -107.5q0 -96 -74 -142t-197 -46l-152 -1q-46 0 -67 28.5t-21 72.5zM467 207q0 62 -39 94.5t-120 32.5h-108v-185q0 -31 5 -46t19.5 -20.5t46.5 -5.5h50
q64 1 104 34q42 35 42 96zM291 391q73 0 106 33.5t33 91.5q0 50 -34 80t-95 30h-101v-235h91z" />
    <glyph glyph-name="uni0413" unicode="&#x413;" horiz-adv-x="530" 
d="M79 53v577q0 16 -4 30.5t-10 22.5h81h8h343q3 -15 3 -25q0 -32 -30 -32h-270v-607h-80q-22 0 -31.5 7t-9.5 27z" />
    <glyph glyph-name="uni0414" unicode="&#x414;" horiz-adv-x="660" 
d="M499 53v149h-329v-183h-80q-22 0 -31.5 7t-9.5 27v153q0 16 -4 30.5t-10 22.5h85q21 7 30 23t11 39.5t2 72.5v236q0 16 -4 30.5t-10 22.5h81h8h268q36 0 45 -13t9 -37v-374h6q36 0 45 -13t9 -37v-190h-80q-22 0 -31.5 7t-9.5 27zM253 281q-7 -12 -16 -22h202v367h-155
v-204q0 -87 -31 -141z" />
    <glyph glyph-name="uni0415" unicode="&#x415;" horiz-adv-x="550" 
d="M79 123v507q0 16 -4 30.5t-10 22.5h440q3 -15 3 -25q0 -32 -30 -32h-278v-233h287q3 -15 3 -25q0 -32 -30 -32h-260v-174q0 -45 19 -63.5t72 -18.5h226q3 -15 3 -25q0 -32 -30 -32l-323 -1q-46 0 -67 28.5t-21 72.5z" />
    <glyph glyph-name="uni0416" unicode="&#x416;" horiz-adv-x="870" 
d="M776 687h54l-269 -303h36q28 0 45 -11.5t29 -34.5l147 -281q5 -11 15 -22.5t17 -15.5h-94q-49 0 -71 41l-149 280q-3 5 -6 9l-36 -41v-289h-80q-22 0 -31.5 7t-9.5 27v245l-223 -253q-13 -14 -24 -20t-32 -6h-54l268 303h-35q-28 0 -45 11.5t-29 34.5l-147 281
q-5 11 -15 22.5t-17 15.5h94q49 0 71 -41l149 -280q2 -5 5 -10l34 38v240q0 16 -4 30.5t-10 22.5h81q36 0 45 -13t9 -37v-233l226 257q13 14 24 20t32 6z" />
    <glyph glyph-name="uni0417" unicode="&#x417;" horiz-adv-x="550" 
d="M121 369q0 11 4 24l79 6q77 11 111.5 43t34.5 86q0 50 -32.5 79.5t-88.5 29.5q-57 0 -119 -32q-6 -2 -9 -2q-13 0 -21 14t-6 40q32 18 80 27.5t86 9.5q107 0 170 -44.5t63 -125.5q0 -72 -48 -112q-20 -17 -47 -29q46 -13 79 -42q53 -46 53 -133q0 -97 -75 -146.5
t-196 -49.5q-59 0 -111.5 11.5t-85.5 31.5q-2 7 -2 19q0 19 9 29t22 8q41 -21 78.5 -32t87.5 -11q65 0 107.5 37.5t42.5 96.5q0 140 -170 145l-62 -2q-18 -1 -26 5t-8 19z" />
    <glyph glyph-name="uni0418" unicode="&#x418;" horiz-adv-x="620" 
d="M79 53v581q0 16 -4 30.5t-10 22.5h81q36 0 45 -13t9 -37v-480l221 487q10 21 23.5 32t38.5 11h27q32 -1 41 -13q9 -13 9 -37v-618h-80q-11 0 -26 8.5t-15 25.5v472l-200 -455q-10 -23 -24.5 -37t-41.5 -14h-53q-22 0 -31.5 7t-9.5 27z" />
    <glyph glyph-name="uni0419" unicode="&#x419;" horiz-adv-x="691" 
d="M439 53v450l-200 -433q-11 -24 -25 -37.5t-41 -13.5h-53q-22 0 -31.5 7t-9.5 27v551q0 16 -4 30.5t-10 22.5h81q36 0 45 -13t9 -37v-455l221 462q10 21 23.5 32t38.5 11h23q36 0 45 -13t9 -37v-588h-80q-11 0 -26 8.5t-15 25.5zM170 755q3 24 14.5 35.5t24.5 11.5
q7 0 11 -3q20 -29 43 -40.5t57 -11.5t57 11.5t43 40.5q5 3 11 3q13 0 24.5 -11.5t14.5 -35.5q-21 -30 -62.5 -47t-87.5 -17t-87.5 17t-62.5 47z" />
    <glyph glyph-name="uni041A" unicode="&#x41a;" horiz-adv-x="585" 
d="M511 687h54l-269 -303h36q28 0 45 -11.5t29 -34.5l147 -281q5 -11 15 -22.5t17 -15.5h-94q-49 0 -71 41l-149 280q-3 5 -6 9l-65 -74v-256h-80q-22 0 -31.5 7t-9.5 27v581q0 16 -4 30.5t-10 22.5h81q36 0 45 -13t9 -37v-266l255 290q13 14 24 20t32 6z" />
    <glyph glyph-name="uni041B" unicode="&#x41b;" horiz-adv-x="700" 
d="M509 53v573h-205v-396q0 -87 -30.5 -140.5t-101.5 -72.5q-22 -6 -50 -6q-54 0 -95 21q-2 7 -2 19q0 19 9 29t22 8q40 -24 66 -24q9 0 18 3q21 7 30 23t11 39.5t2 72.5v428q0 16 -4 30.5t-10 22.5h81h8h318q36 0 45 -13t9 -37v-614h-80q-11 0 -26 8.5t-15 25.5z" />
    <glyph glyph-name="uni041C" unicode="&#x41c;" horiz-adv-x="720" 
d="M65 687h146q30 0 47 -14.5t22 -37.5l117 -515l114 567h85q36 0 45 -13t9 -37v-618h-80q-22 0 -31.5 7t-9.5 27v436l-101 -460h-66q-28 0 -42 9t-20 34l-100 417v-470h-80q-22 0 -31.5 7t-9.5 27v581q0 16 -4 30.5t-10 22.5z" />
    <glyph glyph-name="uni041D" unicode="&#x41d;" horiz-adv-x="660" 
d="M455 687h81q36 0 45 -13t9 -37v-618h-80q-22 0 -31.5 7t-9.5 27v283h-269v-317h-80q-22 0 -31.5 7t-9.5 27v581q0 16 -4 30.5t-10 22.5h81q36 0 45 -13t9 -37v-244h269v241q0 16 -4 30.5t-10 22.5z" />
    <glyph glyph-name="uni041E" unicode="&#x41e;" horiz-adv-x="680" 
d="M50 353q0 172 79 256.5t211 84.5t211 -84.5t79 -256.5t-79 -256.5t-211 -84.5t-211 84.5t-79 256.5zM507 268v170q0 95 -46 147t-121 52t-121 -52t-46 -147v-170q0 -95 46.5 -147.5t120.5 -52.5t120.5 52.5t46.5 147.5z" />
    <glyph glyph-name="uni041F" unicode="&#x41f;" horiz-adv-x="640" 
d="M449 53v573h-249v-607h-80q-22 0 -31.5 7t-9.5 27v577q0 16 -4 30.5t-10 22.5h81h8h362q36 0 45 -13t9 -37v-614h-80q-11 0 -26 8.5t-15 25.5z" />
    <glyph glyph-name="uni0420" unicode="&#x420;" horiz-adv-x="620" 
d="M65 683h81h8h122q299 0 299 -194q0 -96 -68 -148.5t-231 -52.5h-76v-269h-80q-22 0 -31.5 7t-9.5 27v577q0 16 -4 30.5t-10 22.5zM452 477v24q0 52 -43.5 88.5t-132.5 36.5h-76v-281h76q90 0 133 37t43 95z" />
    <glyph glyph-name="uni0421" unicode="&#x421;" horiz-adv-x="590" 
d="M346 694q54 0 106.5 -19t92.5 -64q-4 -22 -15 -33.5t-23 -11.5q-8 0 -15 5q-62 66 -153 66q-74 0 -120.5 -57.5t-46.5 -166.5v-108q0 -113 46 -173.5t121 -60.5q58 0 98.5 21t74.5 70q7 5 16 5q14 0 26 -11t16 -32q-36 -52 -97 -81t-127 -29q-86 0 -152.5 36.5t-105 112
t-38.5 190.5v1q0 115 38.5 191t105.5 112.5t152 36.5z" />
    <glyph glyph-name="uni0422" unicode="&#x422;" horiz-adv-x="610" 
d="M45 655q0 10 5 28h512q3 -15 3 -25q0 -32 -30 -32h-169v-607h-80q-22 0 -31.5 7t-9.5 27v573h-167q-33 0 -33 29z" />
    <glyph glyph-name="uni0423" unicode="&#x423;" horiz-adv-x="520" 
d="M263 219q-22 0 -39.5 16t-25.5 36l-157 375q-13 33 -26 41h93q47 0 66 -51l127 -324l121 343q6 17 16 24.5t29 7.5h38l-182 -488q-30 -79 -62 -121t-63.5 -55.5t-67.5 -13.5q-53 0 -93 28q-3 11 -3 21q0 18 9 28.5t21 8.5q35 -28 63 -28q37 0 70 29t66 123z" />
    <glyph glyph-name="uni0424" unicode="&#x424;" horiz-adv-x="720" 
d="M301 43v52q-57 7 -104 29q-70 32 -108.5 91t-38.5 138t38.5 138t108.5 91q47 21 104 28v30q0 16 -4 30.5t-10 22.5h81q36 0 45 -13t9 -37v-33q55 -7 101 -28q70 -32 108.5 -91t38.5 -138t-38.5 -138t-108.5 -91q-46 -21 -101 -28v-87h-80q-22 0 -31.5 7t-9.5 27zM222 507
q-49 -49 -49 -139v-30q0 -90 49 -140q32 -32 79 -44v396q-47 -11 -79 -43zM547 338v30q0 90 -50 139q-30 31 -75 42v-394q45 12 75 43q50 50 50 140z" />
    <glyph glyph-name="uni0425" unicode="&#x425;" horiz-adv-x="620" 
d="M371 379l201 -319q24 -35 33 -41h-101q-27 0 -42 14t-28 37l-135 224l-178 -243q-13 -18 -22 -25t-27 -7h-57l239 330l-196 297q-22 33 -35 41h110q23 0 36 -11t20 -23.5t10 -16.5l129 -204l160 223q13 18 22 25t27 7h59z" />
    <glyph glyph-name="uni0426" unicode="&#x426;" horiz-adv-x="652" 
d="M434 -97v120l-267 -1q-46 0 -67 28.5t-21 72.5v507q0 16 -4 30.5t-10 22.5h81q36 0 45 -13t9 -37v-471q0 -45 19 -63.5t72 -18.5h143v554q0 16 -4 30.5t-10 22.5h81q36 0 45 -13t9 -37v-768h-80q-22 0 -31.5 7t-9.5 27z" />
    <glyph glyph-name="uni0427" unicode="&#x427;" horiz-adv-x="625" 
d="M65 687h81q36 0 45 -13t9 -37v-198q0 -69 23 -95.5t69 -26.5q67 0 104.5 55t37.5 145v117q0 16 -4 30.5t-10 22.5h81q36 0 45 -13t9 -37v-618h-80q-22 0 -31.5 7t-9.5 27v268q-59 -60 -152 -60q-98 0 -150.5 41t-52.5 152v180q0 16 -4 30.5t-10 22.5z" />
    <glyph glyph-name="uni0428" unicode="&#x428;" horiz-adv-x="840" 
d="M79 123v507q0 16 -4 30.5t-10 22.5h81q36 0 45 -13t9 -37v-471q0 -45 19 -63.5t72 -18.5h74v554q0 16 -4 30.5t-10 22.5h81q36 0 45 -13t9 -37v-557h163v554q0 16 -4 30.5t-10 22.5h81q36 0 45 -13t9 -37v-614h-61h-4l-538 -1q-46 0 -67 28.5t-21 72.5z" />
    <glyph glyph-name="uni0429" unicode="&#x429;" horiz-adv-x="840" 
d="M649 -97v120l-482 -1q-46 0 -67 28.5t-21 72.5v507q0 16 -4 30.5t-10 22.5h81q36 0 45 -13t9 -37v-471q0 -45 19 -63.5t72 -18.5h74v554q0 16 -4 30.5t-10 22.5h81q36 0 45 -13t9 -37v-557h163v554q0 16 -4 30.5t-10 22.5h81q36 0 45 -13t9 -37v-768h-80q-22 0 -31.5 7
t-9.5 27z" />
    <glyph glyph-name="uni042A" unicode="&#x42a;" horiz-adv-x="730" 
d="M170 121v505h-117q-33 0 -33 29q0 10 5 28h212q36 0 45 -13t9 -37v-222h111q134 0 206 -47t72 -145q0 -103 -73.5 -150.5t-196.5 -47.5l-152 -1q-46 0 -67 28.5t-21 72.5zM557 217q0 68 -38.5 102.5t-119.5 34.5h-108v-205q0 -31 5 -46t19.5 -20.5t46.5 -5.5h50
q64 1 104 36q41 36 41 104z" />
    <glyph glyph-name="uni042B" unicode="&#x42b;" horiz-adv-x="840" 
d="M79 121v509q0 16 -4 30.5t-10 22.5h81q36 0 45 -13t9 -37v-222h91q279 0 279 -192q0 -103 -73.5 -150.5t-196.5 -47.5h-1l-132 -1q-46 0 -67 28.5t-21 72.5zM649 53v577q0 16 -4 30.5t-10 22.5h81q36 0 45 -13t9 -37v-614h-80q-22 0 -31.5 7t-9.5 27zM447 217
q0 68 -39 102.5t-120 34.5h-88v-205q0 -31 5 -46t19.5 -20.5t46.5 -5.5h26q67 0 108.5 36t41.5 104z" />
    <glyph glyph-name="uni042C" unicode="&#x42c;" horiz-adv-x="640" 
d="M79 121v509q0 16 -4 30.5t-10 22.5h81q36 0 45 -13t9 -37v-222h112q134 0 206 -47t72 -145q0 -103 -73.5 -150.5t-196.5 -47.5l-153 -1q-46 0 -67 28.5t-21 72.5zM467 217q0 68 -38.5 102.5t-119.5 34.5h-109v-205q0 -31 5 -46t19.5 -20.5t46.5 -5.5h51q64 1 104 36
q41 36 41 104z" />
    <glyph glyph-name="uni042D" unicode="&#x42d;" horiz-adv-x="590" 
d="M99 365q0 10 5 28h314v20q0 109 -46.5 166.5t-120.5 57.5q-91 0 -153 -66q-7 -5 -15 -5q-12 0 -23 11.5t-15 33.5q40 45 92.5 64t106.5 19q85 0 152 -36.5t105.5 -112.5t38.5 -191v-1q0 -115 -38.5 -190.5t-105 -112t-152.5 -36.5q-66 0 -127 29t-97 81q4 21 16 32t26 11
q9 0 16 -5q34 -49 74.5 -70t98.5 -21q75 0 121 60.5t46 173.5v31h-286q-33 0 -33 29z" />
    <glyph glyph-name="uni042E" unicode="&#x42e;" horiz-adv-x="840" 
d="M79 53v581q0 16 -4 30.5t-10 22.5h81q36 0 45 -13t9 -37v-244h111q7 141 64 216q66 85 175 85t174.5 -85t65.5 -256t-65.5 -256t-174.5 -85t-175 85q-62 80 -65 239h-110v-317h-80q-22 0 -31.5 7t-9.5 27zM667 268v170q0 95 -32.5 147t-84.5 52t-84.5 -52t-32.5 -147
v-170q0 -95 33 -147.5t84 -52.5t84 52.5t33 147.5z" />
    <glyph glyph-name="uni042F" unicode="&#x42f;" horiz-adv-x="595" 
d="M414 53v251h-91h-25q-6 -3 -12 -8q-14 -13 -27 -34l-121 -196q-12 -19 -27.5 -30t-43.5 -11h-52q12 7 32 38l141 217q15 23 25 33q-63 13 -98 42q-61 52 -61 142q0 84 62 135t207 51h158q36 0 45 -13t9 -37v-614h-80q-22 0 -31.5 7t-9.5 27zM249 608q-37 -17 -54.5 -45
t-17.5 -59v-14q0 -56 41.5 -92.5t124.5 -36.5h71v265h-71q-56 0 -94 -18z" />
    <glyph glyph-name="uni0430" unicode="&#x430;" horiz-adv-x="560" 
d="M374 53v9q-14 -14 -29 -23q-42 -28 -112 -28q-73 0 -125.5 30.5t-52.5 109.5q0 81 67.5 119.5t165.5 38.5h85q-3 47 -25 76q-25 34 -90 34q-70 0 -137 -41q-13 -2 -22 8t-9 29q0 12 2 19q29 19 76 30t92 11q124 0 179.5 -48t55.5 -154v-254h-80q-22 0 -31.5 7t-9.5 27z
M210 226q-34 -28 -34 -75q0 -45 22 -64.5t53 -19.5t59.5 19t46.5 49q12 19 17 39v81h-72q-58 0 -92 -29z" />
    <glyph glyph-name="uni0431" unicode="&#x431;" horiz-adv-x="575" 
d="M425 707q3 2 10 2q12 0 20 -12.5t9 -35.5q-24 -18 -61 -27t-92 -16q-39 -5 -70.5 -39t-49.5 -84t-18 -98q54 44 134 44q93 0 155.5 -51.5t62.5 -155.5q0 -110 -58 -166t-172 -56q-119 0 -182 72t-63 213v29q0 93 31.5 171t90 125t137.5 52q77 4 116 33zM285 69
q60 0 88.5 40t28.5 102v24q0 66 -31 107.5t-86 41.5q-52 0 -82 -39t-30 -102v-32q0 -58 31.5 -100t80.5 -42z" />
    <glyph glyph-name="uni0432" unicode="&#x432;" horiz-adv-x="560" 
d="M79 85v330q0 16 -4 30.5t-10 22.5h208q97 0 148.5 -30.5t51.5 -86.5q0 -33 -25.5 -56.5t-67.5 -31.5q66 -4 98 -34.5t32 -74.5q0 -72 -64 -105.5t-176 -33.5l-103 -1q-49 -1 -68.5 15t-19.5 56zM387 152q0 35 -30 53.5t-99 18.5h-58v-121q0 -22 5 -27t26 -5h50
q52 1 78 21q28 22 28 60zM241 281q54 0 81.5 17.5t27.5 49.5q0 30 -27.5 46.5t-81.5 16.5h-41v-130h41z" />
    <glyph glyph-name="uni0433" unicode="&#x433;" horiz-adv-x="430" 
d="M69 53v355q0 16 -4 30.5t-10 22.5h81h8h268q3 -15 3 -25q0 -32 -30 -32h-195v-385h-80q-22 0 -31.5 7t-9.5 27z" />
    <glyph glyph-name="uni0434" unicode="&#x434;" horiz-adv-x="580" 
d="M429 53v68h-259v-102h-80q-22 0 -31.5 7t-9.5 27v72q0 16 -4 30.5t-10 22.5h75q21 7 30 23t11 39.5t2 72.5v95q0 16 -4 30.5t-10 22.5h307q36 0 45 -13t9 -37v-233q32 -1 41 -13q9 -13 9 -37v-109h-80q-22 0 -31.5 7t-9.5 27zM262 206q-7 -16 -17 -28h134v226h-105v-113
q0 -55 -12 -85z" />
    <glyph glyph-name="uni0435" unicode="&#x435;" horiz-adv-x="550" 
d="M275 471q56 0 107 -21t84.5 -71t33.5 -132q0 -43 -41 -43h-288q5 -68 36.5 -102.5t83.5 -34.5q84 0 138 62q5 3 11 3q13 0 24.5 -11.5t14.5 -35.5q-31 -36 -81 -55t-108 -19q-114 0 -177 57.5t-63 171.5q0 115 61.5 173t163.5 58zM276 415q-51 0 -78.5 -41t-27.5 -109v-4
h209q0 71 -27 112.5t-76 41.5z" />
    <glyph glyph-name="uni0436" unicode="&#x436;" horiz-adv-x="720" 
d="M618 461h62l-216 -212h48q27 0 42.5 -11.5t29.5 -34.5l89 -146q19 -30 32 -38h-94q-27 0 -43 11.5t-28 29.5l-89 145q-7 10 -13 18l-22 -22v-182h-80q-22 0 -31.5 7t-9.5 27v145l-147 -153q-13 -13 -28.5 -19.5t-37.5 -6.5h-62l222 218h-34q-27 0 -41.5 11t-30.5 35
l-89 140q-19 30 -32 38h94q27 0 43 -11.5t28 -29.5l89 -139q3 -6 7 -11l19 19v119q0 16 -4 30.5t-10 22.5h81q36 0 45 -13t9 -37v-118l136 142q13 13 28.5 19.5t37.5 6.5z" />
    <glyph glyph-name="uni0437" unicode="&#x437;" horiz-adv-x="415" 
d="M33 45q-3 11 -3 19q0 15 8 24t20 9q5 0 8 -1q47 -27 106 -27q40 0 65 20.5t25 53.5q0 39 -23 61t-80 23l-42 -1q-32 -2 -32 25q0 10 6 25l61 7q47 7 66 24.5t19 48.5q0 26 -17 41.5t-51 16.5q-36 0 -78 -20q-6 -3 -11 -3q-13 0 -21 13.5t-5 38.5q21 14 57 21.5t64 7.5
q74 0 119.5 -32t45.5 -88t-49 -89q34 -15 54 -44t20 -71q0 -67 -53.5 -102t-137.5 -35q-43 0 -80.5 8.5t-60.5 25.5z" />
    <glyph glyph-name="uni0438" unicode="&#x438;" horiz-adv-x="570" 
d="M69 53v355q0 16 -4 30.5t-10 22.5h81q36 0 45 -13t9 -37v-280l177 287q14 22 26 32.5t36 10.5h31q32 -1 41 -13q9 -13 9 -37v-392h-80q-11 0 -26 8.5t-15 25.5v290l-164 -273q-2 -3 -10.5 -18.5t-22.5 -24t-33 -8.5h-49q-22 0 -31.5 7t-9.5 27z" />
    <glyph glyph-name="uni0439" unicode="&#x439;" horiz-adv-x="570" 
d="M69 53v355q0 16 -4 30.5t-10 22.5h81q36 0 45 -13t9 -37v-280l177 287q14 22 26 32.5t36 10.5h31q32 -1 41 -13q9 -13 9 -37v-392h-80q-11 0 -26 8.5t-15 25.5v290l-164 -273q-2 -3 -10.5 -18.5t-22.5 -24t-33 -8.5h-49q-22 0 -31.5 7t-9.5 27zM138 555q3 24 14.5 35.5
t24.5 11.5q7 0 11 -3q20 -29 43 -40.5t57 -11.5t57 11.5t43 40.5q5 3 11 3q13 0 24.5 -11.5t14.5 -35.5q-21 -30 -62.5 -47t-87.5 -17t-87.5 17t-62.5 47z" />
    <glyph glyph-name="uni043A" unicode="&#x43a;" horiz-adv-x="500" 
d="M418 461h62l-216 -212h38q27 0 42.5 -11.5t29.5 -34.5l89 -146q19 -30 32 -38h-94q-27 0 -43 11.5t-28 29.5l-89 145q-5 7 -9 12l-32 -32v-166h-80q-22 0 -31.5 7t-9.5 27v355q0 16 -4 30.5t-10 22.5h81q36 0 45 -13t9 -37v-135l152 159q13 13 28.5 19.5t37.5 6.5z" />
    <glyph glyph-name="uni043B" unicode="&#x43b;" horiz-adv-x="550" 
d="M369 53v351h-115v-174q0 -90 -20.5 -141.5t-76.5 -70.5q-21 -7 -50 -7q-49 0 -80 21q-2 7 -2 19q0 19 9 29t22 8q20 -24 41 -24q18 0 25.5 14.5t9 40t1.5 83.5v206q0 16 -4 30.5t-10 22.5h81h8h228q36 0 45 -13t9 -37v-392h-80q-17 0 -29 8t-12 26z" />
    <glyph glyph-name="uni043C" unicode="&#x43c;" horiz-adv-x="670" 
d="M65 461h126q29 0 44.5 -14t24.5 -38l103 -289l118 341h65q36 0 45 -13t9 -37v-392h-80q-22 0 -31.5 7t-9.5 27v210l-84 -234h-63q-27 0 -40 9t-22 34l-70 191v-244h-80q-22 0 -31.5 7t-9.5 27v355q0 16 -4 30.5t-10 22.5z" />
    <glyph glyph-name="uni043D" unicode="&#x43d;" horiz-adv-x="570" 
d="M389 53v161h-199v-195h-80q-22 0 -31.5 7t-9.5 27v355q0 16 -4 30.5t-10 22.5h81q36 0 45 -13t9 -37v-140h199v137q0 16 -4 30.5t-10 22.5h81q36 0 45 -13t9 -37v-392h-80q-22 0 -31.5 7t-9.5 27z" />
    <glyph glyph-name="uni043E" unicode="&#x43e;" horiz-adv-x="570" 
d="M50 242q0 116 64 174.5t171 58.5t171 -58.5t64 -174.5t-64 -174.5t-171 -58.5t-171 58.5t-64 174.5zM399 216v52q0 64 -29 107.5t-85 43.5t-85 -43.5t-29 -107.5v-52q0 -64 29 -107.5t85 -43.5t85 43.5t29 107.5z" />
    <glyph glyph-name="uni043F" unicode="&#x43f;" horiz-adv-x="570" 
d="M389 53v351h-199v-385h-80q-22 0 -31.5 7t-9.5 27v355q0 16 -4 30.5t-10 22.5h401q36 0 45 -13t9 -37v-392h-80q-22 0 -31.5 7t-9.5 27z" />
    <glyph glyph-name="uni0440" unicode="&#x440;" horiz-adv-x="590" 
d="M55 461h81q36 0 45 -13q7 -11 9 -30q53 53 136 53q93 0 153.5 -53.5t60.5 -156.5v-33q0 -112 -61 -164.5t-157 -52.5q-62 0 -109 28q-12 8 -23 16v-186h-80q-22 0 -31.5 7t-9.5 27v505q0 16 -4 30.5t-10 22.5zM313 415q-56 0 -90 -51q-23 -35 -33 -82v-96q9 -48 30 -77
q30 -42 92 -42q50 0 78.5 38t28.5 113v58q0 70 -29.5 104.5t-76.5 34.5z" />
    <glyph glyph-name="uni0441" unicode="&#x441;" horiz-adv-x="505" 
d="M290 471q99 0 163 -56q-3 -25 -13 -36.5t-22 -11.5q-5 0 -10 3q-30 25 -56 35t-56 10q-57 0 -91.5 -39t-34.5 -111v-38q0 -79 33 -119.5t93 -40.5q38 0 69 14.5t60 47.5q5 3 11 3q13 0 24.5 -11.5t14.5 -35.5q-31 -36 -77.5 -55t-102.5 -19q-117 0 -181 57t-64 172
t65.5 173t174.5 58z" />
    <glyph glyph-name="uni0442" unicode="&#x442;" horiz-adv-x="510" 
d="M45 433q0 10 5 28h412q3 -15 3 -25q0 -32 -30 -32h-119v-385h-80q-22 0 -31.5 7t-9.5 27v351h-117q-33 0 -33 29z" />
    <glyph glyph-name="uni0443" unicode="&#x443;" horiz-adv-x="520" 
d="M77 -112q-2 7 -2 19q0 19 9 29t22 8q35 -28 63 -28q27 0 47 24.5t44 82.5q-21 0 -36.5 15.5t-25.5 36.5l-157 345q-5 12 -12 24.5t-14 16.5h93q27 0 42 -14.5t24 -36.5l127 -294l121 313q6 17 16 24.5t29 7.5h38l-182 -450q-25 -61 -48 -94t-47.5 -45t-57.5 -12
q-53 0 -93 28z" />
    <glyph glyph-name="uni0444" unicode="&#x444;" horiz-adv-x="590" 
d="M235 52v33q-37 5 -68 17q-56 21 -86.5 58t-30.5 84t30.5 84t86.5 58q31 12 68 17v24q0 9 -4.5 22t-9.5 21h81q35 0 44.5 -12t9.5 -28v-27q36 -6 67 -17q56 -21 86.5 -58t30.5 -84t-30.5 -84t-86.5 -58q-31 -12 -67 -17v-67h-80q-22 0 -31.5 7t-9.5 27zM204 321
q-33 -29 -33 -71v-12q0 -42 33 -72q14 -12 31 -19v193q-17 -7 -31 -19zM419 238v12q0 42 -34 71q-13 12 -29 19v-192q16 7 29 18q34 30 34 72z" />
    <glyph glyph-name="uni0445" unicode="&#x445;" horiz-adv-x="520" 
d="M205 239l-148 194q-18 22 -31 28h112q29 0 41.5 -9t23.5 -25l78 -111l106 123q10 12 18 17t24 5h63l-173 -201l158 -214q17 -23 27 -27h-113q-23 0 -36 9.5t-23 24.5l-88 133l-124 -146q-9 -11 -17.5 -16t-24.5 -5h-63z" />
    <glyph glyph-name="uni0446" unicode="&#x446;" horiz-adv-x="570" 
d="M389 -97v120l-232 -1q-46 0 -67 28.5t-21 72.5v281q0 16 -4 30.5t-10 22.5h81q36 0 45 -13t9 -37v-245q0 -45 19 -63.5t72 -18.5h108v328q0 16 -4 30.5t-10 22.5h81q36 0 45 -13t9 -37v-542h-80q-22 0 -31.5 7t-9.5 27z" />
    <glyph glyph-name="uni0447" unicode="&#x447;" horiz-adv-x="555" 
d="M59 318v90q0 16 -4 30.5t-10 22.5h81q36 0 45 -13t9 -37v-88q0 -69 19.5 -95.5t57.5 -26.5q52 0 84.5 45.5t32.5 114.5v47q0 16 -4 30.5t-10 22.5h81q36 0 45 -13t9 -37v-392h-80q-22 0 -31.5 7t-9.5 27v152q-19 -27 -57.5 -43.5t-84.5 -16.5q-79 0 -126 41t-47 132z" />
    <glyph glyph-name="uni0448" unicode="&#x448;" horiz-adv-x="780" 
d="M69 123v281q0 16 -4 30.5t-10 22.5h81q36 0 45 -13t9 -37v-265q0 -29 6.5 -42t18.5 -16.5t36 -3.5h84v328q0 16 -4 30.5t-10 22.5h81q36 0 45 -13t9 -37v-331h143v328q0 16 -4 30.5t-10 22.5h81q36 0 45 -13t9 -37v-388h-61h-4l-498 -1q-48 0 -68 23t-20 78z" />
    <glyph glyph-name="uni0449" unicode="&#x449;" horiz-adv-x="780" 
d="M599 -97v120l-442 -1q-48 0 -68 23t-20 78v281q0 16 -4 30.5t-10 22.5h81q36 0 45 -13t9 -37v-265q0 -29 6.5 -42t18.5 -16.5t36 -3.5h84v328q0 16 -4 30.5t-10 22.5h81q36 0 45 -13t9 -37v-331h143v328q0 16 -4 30.5t-10 22.5h81q36 0 45 -13t9 -37v-542h-80
q-22 0 -31.5 7t-9.5 27z" />
    <glyph glyph-name="uni044A" unicode="&#x44a;" horiz-adv-x="600" 
d="M129 85v319h-61q-33 0 -33 29q0 10 5 28h156q36 0 45 -13t9 -37v-120h71q95 0 162 -32t67 -105q0 -72 -64 -105.5t-176 -33.5l-93 -1q-49 -1 -68.5 15t-19.5 56zM427 152q0 36 -29.5 59t-89.5 23h-58v-131q0 -22 5 -27t26 -5h36q55 0 82.5 21.5t27.5 59.5z" />
    <glyph glyph-name="uni044B" unicode="&#x44b;" horiz-adv-x="730" 
d="M79 85v323q0 16 -4 30.5t-10 22.5h81q36 0 45 -13t9 -37v-120h61q95 0 162 -32t67 -105q0 -72 -64 -105.5t-177 -33.5l-82 -1q-49 -1 -68.5 15t-19.5 56zM549 53v355q0 16 -4 30.5t-10 22.5h81q36 0 45 -13t9 -37v-392h-80q-22 0 -31.5 7t-9.5 27zM367 152q0 36 -29.5 59
t-89.5 23h-48v-131q0 -22 5 -27t26 -5h26q55 0 82.5 21.5t27.5 59.5z" />
    <glyph glyph-name="uni044C" unicode="&#x44c;" horiz-adv-x="560" 
d="M79 85v323q0 16 -4 30.5t-10 22.5h81q36 0 45 -13t9 -37v-120h81q99 0 164 -28t65 -104q0 -144 -240 -144l-103 -1q-49 -1 -68.5 15t-19.5 56zM387 157q0 38 -28.5 57.5t-90.5 19.5h-68v-131q0 -22 5 -27t26 -5h50q106 1 106 86z" />
    <glyph glyph-name="uni044D" unicode="&#x44d;" horiz-adv-x="505" 
d="M75 245q0 10 5 28h255q-2 66 -35 103q-34 39 -91 39q-30 0 -56 -10t-56 -35q-4 -3 -10 -3q-12 0 -22 11.5t-13 36.5q64 56 163 56q109 0 174.5 -58t65.5 -173t-64 -172t-181 -57q-56 0 -102.5 19t-77.5 55q3 24 14.5 35.5t24.5 11.5q7 0 11 -3q29 -33 60 -47.5t69 -14.5
q60 0 93 40q30 38 33 109h-227q-33 0 -33 29z" />
    <glyph glyph-name="uni044E" unicode="&#x44e;" horiz-adv-x="740" 
d="M69 53v355q0 16 -4 30.5t-10 22.5h81q36 0 45 -13t9 -37v-140h91q6 93 55 145q57 59 149 59t148.5 -59t56.5 -174t-56.5 -174t-148.5 -59t-149 59q-49 51 -55 146h-91v-195h-80q-22 0 -31.5 7t-9.5 27zM569 216v52q0 64 -21 107.5t-63 43.5t-63 -43.5t-21 -107.5v-52
q0 -64 21 -107.5t63 -43.5t63 43.5t21 107.5z" />
    <glyph glyph-name="uni044F" unicode="&#x44f;" horiz-adv-x="490" 
d="M309 53v146h-66h-28q-6 -3 -13 -9q-14 -13 -23 -33l-43 -91q-9 -19 -23.5 -30t-40.5 -11h-57q8 5 18 16t16 22l59 112q10 20 22 32q4 4 8 6q-26 9 -44 23q-50 38 -50 101q0 59 50 95t149 36h133q36 0 45 -13t9 -37v-399h-80q-22 0 -31.5 7t-9.5 27zM193 389
q-26 -21 -26 -54q0 -37 26 -58t70 -21h46v155h-46q-43 0 -70 -22z" />
    <glyph glyph-name="uni0451" unicode="&#x451;" horiz-adv-x="550" 
d="M275 471q56 0 107 -21t84.5 -71t33.5 -132q0 -43 -41 -43h-288q5 -68 36.5 -102.5t83.5 -34.5q84 0 138 62q5 3 11 3q13 0 24.5 -11.5t14.5 -35.5q-31 -36 -81 -55t-108 -19q-114 0 -177 57.5t-63 171.5q0 115 61.5 173t163.5 58zM276 415q-51 0 -78.5 -41t-27.5 -109v-4
h209q0 71 -27 112.5t-76 41.5zM118 571q0 22 15 37t37 15q21 0 36 -15t15 -37q0 -20 -15 -35t-36 -15q-22 0 -37 15t-15 35zM324 571q0 22 15 37t37 15q21 0 36 -15t15 -37q0 -20 -15 -35t-36 -15q-22 0 -37 14.5t-15 35.5z" />
    <glyph glyph-name="uni2010" unicode="&#x2010;" horiz-adv-x="527" vert-adv-y="1100" 
d="M50 360q0 10 5 28h419q3 -15 3 -25q0 -32 -30 -32h-364q-33 0 -33 29z" />
    <glyph glyph-name="emdash" unicode="&#x2014;" horiz-adv-x="840" vert-adv-y="1100" 
d="M50 361q0 10 5 28h732q3 -15 3 -25q0 -32 -30 -32h-677q-33 0 -33 29z" />
    <glyph glyph-name="uni2015" unicode="&#x2015;" horiz-adv-x="840" 
d="M50 361q0 10 5 28h732q3 -15 3 -25q0 -32 -30 -32h-677q-33 0 -33 29z" />
    <glyph glyph-name="uni2016" unicode="&#x2016;" horiz-adv-x="840" vert-adv-y="1100" 
d="M330 727q22 0 31.5 -7t9.5 -27v-804h-60q-22 0 -31.5 7t-9.5 27v804h60zM529 727q22 0 31.5 -7t9.5 -27v-804h-60q-22 0 -31.5 7t-9.5 27v804h60z" />
    <glyph glyph-name="quoteleft" unicode="&#x2018;" horiz-adv-x="220" 
d="M106 523q-31 0 -66 29l76 203q8 24 18.5 35t24.5 11q13 0 39 -13l-44 -223q-5 -20 -17 -31t-31 -11z" />
    <glyph glyph-name="quoteright" unicode="&#x2019;" horiz-adv-x="238" 
d="M132 801q31 0 66 -29l-76 -203q-8 -24 -18.5 -35t-24.5 -11q-13 0 -39 13l44 223q5 20 17 31t31 11z" />
    <glyph glyph-name="quotedblleft" unicode="&#x201c;" horiz-adv-x="418" 
d="M293 522q-32 0 -65 26l69 206q8 25 18 36t25 11q14 0 38 -11l-37 -225q-4 -21 -16.5 -32t-31.5 -11zM104 523q-32 0 -69 35l93 196q19 42 44 42q15 0 41 -16l-64 -219q-5 -18 -17 -28t-28 -10z" />
    <glyph glyph-name="quotedblright" unicode="&#x201d;" horiz-adv-x="418" 
d="M120 801q32 0 65 -26l-69 -206q-8 -25 -18 -36t-25 -11q-14 0 -38 11l37 225q4 21 16.5 32t31.5 11zM309 800q32 0 69 -35l-93 -196q-19 -42 -44 -42q-15 0 -41 16l64 219q5 18 17 28t28 10z" />
    <glyph glyph-name="dagger" unicode="&#x2020;" horiz-adv-x="453" 
d="M166 105v314h-98q-23 0 -23 29q0 12 3 28h118v154q0 16 -4 30.5t-10 22.5h81q36 0 45 -13t9 -37v-157h119q2 -20 2 -25q0 -32 -20 -32h-101v-356q0 -12 4.5 -25.5t10.5 -18.5h-53q-43 0 -63 21.5t-20 64.5z" />
    <glyph glyph-name="daggerdbl" unicode="&#x2021;" horiz-adv-x="453" 
d="M166 105v187h-88q-33 0 -33 29q0 10 5 28h116v113h-88q-33 0 -33 29q0 10 5 28h116v111q0 16 -4 30.5t-10 22.5h81q36 0 45 -13t9 -37v-114h118q3 -15 3 -25q0 -32 -30 -32h-91v-113h118q3 -15 3 -25q0 -32 -30 -32h-91v-229q0 -12 4.5 -25.5t10.5 -18.5h-53
q-43 0 -63 21.5t-20 64.5z" />
    <glyph glyph-name="twodotenleader" unicode="&#x2025;" horiz-adv-x="446" 
d="M48 365q0 26 18 44t44 18t43.5 -18t17.5 -44q0 -25 -18 -42.5t-43 -17.5q-26 0 -44 17.5t-18 42.5zM275 365q0 26 18 44t44 18t43.5 -18t17.5 -44q0 -25 -18 -42.5t-43 -17.5q-26 0 -44 17.5t-18 42.5z" />
    <glyph glyph-name="ellipsis" unicode="&#x2026;" horiz-adv-x="668" 
d="M48 365q0 26 18 44t44 18t43.5 -18t17.5 -44q0 -25 -18 -42.5t-43 -17.5q-26 0 -44 17.5t-18 42.5zM275 365q0 26 18 44t44 18t43.5 -18t17.5 -44q0 -25 -18 -42.5t-43 -17.5q-26 0 -44 17.5t-18 42.5zM497 365q0 26 18 44t44 18t43.5 -18t17.5 -44q0 -25 -18 -42.5
t-43 -17.5q-26 0 -44 17.5t-18 42.5z" />
    <glyph glyph-name="perthousand" unicode="&#x2030;" horiz-adv-x="900" 
d="M73 -68q-19 0 -45 32l611 746q21 -9 31.5 -17.5t10.5 -19.5t-12 -26l-572 -702q-11 -13 -24 -13zM348 107q0 95 34.5 137t90.5 42t90.5 -42t34.5 -137q0 -94 -34.5 -136t-90.5 -42t-90.5 42t-34.5 136zM511 80v55q0 55 -10.5 86t-27.5 31t-27.5 -31t-10.5 -86v-55
q0 -55 10.5 -86.5t27.5 -31.5t27.5 31.5t10.5 86.5zM30 498q0 112 41 161.5t107 49.5q67 0 108 -49.5t41 -161.5q0 -113 -41 -163t-108 -50q-66 0 -107 50t-41 163zM235 465v65q0 139 -57 139q-28 0 -43 -36t-15 -103v-65q0 -67 15 -103.5t43 -36.5q57 0 57 140zM624 107
q0 95 34.5 137t90.5 42t90.5 -42t34.5 -137q0 -94 -34.5 -136t-90.5 -42t-90.5 42t-34.5 136zM787 80v55q0 55 -10.5 86t-27.5 31t-27.5 -31t-10.5 -86v-55q0 -55 10.5 -86.5t27.5 -31.5t27.5 31.5t10.5 86.5z" />
    <glyph glyph-name="minute" unicode="&#x2032;" horiz-adv-x="238" 
d="M132 801q31 0 66 -29l-76 -203q-8 -24 -18.5 -35t-24.5 -11q-13 0 -39 13l44 223q5 20 17 31t31 11z" />
    <glyph glyph-name="second" unicode="&#x2033;" horiz-adv-x="418" 
d="M120 801q32 0 65 -26l-69 -206q-8 -25 -18 -36t-25 -11q-14 0 -38 11l37 225q4 21 16.5 32t31.5 11zM309 800q32 0 69 -35l-93 -196q-19 -42 -44 -42q-15 0 -41 16l64 219q5 18 17 28t28 10z" />
    <glyph glyph-name="uni203B" unicode="&#x203b;" horiz-adv-x="740" vert-adv-y="1024" 
d="M303 365l-220 225l68 68l219 -224l219 224l68 -68l-221 -224l221 -225l-68 -66l-220 223l-219 -223l-67 66zM113 431q28 -1 47.5 -20.5t20.5 -47.5q-1 -27 -20.5 -46.5t-47.5 -19.5t-47 19.5t-19 46.5q0 28 19 47.5t47 20.5zM371 178q28 -1 47 -20.5t20 -47.5
q-1 -28 -20 -47t-47 -19t-47.5 19t-19.5 47t19.5 47.5t47.5 20.5zM371 685q28 -1 47 -20t20 -47q-1 -28 -20 -47t-47 -19t-47.5 19t-19.5 47t19.5 47t47.5 20zM622 431q28 -1 47 -20.5t20 -47.5q-1 -27 -20 -46.5t-47 -19.5t-47 19.5t-19 46.5q0 28 19 47.5t47 20.5z" />
    <glyph glyph-name="uni2074" unicode="&#x2074;" horiz-adv-x="460" 
d="M354 669v-274h73q2 -14 2 -17q0 -24 -21 -24h-54v-125h-57q-15 0 -22 5.5t-7 18.5v101h-202q-11 0 -19 8t-8 18q0 7 4 12l209 307h70q16 0 24 -8.5t8 -21.5zM268 395v234l-145 -234h145z" />
    <glyph glyph-name="uni207F" unicode="&#x207f;" horiz-adv-x="590" 
d="M55 686h81q36 0 45 -13q8 -12 9 -33q10 10 21 18q49 38 115 38q91 0 145 -44t54 -154v-254h-80q-22 0 -31.5 7t-9.5 27v235q0 68 -24.5 97.5t-63.5 29.5q-59 0 -92.5 -57.5t-33.5 -147.5v-191h-80q-22 0 -31.5 7t-9.5 27v355q0 16 -4 30.5t-10 22.5z" />
    <glyph glyph-name="uni2081" unicode="&#x2081;" horiz-adv-x="360" 
d="M58 320l114 85h58q32 0 32 -30v-438h-56q-16 0 -22.5 5t-6.5 19v395l-89 -69q-12 -4 -21.5 4t-8.5 29z" />
    <glyph glyph-name="uni2082" unicode="&#x2082;" horiz-adv-x="460" 
d="M286 284q0 38 -25 62t-66 24q-19 0 -36 -6t-44 -19q-11 -5 -19 4.5t-7 31.5q26 14 57 21.5t58 7.5q81 0 125 -35.5t44 -97.5q0 -66 -57 -133l-135 -165h195q3 -12 3 -19q0 -21 -21 -21h-255q-11 0 -18.5 8t-7.5 18q0 7 4 12l146 180q32 40 45.5 68t13.5 59z" />
    <glyph glyph-name="uni2083" unicode="&#x2083;" horiz-adv-x="460" 
d="M66 -39q-2 10 -2 13q0 13 7 20t16 5q27 -14 54 -21.5t62 -7.5q46 0 75.5 26t29.5 67q0 99 -119 102l-44 -1q-23 -1 -23 16q0 7 3 17l58 6q52 7 75.5 29.5t23.5 60.5q0 34 -21.5 54.5t-60.5 21.5q-21 0 -44 -6t-42 -16q-11 -5 -18.5 4.5t-6.5 31.5q22 13 55.5 19.5
t61.5 6.5q75 0 119 -31.5t44 -88.5q0 -68 -67 -99q43 -11 68 -41.5t25 -80.5q0 -68 -52.5 -103t-137.5 -35q-42 0 -78.5 8t-60.5 23z" />
    <glyph glyph-name="uni2084" unicode="&#x2084;" horiz-adv-x="460" 
d="M354 377v-274h73q2 -14 2 -17q0 -24 -21 -24h-54v-125h-57q-16 0 -22.5 5t-6.5 19v101h-202q-11 0 -19 8t-8 18q0 7 4 12l209 307h70q16 0 24 -8.5t8 -21.5zM268 103v234l-145 -234h145z" />
    <glyph glyph-name="uniFFE6" unicode="&#x20a9;" horiz-adv-x="840" 
d="M175 62l-63 274h-79q-33 0 -33 29q0 10 5 28h94l-58 253q-3 12 -11 24.5t-15 16.5h93q28 0 45 -15.5t21 -35.5l49 -243h117l54 239l-3 14q-8 32 -23 41h92q28 0 43.5 -13t19.5 -33l51 -248h118l59 264q6 16 18 23t34 7h32l-69 -294h71q3 -15 3 -25q0 -32 -30 -32h-57
l-74 -317h-89q-26 0 -41.5 12t-20.5 31l-65 274h-65l-72 -317h-89q-26 0 -41.5 12t-20.5 31zM631 119l48 217h-93zM278 119l49 217h-93zM430 476l-19 -83h39z" />
    <glyph glyph-name="uniFFE6" unicode="&#xffe6;" horiz-adv-x="840" 
d="M175 62l-63 274h-79q-33 0 -33 29q0 10 5 28h94l-58 253q-3 12 -11 24.5t-15 16.5h93q28 0 45 -15.5t21 -35.5l49 -243h117l54 239l-3 14q-8 32 -23 41h92q28 0 43.5 -13t19.5 -33l51 -248h118l59 264q6 16 18 23t34 7h32l-69 -294h71q3 -15 3 -25q0 -32 -30 -32h-57
l-74 -317h-89q-26 0 -41.5 12t-20.5 31l-65 274h-65l-72 -317h-89q-26 0 -41.5 12t-20.5 31zM631 119l48 217h-93zM278 119l49 217h-93zM430 476l-19 -83h39z" />
    <glyph glyph-name="Euro" unicode="&#x20ac;" horiz-adv-x="659" 
d="M40 441q0 10 5 28h75q10 42 27 76q39 76 106 112.5t152 36.5q54 0 106.5 -19t92.5 -64q-4 -22 -15 -33.5t-23 -11.5q-8 0 -15 5q-62 66 -153 66q-74 0 -121 -58q-33 -41 -43 -110h230q3 -15 3 -25q0 -32 -30 -32h-206v-107v-6h233q3 -15 3 -25q0 -32 -30 -32h-202
q10 -68 42 -111q46 -60 121 -60q58 0 98.5 21t74.5 70q7 5 16 5q14 0 26 -11t16 -32q-36 -52 -97 -81t-127 -29q-86 0 -152.5 36.5t-105.5 111.5q-18 36 -28 80h-46q-33 0 -33 29q0 10 5 28h66q-2 26 -2 54v1q0 30 3 58h-39q-33 0 -33 29z" />
    <glyph glyph-name="uni2103" unicode="&#x2103;" horiz-adv-x="787" 
d="M30 675q0 44 33 74.5t81 30.5t81 -30.5t33 -74.5t-33 -74.5t-81 -30.5t-81 30.5t-33 74.5zM196 675q0 23 -15 38.5t-37 15.5t-37 -15.5t-15 -38.5t15 -38.5t37 -15.5t37 15.5t15 38.5zM217 353v1q0 115 38.5 191t105.5 112.5t152 36.5q54 0 106.5 -19t92.5 -64
q-4 -22 -15 -33.5t-23 -11.5q-8 0 -15 5q-62 66 -153 66q-74 0 -120.5 -57.5t-46.5 -166.5v-108q0 -113 46 -173.5t121 -60.5q58 0 98.5 21t74.5 70q7 5 16 5q14 0 26 -11t16 -32q-36 -52 -97 -81t-127 -29q-86 0 -152.5 36.5t-105 112t-38.5 190.5z" />
    <glyph glyph-name="uni2109" unicode="&#x2109;" horiz-adv-x="789" 
d="M318 53v577q0 16 -4 30.5t-10 22.5h432q3 -15 3 -25q0 -32 -30 -32h-270v-245h279q3 -15 3 -25q0 -32 -30 -32h-252v-305h-80q-22 0 -31.5 7t-9.5 27zM30 675q0 44 33 74.5t81 30.5t81 -30.5t33 -74.5t-33 -74.5t-81 -30.5t-81 30.5t-33 74.5zM196 675q0 23 -15 38.5
t-37 15.5t-37 -15.5t-15 -38.5t15 -38.5t37 -15.5t37 15.5t15 38.5z" />
    <glyph glyph-name="uni2113" unicode="&#x2113;" horiz-adv-x="345" 
d="M109 105v525q0 16 -4 30.5t-10 22.5h81q36 0 45 -13t9 -37v-570q0 -12 4.5 -25.5t10.5 -18.5h-53q-43 0 -63 21.5t-20 64.5z" />
    <glyph glyph-name="uni2116" unicode="&#x2116;" horiz-adv-x="900" 
d="M282 62l-114 467v-510h-76q-16 0 -22.5 7t-6.5 27v581q0 16 -3 30.5t-7 22.5h96q35 0 46 -51l100 -435v433q0 16 -3 30.5t-7 22.5h77q25 0 31.5 -13t6.5 -37v-618h-78q-29 0 -40 43zM612 475q75 0 120 -58.5t45 -174.5t-45 -174.5t-120 -58.5t-119.5 58.5t-44.5 174.5
t44.5 174.5t119.5 58.5zM612 65q32 0 46 42.5t14 108.5v52q0 66 -14 108.5t-46 42.5t-46 -42.5t-14 -108.5v-52q0 -66 14 -108.5t46 -42.5zM820 89q23 0 39 -16t16 -40q0 -23 -16 -38.5t-39 -15.5q-24 0 -40 15.5t-16 38.5q0 24 16 40t40 16z" />
    <glyph glyph-name="uni2121" unicode="&#x2121;" horiz-adv-x="900" 
d="M365 240q0 115 43 173t115 58q39 0 74.5 -21t59 -71t23.5 -132q0 -43 -29 -43h-181q1 -64 16.5 -100.5t47.5 -36.5q29 0 46.5 10t33.5 42q3 3 10 3q14 0 26.5 -12t14.5 -35q-39 -64 -132 -64q-79 0 -123.5 60t-44.5 169zM154 53v573h-107q-23 0 -23 29q0 12 3 28h358
q2 -20 2 -25q0 -32 -20 -32h-109v-607h-76q-15 0 -21.5 7t-6.5 27zM741 105v525q0 31 -9 53h76q25 0 31.5 -13t6.5 -37v-570q0 -12 3 -25.5t8 -18.5h-58q-58 0 -58 86zM523 415q-33 0 -43.5 -36.5t-10.5 -113.5v-4h106q0 80 -10 117t-42 37z" />
    <glyph glyph-name="trademark" unicode="&#x2122;" horiz-adv-x="840" 
d="M409 253v413q0 23 -10 37h114q37 0 49 -37l63 -213l65 250h67q24 0 30.5 -9t6.5 -26v-438h-56q-16 0 -23 5t-7 18v353l-61 -238h-47q-19 0 -29 6.5t-15 24.5l-61 207v-376h-57q-16 0 -22.5 5t-6.5 18zM162 253v407h-109q-23 0 -23 21q0 10 3 20h343q2 -7 2 -18
q0 -23 -21 -23h-109v-430h-57q-16 0 -22.5 5t-6.5 18z" />
    <glyph glyph-name="uni2126" unicode="&#x2126;" horiz-adv-x="720" 
d="M59 48q0 10 5 28h133v79q-54 41 -84.5 75.5t-46.5 80t-16 112.5q0 79 38.5 140.5t109 96t162.5 34.5t162.5 -34.5t109 -96t38.5 -140.5q0 -66 -16 -112t-46.5 -81t-83.5 -75v-79h133q5 -18 5 -28q0 -29 -33 -29h-143h-3h-80v130q0 16 7 26.5t23 23.5q57 43 85.5 92.5
t28.5 116.5v30q0 91 -50 145t-137 54t-137 -54t-50 -145v-30q0 -67 29 -117t86 -92q16 -13 23 -23.5t7 -26.5v-130h-74h-4h-148q-33 0 -33 29z" />
    <glyph glyph-name="uni212B" unicode="&#x212b;" horiz-adv-x="615" 
d="M256 583q-13 7 -24 17q-33 31 -33 75t33 74.5t81 30.5t81 -30.5t33 -74.5t-33 -75q-8 -7 -17 -13q2 -2 3 -5l194 -522q12 -33 26 -41h-93q-47 0 -66 51l-48 131h-228l-66 -152q-6 -16 -18 -23t-34 -7h-32l237 543q4 9 4 21zM190 258h183l-83 228zM365 675q0 23 -15 38.5
t-37 15.5t-37 -15.5t-15 -38.5t15 -38.5t37 -15.5t37 15.5t15 38.5z" />
    <glyph glyph-name="uni2153" unicode="&#x2153;" horiz-adv-x="900" 
d="M536 -39q-2 10 -2 13q0 13 7 20t16 5q27 -14 54 -21.5t62 -7.5q46 0 75.5 26t29.5 67q0 99 -119 102l-44 -1q-23 -1 -23 16q0 7 3 17l58 6q52 7 75.5 29.5t23.5 60.5q0 34 -21.5 54.5t-60.5 21.5q-21 0 -44 -6t-42 -16q-11 -5 -18.5 4.5t-6.5 31.5q22 13 55.5 19.5
t61.5 6.5q75 0 119 -31.5t44 -88.5q0 -68 -67 -99q43 -11 68 -41.5t25 -80.5q0 -68 -52.5 -103t-137.5 -35q-42 0 -78.5 8t-60.5 23zM120 -68q-19 0 -45 32l611 746q21 -9 31.5 -17.5t10.5 -19.5t-12 -26l-572 -702q-11 -13 -24 -13zM30 612l114 85h58q32 0 32 -30v-438h-56
q-16 0 -22.5 5t-6.5 19v395l-89 -69q-12 -4 -21.5 4t-8.5 29z" />
    <glyph glyph-name="uni2154" unicode="&#x2154;" horiz-adv-x="900" 
d="M536 -39q-2 10 -2 13q0 13 7 20t16 5q27 -14 54 -21.5t62 -7.5q46 0 75.5 26t29.5 67q0 99 -119 102l-44 -1q-23 -1 -23 16q0 7 3 17l58 6q52 7 75.5 29.5t23.5 60.5q0 34 -21.5 54.5t-60.5 21.5q-21 0 -44 -6t-42 -16q-11 -5 -18.5 4.5t-6.5 31.5q22 13 55.5 19.5
t61.5 6.5q75 0 119 -31.5t44 -88.5q0 -68 -67 -99q43 -11 68 -41.5t25 -80.5q0 -68 -52.5 -103t-137.5 -35q-42 0 -78.5 8t-60.5 23zM160 -68q-19 0 -45 32l611 746q21 -9 31.5 -17.5t10.5 -19.5t-12 -26l-572 -702q-11 -13 -24 -13zM229 576q0 39 -25 62.5t-67 23.5
q-19 0 -37 -6t-42 -19q-10 -5 -18.5 5t-7.5 31q26 14 57 21.5t58 7.5q81 0 125 -35.5t44 -96.5q0 -65 -57 -134l-135 -165h195q3 -12 3 -19q0 -21 -21 -21h-255q-11 0 -18.5 8t-7.5 18q0 7 4 12l146 180q31 38 45 67.5t14 59.5z" />
    <glyph glyph-name="oneeighth" unicode="&#x215b;" horiz-adv-x="900" 
d="M120 -68q-19 0 -45 32l611 746q21 -9 31.5 -17.5t10.5 -19.5t-12 -26l-572 -702q-11 -13 -24 -13zM30 612l114 85h58q32 0 32 -30v-438h-56q-16 0 -22.5 5t-6.5 19v395l-89 -69q-12 -4 -21.5 4t-8.5 29zM519 65q0 43 29.5 76.5t68.5 44.5q-35 16 -58 42.5t-23 62.5
q0 57 44 90t112 33t112 -33t44 -90q0 -36 -23 -62.5t-58 -42.5q39 -11 68.5 -44.5t29.5 -76.5q0 -67 -49.5 -101t-123.5 -34t-123.5 34t-49.5 101zM692 -31q37 0 61.5 27t24.5 67q0 36 -24 64.5t-62 34.5q-38 -6 -62 -34.5t-24 -64.5q0 -40 25 -67t61 -27zM692 202
q33 11 51 34t18 57t-20 57.5t-47 23.5q-29 0 -50 -22.5t-21 -58.5q0 -34 18 -57t51 -34z" />
    <glyph glyph-name="threeeighths" unicode="&#x215c;" horiz-adv-x="900" 
d="M144 -68q-19 0 -45 32l611 746q21 -9 31.5 -17.5t10.5 -19.5t-12 -26l-572 -702q-11 -13 -24 -13zM37 254q-2 10 -2 13q0 13 7 20t16 5q30 -16 48.5 -22.5t42.5 -6.5q39 0 64.5 28t25.5 72q0 41 -26.5 69.5t-77.5 25.5l-29 -1q-23 -1 -23 16q0 7 3 17l43 6
q45 7 64.5 29.5t19.5 60.5q0 34 -20 55t-52 21q-16 0 -30.5 -5t-35.5 -17q-11 -4 -18.5 5t-6.5 31q23 13 49 19.5t48 6.5q68 0 110.5 -32t42.5 -88q0 -68 -67 -99q43 -11 68 -41.5t25 -80.5q0 -67 -50.5 -102.5t-124.5 -35.5q-30 0 -60 8t-54 23zM519 65q0 43 29.5 76.5
t68.5 44.5q-35 16 -58 42.5t-23 62.5q0 57 44 90t112 33t112 -33t44 -90q0 -36 -23 -62.5t-58 -42.5q39 -11 68.5 -44.5t29.5 -76.5q0 -67 -49.5 -101t-123.5 -34t-123.5 34t-49.5 101zM692 -31q37 0 61.5 27t24.5 67q0 36 -24 64.5t-62 34.5q-38 -6 -62 -34.5t-24 -64.5
q0 -40 25 -67t61 -27zM692 202q33 11 51 34t18 57t-20 57.5t-47 23.5q-29 0 -50 -22.5t-21 -58.5q0 -34 18 -57t51 -34z" />
    <glyph glyph-name="fiveeighths" unicode="&#x215d;" horiz-adv-x="900" 
d="M140 -68q-19 0 -45 32l611 746q21 -9 31.5 -17.5t10.5 -19.5t-12 -26l-572 -702q-11 -13 -24 -13zM519 65q0 43 29.5 76.5t68.5 44.5q-35 16 -58 42.5t-23 62.5q0 57 44 90t112 33t112 -33t44 -90q0 -36 -23 -62.5t-58 -42.5q39 -11 68.5 -44.5t29.5 -76.5
q0 -67 -49.5 -101t-123.5 -34t-123.5 34t-49.5 101zM682 -31q37 0 61.5 27t24.5 67q0 36 -24 64.5t-62 34.5q-38 -6 -62 -34.5t-24 -64.5q0 -40 25 -67t61 -27zM692 202q33 11 51 34t18 57t-20 57.5t-47 23.5q-29 0 -50 -22.5t-21 -58.5q0 -34 18 -57t51 -34zM37 253
q-2 10 -2 13q0 14 7 21.5t16 5.5q44 -30 87 -30q38 0 66 28.5t28 75.5q0 51 -25.5 81.5t-71.5 26.5q-51 -5 -66 -7t-22.5 4t-6.5 20l22 202h236q2 -14 2 -17q0 -23 -21 -23h-137l-16 -143q13 4 37 4q65 0 109.5 -38t44.5 -106q0 -73 -51.5 -110.5t-125.5 -37.5q-28 0 -60 8
t-50 22z" />
    <glyph glyph-name="seveneighths" unicode="&#x215e;" horiz-adv-x="860" 
d="M91 -68q-19 0 -45 32l611 746q21 -9 31.5 -17.5t10.5 -19.5t-12 -26l-572 -702q-11 -13 -24 -13zM479 65q0 43 29.5 76.5t68.5 44.5q-35 16 -58 42.5t-23 62.5q0 57 44 90t112 33t112 -33t44 -90q0 -36 -23 -62.5t-58 -42.5q39 -11 68.5 -44.5t29.5 -76.5
q0 -67 -49.5 -101t-123.5 -34t-123.5 34t-49.5 101zM652 -31q37 0 61.5 27t24.5 67q0 36 -24 64.5t-62 34.5q-38 -6 -62 -34.5t-24 -64.5q0 -40 25 -67t61 -27zM652 202q33 11 51 34t18 57t-20 57.5t-47 23.5q-29 0 -50 -22.5t-21 -58.5q0 -34 18 -57t51 -34zM35 673
q0 9 3 19h314q3 -10 3 -19q0 -7 -3 -12q-45 -103 -76 -198t-67 -234h-58q-11 0 -17.5 8t-6.5 19q0 3 2 11q34 121 63.5 208.5t66.5 176.5h-201q-23 0 -23 21z" />
    <glyph glyph-name="uni2160" unicode="&#x2160;" horiz-adv-x="365" 
d="M110 687h81q36 0 45 -13t9 -37v-618h-80q-22 0 -31.5 7t-9.5 27v581q0 16 -4 30.5t-10 22.5z" />
    <glyph glyph-name="uni2161" unicode="&#x2161;" horiz-adv-x="650" 
d="M110 687h81q36 0 45 -13t9 -37v-618h-80q-22 0 -31.5 7t-9.5 27v581q0 16 -4 30.5t-10 22.5zM395 687h81q36 0 45 -13t9 -37v-618h-80q-22 0 -31.5 7t-9.5 27v581q0 16 -4 30.5t-10 22.5z" />
    <glyph glyph-name="uni2162" unicode="&#x2162;" horiz-adv-x="840" 
d="M110 687h81q36 0 45 -13t9 -37v-618h-80q-22 0 -31.5 7t-9.5 27v581q0 16 -4 30.5t-10 22.5zM347 687h81q36 0 45 -13t9 -37v-618h-80q-22 0 -31.5 7t-9.5 27v581q0 16 -4 30.5t-10 22.5zM585 687h81q36 0 45 -13t9 -37v-618h-80q-22 0 -31.5 7t-9.5 27v581q0 16 -4 30.5
t-10 22.5z" />
    <glyph glyph-name="uni2163" unicode="&#x2163;" horiz-adv-x="840" 
d="M95 687h81q36 0 45 -13t9 -37v-618h-80q-22 0 -31.5 7t-9.5 27v581q0 16 -4 30.5t-10 22.5zM602 19h-74q-26 0 -41 12t-21 31l-165 584q-4 13 -11.5 25t-14.5 16h93q28 0 44.5 -15t21.5 -36l139 -495l138 516q6 16 18 23t34 7h32z" />
    <glyph glyph-name="uni2164" unicode="&#x2164;" horiz-adv-x="760" 
d="M447 19h-74q-48 0 -62 43l-195 584q-4 13 -11.5 25t-14.5 16h93q48 0 66 -51l169 -515l168 536q6 16 18 23t34 7h32z" />
    <glyph glyph-name="uni2165" unicode="&#x2165;" horiz-adv-x="840" 
d="M610 687h81q36 0 45 -13t9 -37v-618h-80q-22 0 -31.5 7t-9.5 27v581q0 16 -4 30.5t-10 22.5zM372 19h-74q-26 0 -41 12t-21 31l-165 584q-4 13 -11.5 25t-14.5 16h93q28 0 44.5 -15t21.5 -36l139 -495l138 516q6 16 18 23t34 7h32z" />
    <glyph glyph-name="uni2166" unicode="&#x2166;" horiz-adv-x="900" 
d="M307 19h-69q-26 0 -42 12t-20 31l-125 584q-2 12 -10 24t-16 17h93q28 0 45.5 -15.5t20.5 -35.5l89 -495l92 516q6 16 17.5 23t30.5 7h27zM466 687h81q36 0 45 -13t9 -37v-618h-80q-22 0 -31.5 7t-9.5 27v581q0 16 -4 30.5t-10 22.5zM667 687h81q36 0 45 -13t9 -37v-618
h-80q-22 0 -31.5 7t-9.5 27v581q0 16 -4 30.5t-10 22.5z" />
    <glyph glyph-name="uni2167" unicode="&#x2167;" horiz-adv-x="900" 
d="M257 19h-49q-26 0 -42 12t-20 31l-111 584q-3 13 -8 25t-12 16h77q27 0 37.5 -14t14.5 -37l83 -495l68 516q2 17 10.5 23.5t27.5 6.5h27zM368 687h71q36 0 45 -13t9 -37v-618h-70q-22 0 -31.5 7t-9.5 27v581q0 16 -4 30.5t-10 22.5zM529 687h71q36 0 45 -13t9 -37v-618
h-70q-22 0 -31.5 7t-9.5 27v581q0 16 -4 30.5t-10 22.5zM690 687h71q36 0 45 -13t9 -37v-618h-70q-22 0 -31.5 7t-9.5 27v581q0 16 -4 30.5t-10 22.5z" />
    <glyph glyph-name="uni2168" unicode="&#x2168;" horiz-adv-x="840" 
d="M85 687h81q36 0 45 -13t9 -37v-618h-80q-22 0 -31.5 7t-9.5 27v581q0 16 -4 30.5t-10 22.5zM591 379l175 -319q6 -12 16 -24.5t17 -16.5h-101q-27 0 -43 14.5t-27 36.5l-109 220l-154 -239q-11 -17 -21 -24.5t-28 -7.5h-57l221 330l-178 297q-7 12 -17.5 24.5t-17.5 16.5
h110q27 0 40 -13.5t26 -37.5l111 -202l134 221q10 17 20 24.5t29 7.5h53z" />
    <glyph glyph-name="uni2169" unicode="&#x2169;" horiz-adv-x="760" 
d="M441 379l201 -319q24 -35 33 -41h-101q-27 0 -42 14t-28 37l-135 224l-178 -243q-13 -18 -22 -25t-27 -7h-57l239 330l-196 297q-22 33 -35 41h110q23 0 36 -11t20 -23.5t10 -16.5l129 -204l160 223q13 18 22 25t27 7h59z" />
    <glyph glyph-name="uni2170" unicode="&#x2170;" horiz-adv-x="365" 
d="M116 461h81q36 0 45 -13t9 -37v-392h-80q-22 0 -31.5 7t-9.5 27v355q0 16 -4 30.5t-10 22.5zM114 611q0 29 21 50.5t51 21.5q29 0 50 -21.5t21 -50.5q0 -28 -21 -49t-50 -21q-30 0 -51 21t-21 49z" />
    <glyph glyph-name="uni2171" unicode="&#x2171;" horiz-adv-x="650" 
d="M114 461h81q36 0 45 -13t9 -37v-392h-80q-22 0 -31.5 7t-9.5 27v355q0 16 -4 30.5t-10 22.5zM112 611q0 29 21 50.5t51 21.5q29 0 50 -21.5t21 -50.5q0 -28 -21 -49t-50 -21q-30 0 -51 21t-21 49zM397 461h81q36 0 45 -13t9 -37v-392h-80q-22 0 -31.5 7t-9.5 27v355
q0 16 -4 30.5t-10 22.5zM395 611q0 29 21 50.5t51 21.5q29 0 50 -21.5t21 -50.5q0 -28 -21 -49t-50 -21q-30 0 -51 21t-21 49z" />
    <glyph glyph-name="uni2172" unicode="&#x2172;" horiz-adv-x="840" 
d="M110 461h81q36 0 45 -13t9 -37v-392h-80q-22 0 -31.5 7t-9.5 27v355q0 16 -4 30.5t-10 22.5zM108 611q0 29 21 50.5t51 21.5q29 0 50 -21.5t21 -50.5q0 -28 -21 -49t-50 -21q-30 0 -51 21t-21 49zM347 461h81q36 0 45 -13t9 -37v-392h-80q-22 0 -31.5 7t-9.5 27v355
q0 16 -4 30.5t-10 22.5zM345 611q0 29 21 50.5t51 21.5q29 0 50 -21.5t21 -50.5q0 -28 -21 -49t-50 -21q-30 0 -51 21t-21 49zM586 461h81q36 0 45 -13t9 -37v-392h-80q-22 0 -31.5 7t-9.5 27v355q0 16 -4 30.5t-10 22.5zM584 611q0 29 21 50.5t51 21.5q29 0 50 -21.5
t21 -50.5q0 -28 -21 -49t-50 -21q-30 0 -51 21t-21 49z" />
    <glyph glyph-name="uni2173" unicode="&#x2173;" horiz-adv-x="840" 
d="M106 461h81q36 0 45 -13t9 -37v-392h-80q-22 0 -31.5 7t-9.5 27v355q0 16 -4 30.5t-10 22.5zM104 611q0 29 21 50.5t51 21.5q29 0 50 -21.5t21 -50.5q0 -28 -21 -49t-50 -21q-30 0 -51 21t-21 49zM611 19h-68q-44 0 -62 43l-139 358q-13 33 -26 41h93q27 0 43 -15.5
t23 -35.5l107 -306l121 325q6 17 16 24.5t29 7.5h38z" />
    <glyph glyph-name="uni2174" unicode="&#x2174;" horiz-adv-x="730" 
d="M425 19h-68q-44 0 -62 43l-149 358q-13 33 -26 41h93q47 0 66 -51l117 -306l131 325q6 17 16 24.5t29 7.5h38z" />
    <glyph glyph-name="uni2175" unicode="&#x2175;" horiz-adv-x="840" 
d="M594 461h81q36 0 45 -13t9 -37v-392h-80q-22 0 -31.5 7t-9.5 27v355q0 16 -4 30.5t-10 22.5zM592 611q0 29 21 50.5t51 21.5q29 0 50 -21.5t21 -50.5q0 -28 -21 -49t-50 -21q-30 0 -51 21t-21 49zM349 19h-68q-44 0 -62 43l-139 358q-13 33 -26 41h93q27 0 43 -15.5
t23 -35.5l107 -306l121 325q6 17 16 24.5t29 7.5h38z" />
    <glyph glyph-name="uni2176" unicode="&#x2176;" horiz-adv-x="900" 
d="M459 461h81q36 0 45 -13t9 -37v-392h-80q-22 0 -31.5 7t-9.5 27v355q0 16 -4 30.5t-10 22.5zM457 611q0 29 21 50.5t51 21.5q29 0 50 -21.5t21 -50.5q0 -28 -21 -49t-50 -21q-30 0 -51 21t-21 49zM290 19h-68q-25 0 -41 12.5t-21 30.5l-104 358q-3 12 -11 24.5t-15 16.5
h93q27 0 41.5 -15.5t19.5 -35.5l77 -306l90 325q7 18 14 25t26 7h38zM659 461h81q36 0 45 -13t9 -37v-392h-80q-22 0 -31.5 7t-9.5 27v355q0 16 -4 30.5t-10 22.5zM657 611q0 29 21 50.5t51 21.5q29 0 50 -21.5t21 -50.5q0 -28 -21 -49t-50 -21q-30 0 -51 21t-21 49z" />
    <glyph glyph-name="uni2177" unicode="&#x2177;" horiz-adv-x="900" 
d="M360 461h71q36 0 45 -13t9 -37v-392h-70q-22 0 -31.5 7t-9.5 27v355q0 16 -4 30.5t-10 22.5zM356 611q0 28 20.5 48.5t48.5 20.5t48 -20.5t20 -48.5q0 -26 -20 -46.5t-48 -20.5t-48.5 20t-20.5 47zM245 19h-62q-25 0 -39.5 12t-18.5 31l-84 358q-3 12 -11 24.5t-15 16.5
h87q47 0 57 -51l57 -306l51 325q2 18 8.5 25t25.5 7h33zM521 461h71q36 0 45 -13t9 -37v-392h-70q-22 0 -31.5 7t-9.5 27v355q0 16 -4 30.5t-10 22.5zM517 611q0 28 20.5 48.5t48.5 20.5t48 -20.5t20 -48.5q0 -26 -20 -46.5t-48 -20.5t-48.5 20t-20.5 47zM682 461h71
q36 0 45 -13t9 -37v-392h-70q-22 0 -31.5 7t-9.5 27v355q0 16 -4 30.5t-10 22.5zM678 611q0 28 20.5 48.5t48.5 20.5t48 -20.5t20 -48.5q0 -26 -20 -46.5t-48 -20.5t-48.5 20t-20.5 47z" />
    <glyph glyph-name="uni2178" unicode="&#x2178;" horiz-adv-x="840" 
d="M609 260l158 -214q17 -23 27 -27h-113q-23 0 -36 9.5t-23 24.5l-88 133l-124 -146q-9 -11 -17.5 -16t-24.5 -5h-63l190 220l-148 194q-18 22 -31 28h112q29 0 41.5 -9t23.5 -25l78 -111l106 123q10 12 18 17t24 5h63zM106 461h81q36 0 45 -13t9 -37v-392h-80
q-22 0 -31.5 7t-9.5 27v355q0 16 -4 30.5t-10 22.5zM104 611q0 29 21 50.5t51 21.5q29 0 50 -21.5t21 -50.5q0 -28 -21 -49t-50 -21q-30 0 -51 21t-21 49z" />
    <glyph glyph-name="uni2179" unicode="&#x2179;" horiz-adv-x="730" 
d="M424 260l158 -214q17 -23 27 -27h-113q-23 0 -36 9.5t-23 24.5l-88 133l-124 -146q-9 -11 -17.5 -16t-24.5 -5h-63l190 220l-148 194q-18 22 -31 28h112q29 0 41.5 -9t23.5 -25l78 -111l106 123q10 12 18 17t24 5h63z" />
    <glyph glyph-name="arrowleft" unicode="&#x2190;" horiz-adv-x="840" 
d="M216 308q20 -19 39.5 -44.5t47.5 -69.5l-66 -41q-50 73 -90.5 117t-99.5 83q59 39 99.5 83t90.5 117l66 -41q-28 -44 -47.5 -69.5t-39.5 -44.5h579v-90h-579z" />
    <glyph glyph-name="arrowup" unicode="&#x2191;" horiz-adv-x="840" 
d="M584 451q-44 28 -69.5 47.5t-44.5 39.5v-519h-98v519q-19 -20 -44.5 -39.5t-69.5 -47.5l-41 66q72 49 117 90t87 100q42 -59 87 -100t117 -90l-41 -66v0z" />
    <glyph glyph-name="arrowright" unicode="&#x2192;" horiz-adv-x="840" 
d="M539 194q28 44 47.5 69.5t39.5 44.5h-579v90h579q-20 19 -39.5 44.5t-47.5 69.5l66 41q50 -73 90.5 -117t99.5 -83q-59 -39 -99.5 -83t-90.5 -117l-66 41v0z" />
    <glyph glyph-name="arrowdown" unicode="&#x2193;" horiz-adv-x="840" 
d="M470 168q19 20 44.5 39.5t69.5 47.5l41 -66q-72 -49 -117 -90t-87 -100q-42 59 -87 100t-117 90l41 66q44 -28 69.5 -47.5t44.5 -39.5v519h98v-519z" />
    <glyph glyph-name="arrowboth" unicode="&#x2194;" horiz-adv-x="840" 
d="M666 308h-492q20 -19 39.5 -44.5t47.5 -69.5l-66 -41q-50 73 -90.5 117t-99.5 83q59 39 99.5 83t90.5 117l66 -41q-28 -44 -47.5 -69.5t-39.5 -44.5h492q-20 19 -39.5 44.5t-47.5 69.5l66 41q50 -73 90.5 -117t99.5 -83q-59 -39 -99.5 -83t-90.5 -117l-66 41
q28 44 47.5 69.5t39.5 44.5z" />
    <glyph glyph-name="arrowupdn" unicode="&#x2195;" horiz-adv-x="840" 
d="M371 149v388q-19 -20 -44.5 -39.5t-69.5 -47.5l-41 66q72 49 117 90t87 100q42 -59 87 -100t117 -90l-41 -66q-44 28 -69.5 47.5t-44.5 39.5v-388q19 20 44.5 39.5t69.5 47.5l41 -66q-72 -49 -117 -90t-87 -100q-42 59 -87 100t-117 90l41 66q44 -28 69.5 -47.5
t44.5 -39.5z" />
    <glyph glyph-name="uni2196" unicode="&#x2196;" horiz-adv-x="840" 
d="M223 489q1 -28 -3.5 -59.5t-15.5 -82.5l-76 18q10 55 15 94t5 76q0 52 -10 108q56 -10 108 -10q37 0 76 5t94 15l18 -76q-51 -11 -82.5 -15.5t-59.5 -3.5l419 -439l-69 -69z" />
    <glyph glyph-name="uni2197" unicode="&#x2197;" horiz-adv-x="840" 
d="M635 347q-11 51 -15.5 82.5t-3.5 59.5l-419 -439l-69 69l419 439q-28 -1 -59.5 3.5t-82.5 15.5l18 76q55 -10 94 -15t76 -5q52 0 108 10q-10 -56 -10 -108q0 -37 5 -76t15 -94l-76 -18v0z" />
    <glyph glyph-name="uni2198" unicode="&#x2198;" horiz-adv-x="840" 
d="M616 214q-1 28 3.5 59.5t15.5 82.5l76 -18q-10 -55 -15 -94t-5 -76q0 -52 10 -108q-56 10 -108 10q-37 0 -76 -5t-94 -15l-18 76q51 11 82.5 15.5t59.5 3.5l-419 439l69 69z" />
    <glyph glyph-name="uni2199" unicode="&#x2199;" horiz-adv-x="840" 
d="M204 356q11 -51 15.5 -82.5t3.5 -59.5l419 439l69 -69l-419 -439q28 1 59.5 -3.5t82.5 -15.5l-18 -76q-55 10 -94 15t-76 5q-52 0 -108 -10q10 56 10 108q0 37 -5 76t-15 94l76 18v0z" />
    <glyph glyph-name="arrowdblright" unicode="&#x21d2;" horiz-adv-x="840" 
d="M547 196h-503v82h556q23 27 38.5 42t38.5 34q-28 24 -41.5 37.5t-35.5 39.5h-556v83h503q-19 24 -33.5 48.5t-33.5 61.5l64 41q56 -99 121 -176.5t146 -134.5q-81 -58 -146 -134.5t-121 -175.5l-64 40q19 38 33.5 63t33.5 49z" />
    <glyph glyph-name="arrowdblboth" unicode="&#x21d4;" horiz-adv-x="840" 
d="M589 196h-338q16 -25 29.5 -58.5t20.5 -63.5l-64 -30q-64 194 -227 310q163 116 227 311l64 -31q-7 -29 -20.5 -62t-29.5 -58h338q-16 25 -29.5 58t-20.5 62l64 31q64 -195 227 -311q-163 -116 -227 -310l-64 30q7 30 20.5 63.5t29.5 58.5zM191 296q2 -2 15 -18h428
q14 16 15 18q29 35 57 58q-21 18 -33.5 31.5t-38.5 45.5h-428q-26 -32 -38.5 -45.5t-33.5 -31.5q28 -23 57 -58z" />
    <glyph glyph-name="universal" unicode="&#x2200;" horiz-adv-x="595" 
d="M349 51q0 -20 12 -32h-79q-25 0 -38 8.5t-19 24.5l-194 594q-4 13 -11.5 25t-14.5 16h93q28 0 44 -15t22 -36l40 -131h245l57 152q6 16 18 23t34 7h32l-237 -615q-4 -9 -4 -21zM315 148l112 300h-205z" />
    <glyph glyph-name="partialdiff" unicode="&#x2202;" horiz-adv-x="575" 
d="M525 326v-29q0 -141 -63 -213t-182 -72q-114 0 -172 56t-58 166q0 104 62.5 155.5t155.5 51.5q80 0 134 -44q0 69 -40.5 132t-97.5 89q-33 15 -65.5 24t-56.5 13.5t-31 5.5q1 27 11 36.5t28 9.5q24 0 67 -8.5t79 -24.5q114 -49 171.5 -134t57.5 -214zM290 384
q-55 0 -86 -41.5t-31 -107.5v-24q0 -62 28.5 -102t88.5 -40q49 0 80.5 42t31.5 100v32q0 63 -30 102t-82 39z" />
    <glyph glyph-name="existential" unicode="&#x2203;" horiz-adv-x="550" 
d="M471 579v-507q0 -16 4 -30.5t10 -22.5h-81h-9h-350q-3 15 -3 25q0 32 30 32h278v233h-287q-3 15 -3 25q0 32 30 32h260v174q0 45 -19 63.5t-72 18.5h-226q-3 15 -3 25q0 32 30 32l323 1q46 0 67 -28.5t21 -72.5z" />
    <glyph glyph-name="gradient" unicode="&#x2207;" horiz-adv-x="600" 
d="M354 47q0 -20 12 -32h-79q-25 0 -38 8.5t-19 24.5l-199 594q-4 13 -11.5 25t-14.5 16h585l-232 -615q-4 -9 -4 -21zM166 626l154 -482l176 482h-330z" />
    <glyph glyph-name="element" unicode="&#x2208;" horiz-adv-x="600" 
d="M40 354q0 117 80.5 193.5t273.5 76.5h161q5 -18 5 -28q0 -29 -33 -29h-116q-122 0 -185 -60q-54 -50 -62 -127h390q5 -18 5 -28q0 -29 -33 -29h-362q6 -41 27 -77q28 -48 84.5 -76t138.5 -28h141q5 -18 5 -28q0 -29 -33 -29h-117q-204 0 -287 75t-83 194z" />
    <glyph glyph-name="suchthat" unicode="&#x220b;" horiz-adv-x="600" 
d="M41 352q0 10 5 28h389q-8 77 -61 127q-63 60 -185 60h-116q-33 0 -33 29q0 10 5 28h161q193 0 273.5 -76.5t80.5 -193.5q0 -119 -83 -194t-287 -75h-117q-33 0 -33 29q0 10 5 28h141q82 0 138.5 28t84.5 76q21 36 26 77h-361q-33 0 -33 29z" />
    <glyph glyph-name="product" unicode="&#x220f;" horiz-adv-x="710" 
d="M165 53v573h-87q-33 0 -33 29q0 10 5 28h612q3 -15 3 -25q0 -32 -30 -32h-79v-607h-80q-22 0 -31.5 7t-9.5 27v573h-149v-607h-80q-22 0 -31.5 7t-9.5 27z" />
    <glyph glyph-name="summation" unicode="&#x2211;" horiz-adv-x="500" 
d="M50 64l169 289l-169 289q-7 12 -17.5 24.5t-17.5 16.5h100h6h331q3 -15 3 -25q0 -32 -30 -32h-241l137 -227q14 -22 14 -46t-14 -46l-137 -227h268q3 -15 3 -25q0 -32 -30 -32h-307h-3h-2h-98q7 4 17.5 16.5t17.5 24.5z" />
    <glyph glyph-name="radical" unicode="&#x221a;" horiz-adv-x="775" 
d="M184 309l73 -205l173 579h292q3 -15 3 -25q0 -32 -30 -32h-218l-187 -607h-68q-44 0 -62 43l-104 257q-15 34 -26 41h93q27 0 40 -14.5t21 -36.5z" />
    <glyph glyph-name="proportional" unicode="&#x221d;" horiz-adv-x="677" 
d="M30 358q0 54 26.5 98t74.5 69.5t110 25.5q124 0 228 -140l95 113q8 9 14.5 13t18.5 4h50l-139 -169l109 -176q7 -13 23 -22h-81q-31 0 -47 27l-60 102q-28 -35 -49 -59q-30 -33 -70 -56t-88 -23q-62 0 -111 25t-76.5 69t-27.5 99zM415 352q-92 143 -166 143
q-51 0 -74.5 -43t-23.5 -94q0 -55 26 -96t78 -41q28 0 54.5 18t48 42.5t57.5 70.5z" />
    <glyph glyph-name="infinity" unicode="&#x221e;" horiz-adv-x="917" 
d="M887 358q0 -54 -24.5 -98t-70.5 -69.5t-108 -25.5q-75 0 -139 48q-47 35 -94 92q-23 -30 -39 -51q-29 -35 -71.5 -62t-96.5 -27q-62 0 -111 25t-76 69t-27 99q0 54 26 98t74 69.5t110 25.5q74 0 131 -51q42 -36 84 -95q39 52 82 89q64 57 143 57q62 0 109 -25t72.5 -69
t25.5 -99zM489 355q42 -66 86 -100t83 -34q35 0 59.5 22t36.5 53.5t12 61.5q0 33 -13.5 65t-39 52t-61.5 20q-42 0 -85.5 -41t-77.5 -99zM415 352q-47 73 -83.5 108t-72.5 35q-35 0 -59.5 -22t-36.5 -53.5t-12 -61.5q0 -33 13.5 -65t39 -52t61.5 -20q40 0 74.5 34.5
t75.5 96.5z" />
    <glyph glyph-name="angle" unicode="&#x2220;" horiz-adv-x="591" 
d="M50 64l349 591q10 17 20 24.5t29 7.5h93l-356 -607h358q3 -13 3 -23q0 -34 -30 -34h-501q7 4 17.5 16.5t17.5 24.5z" />
    <glyph glyph-name="uni2225" unicode="&#x2225;" horiz-adv-x="460" 
d="M140 727q22 0 31.5 -7t9.5 -27v-804h-60q-22 0 -31.5 7t-9.5 27v804h60zM339 727q22 0 31.5 -7t9.5 -27v-804h-60q-22 0 -31.5 7t-9.5 27v804h60z" />
    <glyph glyph-name="logicaland" unicode="&#x2227;" horiz-adv-x="570" 
d="M355 627l200 -541h-38q-19 0 -29 7.5t-16 24.5l-151 414l-137 -395q-19 -51 -66 -51h-103q13 8 26 41l174 457q17 43 62 43h78z" />
    <glyph glyph-name="logicalor" unicode="&#x2228;" horiz-adv-x="570" 
d="M215 129l-174 457q-13 33 -26 41h103q47 0 66 -51l137 -395l151 414q6 17 16 24.5t29 7.5h38l-200 -541h-78q-45 0 -62 43z" />
    <glyph glyph-name="intersection" unicode="&#x2229;" horiz-adv-x="614" 
d="M123 90h-73v302q0 112 58 176t187 64q142 0 204.5 -77.5t63.5 -240.5l1 -183q0 -24 -11 -32.5t-37 -8.5h-74v274q0 211 -141 211q-55 0 -92 -40t-37 -122v-282q0 -24 -11 -32.5t-38 -8.5z" />
    <glyph glyph-name="union" unicode="&#x222a;" horiz-adv-x="614" 
d="M301 141q141 0 141 211v274h74q26 0 37 -8.5t11 -32.5l-1 -183q-1 -163 -63.5 -240.5t-204.5 -77.5q-129 0 -187 64t-58 176v302h73q27 0 38 -8.5t11 -32.5v-282q0 -82 37 -122t92 -40z" />
    <glyph glyph-name="integral" unicode="&#x222b;" horiz-adv-x="496" 
d="M32 -112q-2 7 -2 19q0 19 9 29t22 8q35 -28 66 -28q33 0 47 26t14 86l-1 560q0 81 43 123.5t121 42.5q30 0 57 -5t56 -23q2 -7 2 -19q0 -19 -9 -29t-22 -8q-35 28 -66 28q-33 0 -47 -26t-14 -86l1 -560q0 -81 -43 -123.5t-121 -42.5q-30 0 -57 5t-56 23z" />
    <glyph glyph-name="uni222C" unicode="&#x222c;" horiz-adv-x="785" 
d="M32 -112q-2 7 -2 19q0 19 9 29t22 8q35 -28 66 -28q33 0 47 26t14 86l-1 560q0 81 43 123.5t121 42.5q30 0 57 -5t56 -23q2 -7 2 -19q0 -19 -9 -29t-22 -8q-35 28 -66 28q-33 0 -47 -26t-14 -86l1 -560q0 -81 -43 -123.5t-121 -42.5q-30 0 -57 5t-56 23zM321 -112
q-2 7 -2 19q0 19 9 29t22 8q35 -28 66 -28q33 0 47 26t14 86l-1 560q0 81 43 123.5t121 42.5q30 0 57 -5t56 -23q2 -7 2 -19q0 -19 -9 -29t-22 -8q-35 28 -66 28q-33 0 -47 -26t-14 -86l1 -560q0 -81 -43 -123.5t-121 -42.5q-30 0 -57 5t-56 23z" />
    <glyph glyph-name="uni222E" unicode="&#x222e;" horiz-adv-x="536" 
d="M53 320q0 57 27.5 104t76.5 74q24 13 50 19v71q0 81 43 123.5t121 42.5q30 0 57 -5t56 -23q2 -7 2 -19q0 -19 -9 -29t-22 -8q-35 28 -66 28q-33 0 -47 -26t-14 -86v-68q26 -7 50 -20q50 -27 78 -74t28 -104t-28 -104t-78 -74q-23 -13 -50 -20l1 -96q0 -81 -43 -123.5
t-121 -42.5q-30 0 -57 5t-56 23q-2 7 -2 19q0 19 9 29t22 8q35 -28 66 -28q33 0 47 26t14 86l-1 94q-26 7 -50 20q-49 27 -76.5 74t-27.5 104zM413 320q0 42 -19 76t-52 53l-14 8v-275q7 3 13 7q34 21 53 55.5t19 75.5zM194 449q-32 -19 -51 -53t-19 -76q0 -41 19 -75.5
t52 -55.5q6 -4 12 -7v274q-7 -3 -13 -7z" />
    <glyph glyph-name="therefore" unicode="&#x2234;" horiz-adv-x="668" 
d="M48 155q0 26 18 44t44 18t43.5 -18t17.5 -44q0 -25 -18 -42.5t-43 -17.5q-26 0 -44 17.5t-18 42.5zM275 555q0 26 18 44t44 18t43.5 -18t17.5 -44q0 -25 -18 -42.5t-43 -17.5q-26 0 -44 17.5t-18 42.5zM497 155q0 26 18 44t44 18t43.5 -18t17.5 -44q0 -25 -18 -42.5
t-43 -17.5q-26 0 -44 17.5t-18 42.5z" />
    <glyph glyph-name="uni2235" unicode="&#x2235;" horiz-adv-x="668" 
d="M171 547q0 -26 -17.5 -44t-43.5 -18t-44 18t-18 44q0 25 18 42.5t44 17.5q25 0 43 -17.5t18 -42.5zM398 147q0 -26 -17.5 -44t-43.5 -18t-44 18t-18 44q0 25 18 42.5t44 17.5q25 0 43 -17.5t18 -42.5zM620 547q0 -26 -17.5 -44t-43.5 -18t-44 18t-18 44q0 25 18 42.5
t44 17.5q25 0 43 -17.5t18 -42.5z" />
    <glyph glyph-name="similar" unicode="&#x223c;" horiz-adv-x="605" 
d="M329 387q33 -23 48 -29.5t40 -6.5q30 0 47 14.5t42 50.5q6 6 17 6q12 0 23 -8.5t19 -27.5q-14 -38 -53.5 -64.5t-95.5 -26.5q-36 0 -62.5 10t-55.5 29l-17 12q-29 21 -49.5 30.5t-46.5 9.5q-25 0 -44.5 -15t-41.5 -50q-6 -6 -17 -6q-12 0 -23 8.5t-19 27.5
q16 42 53.5 66.5t94.5 24.5q38 0 69.5 -13.5t71.5 -41.5z" />
    <glyph glyph-name="uni223D" unicode="&#x223d;" horiz-adv-x="605" 
d="M565 351q-8 -19 -19 -27.5t-23 -8.5q-11 0 -17 6q-22 35 -41.5 50t-44.5 15q-26 0 -46.5 -9.5t-49.5 -30.5l-17 -12q-29 -19 -55.5 -29t-62.5 -10q-56 0 -95.5 26.5t-53.5 64.5q8 19 19 27.5t23 8.5q11 0 17 -6q25 -36 42 -50.5t47 -14.5q25 0 40 6.5t48 29.5
q40 28 71.5 41.5t69.5 13.5q57 0 94.5 -24.5t53.5 -66.5z" />
    <glyph glyph-name="uni2252" unicode="&#x2252;" horiz-adv-x="525" 
d="M50 451q0 10 5 28h419q3 -15 3 -25q0 -32 -30 -32h-364q-33 0 -33 29zM50 261q0 10 5 28h419q3 -15 3 -25q0 -32 -30 -32h-364q-33 0 -33 29zM348 113q0 26 18 44t44 18t43.5 -18t17.5 -44q0 -25 -18 -42.5t-43 -17.5q-26 0 -44 17.5t-18 42.5zM48 604q0 26 18 44t44 18
t43.5 -18t17.5 -44q0 -25 -18 -42.5t-43 -17.5q-26 0 -44 17.5t-18 42.5z" />
    <glyph glyph-name="notequal" unicode="&#x2260;" horiz-adv-x="600" 
d="M111 -67q-18 0 -46 25l154 274h-136q-33 0 -33 29q0 10 5 28h196l75 133h-243q-33 0 -33 29q0 10 5 28h303l129 229q25 -6 36.5 -13t11.5 -20q0 -10 -7 -23l-97 -173h123q3 -15 3 -25q0 -32 -30 -32h-128l-74 -133h229q3 -15 3 -25q0 -32 -30 -32h-234l-157 -281
q-10 -18 -25 -18z" />
    <glyph glyph-name="equivalence" unicode="&#x2261;" horiz-adv-x="600" 
d="M55 595q0 10 5 28h482q3 -15 3 -25q0 -32 -30 -32h-427q-33 0 -33 29zM55 112q0 10 5 28h482q3 -15 3 -25q0 -32 -30 -32h-427q-33 0 -33 29zM85 355q0 10 5 28h422q3 -15 3 -25q0 -32 -30 -32h-367q-33 0 -33 29z" />
    <glyph glyph-name="lessequal" unicode="&#x2264;" horiz-adv-x="607" 
d="M50 44q0 10 3 25h499q5 -18 5 -28q0 -29 -33 -29h-444q-30 0 -30 32zM55 399l449 262q22 -6 30.5 -13.5t8.5 -19.5q0 -5 -2 -15l-356 -214l356 -214q2 -10 2 -15q0 -12 -8.5 -19.5t-30.5 -13.5z" />
    <glyph glyph-name="greaterequal" unicode="&#x2265;" horiz-adv-x="607" 
d="M50 41q0 10 5 28h499q3 -15 3 -25q0 -32 -30 -32h-444q-33 0 -33 29zM64 170q0 5 2 15l356 214l-356 214q-2 10 -2 15q0 12 8.5 19.5t30.5 13.5l449 -262l-449 -262q-22 6 -30.5 13.5t-8.5 19.5z" />
    <glyph glyph-name="uni226A" unicode="&#x226a;" horiz-adv-x="840" 
d="M330 319l329 382q29 -7 39.5 -18.5t7.5 -29.5l-286 -334l286 -334q1 -3 1 -9q0 -14 -11 -23t-37 -16zM120 319l339 382q29 -7 39.5 -18.5t7.5 -29.5l-296 -334l296 -334q1 -3 1 -9q0 -14 -11 -23t-37 -16z" />
    <glyph glyph-name="uni226B" unicode="&#x226b;" horiz-adv-x="840" 
d="M121 -15l286 334l-286 334q-1 3 -1 9q0 14 11 23t37 16l329 -382l-329 -382q-29 7 -39.5 18.5t-7.5 29.5zM321 -15l296 334l-296 334q-1 3 -1 9q0 14 11 23t37 16l339 -382l-339 -382q-29 7 -39.5 18.5t-7.5 29.5z" />
    <glyph glyph-name="propersubset" unicode="&#x2282;" horiz-adv-x="600" 
d="M40 354q0 117 80.5 193.5t273.5 76.5h161q5 -18 5 -28q0 -29 -33 -29h-116q-122 0 -185 -59.5t-63 -155.5q0 -58 28 -106t84.5 -76t138.5 -28h141q5 -18 5 -28q0 -29 -33 -29h-117q-204 0 -287 75t-83 194z" />
    <glyph glyph-name="propersuperset" unicode="&#x2283;" horiz-adv-x="600" 
d="M40 114q0 10 5 28h141q82 0 138.5 28t84.5 76t28 106q0 96 -63 155.5t-185 59.5h-116q-33 0 -33 29q0 10 5 28h161q193 0 273.5 -76.5t80.5 -193.5q0 -119 -83 -194t-287 -75h-117q-33 0 -33 29z" />
    <glyph glyph-name="reflexsubset" unicode="&#x2286;" horiz-adv-x="616" 
d="M50 423q0 111 75.5 175.5t258.5 64.5h177q5 -18 5 -28q0 -29 -33 -29h-132q-110 0 -169 -50t-59 -135q0 -52 27 -93t79 -64t125 -23h157q5 -18 5 -28q0 -29 -33 -29h-133q-194 0 -272 63t-78 176zM58 44v6q0 4 1 8v3l2 8h499v-2q2 -6 3 -11v-2q1 -1 1 -2q1 -7 1 -11
q0 -5 -1 -8q0 -3 -1 -5q-2 -4 -5 -8q-2 -2 -4 -3q-3 -2 -7 -3q-1 -1 -3 -1q-2 -1 -3 -1h-9h-444h-5q-4 0 -7 1l-4 2q-13 6 -14 24v5z" />
    <glyph glyph-name="reflexsuperset" unicode="&#x2287;" horiz-adv-x="616" 
d="M51 41q0 10 5 28h499q3 -15 3 -25q0 -32 -30 -32h-444q-33 0 -33 29zM50 213q0 10 5 28h157q73 0 125 23t79 64t27 93q0 85 -59 135t-169 50h-132q-33 0 -33 29q0 10 5 28h177q183 0 258.5 -64.5t75.5 -175.5q0 -113 -78 -176t-272 -63h-133q-33 0 -33 29z" />
    <glyph glyph-name="uni2299" unicode="&#x2299;" horiz-adv-x="840" 
d="M32 320q0 104 52 191t141 137.5t195 50.5t195 -50.5t141 -137.5t52 -191t-52 -191t-141 -137.5t-195 -50.5t-195 50.5t-141 137.5t-52 191zM710 320q0 81 -39 150t-105.5 109t-145.5 40t-145.5 -40t-105.5 -109t-39 -150t39 -150t105.5 -109t145.5 -40t145.5 40
t105.5 109t39 150zM550 320q0 39 -18 72t-47.5 52t-64.5 19t-64.5 -19t-47.5 -52t-18 -72t18 -72t47.5 -52t64.5 -19t64.5 19t47.5 52t18 72z" />
    <glyph glyph-name="uni22A5" unicode="&#x22a5;" horiz-adv-x="610" 
d="M232 683h81q36 0 45 -13t9 -37v-557h195q3 -15 3 -25q0 -32 -30 -32h-457q-33 0 -33 29q0 10 5 28h196v554q0 16 -4 30.5t-10 22.5z" />
    <glyph glyph-name="uni2312" unicode="&#x2312;" horiz-adv-x="400" 
d="M350 678q-3 -24 -14.5 -35.5t-24.5 -11.5q-6 0 -11 3q-20 29 -43 40.5t-57 11.5t-57 -11.5t-43 -40.5q-4 -3 -11 -3q-13 0 -24.5 11.5t-14.5 35.5q21 30 62.5 47t87.5 17t87.5 -17t62.5 -47z" />
    <glyph glyph-name="uni2460" unicode="&#x2460;" horiz-adv-x="840" 
d="M25 319q0 108 52 196.5t142.5 139t200.5 50.5t200.5 -50.5t142.5 -139t52 -196.5t-52 -196.5t-142.5 -139t-200.5 -50.5t-200.5 50.5t-142.5 139t-52 196.5zM389 89v439l-99 -77q-3 -1 -9 -1q-11 0 -18 9t-6 28l126 95h65q35 0 35 -33v-487h-62q-17 0 -24.5 6t-7.5 21z
M753 319q0 92 -43.5 167t-119.5 118.5t-170 43.5t-170 -43.5t-119.5 -118.5t-43.5 -167t43.5 -167t119.5 -118.5t170 -43.5t170 43.5t119.5 118.5t43.5 167z" />
    <glyph glyph-name="uni2461" unicode="&#x2461;" horiz-adv-x="840" 
d="M25 319q0 108 52 196.5t142.5 139t200.5 50.5t200.5 -50.5t142.5 -139t52 -196.5t-52 -196.5t-142.5 -139t-200.5 -50.5t-200.5 50.5t-142.5 139t-52 196.5zM753 319q0 92 -43.5 167t-119.5 118.5t-170 43.5t-170 -43.5t-119.5 -118.5t-43.5 -167t43.5 -167t119.5 -118.5
t170 -43.5t170 43.5t119.5 118.5t43.5 167zM260 97q0 7 5 14l162 200q35 45 50.5 76.5t15.5 64.5q0 43 -27.5 69.5t-74.5 26.5q-21 0 -39.5 -6.5t-49.5 -21.5q-11 -6 -20 5t-8 35q29 16 63 24t64 8q89 0 138.5 -39.5t49.5 -107.5q0 -73 -63 -148l-150 -184h217q3 -12 3 -20
q0 -24 -24 -24h-283q-12 0 -20.5 8.5t-8.5 19.5z" />
    <glyph glyph-name="uni2462" unicode="&#x2462;" horiz-adv-x="840" 
d="M25 319q0 108 52 196.5t142.5 139t200.5 50.5t200.5 -50.5t142.5 -139t52 -196.5t-52 -196.5t-142.5 -139t-200.5 -50.5t-200.5 50.5t-142.5 139t-52 196.5zM753 319q0 92 -43.5 167t-119.5 118.5t-170 43.5t-170 -43.5t-119.5 -118.5t-43.5 -167t43.5 -167t119.5 -118.5
t170 -43.5t170 43.5t119.5 118.5t43.5 167zM248 91q-2 10 -2 15q0 14 7.5 22t17.5 6q31 -16 60.5 -24.5t68.5 -8.5q51 0 84 29t33 75q0 110 -133 113l-48 -1q-26 -1 -26 18q0 9 3 19l65 6q58 8 84 33t26 67q0 38 -24 61t-67 24q-48 0 -96 -25q-12 -5 -20.5 5.5t-7.5 34.5
q25 14 62.5 21.5t67.5 7.5q83 0 132 -35t49 -98q0 -76 -74 -110q48 -13 75.5 -47t27.5 -89q0 -75 -58.5 -114t-152.5 -39q-46 0 -87 9t-67 25z" />
    <glyph glyph-name="uni2463" unicode="&#x2463;" horiz-adv-x="840" 
d="M25 319q0 108 52 196.5t142.5 139t200.5 50.5t200.5 -50.5t142.5 -139t52 -196.5t-52 -196.5t-142.5 -139t-200.5 -50.5t-200.5 50.5t-142.5 139t-52 196.5zM447 89v112h-231q-12 0 -20.5 8.5t-8.5 19.5q0 9 4 14l238 341h78q17 0 26 -9.5t9 -23.5v-305h87q2 -8 2 -19
q0 -26 -23 -26h-66v-139h-63q-17 0 -24.5 6t-7.5 21zM753 319q0 92 -43.5 167t-119.5 118.5t-170 43.5t-170 -43.5t-119.5 -118.5t-43.5 -167t43.5 -167t119.5 -118.5t170 -43.5t170 43.5t119.5 118.5t43.5 167zM447 246v260l-167 -260h167z" />
    <glyph glyph-name="uni2464" unicode="&#x2464;" horiz-adv-x="840" 
d="M25 319q0 108 52 196.5t142.5 139t200.5 50.5t200.5 -50.5t142.5 -139t52 -196.5t-52 -196.5t-142.5 -139t-200.5 -50.5t-200.5 50.5t-142.5 139t-52 196.5zM753 319q0 92 -43.5 167t-119.5 118.5t-170 43.5t-170 -43.5t-119.5 -118.5t-43.5 -167t43.5 -167t119.5 -118.5
t170 -43.5t170 43.5t119.5 118.5t43.5 167zM256 87q-2 10 -2 15q0 15 7.5 23t17.5 6q29 -16 56 -25t62 -9q46 0 79.5 32.5t33.5 84.5q0 53 -32 86.5t-89 33.5q-31 0 -87 -8q-35 -5 -32 27l25 224h286q3 -12 3 -20q0 -24 -24 -24h-177l-17 -159q24 4 52 4q83 0 135 -41.5
t52 -118.5q0 -81 -58.5 -122.5t-147.5 -41.5q-43 0 -81 8.5t-62 24.5z" />
    <glyph glyph-name="uni2465" unicode="&#x2465;" horiz-adv-x="840" 
d="M25 319q0 108 52 196.5t142.5 139t200.5 50.5t200.5 -50.5t142.5 -139t52 -196.5t-52 -196.5t-142.5 -139t-200.5 -50.5t-200.5 50.5t-142.5 139t-52 196.5zM511 212v19q0 51 -24 83.5t-67 32.5t-67 -30t-24 -80v-25q0 -46 25 -78.5t66 -32.5q47 0 69 31.5t22 79.5z
M753 319q0 92 -43.5 167t-119.5 118.5t-170 43.5t-170 -43.5t-119.5 -118.5t-43.5 -167t43.5 -167t119.5 -118.5t170 -43.5t170 43.5t119.5 118.5t43.5 167zM233 279v78q1 107 58.5 169.5t155.5 62.5q25 0 59 -8t58 -23q2 -10 2 -15q0 -15 -7.5 -23t-17.5 -6
q-19 14 -45.5 22.5t-47.5 8.5q-61 0 -90 -43t-29 -140v-5q19 17 47.5 26t60.5 9q73 0 121.5 -40t48.5 -122q0 -86 -45.5 -129.5t-133.5 -43.5q-95 0 -144.5 56t-50.5 166z" />
    <glyph glyph-name="uni2466" unicode="&#x2466;" horiz-adv-x="840" 
d="M25 319q0 108 52 196.5t142.5 139t200.5 50.5t200.5 -50.5t142.5 -139t52 -196.5t-52 -196.5t-142.5 -139t-200.5 -50.5t-200.5 50.5t-142.5 139t-52 196.5zM348 74q0 5 2 13q37 132 69.5 230t74.5 198h-223q-26 0 -26 22q0 6 4 22h349q3 -12 3 -21t-3 -14
q-50 -113 -83.5 -217t-75.5 -262h-65q-12 0 -19 8.5t-7 20.5zM753 319q0 92 -43.5 167t-119.5 118.5t-170 43.5t-170 -43.5t-119.5 -118.5t-43.5 -167t43.5 -167t119.5 -118.5t170 -43.5t170 43.5t119.5 118.5t43.5 167z" />
    <glyph glyph-name="uni2467" unicode="&#x2467;" horiz-adv-x="840" 
d="M25 319q0 108 52 196.5t142.5 139t200.5 50.5t200.5 -50.5t142.5 -139t52 -196.5t-52 -196.5t-142.5 -139t-200.5 -50.5t-200.5 50.5t-142.5 139t-52 196.5zM527 199q0 40 -28.5 72t-78.5 38q-50 -6 -78.5 -38t-28.5 -72q0 -46 29.5 -75t77.5 -29t77.5 29t29.5 75z
M753 319q0 92 -43.5 167t-119.5 118.5t-170 43.5t-170 -43.5t-119.5 -118.5t-43.5 -167t43.5 -167t119.5 -118.5t170 -43.5t170 43.5t119.5 118.5t43.5 167zM217 201q0 48 32.5 85t76.5 50q-39 18 -64.5 47t-25.5 69q0 64 50.5 100.5t133.5 36.5t133.5 -36.5t50.5 -100.5
q0 -40 -25.5 -69t-64.5 -47q44 -13 76.5 -50t32.5 -85q0 -75 -57 -112.5t-146 -37.5t-146 37.5t-57 112.5zM508 455q0 39 -24.5 64.5t-61.5 25.5q-39 0 -64.5 -25t-25.5 -65q0 -79 88 -101q88 22 88 101z" />
    <glyph glyph-name="uni2468" unicode="&#x2468;" horiz-adv-x="840" 
d="M25 319q0 108 52 196.5t142.5 139t200.5 50.5t200.5 -50.5t142.5 -139t52 -196.5t-52 -196.5t-142.5 -139t-200.5 -50.5t-200.5 50.5t-142.5 139t-52 196.5zM753 319q0 92 -43.5 167t-119.5 118.5t-170 43.5t-170 -43.5t-119.5 -118.5t-43.5 -167t43.5 -167t119.5 -118.5
t170 -43.5t170 43.5t119.5 118.5t43.5 167zM268 88q-2 10 -2 15q0 14 7.5 22t17.5 6q21 -15 49.5 -24t58.5 -9q61 0 90 43t29 140v13q-19 -16 -48.5 -25.5t-61.5 -9.5q-71 0 -119.5 40.5t-48.5 113.5q0 79 51.5 126t135.5 47q91 0 139 -64.5t48 -164.5v-71
q-1 -107 -58.5 -169.5t-155.5 -62.5q-36 0 -72 8.5t-60 25.5zM518 414v17q0 47 -23 79t-68 32q-47 0 -69 -31.5t-22 -79.5v-8q0 -52 24 -85.5t67 -33.5t67 30t24 80z" />
    <glyph glyph-name="uni2469" unicode="&#x2469;" horiz-adv-x="840" 
d="M25 319q0 108 52 196.5t142.5 139t200.5 50.5t200.5 -50.5t142.5 -139t52 -196.5t-52 -196.5t-142.5 -139t-200.5 -50.5t-200.5 50.5t-142.5 139t-52 196.5zM230 112v380l-63 -64q-12 -4 -21.5 4t-8.5 29l98 95h48q32 0 32 -30v-438h-56q-16 0 -22.5 5t-6.5 19zM753 319
q0 92 -43.5 167t-119.5 118.5t-170 43.5t-170 -43.5t-119.5 -118.5t-43.5 -167t43.5 -167t119.5 -118.5t170 -43.5t170 43.5t119.5 118.5t43.5 167zM359 323q0 120 46 179.5t120 59.5t120 -59.5t46 -179.5t-46 -179.5t-120 -59.5t-120 59.5t-46 179.5zM605 284v78
q0 81 -22 121t-58 40t-58 -40t-22 -121v-78q0 -81 22 -121t58 -40t58 40t22 121z" />
    <glyph glyph-name="uni246A" unicode="&#x246a;" horiz-adv-x="840" 
d="M25 319q0 108 52 196.5t142.5 139t200.5 50.5t200.5 -50.5t142.5 -139t52 -196.5t-52 -196.5t-142.5 -139t-200.5 -50.5t-200.5 50.5t-142.5 139t-52 196.5zM267 112v385l-79 -69q-12 -4 -21.5 4t-8.5 29l114 95h48q32 0 32 -30v-438h-56q-16 0 -22.5 5t-6.5 19zM753 319
q0 92 -43.5 167t-119.5 118.5t-170 43.5t-170 -43.5t-119.5 -118.5t-43.5 -167t43.5 -167t119.5 -118.5t170 -43.5t170 43.5t119.5 118.5t43.5 167zM527 112v380l-59 -64q-12 -4 -21.5 4t-8.5 29l94 95h48q32 0 32 -30v-438h-56q-16 0 -22.5 5t-6.5 19z" />
    <glyph glyph-name="uni246B" unicode="&#x246b;" horiz-adv-x="840" 
d="M25 319q0 108 52 196.5t142.5 139t200.5 50.5t200.5 -50.5t142.5 -139t52 -196.5t-52 -196.5t-142.5 -139t-200.5 -50.5t-200.5 50.5t-142.5 139t-52 196.5zM242 112v380l-69 -64q-12 -4 -21.5 4t-8.5 29l104 95h48q32 0 32 -30v-438h-56q-16 0 -22.5 5t-6.5 19zM753 319
q0 92 -43.5 167t-119.5 118.5t-170 43.5t-170 -43.5t-119.5 -118.5t-43.5 -167t43.5 -167t119.5 -118.5t170 -43.5t170 43.5t119.5 118.5t43.5 167zM377 121q0 4 4 12l126 180q59 85 59 127q0 38 -19 61t-59 25q-29 1 -73 -25q-10 -6 -18.5 4t-7.5 32q25 16 53.5 22.5
t51.5 6.5q74 0 116.5 -36t42.5 -96q0 -35 -15 -68.5t-42 -70.5l-115 -160h175q3 -12 3 -19q0 -21 -21 -21h-235q-11 0 -18.5 8t-7.5 18z" />
    <glyph glyph-name="uni246C" unicode="&#x246c;" horiz-adv-x="840" 
d="M25 319q0 108 52 196.5t142.5 139t200.5 50.5t200.5 -50.5t142.5 -139t52 -196.5t-52 -196.5t-142.5 -139t-200.5 -50.5t-200.5 50.5t-142.5 139t-52 196.5zM242 112v380l-69 -64q-12 -4 -21.5 4t-8.5 29l104 95h48q32 0 32 -30v-438h-56q-16 0 -22.5 5t-6.5 19zM753 319
q0 92 -43.5 167t-119.5 118.5t-170 43.5t-170 -43.5t-119.5 -118.5t-43.5 -167t43.5 -167t119.5 -118.5t170 -43.5t170 43.5t119.5 118.5t43.5 167zM366 114q-2 10 -2 13q0 13 7 20.5t16 5.5q29 -15 51 -22.5t50 -7.5q45 0 72.5 26t27.5 68q0 47 -25.5 74t-88.5 28l-39 -1
q-23 -1 -23 16q0 7 3 17l53 5q51 4 72.5 27.5t21.5 62.5q0 34 -22 55.5t-60 21.5q-17 0 -36 -6.5t-35 -16.5q-11 -4 -18.5 5.5t-6.5 30.5q22 13 52.5 19.5t54.5 6.5q72 0 115 -34t43 -85q0 -68 -67 -99q43 -12 68 -42.5t25 -80.5q0 -68 -50.5 -102.5t-134.5 -34.5
q-35 0 -68 7.5t-56 22.5z" />
    <glyph glyph-name="uni246D" unicode="&#x246d;" horiz-adv-x="840" 
d="M25 319q0 108 52 196.5t142.5 139t200.5 50.5t200.5 -50.5t142.5 -139t52 -196.5t-52 -196.5t-142.5 -139t-200.5 -50.5t-200.5 50.5t-142.5 139t-52 196.5zM236 112v380l-69 -64q-12 -4 -21.5 4t-8.5 29l104 95h48q32 0 32 -30v-438h-56q-16 0 -22.5 5t-6.5 19zM753 319
q0 92 -43.5 167t-119.5 118.5t-170 43.5t-170 -43.5t-119.5 -118.5t-43.5 -167t43.5 -167t119.5 -118.5t170 -43.5t170 43.5t119.5 118.5t43.5 167zM547 112v101h-178q-10 0 -17.5 8t-7.5 18q0 6 3 12l184 307h70q16 0 24 -8.5t8 -21.5v-274h63q2 -14 2 -18q0 -23 -21 -23
h-44v-125h-57q-15 0 -22 5.5t-7 18.5zM547 254v234l-120 -234h120z" />
    <glyph glyph-name="uni246E" unicode="&#x246e;" horiz-adv-x="840" 
d="M25 319q0 108 52 196.5t142.5 139t200.5 50.5t200.5 -50.5t142.5 -139t52 -196.5t-52 -196.5t-142.5 -139t-200.5 -50.5t-200.5 50.5t-142.5 139t-52 196.5zM242 112v380l-69 -64q-12 -4 -21.5 4t-8.5 29l104 95h48q32 0 32 -30v-438h-56q-16 0 -22.5 5t-6.5 19zM753 319
q0 92 -43.5 167t-119.5 118.5t-170 43.5t-170 -43.5t-119.5 -118.5t-43.5 -167t43.5 -167t119.5 -118.5t170 -43.5t170 43.5t119.5 118.5t43.5 167zM369 110q-2 10 -2 13q0 14 7 21t16 5q28 -15 47.5 -22.5t43.5 -7.5q38 0 67 29.5t29 75.5q0 51 -28 81.5t-77 26.5
q-51 -5 -66 -7l-8 -1q-24 0 -21 25l22 202h231q2 -14 2 -18q0 -13 -5.5 -17.5t-15.5 -4.5h-132l-16 -143q23 4 47 4q67 0 109.5 -37.5t42.5 -106.5q0 -73 -51.5 -110.5t-127.5 -37.5q-31 0 -62 8t-52 22z" />
    <glyph glyph-name="uni2474" unicode="&#x2474;" horiz-adv-x="840" 
d="M601 -33q0 10 8 18q63 61 98.5 146.5t35.5 187.5t-35.5 187.5t-98.5 146.5q-8 8 -8 18q0 22 35 30q87 -68 133 -167t46 -215t-46 -215t-133 -167q-35 8 -35 30zM25 319q0 116 46 215t133 167q35 -8 35 -30q0 -10 -8 -18q-63 -61 -98.5 -146.5t-35.5 -187.5t35.5 -187.5
t98.5 -146.5q8 -8 8 -18q0 -22 -35 -30q-87 68 -133 167t-46 215zM389 89v439l-99 -77q-3 -1 -9 -1q-11 0 -18 9t-6 28l126 95h65q35 0 35 -33v-487h-62q-17 0 -24.5 6t-7.5 21z" />
    <glyph glyph-name="uni2475" unicode="&#x2475;" horiz-adv-x="840" 
d="M260 97q0 7 5 14l162 200q35 45 50.5 76.5t15.5 64.5q0 43 -27.5 69.5t-74.5 26.5q-21 0 -39.5 -6.5t-49.5 -21.5q-11 -6 -20 5t-8 35q29 16 63 24t64 8q89 0 138.5 -39.5t49.5 -107.5q0 -73 -63 -148l-150 -184h217q3 -12 3 -20q0 -24 -24 -24h-283q-12 0 -20.5 8.5
t-8.5 19.5zM25 319q0 116 46 215t133 167q35 -8 35 -30q0 -10 -8 -18q-63 -61 -98.5 -146.5t-35.5 -187.5t35.5 -187.5t98.5 -146.5q8 -8 8 -18q0 -22 -35 -30q-87 68 -133 167t-46 215zM601 -33q0 10 8 18q63 61 98.5 146.5t35.5 187.5t-35.5 187.5t-98.5 146.5q-8 8 -8 18
q0 22 35 30q87 -68 133 -167t46 -215t-46 -215t-133 -167q-35 8 -35 30z" />
    <glyph glyph-name="uni2476" unicode="&#x2476;" horiz-adv-x="840" 
d="M248 91q-2 10 -2 15q0 14 7.5 22t17.5 6q31 -16 60.5 -24.5t68.5 -8.5q51 0 84 29t33 75q0 110 -133 113l-48 -1q-26 -1 -26 18q0 9 3 19l65 6q58 8 84 33t26 67q0 38 -24 61t-67 24q-48 0 -96 -25q-12 -5 -20.5 5.5t-7.5 34.5q25 14 62.5 21.5t67.5 7.5q83 0 132 -35
t49 -98q0 -76 -74 -110q48 -13 75.5 -47t27.5 -89q0 -75 -58.5 -114t-152.5 -39q-46 0 -87 9t-67 25zM25 319q0 116 46 215t133 167q35 -8 35 -30q0 -10 -8 -18q-63 -61 -98.5 -146.5t-35.5 -187.5t35.5 -187.5t98.5 -146.5q8 -8 8 -18q0 -22 -35 -30q-87 68 -133 167
t-46 215zM601 -33q0 10 8 18q63 61 98.5 146.5t35.5 187.5t-35.5 187.5t-98.5 146.5q-8 8 -8 18q0 22 35 30q87 -68 133 -167t46 -215t-46 -215t-133 -167q-35 8 -35 30z" />
    <glyph glyph-name="uni2477" unicode="&#x2477;" horiz-adv-x="840" 
d="M447 89v112h-231q-12 0 -20.5 8.5t-8.5 19.5q0 9 4 14l238 341h78q17 0 26 -9.5t9 -23.5v-305h87q2 -8 2 -19q0 -26 -23 -26h-66v-139h-63q-17 0 -24.5 6t-7.5 21zM25 319q0 116 46 215t133 167q35 -8 35 -30q0 -10 -8 -18q-63 -61 -98.5 -146.5t-35.5 -187.5
t35.5 -187.5t98.5 -146.5q8 -8 8 -18q0 -22 -35 -30q-87 68 -133 167t-46 215zM447 246v260l-167 -260h167zM601 -33q0 10 8 18q63 61 98.5 146.5t35.5 187.5t-35.5 187.5t-98.5 146.5q-8 8 -8 18q0 22 35 30q87 -68 133 -167t46 -215t-46 -215t-133 -167q-35 8 -35 30z" />
    <glyph glyph-name="uni2478" unicode="&#x2478;" horiz-adv-x="840" 
d="M256 87q-2 10 -2 15q0 15 7.5 23t17.5 6q29 -16 56 -25t62 -9q46 0 79.5 32.5t33.5 84.5q0 53 -32 86.5t-89 33.5q-31 0 -87 -8q-35 -5 -32 27l25 224h286q3 -12 3 -20q0 -24 -24 -24h-177l-17 -159q24 4 52 4q83 0 135 -41.5t52 -118.5q0 -81 -58.5 -122.5t-147.5 -41.5
q-43 0 -81 8.5t-62 24.5zM25 319q0 116 46 215t133 167q35 -8 35 -30q0 -10 -8 -18q-63 -61 -98.5 -146.5t-35.5 -187.5t35.5 -187.5t98.5 -146.5q8 -8 8 -18q0 -22 -35 -30q-87 68 -133 167t-46 215zM601 -33q0 10 8 18q63 61 98.5 146.5t35.5 187.5t-35.5 187.5
t-98.5 146.5q-8 8 -8 18q0 22 35 30q87 -68 133 -167t46 -215t-46 -215t-133 -167q-35 8 -35 30z" />
    <glyph glyph-name="uni2479" unicode="&#x2479;" horiz-adv-x="840" 
d="M233 279v78q1 107 58.5 169.5t155.5 62.5q25 0 59 -8t58 -23q2 -10 2 -15q0 -15 -7.5 -23t-17.5 -6q-19 14 -45.5 22.5t-47.5 8.5q-61 0 -90 -43t-29 -140v-5q19 17 47.5 26t60.5 9q73 0 121.5 -40t48.5 -122q0 -86 -45.5 -129.5t-133.5 -43.5q-95 0 -144.5 56t-50.5 166
zM25 319q0 116 46 215t133 167q35 -8 35 -30q0 -10 -8 -18q-63 -61 -98.5 -146.5t-35.5 -187.5t35.5 -187.5t98.5 -146.5q8 -8 8 -18q0 -22 -35 -30q-87 68 -133 167t-46 215zM511 212v19q0 51 -24 83.5t-67 32.5t-67 -30t-24 -80v-25q0 -46 25 -78.5t66 -32.5q47 0 69 31.5
t22 79.5zM601 -33q0 10 8 18q63 61 98.5 146.5t35.5 187.5t-35.5 187.5t-98.5 146.5q-8 8 -8 18q0 22 35 30q87 -68 133 -167t46 -215t-46 -215t-133 -167q-35 8 -35 30z" />
    <glyph glyph-name="uni247A" unicode="&#x247a;" horiz-adv-x="840" 
d="M348 74q0 5 2 13q37 132 69.5 230t74.5 198h-223q-26 0 -26 22q0 6 4 22h349q3 -12 3 -21t-3 -14q-50 -113 -83.5 -217t-75.5 -262h-65q-12 0 -19 8.5t-7 20.5zM25 319q0 116 46 215t133 167q35 -8 35 -30q0 -10 -8 -18q-63 -61 -98.5 -146.5t-35.5 -187.5t35.5 -187.5
t98.5 -146.5q8 -8 8 -18q0 -22 -35 -30q-87 68 -133 167t-46 215zM601 -33q0 10 8 18q63 61 98.5 146.5t35.5 187.5t-35.5 187.5t-98.5 146.5q-8 8 -8 18q0 22 35 30q87 -68 133 -167t46 -215t-46 -215t-133 -167q-35 8 -35 30z" />
    <glyph glyph-name="uni247B" unicode="&#x247b;" horiz-adv-x="840" 
d="M217 201q0 48 32.5 85t76.5 50q-39 18 -64.5 47t-25.5 69q0 64 50.5 100.5t133.5 36.5t133.5 -36.5t50.5 -100.5q0 -40 -25.5 -69t-64.5 -47q44 -13 76.5 -50t32.5 -85q0 -75 -57 -112.5t-146 -37.5t-146 37.5t-57 112.5zM25 319q0 116 46 215t133 167q35 -8 35 -30
q0 -10 -8 -18q-63 -61 -98.5 -146.5t-35.5 -187.5t35.5 -187.5t98.5 -146.5q8 -8 8 -18q0 -22 -35 -30q-87 68 -133 167t-46 215zM527 199q0 40 -28.5 72t-78.5 38q-50 -6 -78.5 -38t-28.5 -72q0 -46 29.5 -75t77.5 -29t77.5 29t29.5 75zM508 455q0 39 -24.5 64.5
t-61.5 25.5q-39 0 -64.5 -25t-25.5 -65q0 -79 88 -101q88 22 88 101zM601 -33q0 10 8 18q63 61 98.5 146.5t35.5 187.5t-35.5 187.5t-98.5 146.5q-8 8 -8 18q0 22 35 30q87 -68 133 -167t46 -215t-46 -215t-133 -167q-35 8 -35 30z" />
    <glyph glyph-name="uni247C" unicode="&#x247c;" horiz-adv-x="840" 
d="M268 88q-2 10 -2 15q0 14 7.5 22t17.5 6q21 -15 49.5 -24t58.5 -9q61 0 90 43t29 140v13q-19 -16 -48.5 -25.5t-61.5 -9.5q-71 0 -119.5 40.5t-48.5 113.5q0 79 51.5 126t135.5 47q91 0 139 -64.5t48 -164.5v-71q0 -107 -58 -169.5t-156 -62.5q-36 0 -72 8.5t-60 25.5z
M25 319q0 116 46 215t133 167q35 -8 35 -30q0 -10 -8 -18q-63 -61 -98.5 -146.5t-35.5 -187.5t35.5 -187.5t98.5 -146.5q8 -8 8 -18q0 -22 -35 -30q-87 68 -133 167t-46 215zM518 414v17q0 47 -23 79t-68 32q-47 0 -69 -31.5t-22 -79.5v-8q0 -52 24 -85.5t67 -33.5t67 30
t24 80zM601 -33q0 10 8 18q63 61 98.5 146.5t35.5 187.5t-35.5 187.5t-98.5 146.5q-8 8 -8 18q0 22 35 30q87 -68 133 -167t46 -215t-46 -215t-133 -167q-35 8 -35 30z" />
    <glyph glyph-name="uni247D" unicode="&#x247d;" horiz-adv-x="840" 
d="M601 -33q0 10 8 18q63 61 98.5 146.5t35.5 187.5t-35.5 187.5t-98.5 146.5q-8 8 -8 18q0 22 35 30q87 -68 133 -167t46 -215t-46 -215t-133 -167q-35 8 -35 30zM25 319q0 116 46 215t133 167q35 -8 35 -30q0 -10 -8 -18q-63 -61 -98.5 -146.5t-35.5 -187.5t35.5 -187.5
t98.5 -146.5q8 -8 8 -18q0 -22 -35 -30q-87 68 -133 167t-46 215zM230 112v380l-63 -64q-12 -4 -21.5 4t-8.5 29l98 95h48q32 0 32 -30v-438h-56q-16 0 -22.5 5t-6.5 19zM359 323q0 120 46 179.5t120 59.5t120 -59.5t46 -179.5t-46 -179.5t-120 -59.5t-120 59.5t-46 179.5z
M605 284v78q0 81 -22 121t-58 40t-58 -40t-22 -121v-78q0 -81 22 -121t58 -40t58 40t22 121z" />
    <glyph glyph-name="uni247E" unicode="&#x247e;" horiz-adv-x="840" 
d="M601 -33q0 10 8 18q63 61 98.5 146.5t35.5 187.5t-35.5 187.5t-98.5 146.5q-8 8 -8 18q0 22 35 30q87 -68 133 -167t46 -215t-46 -215t-133 -167q-35 8 -35 30zM25 319q0 116 46 215t133 167q35 -8 35 -30q0 -10 -8 -18q-63 -61 -98.5 -146.5t-35.5 -187.5t35.5 -187.5
t98.5 -146.5q8 -8 8 -18q0 -22 -35 -30q-87 68 -133 167t-46 215zM267 112v385l-79 -69q-12 -4 -21.5 4t-8.5 29l114 95h48q32 0 32 -30v-438h-56q-16 0 -22.5 5t-6.5 19zM527 112v380l-59 -64q-12 -4 -21.5 4t-8.5 29l94 95h48q32 0 32 -30v-438h-56q-16 0 -22.5 5t-6.5 19
z" />
    <glyph glyph-name="uni247F" unicode="&#x247f;" horiz-adv-x="840" 
d="M601 -33q0 10 8 18q63 61 98.5 146.5t35.5 187.5t-35.5 187.5t-98.5 146.5q-8 8 -8 18q0 22 35 30q87 -68 133 -167t46 -215t-46 -215t-133 -167q-35 8 -35 30zM25 319q0 116 46 215t133 167q35 -8 35 -30q0 -10 -8 -18q-63 -61 -98.5 -146.5t-35.5 -187.5t35.5 -187.5
t98.5 -146.5q8 -8 8 -18q0 -22 -35 -30q-87 68 -133 167t-46 215zM242 112v380l-69 -64q-12 -4 -21.5 4t-8.5 29l104 95h48q32 0 32 -30v-438h-56q-16 0 -22.5 5t-6.5 19zM377 121q0 4 4 12l126 180q59 85 59 127q0 38 -19 61t-59 25q-29 1 -73 -25q-10 -6 -18.5 4t-7.5 32
q25 16 53.5 22.5t51.5 6.5q74 0 116.5 -36t42.5 -96q0 -35 -15 -68.5t-42 -70.5l-115 -160h175q3 -12 3 -19q0 -21 -21 -21h-235q-11 0 -18.5 8t-7.5 18z" />
    <glyph glyph-name="uni2480" unicode="&#x2480;" horiz-adv-x="840" 
d="M601 -33q0 10 8 18q63 61 98.5 146.5t35.5 187.5t-35.5 187.5t-98.5 146.5q-8 8 -8 18q0 22 35 30q87 -68 133 -167t46 -215t-46 -215t-133 -167q-35 8 -35 30zM25 319q0 116 46 215t133 167q35 -8 35 -30q0 -10 -8 -18q-63 -61 -98.5 -146.5t-35.5 -187.5t35.5 -187.5
t98.5 -146.5q8 -8 8 -18q0 -22 -35 -30q-87 68 -133 167t-46 215zM242 112v380l-69 -64q-12 -4 -21.5 4t-8.5 29l104 95h48q32 0 32 -30v-438h-56q-16 0 -22.5 5t-6.5 19zM366 114q-2 10 -2 13q0 13 7 20.5t16 5.5q29 -15 51 -22.5t50 -7.5q45 0 72.5 26t27.5 68
q0 47 -25.5 74t-88.5 28l-39 -1q-23 -1 -23 16q0 7 3 17l53 5q51 4 72.5 27.5t21.5 62.5q0 34 -22 55.5t-60 21.5q-17 0 -36 -6.5t-35 -16.5q-11 -4 -18.5 5.5t-6.5 30.5q22 13 52.5 19.5t54.5 6.5q72 0 115 -34t43 -85q0 -68 -67 -99q43 -12 68 -42.5t25 -80.5
q0 -68 -50.5 -102.5t-134.5 -34.5q-35 0 -68 7.5t-56 22.5z" />
    <glyph glyph-name="uni2481" unicode="&#x2481;" horiz-adv-x="840" 
d="M547 112v101h-178q-10 0 -17.5 8t-7.5 18q0 6 3 12l184 307h70q16 0 24 -8.5t8 -21.5v-274h63q2 -14 2 -18q0 -23 -21 -23h-44v-125h-57q-15 0 -22 5.5t-7 18.5zM25 319q0 116 46 215t133 167q35 -8 35 -30q0 -10 -8 -18q-63 -61 -98.5 -146.5t-35.5 -187.5t35.5 -187.5
t98.5 -146.5q8 -8 8 -18q0 -22 -35 -30q-87 68 -133 167t-46 215zM236 112v380l-69 -64q-12 -4 -21.5 4t-8.5 29l104 95h48q32 0 32 -30v-438h-56q-16 0 -22.5 5t-6.5 19zM547 254v234l-120 -234h120zM601 -33q0 10 8 18q63 61 98.5 146.5t35.5 187.5t-35.5 187.5
t-98.5 146.5q-8 8 -8 18q0 22 35 30q87 -68 133 -167t46 -215t-46 -215t-133 -167q-35 8 -35 30z" />
    <glyph glyph-name="uni2482" unicode="&#x2482;" horiz-adv-x="840" 
d="M601 -33q0 10 8 18q63 61 98.5 146.5t35.5 187.5t-35.5 187.5t-98.5 146.5q-8 8 -8 18q0 22 35 30q87 -68 133 -167t46 -215t-46 -215t-133 -167q-35 8 -35 30zM25 319q0 116 46 215t133 167q35 -8 35 -30q0 -10 -8 -18q-63 -61 -98.5 -146.5t-35.5 -187.5t35.5 -187.5
t98.5 -146.5q8 -8 8 -18q0 -22 -35 -30q-87 68 -133 167t-46 215zM242 112v380l-69 -64q-12 -4 -21.5 4t-8.5 29l104 95h48q32 0 32 -30v-438h-56q-16 0 -22.5 5t-6.5 19zM369 110q-2 10 -2 13q0 14 7 21t16 5q28 -15 47.5 -22.5t43.5 -7.5q38 0 67 29.5t29 75.5
q0 51 -28 81.5t-77 26.5q-51 -5 -66 -7l-8 -1q-24 0 -21 25l22 202h231q2 -14 2 -18q0 -13 -5.5 -17.5t-15.5 -4.5h-132l-16 -143q23 4 47 4q67 0 109.5 -37.5t42.5 -106.5q0 -73 -51.5 -110.5t-127.5 -37.5q-31 0 -62 8t-52 22z" />
    <glyph glyph-name="uni249C" unicode="&#x249c;" horiz-adv-x="840" 
d="M398 464q-56 0 -109 -33q-10 -2 -17.5 6t-7.5 23q0 10 2 16q23 15 60.5 24t73.5 9q99 0 143.5 -38.5t44.5 -123.5v-123v-7v-73h-64q-18 0 -25.5 5.5t-7.5 21.5v7q-12 -11 -23 -19q-34 -22 -90 -22q-58 0 -100 24.5t-42 87.5q0 65 54 96t132 31h68q-2 38 -19 61
q-20 27 -73 27zM25 319q0 116 46 215t133 167q35 -8 35 -30q0 -10 -8 -18q-63 -61 -98.5 -146.5t-35.5 -187.5t35.5 -187.5t98.5 -146.5q8 -8 8 -18q0 -22 -35 -30q-87 68 -133 167t-46 215zM601 -33q0 10 8 18q63 61 98.5 146.5t35.5 187.5t-35.5 187.5t-98.5 146.5
q-8 8 -8 18q0 22 35 30q87 -68 133 -167t46 -215t-46 -215t-133 -167q-35 8 -35 30zM360 310q-27 -23 -27 -61q0 -35 18 -51t42 -16q38 0 68 32q23 25 30 54v65h-57q-47 0 -74 -23z" />
    <glyph glyph-name="uni249D" unicode="&#x249d;" horiz-adv-x="840" 
d="M254 84v461q0 12 -3.5 24t-7.5 19h64q29 0 36.5 -10.5t7.5 -29.5v-172q42 42 108 42q75 0 123.5 -43t48.5 -125v-26q0 -90 -49 -132t-126 -42q-50 0 -88 23q-9 5 -17 12v-28h-64q-18 0 -25.5 5.5t-7.5 21.5zM25 319q0 116 46 215t133 167q35 -8 35 -30q0 -10 -8 -18
q-63 -61 -98.5 -146.5t-35.5 -187.5t35.5 -187.5t98.5 -146.5q8 -8 8 -18q0 -22 -35 -30q-87 68 -133 167t-46 215zM601 -33q0 10 8 18q63 61 98.5 146.5t35.5 187.5t-35.5 187.5t-98.5 146.5q-8 8 -8 18q0 22 35 30q87 -68 133 -167t46 -215t-46 -215t-133 -167
q-35 8 -35 30zM534 216v46q0 56 -24 83.5t-61 27.5q-45 0 -72 -41q-18 -27 -26 -64v-82q7 -35 23 -57q24 -34 74 -34q40 0 63 30.5t23 90.5z" />
    <glyph glyph-name="uni249E" unicode="&#x249e;" horiz-adv-x="840" 
d="M601 -33q0 10 8 18q63 61 98.5 146.5t35.5 187.5t-35.5 187.5t-98.5 146.5q-8 8 -8 18q0 22 35 30q87 -68 133 -167t46 -215t-46 -215t-133 -167q-35 8 -35 30zM25 319q0 116 46 215t133 167q35 -8 35 -30q0 -10 -8 -18q-63 -61 -98.5 -146.5t-35.5 -187.5t35.5 -187.5
t98.5 -146.5q8 -8 8 -18q0 -22 -35 -30q-87 68 -133 167t-46 215zM238 321q0 92 52.5 138.5t139.5 46.5q79 0 130 -45q-3 -20 -10.5 -29t-17.5 -9q-4 0 -8 2q-24 20 -45 28t-45 8q-46 0 -73 -31t-27 -89v-30q0 -64 26 -96t74 -32q30 0 55.5 11.5t48.5 37.5q2 2 9 2
q10 0 19 -9t12 -28q-26 -29 -63 -44t-81 -15q-94 0 -145 45.5t-51 137.5z" />
    <glyph glyph-name="uni249F" unicode="&#x249f;" horiz-adv-x="840" 
d="M499 84v8q-43 -42 -110 -42q-74 0 -123.5 38t-49.5 126v27q0 90 48.5 133.5t125.5 43.5q50 0 89 -23q11 -6 20 -13v163q0 12 -3.5 24t-7.5 19h64q29 0 36.5 -10.5t7.5 -29.5v-491h-64q-18 0 -25.5 5.5t-7.5 21.5zM25 319q0 116 46 215t133 167q35 -8 35 -30q0 -10 -8 -18
q-63 -61 -98.5 -146.5t-35.5 -187.5t35.5 -187.5t98.5 -146.5q8 -8 8 -18q0 -22 -35 -30q-87 68 -133 167t-46 215zM601 -33q0 10 8 18q63 61 98.5 146.5t35.5 187.5t-35.5 187.5t-98.5 146.5q-8 8 -8 18q0 22 35 30q87 -68 133 -167t46 -215t-46 -215t-133 -167
q-35 8 -35 30zM398 373q-39 0 -62.5 -31.5t-23.5 -88.5v-51q0 -55 24.5 -81t60.5 -26q48 0 75 40q19 28 27 66v79q-19 93 -101 93z" />
    <glyph glyph-name="uni24A0" unicode="&#x24a0;" horiz-adv-x="840" 
d="M601 -33q0 10 8 18q63 61 98.5 146.5t35.5 187.5t-35.5 187.5t-98.5 146.5q-8 8 -8 18q0 22 35 30q87 -68 133 -167t46 -215t-46 -215t-133 -167q-35 8 -35 30zM25 319q0 116 46 215t133 167q35 -8 35 -30q0 -10 -8 -18q-63 -61 -98.5 -146.5t-35.5 -187.5t35.5 -187.5
t98.5 -146.5q8 -8 8 -18q0 -22 -35 -30q-87 68 -133 167t-46 215zM241 320q0 92 49 138.5t131 46.5q72 0 126 -42t54 -137q0 -19 -9.5 -27t-23.5 -8h-230q4 -54 29 -81.5t67 -27.5q66 0 110 49q2 2 9 2q10 0 19 -9t12 -28q-24 -28 -64.5 -43.5t-86.5 -15.5q-91 0 -141.5 46
t-50.5 137zM422 460q-40 0 -62.5 -33t-22.5 -87v-3h167q0 57 -21.5 90t-60.5 33z" />
    <glyph glyph-name="uni24A1" unicode="&#x24a1;" horiz-adv-x="840" 
d="M320 87v266h-56q-26 0 -26 23q0 5 4 23h78v47q0 72 37.5 110.5t106.5 38.5q35 0 62.5 -7.5t53.5 -24.5q2 -6 2 -16q0 -15 -7.5 -23t-17.5 -6q-24 17 -41 24.5t-41 7.5q-32 0 -45 -26t-13 -86v-39h144q2 -8 2 -20q0 -26 -23 -26h-123v-306h-53q-29 0 -36.5 10.5t-7.5 29.5
zM25 319q0 116 46 215t133 167q35 -8 35 -30q0 -10 -8 -18q-63 -61 -98.5 -146.5t-35.5 -187.5t35.5 -187.5t98.5 -146.5q8 -8 8 -18q0 -22 -35 -30q-87 68 -133 167t-46 215zM601 -33q0 10 8 18q63 61 98.5 146.5t35.5 187.5t-35.5 187.5t-98.5 146.5q-8 8 -8 18
q0 22 35 30q87 -68 133 -167t46 -215t-46 -215t-133 -167q-35 8 -35 30z" />
    <glyph glyph-name="uni24A2" unicode="&#x24a2;" horiz-adv-x="840" 
d="M226 357v22q0 88 49 131.5t125 43.5q50 0 89 -23q11 -6 20 -13v28h53q29 0 36.5 -10.5t7.5 -29.5v-255q0 -86 -54.5 -136.5t-155.5 -50.5q-37 0 -74 9t-62 26q-2 10 -2 15q0 15 7.5 23t17.5 6q22 -15 51 -24.5t60 -9.5q65 0 90 28.5t25 95.5v4q-44 -41 -110 -41
q-74 0 -123.5 37.5t-49.5 123.5zM25 319q0 116 46 215t133 167q35 -8 35 -30q0 -10 -8 -18q-63 -61 -98.5 -146.5t-35.5 -187.5t35.5 -187.5t98.5 -146.5q8 -8 8 -18q0 -22 -35 -30q-87 68 -133 167t-46 215zM601 -33q0 10 8 18q63 61 98.5 146.5t35.5 187.5t-35.5 187.5
t-98.5 146.5q-8 8 -8 18q0 22 35 30q87 -68 133 -167t46 -215t-46 -215t-133 -167q-35 8 -35 30zM484 474q-26 35 -76 35q-39 0 -62.5 -31t-23.5 -87v-46q0 -53 24.5 -78.5t60.5 -25.5q48 0 75 38q19 26 27 63v73q-8 35 -25 59z" />
    <glyph glyph-name="uni24A3" unicode="&#x24a3;" horiz-adv-x="840" 
d="M447 418q73 0 116 -35t43 -123v-204h-64q-17 0 -25 6t-8 22v188q0 54 -19.5 77.5t-50.5 23.5q-48 0 -74.5 -45.5t-26.5 -118.5v-153h-64q-17 0 -25 6t-8 22v461q0 13 -3 25t-8 18h65q28 0 35.5 -10.5t7.5 -29.5v-175q43 45 109 45zM25 319q0 116 46 215t133 167
q35 -8 35 -30q0 -10 -8 -18q-63 -61 -98.5 -146.5t-35.5 -187.5t35.5 -187.5t98.5 -146.5q8 -8 8 -18q0 -22 -35 -30q-87 68 -133 167t-46 215zM601 -33q0 10 8 18q63 61 98.5 146.5t35.5 187.5t-35.5 187.5t-98.5 146.5q-8 8 -8 18q0 22 35 30q87 -68 133 -167t46 -215
t-46 -215t-133 -167q-35 8 -35 30z" />
    <glyph glyph-name="uni24A4" unicode="&#x24a4;" horiz-adv-x="840" 
d="M601 -33q0 10 8 18q63 61 98.5 146.5t35.5 187.5t-35.5 187.5t-98.5 146.5q-8 8 -8 18q0 22 35 30q87 -68 133 -167t46 -215t-46 -215t-133 -167q-35 8 -35 30zM25 319q0 116 46 215t133 167q35 -8 35 -30q0 -10 -8 -18q-63 -61 -98.5 -146.5t-35.5 -187.5t35.5 -187.5
t98.5 -146.5q8 -8 8 -18q0 -22 -35 -30q-87 68 -133 167t-46 215zM375 90v284q0 12 -3 24t-8 18h65q28 0 35.5 -10.5t7.5 -29.5v-314h-64q-18 0 -25.5 6t-7.5 22zM362 536q0 23 17 40.5t41 17.5q23 0 40 -17.5t17 -40.5t-17 -39.5t-40 -16.5q-24 0 -41 16.5t-17 39.5z" />
    <glyph glyph-name="uni24A5" unicode="&#x24a5;" horiz-adv-x="840" 
d="M601 -33q0 10 8 18q63 61 98.5 146.5t35.5 187.5t-35.5 187.5t-98.5 146.5q-8 8 -8 18q0 22 35 30q87 -68 133 -167t46 -215t-46 -215t-133 -167q-35 8 -35 30zM25 319q0 116 46 215t133 167q35 -8 35 -30q0 -10 -8 -18q-63 -61 -98.5 -146.5t-35.5 -187.5t35.5 -187.5
t98.5 -146.5q8 -8 8 -18q0 -22 -35 -30q-87 68 -133 167t-46 215zM275 49q-2 10 -2 15q0 15 7.5 23t17.5 6q28 -22 53 -22q26 0 37.5 21t11.5 69v260q0 12 -3.5 23.5t-7.5 18.5h64q29 0 36.5 -10.5t7.5 -29.5v-264q0 -65 -34.5 -99t-97.5 -34q-23 0 -45 4t-45 19zM387 563
q0 23 17 40.5t41 17.5q23 0 39.5 -17.5t16.5 -40.5q0 -22 -16.5 -39t-39.5 -17q-24 0 -41 17t-17 39z" />
    <glyph glyph-name="uni24A6" unicode="&#x24a6;" horiz-adv-x="840" 
d="M570 409h50l-177 -154h34q22 0 35.5 -9t22.5 -27l71 -133q4 -9 12 -18t14 -13h-76q-39 0 -56 33l-72 132q-5 8 -9 14l-67 -59v-120h-64q-18 0 -25.5 6t-7.5 22v461q0 12 -3.5 24t-7.5 19h64q29 0 36.5 -10.5t7.5 -29.5v-306l165 147q12 11 24 16t29 5zM25 319
q0 116 46 215t133 167q35 -8 35 -30q0 -10 -8 -18q-63 -61 -98.5 -146.5t-35.5 -187.5t35.5 -187.5t98.5 -146.5q8 -8 8 -18q0 -22 -35 -30q-87 68 -133 167t-46 215zM601 -33q0 10 8 18q63 61 98.5 146.5t35.5 187.5t-35.5 187.5t-98.5 146.5q-8 8 -8 18q0 22 35 30
q87 -68 133 -167t46 -215t-46 -215t-133 -167q-35 8 -35 30z" />
    <glyph glyph-name="uni24A7" unicode="&#x24a7;" horiz-adv-x="840" 
d="M601 -33q0 10 8 18q63 61 98.5 146.5t35.5 187.5t-35.5 187.5t-98.5 146.5q-8 8 -8 18q0 22 35 30q87 -68 133 -167t46 -215t-46 -215t-133 -167q-35 8 -35 30zM25 319q0 116 46 215t133 167q35 -8 35 -30q0 -10 -8 -18q-63 -61 -98.5 -146.5t-35.5 -187.5t35.5 -187.5
t98.5 -146.5q8 -8 8 -18q0 -22 -35 -30q-87 68 -133 167t-46 215zM363 585h65q28 0 35.5 -10.5t7.5 -29.5v-456q0 -10 3.5 -21t8.5 -15h-42q-67 0 -67 69v420q0 13 -3 25t-8 18z" />
    <glyph glyph-name="uni24A8" unicode="&#x24a8;" horiz-adv-x="840" 
d="M133 498h63q29 0 36 -11q4 -5 6 -14q33 33 81 33q87 0 123 -55q38 55 105 55q148 0 148 -159v-203h-63q-17 0 -24.5 6t-7.5 21v188q0 55 -16 78.5t-41 23.5q-37 0 -56.5 -38.5t-19.5 -109.5v-169h-63q-17 0 -24.5 6t-7.5 21v188q0 55 -16 78.5t-41 23.5q-36 0 -56 -39
q-17 -34 -19 -95v-183h-63q-17 0 -25 6t-8 21v284q0 13 -3 25t-8 18zM25 319q0 116 46 215t133 167q35 -8 35 -30q0 -10 -8 -18q-63 -61 -98.5 -146.5t-35.5 -187.5t35.5 -187.5t98.5 -146.5q8 -8 8 -18q0 -22 -35 -30q-87 68 -133 167t-46 215zM601 -33q0 10 8 18
q63 61 98.5 146.5t35.5 187.5t-35.5 187.5t-98.5 146.5q-8 8 -8 18q0 22 35 30q87 -68 133 -167t46 -215t-46 -215t-133 -167q-35 8 -35 30z" />
    <glyph glyph-name="uni24A9" unicode="&#x24a9;" horiz-adv-x="840" 
d="M230 498h65q28 0 35 -11q7 -9 8 -26q43 45 109 45q73 0 116 -35t43 -124v-203h-64q-17 0 -25 6t-8 21v188q0 55 -19.5 78.5t-50.5 23.5q-48 0 -75 -46q-24 -42 -26 -107v-164h-64q-17 0 -25 6t-8 21v284q0 13 -3 25t-8 18zM25 319q0 116 46 215t133 167q35 -8 35 -30
q0 -10 -8 -18q-63 -61 -98.5 -146.5t-35.5 -187.5t35.5 -187.5t98.5 -146.5q8 -8 8 -18q0 -22 -35 -30q-87 68 -133 167t-46 215zM601 -33q0 10 8 18q63 61 98.5 146.5t35.5 187.5t-35.5 187.5t-98.5 146.5q-8 8 -8 18q0 22 35 30q87 -68 133 -167t46 -215t-46 -215
t-133 -167q-35 8 -35 30z" />
    <glyph glyph-name="uni24AA" unicode="&#x24aa;" horiz-adv-x="840" 
d="M601 -33q0 10 8 18q63 61 98.5 146.5t35.5 187.5t-35.5 187.5t-98.5 146.5q-8 8 -8 18q0 22 35 30q87 -68 133 -167t46 -215t-46 -215t-133 -167q-35 8 -35 30zM25 319q0 116 46 215t133 167q35 -8 35 -30q0 -10 -8 -18q-63 -61 -98.5 -146.5t-35.5 -187.5t35.5 -187.5
t98.5 -146.5q8 -8 8 -18q0 -22 -35 -30q-87 68 -133 167t-46 215zM236 323q0 91 51 137.5t137 46.5t137 -46.5t51 -137.5t-51 -137.5t-137 -46.5t-137 46.5t-51 137.5zM515 302v42q0 49 -23 83.5t-68 34.5t-68 -34.5t-23 -83.5v-42q0 -49 23 -83.5t68 -34.5t68 34.5t23 83.5
z" />
    <glyph glyph-name="uni24AB" unicode="&#x24ab;" horiz-adv-x="840" 
d="M244 546h64q29 0 36 -11q7 -9 8 -23q42 42 108 42q75 0 123.5 -43t48.5 -125v-27q0 -89 -49 -131t-126 -42q-50 0 -88 22q-9 6 -17 12v-148h-64q-18 0 -25.5 6t-7.5 21v404q0 12 -3.5 24t-7.5 19zM25 319q0 116 46 215t133 167q35 -8 35 -30q0 -10 -8 -18
q-63 -61 -98.5 -146.5t-35.5 -187.5t35.5 -187.5t98.5 -146.5q8 -8 8 -18q0 -22 -35 -30q-87 68 -133 167t-46 215zM601 -33q0 10 8 18q63 61 98.5 146.5t35.5 187.5t-35.5 187.5t-98.5 146.5q-8 8 -8 18q0 22 35 30q87 -68 133 -167t46 -215t-46 -215t-133 -167
q-35 8 -35 30zM450 509q-45 0 -72 -41q-19 -28 -26 -66v-80q7 -35 23 -57q24 -34 74 -34q40 0 63 30t23 90v47q0 55 -24 83t-61 28z" />
    <glyph glyph-name="uni24AC" unicode="&#x24ac;" horiz-adv-x="840" 
d="M591 507v-434h-64q-18 0 -25.5 6t-7.5 21v129q-44 -42 -110 -42q-74 0 -123.5 38t-49.5 126v26q0 90 49 134t125 44q50 0 89 -23q11 -6 20 -14v29h53q29 0 36.5 -10.5t7.5 -29.5zM25 319q0 116 46 215t133 167q35 -8 35 -30q0 -10 -8 -18q-63 -61 -98.5 -146.5
t-35.5 -187.5t35.5 -187.5t98.5 -146.5q8 -8 8 -18q0 -22 -35 -30q-87 68 -133 167t-46 215zM601 -33q0 10 8 18q63 61 98.5 146.5t35.5 187.5t-35.5 187.5t-98.5 146.5q-8 8 -8 18q0 22 35 30q87 -68 133 -167t46 -215t-46 -215t-133 -167q-35 8 -35 30zM392 232
q48 0 75 40q19 28 27 66v77q-19 95 -101 95q-39 0 -62.5 -31.5t-23.5 -89.5v-50q0 -55 24.5 -81t60.5 -26z" />
    <glyph glyph-name="uni24AD" unicode="&#x24ad;" horiz-adv-x="840" 
d="M25 319q0 116 46 215t133 167q35 -8 35 -30q0 -10 -8 -18q-63 -61 -98.5 -146.5t-35.5 -187.5t35.5 -187.5t98.5 -146.5q8 -8 8 -18q0 -22 -35 -30q-87 68 -133 167t-46 215zM601 -33q0 10 8 18q63 61 98.5 146.5t35.5 187.5t-35.5 187.5t-98.5 146.5q-8 8 -8 18
q0 22 35 30q87 -68 133 -167t46 -215t-46 -215t-133 -167q-35 8 -35 30zM307 488h65q28 0 35.5 -10.5t7.5 -29.5v-6l6 8q36 45 96 45q45 0 76 -10q2 -10 2 -15q0 -14 -8 -23t-18 -7q-20 10 -59 10q-41 0 -68 -44q-25 -40 -27 -89v-183h-64q-17 0 -25 6t-8 21v284q0 13 -3 25
t-8 18z" />
    <glyph glyph-name="uni24AE" unicode="&#x24ae;" horiz-adv-x="840" 
d="M601 -33q0 10 8 18q63 61 98.5 146.5t35.5 187.5t-35.5 187.5t-98.5 146.5q-8 8 -8 18q0 22 35 30q87 -68 133 -167t46 -215t-46 -215t-133 -167q-35 8 -35 30zM25 319q0 116 46 215t133 167q35 -8 35 -30q0 -10 -8 -18q-63 -61 -98.5 -146.5t-35.5 -187.5t35.5 -187.5
t98.5 -146.5q8 -8 8 -18q0 -22 -35 -30q-87 68 -133 167t-46 215zM276 181q0 -10 1 -15q21 -13 59 -20t70 -7q81 0 129.5 28t48.5 81q0 44 -30 70.5t-84 44.5q-53 18 -72.5 29.5t-19.5 31.5q0 18 16 30t54 12q43 0 81 -25q14 -2 22 9t7 35q-47 25 -111 25
q-77 0 -121.5 -26.5t-44.5 -75.5q0 -42 28.5 -66.5t85.5 -42.5q48 -15 70 -30t22 -37q0 -23 -19 -36.5t-55 -13.5q-27 0 -57 9.5t-55 25.5q-11 1 -18 -9t-7 -27z" />
    <glyph glyph-name="uni24AF" unicode="&#x24af;" horiz-adv-x="840" 
d="M247 402q0 5 4 23h82v112q0 12 -3.5 24t-7.5 19h65q28 0 35.5 -10.5t7.5 -29.5v-115h140q2 -8 2 -20q0 -26 -24 -26h-118v-171q0 -55 13.5 -76t43.5 -21q23 0 41.5 7.5t41.5 24.5q10 2 17.5 -6t7.5 -24q0 -3 -2 -15q-26 -17 -53.5 -24.5t-63.5 -7.5q-69 0 -106 35
t-37 106v172h-60q-26 0 -26 23zM25 319q0 116 46 215t133 167q35 -8 35 -30q0 -10 -8 -18q-63 -61 -98.5 -146.5t-35.5 -187.5t35.5 -187.5t98.5 -146.5q8 -8 8 -18q0 -22 -35 -30q-87 68 -133 167t-46 215zM601 -33q0 10 8 18q63 61 98.5 146.5t35.5 187.5t-35.5 187.5
t-98.5 146.5q-8 8 -8 18q0 22 35 30q87 -68 133 -167t46 -215t-46 -215t-133 -167q-35 8 -35 30z" />
    <glyph glyph-name="uni24B0" unicode="&#x24b0;" horiz-adv-x="840" 
d="M232 492h65q28 0 35.5 -10.5t7.5 -29.5v-178q0 -54 17.5 -75.5t48.5 -21.5q48 0 76.5 44.5t28.5 115.5v113q0 12 -3 24t-8 18h65q28 0 35.5 -10.5t7.5 -29.5v-314h-64q-17 0 -25 6t-8 22v13q-46 -47 -113 -47q-73 0 -114 33t-41 121v164q0 12 -3 24t-8 18zM25 319
q0 116 46 215t133 167q35 -8 35 -30q0 -10 -8 -18q-63 -61 -98.5 -146.5t-35.5 -187.5t35.5 -187.5t98.5 -146.5q8 -8 8 -18q0 -22 -35 -30q-87 68 -133 167t-46 215zM601 -33q0 10 8 18q63 61 98.5 146.5t35.5 187.5t-35.5 187.5t-98.5 146.5q-8 8 -8 18q0 22 35 30
q87 -68 133 -167t46 -215t-46 -215t-133 -167q-35 8 -35 30z" />
    <glyph glyph-name="uni24B1" unicode="&#x24b1;" horiz-adv-x="840" 
d="M601 -33q0 10 8 18q63 61 98.5 146.5t35.5 187.5t-35.5 187.5t-98.5 146.5q-8 8 -8 18q0 22 35 30q87 -68 133 -167t46 -215t-46 -215t-133 -167q-35 8 -35 30zM25 319q0 116 46 215t133 167q35 -8 35 -30q0 -10 -8 -18q-63 -61 -98.5 -146.5t-35.5 -187.5t35.5 -187.5
t98.5 -146.5q8 -8 8 -18q0 -22 -35 -30q-87 68 -133 167t-46 215zM471 138h-54q-36 0 -50 35l-119 286q-11 27 -21 33h74q39 0 53 -41l94 -245l105 260q5 14 12.5 20t23.5 6h30z" />
    <glyph glyph-name="uni24B2" unicode="&#x24b2;" horiz-adv-x="840" 
d="M591 138h-66q-21 0 -33.5 9.5t-16.5 25.5l-49 194l-61 -229h-67q-20 0 -32.5 9.5t-16.5 25.5l-76 287q-2 9 -8.5 19t-12.5 14h71q24 0 36 -10t17 -31l54 -243l70 260q-6 18 -15 24h67q24 0 35 -8.5t15 -28.5l55 -247l69 260q5 13 14 18.5t27 5.5h21zM25 319q0 116 46 215
t133 167q35 -8 35 -30q0 -10 -8 -18q-63 -61 -98.5 -146.5t-35.5 -187.5t35.5 -187.5t98.5 -146.5q8 -8 8 -18q0 -22 -35 -30q-87 68 -133 167t-46 215zM601 -33q0 10 8 18q63 61 98.5 146.5t35.5 187.5t-35.5 187.5t-98.5 146.5q-8 8 -8 18q0 22 35 30q87 -68 133 -167
t46 -215t-46 -215t-133 -167q-35 8 -35 30z" />
    <glyph glyph-name="uni24B3" unicode="&#x24b3;" horiz-adv-x="840" 
d="M477 331l127 -171q13 -19 21 -22h-90q-18 0 -28.5 7.5t-18.5 19.5l-71 107l-99 -117q-7 -9 -14 -13t-20 -4h-50l152 176l-118 155q-18 19 -25 23h89q23 0 33 -7t19 -20l63 -89l85 98q7 9 14 13.5t19 4.5h51zM25 319q0 116 46 215t133 167q35 -8 35 -30q0 -10 -8 -18
q-63 -61 -98.5 -146.5t-35.5 -187.5t35.5 -187.5t98.5 -146.5q8 -8 8 -18q0 -22 -35 -30q-87 68 -133 167t-46 215zM601 -33q0 10 8 18q63 61 98.5 146.5t35.5 187.5t-35.5 187.5t-98.5 146.5q-8 8 -8 18q0 22 35 30q87 -68 133 -167t46 -215t-46 -215t-133 -167
q-35 8 -35 30z" />
    <glyph glyph-name="uni24B4" unicode="&#x24b4;" horiz-adv-x="840" 
d="M601 -33q0 10 8 18q63 61 98.5 146.5t35.5 187.5t-35.5 187.5t-98.5 146.5q-8 8 -8 18q0 22 35 30q87 -68 133 -167t46 -215t-46 -215t-133 -167q-35 8 -35 30zM25 319q0 116 46 215t133 167q35 -8 35 -30q0 -10 -8 -18q-63 -61 -98.5 -146.5t-35.5 -187.5t35.5 -187.5
t98.5 -146.5q8 -8 8 -18q0 -22 -35 -30q-87 68 -133 167t-46 215zM428 186q-31 0 -50 41l-125 276q-1 2 -7.5 15.5t-13.5 17.5h74q36 0 53 -41l102 -235l97 250q5 14 12.5 20t23.5 6h30l-146 -360q-29 -72 -55.5 -96.5t-66.5 -24.5q-41 0 -74 22q-2 6 -2 16q0 15 7.5 23
t17.5 6q28 -22 50 -22t38 19.5t35 66.5z" />
    <glyph glyph-name="uni24B5" unicode="&#x24b5;" horiz-adv-x="840" 
d="M601 -33q0 10 8 18q63 61 98.5 146.5t35.5 187.5t-35.5 187.5t-98.5 146.5q-8 8 -8 18q0 22 35 30q87 -68 133 -167t46 -215t-46 -215t-133 -167q-35 8 -35 30zM25 319q0 116 46 215t133 167q35 -8 35 -30q0 -10 -8 -18q-63 -61 -98.5 -146.5t-35.5 -187.5t35.5 -187.5
t98.5 -146.5q8 -8 8 -18q0 -22 -35 -30q-87 68 -133 167t-46 215zM269 476q0 4 4 22h309q3 -13 3 -24q0 -8 -3 -13l-206 -268h219q2 -8 2 -19q0 -26 -23 -26h-287q-12 0 -20.5 9t-8.5 20q0 9 4 14l203 262h-170q-26 0 -26 23z" />
    <glyph glyph-name="uni24D0" unicode="&#x24d0;" horiz-adv-x="840" 
d="M25 319q0 108 52 196.5t142.5 139t200.5 50.5t200.5 -50.5t142.5 -139t52 -196.5t-52 -196.5t-142.5 -139t-200.5 -50.5t-200.5 50.5t-142.5 139t-52 196.5zM753 319q0 92 -43.5 167t-119.5 118.5t-170 43.5t-170 -43.5t-119.5 -118.5t-43.5 -167t43.5 -167t119.5 -118.5
t170 -43.5t170 43.5t119.5 118.5t43.5 167zM400 464q-56 0 -109 -33q-10 -2 -17.5 6t-7.5 23q0 10 2 16q23 15 60.5 24t73.5 9q99 0 143.5 -38.5t44.5 -123.5v-203h-64q-18 0 -25.5 5.5t-7.5 21.5v7q-12 -11 -23 -19q-34 -22 -90 -22q-58 0 -100 24.5t-42 87.5q0 65 54 96
t132 31h68q-2 38 -19 61q-20 27 -73 27zM362 310q-27 -23 -27 -61q0 -35 18 -51t42 -16q38 0 68 32q23 25 30 54v65h-57q-47 0 -74 -23z" />
    <glyph glyph-name="uni24D1" unicode="&#x24d1;" horiz-adv-x="840" 
d="M25 319q0 108 52 196.5t142.5 139t200.5 50.5t200.5 -50.5t142.5 -139t52 -196.5t-52 -196.5t-142.5 -139t-200.5 -50.5t-200.5 50.5t-142.5 139t-52 196.5zM753 319q0 92 -43.5 167t-119.5 118.5t-170 43.5t-170 -43.5t-119.5 -118.5t-43.5 -167t43.5 -167t119.5 -118.5
t170 -43.5t170 43.5t119.5 118.5t43.5 167zM256 84v461q0 12 -3.5 24t-7.5 19h64q29 0 36.5 -10.5t7.5 -29.5v-172q42 42 108 42q75 0 123.5 -43t48.5 -125v-26q0 -90 -49 -132t-126 -42q-50 0 -88 23q-9 5 -17 12v-28h-64q-18 0 -25.5 5.5t-7.5 21.5zM536 216v46
q0 56 -24 83.5t-61 27.5q-45 0 -72 -41q-19 -27 -26 -65v-81q7 -35 23 -57q24 -34 74 -34q40 0 63 30.5t23 90.5z" />
    <glyph glyph-name="uni24D2" unicode="&#x24d2;" horiz-adv-x="840" 
d="M25 319q0 108 52 196.5t142.5 139t200.5 50.5t200.5 -50.5t142.5 -139t52 -196.5t-52 -196.5t-142.5 -139t-200.5 -50.5t-200.5 50.5t-142.5 139t-52 196.5zM238 321q0 92 52.5 138.5t139.5 46.5q79 0 130 -45q-3 -20 -10.5 -29t-17.5 -9q-4 0 -8 2q-24 20 -45 28t-45 8
q-46 0 -73 -31t-27 -89v-30q0 -64 26 -96t74 -32q30 0 55.5 11.5t48.5 37.5q2 2 9 2q10 0 19 -9t12 -28q-26 -29 -63 -44t-81 -15q-94 0 -145 45.5t-51 137.5zM753 319q0 92 -43.5 167t-119.5 118.5t-170 43.5t-170 -43.5t-119.5 -118.5t-43.5 -167t43.5 -167t119.5 -118.5
t170 -43.5t170 43.5t119.5 118.5t43.5 167z" />
    <glyph glyph-name="uni24D3" unicode="&#x24d3;" horiz-adv-x="840" 
d="M25 319q0 108 52 196.5t142.5 139t200.5 50.5t200.5 -50.5t142.5 -139t52 -196.5t-52 -196.5t-142.5 -139t-200.5 -50.5t-200.5 50.5t-142.5 139t-52 196.5zM753 319q0 92 -43.5 167t-119.5 118.5t-170 43.5t-170 -43.5t-119.5 -118.5t-43.5 -167t43.5 -167t119.5 -118.5
t170 -43.5t170 43.5t119.5 118.5t43.5 167zM491 84v8q-43 -42 -110 -42q-74 0 -123.5 38t-49.5 126v27q0 90 48.5 133.5t125.5 43.5q50 0 89 -23q11 -6 20 -13v163q0 12 -3.5 24t-7.5 19h64q29 0 36.5 -10.5t7.5 -29.5v-491h-64q-18 0 -25.5 5.5t-7.5 21.5zM390 373
q-39 0 -62.5 -31.5t-23.5 -88.5v-51q0 -55 24.5 -81t60.5 -26q48 0 75 40q19 28 27 66v79q-19 93 -101 93z" />
    <glyph glyph-name="uni24D4" unicode="&#x24d4;" horiz-adv-x="840" 
d="M25 319q0 108 52 196.5t142.5 139t200.5 50.5t200.5 -50.5t142.5 -139t52 -196.5t-52 -196.5t-142.5 -139t-200.5 -50.5t-200.5 50.5t-142.5 139t-52 196.5zM753 319q0 92 -43.5 167t-119.5 118.5t-170 43.5t-170 -43.5t-119.5 -118.5t-43.5 -167t43.5 -167t119.5 -118.5
t170 -43.5t170 43.5t119.5 118.5t43.5 167zM239 320q0 92 49 138.5t131 46.5q72 0 126 -42t54 -137q0 -19 -9.5 -27t-23.5 -8h-230q4 -54 29 -81.5t67 -27.5q66 0 110 49q2 2 9 2q10 0 19 -9t12 -28q-24 -28 -64.5 -43.5t-86.5 -15.5q-91 0 -141.5 46t-50.5 137zM420 460
q-40 0 -62.5 -33t-22.5 -87v-3h167q0 57 -21.5 90t-60.5 33z" />
    <glyph glyph-name="uni24D5" unicode="&#x24d5;" horiz-adv-x="840" 
d="M25 319q0 108 52 196.5t142.5 139t200.5 50.5t200.5 -50.5t142.5 -139t52 -196.5t-52 -196.5t-142.5 -139t-200.5 -50.5t-200.5 50.5t-142.5 139t-52 196.5zM753 319q0 92 -43.5 167t-119.5 118.5t-170 43.5t-170 -43.5t-119.5 -118.5t-43.5 -167t43.5 -167t119.5 -118.5
t170 -43.5t170 43.5t119.5 118.5t43.5 167zM320 87v266h-56q-26 0 -26 23q0 5 4 23h78v47q0 72 37.5 110.5t106.5 38.5q35 0 62.5 -7.5t53.5 -24.5q2 -6 2 -16q0 -15 -7.5 -23t-17.5 -6q-24 17 -41 24.5t-41 7.5q-32 0 -45 -26t-13 -86v-39h144q2 -8 2 -20q0 -26 -23 -26
h-123v-306h-53q-29 0 -36.5 10.5t-7.5 29.5z" />
    <glyph glyph-name="uni24D6" unicode="&#x24d6;" horiz-adv-x="840" 
d="M25 319q0 108 52 196.5t142.5 139t200.5 50.5t200.5 -50.5t142.5 -139t52 -196.5t-52 -196.5t-142.5 -139t-200.5 -50.5t-200.5 50.5t-142.5 139t-52 196.5zM753 319q0 92 -43.5 167t-119.5 118.5t-170 43.5t-170 -43.5t-119.5 -118.5t-43.5 -167t43.5 -167t119.5 -118.5
t170 -43.5t170 43.5t119.5 118.5t43.5 167zM226 357v22q0 88 49 131.5t125 43.5q50 0 89 -23q11 -6 20 -13v28h53q29 0 36.5 -10.5t7.5 -29.5v-255q0 -86 -54.5 -136.5t-155.5 -50.5q-37 0 -74 9t-62 26q-2 10 -2 15q0 15 7.5 23t17.5 6q22 -15 51 -24.5t60 -9.5
q65 0 90 28.5t25 95.5v4q-44 -41 -110 -41q-74 0 -123.5 37.5t-49.5 123.5zM484 474q-26 35 -76 35q-39 0 -62.5 -31t-23.5 -87v-46q0 -53 24.5 -78.5t60.5 -25.5q48 0 75 38q19 26 27 63v73q-8 35 -25 59z" />
    <glyph glyph-name="uni24D7" unicode="&#x24d7;" horiz-adv-x="840" 
d="M25 319q0 108 52 196.5t142.5 139t200.5 50.5t200.5 -50.5t142.5 -139t52 -196.5t-52 -196.5t-142.5 -139t-200.5 -50.5t-200.5 50.5t-142.5 139t-52 196.5zM753 319q0 92 -43.5 167t-119.5 118.5t-170 43.5t-170 -43.5t-119.5 -118.5t-43.5 -167t43.5 -167t119.5 -118.5
t170 -43.5t170 43.5t119.5 118.5t43.5 167zM447 418q73 0 116 -35t43 -123v-204h-64q-17 0 -25 6t-8 22v188q0 54 -19.5 77.5t-50.5 23.5q-48 0 -74.5 -45.5t-26.5 -118.5v-153h-64q-17 0 -25 6t-8 22v461q0 13 -3 25t-8 18h65q28 0 35.5 -10.5t7.5 -29.5v-175q43 45 109 45
z" />
    <glyph glyph-name="uni24D8" unicode="&#x24d8;" horiz-adv-x="840" 
d="M25 319q0 108 52 196.5t142.5 139t200.5 50.5t200.5 -50.5t142.5 -139t52 -196.5t-52 -196.5t-142.5 -139t-200.5 -50.5t-200.5 50.5t-142.5 139t-52 196.5zM375 90v284q0 12 -3 24t-8 18h65q28 0 35.5 -10.5t7.5 -29.5v-314h-64q-18 0 -25.5 6t-7.5 22zM753 319
q0 92 -43.5 167t-119.5 118.5t-170 43.5t-170 -43.5t-119.5 -118.5t-43.5 -167t43.5 -167t119.5 -118.5t170 -43.5t170 43.5t119.5 118.5t43.5 167zM362 536q0 23 17 40.5t41 17.5q23 0 40 -17.5t17 -40.5t-17 -39.5t-40 -16.5q-24 0 -41 16.5t-17 39.5z" />
    <glyph glyph-name="uni24D9" unicode="&#x24d9;" horiz-adv-x="840" 
d="M25 319q0 108 52 196.5t142.5 139t200.5 50.5t200.5 -50.5t142.5 -139t52 -196.5t-52 -196.5t-142.5 -139t-200.5 -50.5t-200.5 50.5t-142.5 139t-52 196.5zM275 49q-2 10 -2 15q0 15 7.5 23t17.5 6q28 -22 53 -22q26 0 37.5 21t11.5 69v260q0 12 -3.5 23.5t-7.5 18.5h64
q29 0 36.5 -10.5t7.5 -29.5v-264q0 -65 -34.5 -99t-97.5 -34q-23 0 -45 4t-45 19zM753 319q0 92 -43.5 167t-119.5 118.5t-170 43.5t-170 -43.5t-119.5 -118.5t-43.5 -167t43.5 -167t119.5 -118.5t170 -43.5t170 43.5t119.5 118.5t43.5 167zM387 563q0 23 17 40.5t41 17.5
q23 0 39.5 -17.5t16.5 -40.5q0 -22 -16.5 -39t-39.5 -17q-24 0 -41 17t-17 39z" />
    <glyph glyph-name="uni24DA" unicode="&#x24da;" horiz-adv-x="840" 
d="M25 319q0 108 52 196.5t142.5 139t200.5 50.5t200.5 -50.5t142.5 -139t52 -196.5t-52 -196.5t-142.5 -139t-200.5 -50.5t-200.5 50.5t-142.5 139t-52 196.5zM244 587h64q29 0 36.5 -10.5t7.5 -29.5v-306l165 147q12 11 24 16t29 5h50l-177 -154h34q22 0 35.5 -9t22.5 -27
l71 -133q4 -9 12 -18q5 -6 9 -10q50 38 82 94q44 75 44 167t-43.5 167t-119.5 118.5t-170 43.5t-170 -43.5t-119.5 -118.5t-43.5 -167t43.5 -167t119.5 -118.5t170 -43.5t170 43q17 10 33 22h-67q-39 0 -56 33l-72 132q-5 8 -9 14l-67 -59v-120h-64q-18 0 -25.5 6t-7.5 22
v461q0 12 -3.5 24t-7.5 19z" />
    <glyph glyph-name="uni24DB" unicode="&#x24db;" horiz-adv-x="840" 
d="M25 319q0 108 52 196.5t142.5 139t200.5 50.5t200.5 -50.5t142.5 -139t52 -196.5t-52 -196.5t-142.5 -139t-200.5 -50.5t-200.5 50.5t-142.5 139t-52 196.5zM753 319q0 92 -43.5 167t-119.5 118.5t-170 43.5t-170 -43.5t-119.5 -118.5t-43.5 -167t43.5 -167t119.5 -118.5
t170 -43.5t170 43.5t119.5 118.5t43.5 167zM363 585h65q28 0 35.5 -10.5t7.5 -29.5v-456q0 -10 3.5 -21t8.5 -15h-42q-67 0 -67 69v420q0 13 -3 25t-8 18z" />
    <glyph glyph-name="uni24DC" unicode="&#x24dc;" horiz-adv-x="840" 
d="M25 319q0 108 52 196.5t142.5 139t200.5 50.5t200.5 -50.5t142.5 -139t52 -196.5t-52 -196.5t-142.5 -139t-200.5 -50.5t-200.5 50.5t-142.5 139t-52 196.5zM322 506q87 0 123 -55q38 55 105 55q148 0 148 -159v-203h-63q-17 0 -24.5 6t-7.5 21v188q0 55 -16 78.5
t-41 23.5q-37 0 -56.5 -38.5t-19.5 -109.5v-169h-63q-17 0 -24.5 6t-7.5 21v188q0 55 -16 78.5t-41 23.5q-36 0 -56 -39q-17 -34 -19 -95v-183h-63q-17 0 -25 6t-8 21v284q0 13 -3 25q-3 11 -7 17q-3 -6 -7 -11q-43 -75 -43 -167t43.5 -167t119.5 -118.5t170 -43.5t170 43.5
t119.5 118.5t43.5 167t-43.5 167t-119.5 118.5t-170 43.5t-170 -44q-70 -40 -113 -106h62q29 0 36 -11q4 -5 6 -14q33 33 81 33z" />
    <glyph glyph-name="uni24DD" unicode="&#x24dd;" horiz-adv-x="840" 
d="M25 319q0 108 52 196.5t142.5 139t200.5 50.5t200.5 -50.5t142.5 -139t52 -196.5t-52 -196.5t-142.5 -139t-200.5 -50.5t-200.5 50.5t-142.5 139t-52 196.5zM753 319q0 92 -43.5 167t-119.5 118.5t-170 43.5t-170 -43.5t-119.5 -118.5t-43.5 -167t43.5 -167t119.5 -118.5
t170 -43.5t170 43.5t119.5 118.5t43.5 167zM230 498h65q28 0 35 -11q7 -9 8 -26q43 45 109 45q73 0 116 -35t43 -124v-203h-64q-17 0 -25 6t-8 21v188q0 55 -19.5 78.5t-50.5 23.5q-48 0 -74.5 -45.5t-26.5 -118.5v-153h-64q-17 0 -25 6t-8 21v284q0 13 -3 25t-8 18z" />
    <glyph glyph-name="uni24DE" unicode="&#x24de;" horiz-adv-x="840" 
d="M25 319q0 108 52 196.5t142.5 139t200.5 50.5t200.5 -50.5t142.5 -139t52 -196.5t-52 -196.5t-142.5 -139t-200.5 -50.5t-200.5 50.5t-142.5 139t-52 196.5zM753 319q0 92 -43.5 167t-119.5 118.5t-170 43.5t-170 -43.5t-119.5 -118.5t-43.5 -167t43.5 -167t119.5 -118.5
t170 -43.5t170 43.5t119.5 118.5t43.5 167zM236 323q0 91 51 137.5t137 46.5t137 -46.5t51 -137.5t-51 -137.5t-137 -46.5t-137 46.5t-51 137.5zM515 302v42q0 49 -23 83.5t-68 34.5t-68 -34.5t-23 -83.5v-42q0 -49 23 -83.5t68 -34.5t68 34.5t23 83.5z" />
    <glyph glyph-name="uni24DF" unicode="&#x24df;" horiz-adv-x="840" 
d="M25 319q0 108 52 196.5t142.5 139t200.5 50.5t200.5 -50.5t142.5 -139t52 -196.5t-52 -196.5t-142.5 -139t-200.5 -50.5t-200.5 50.5t-142.5 139t-52 196.5zM753 319q0 92 -43.5 167t-119.5 118.5t-170 43.5t-170 -43.5t-119.5 -118.5t-43.5 -167t43.5 -167t119.5 -118.5
t170 -43.5t170 43.5t119.5 118.5t43.5 167zM244 546h64q29 0 36 -11q7 -9 8 -23q42 42 108 42q75 0 123.5 -43t48.5 -125v-27q0 -89 -49 -131t-126 -42q-50 0 -88 22q-9 6 -17 12v-148h-64q-18 0 -25.5 6t-7.5 21v404q0 12 -3.5 24t-7.5 19zM450 509q-45 0 -72 -41
q-19 -28 -26 -66v-80q7 -35 23 -57q24 -34 74 -34q40 0 63 30t23 90v47q0 55 -24 83t-61 28z" />
    <glyph glyph-name="uni24E0" unicode="&#x24e0;" horiz-adv-x="840" 
d="M25 319q0 108 52 196.5t142.5 139t200.5 50.5t200.5 -50.5t142.5 -139t52 -196.5t-52 -196.5t-142.5 -139t-200.5 -50.5t-200.5 50.5t-142.5 139t-52 196.5zM753 319q0 92 -43.5 167t-119.5 118.5t-170 43.5t-170 -43.5t-119.5 -118.5t-43.5 -167t43.5 -167t119.5 -118.5
t170 -43.5t170 43.5t119.5 118.5t43.5 167zM591 507v-434h-64q-18 0 -25.5 6t-7.5 21v129q-44 -42 -110 -42q-74 0 -123.5 38t-49.5 126v26q0 90 49 134t125 44q50 0 89 -23q11 -6 20 -14v29h53q29 0 36.5 -10.5t7.5 -29.5zM392 232q48 0 75 40q19 28 27 66v77
q-19 95 -101 95q-39 0 -62.5 -31.5t-23.5 -89.5v-50q0 -55 24.5 -81t60.5 -26z" />
    <glyph glyph-name="uni24E1" unicode="&#x24e1;" horiz-adv-x="840" 
d="M25 319q0 108 52 196.5t142.5 139t200.5 50.5t200.5 -50.5t142.5 -139t52 -196.5t-52 -196.5t-142.5 -139t-200.5 -50.5t-200.5 50.5t-142.5 139t-52 196.5zM753 319q0 92 -43.5 167t-119.5 118.5t-170 43.5t-170 -43.5t-119.5 -118.5t-43.5 -167t43.5 -167t119.5 -118.5
t170 -43.5t170 43.5t119.5 118.5t43.5 167zM307 488h65q28 0 35.5 -10.5t7.5 -29.5v-6l6 8q36 45 96 45q45 0 76 -10q2 -10 2 -15q0 -14 -8 -23t-18 -7q-20 10 -59 10q-41 0 -68 -43.5t-27 -97.5v-175h-64q-17 0 -25 6t-8 21v284q0 13 -3 25t-8 18z" />
    <glyph glyph-name="uni24E2" unicode="&#x24e2;" horiz-adv-x="840" 
d="M25 319q0 108 52 196.5t142.5 139t200.5 50.5t200.5 -50.5t142.5 -139t52 -196.5t-52 -196.5t-142.5 -139t-200.5 -50.5t-200.5 50.5t-142.5 139t-52 196.5zM753 319q0 92 -43.5 167t-119.5 118.5t-170 43.5t-170 -43.5t-119.5 -118.5t-43.5 -167t43.5 -167t119.5 -118.5
t170 -43.5t170 43.5t119.5 118.5t43.5 167zM276 181q0 -10 1 -15q21 -13 59 -20t70 -7q81 0 129.5 28t48.5 81q0 44 -30 70.5t-84 44.5q-53 18 -72.5 29.5t-19.5 31.5q0 18 16 30t54 12q43 0 81 -25q14 -2 22 9t7 35q-47 25 -111 25q-77 0 -121.5 -26.5t-44.5 -75.5
q0 -42 28.5 -66.5t85.5 -42.5q48 -15 70 -30t22 -37q0 -23 -19 -36.5t-55 -13.5q-27 0 -57 9.5t-55 25.5q-11 1 -18 -9t-7 -27z" />
    <glyph glyph-name="uni24E3" unicode="&#x24e3;" horiz-adv-x="840" 
d="M25 319q0 108 52 196.5t142.5 139t200.5 50.5t200.5 -50.5t142.5 -139t52 -196.5t-52 -196.5t-142.5 -139t-200.5 -50.5t-200.5 50.5t-142.5 139t-52 196.5zM753 319q0 92 -43.5 167t-119.5 118.5t-170 43.5t-170 -43.5t-119.5 -118.5t-43.5 -167t43.5 -167t119.5 -118.5
t170 -43.5t170 43.5t119.5 118.5t43.5 167zM247 402q0 5 4 23h82v112q0 12 -3.5 24t-7.5 19h65q28 0 35.5 -10.5t7.5 -29.5v-115h140q2 -8 2 -20q0 -26 -24 -26h-118v-171q0 -55 13.5 -76t43.5 -21q23 0 41.5 7.5t41.5 24.5q10 2 17.5 -6t7.5 -24q0 -3 -2 -15
q-26 -17 -53.5 -24.5t-63.5 -7.5q-69 0 -106 35t-37 106v172h-60q-26 0 -26 23z" />
    <glyph glyph-name="uni24E4" unicode="&#x24e4;" horiz-adv-x="840" 
d="M25 319q0 108 52 196.5t142.5 139t200.5 50.5t200.5 -50.5t142.5 -139t52 -196.5t-52 -196.5t-142.5 -139t-200.5 -50.5t-200.5 50.5t-142.5 139t-52 196.5zM753 319q0 92 -43.5 167t-119.5 118.5t-170 43.5t-170 -43.5t-119.5 -118.5t-43.5 -167t43.5 -167t119.5 -118.5
t170 -43.5t170 43.5t119.5 118.5t43.5 167zM232 492h65q28 0 35.5 -10.5t7.5 -29.5v-178q0 -54 17.5 -75.5t48.5 -21.5q48 0 76 44q27 41 29 105v124q0 12 -3 24t-8 18h65q28 0 35.5 -10.5t7.5 -29.5v-314h-64q-17 0 -25 6t-8 22v13q-46 -47 -113 -47q-73 0 -114 33t-41 121
v164q0 12 -3 24t-8 18z" />
    <glyph glyph-name="uni24E5" unicode="&#x24e5;" horiz-adv-x="840" 
d="M25 319q0 108 52 196.5t142.5 139t200.5 50.5t200.5 -50.5t142.5 -139t52 -196.5t-52 -196.5t-142.5 -139t-200.5 -50.5t-200.5 50.5t-142.5 139t-52 196.5zM753 319q0 92 -43.5 167t-119.5 118.5t-170 43.5t-170 -43.5t-119.5 -118.5t-43.5 -167t43.5 -167t119.5 -118.5
t170 -43.5t170 43.5t119.5 118.5t43.5 167zM471 138h-54q-36 0 -50 35l-119 286q-11 27 -21 33h74q39 0 53 -41l94 -245l105 260q5 14 12.5 20t23.5 6h30z" />
    <glyph glyph-name="uni24E6" unicode="&#x24e6;" horiz-adv-x="840" 
d="M25 319q0 108 52 196.5t142.5 139t200.5 50.5t200.5 -50.5t142.5 -139t52 -196.5t-52 -196.5t-142.5 -139t-200.5 -50.5t-200.5 50.5t-142.5 139t-52 196.5zM753 319q0 92 -43.5 167t-119.5 118.5t-170 43.5t-170 -43.5t-119.5 -118.5t-43.5 -167t43.5 -167t119.5 -118.5
t170 -43.5t170 43.5t119.5 118.5t43.5 167zM591 138h-66q-21 0 -33.5 9.5t-16.5 25.5l-49 194l-61 -229h-67q-20 0 -32.5 9.5t-16.5 25.5l-76 287q-2 9 -8.5 19t-12.5 14h71q24 0 36 -10t17 -31l54 -243l70 260q-6 18 -15 24h67q24 0 35 -8.5t15 -28.5l55 -247l69 260
q5 13 14 18.5t27 5.5h21z" />
    <glyph glyph-name="uni24E7" unicode="&#x24e7;" horiz-adv-x="840" 
d="M25 319q0 108 52 196.5t142.5 139t200.5 50.5t200.5 -50.5t142.5 -139t52 -196.5t-52 -196.5t-142.5 -139t-200.5 -50.5t-200.5 50.5t-142.5 139t-52 196.5zM753 319q0 92 -43.5 167t-119.5 118.5t-170 43.5t-170 -43.5t-119.5 -118.5t-43.5 -167t43.5 -167t119.5 -118.5
t170 -43.5t170 43.5t119.5 118.5t43.5 167zM477 331l127 -171q13 -19 21 -22h-90q-18 0 -28.5 7.5t-18.5 19.5l-71 107l-99 -117q-7 -9 -14 -13t-20 -4h-50l152 176l-118 155q-18 19 -25 23h89q23 0 33 -7t19 -20l63 -89l85 98q7 9 14 13.5t19 4.5h51z" />
    <glyph glyph-name="uni24E8" unicode="&#x24e8;" horiz-adv-x="840" 
d="M25 319q0 108 52 196.5t142.5 139t200.5 50.5t200.5 -50.5t142.5 -139t52 -196.5t-52 -196.5t-142.5 -139t-200.5 -50.5t-200.5 50.5t-142.5 139t-52 196.5zM753 319q0 92 -43.5 167t-119.5 118.5t-170 43.5t-170 -43.5t-119.5 -118.5t-43.5 -167t43.5 -167t119.5 -118.5
t170 -43.5t170 43.5t119.5 118.5t43.5 167zM423 186q-31 0 -50 41l-125 276q-1 2 -7.5 15.5t-13.5 17.5h74q36 0 53 -41l102 -235l97 250q5 14 12.5 20t23.5 6h30l-146 -360q-29 -72 -55.5 -96.5t-66.5 -24.5q-41 0 -74 22q-2 6 -2 16q0 15 7.5 23t17.5 6q28 -22 50 -22
t38 19.5t35 66.5z" />
    <glyph glyph-name="uni24E9" unicode="&#x24e9;" horiz-adv-x="840" 
d="M25 319q0 108 52 196.5t142.5 139t200.5 50.5t200.5 -50.5t142.5 -139t52 -196.5t-52 -196.5t-142.5 -139t-200.5 -50.5t-200.5 50.5t-142.5 139t-52 196.5zM753 319q0 92 -43.5 167t-119.5 118.5t-170 43.5t-170 -43.5t-119.5 -118.5t-43.5 -167t43.5 -167t119.5 -118.5
t170 -43.5t170 43.5t119.5 118.5t43.5 167zM269 476q0 4 4 22h309q3 -13 3 -24q0 -8 -3 -13l-206 -268h219q2 -8 2 -19q0 -26 -23 -26h-287q-12 0 -20.5 9t-8.5 20q0 9 4 14l203 262h-170q-26 0 -26 23z" />
    <glyph glyph-name="uni2500" unicode="&#x2500;" horiz-adv-x="900" 
d="M350 -57l-2 1l-17 15q-36 30 -61.5 57t-26.5 47q-2 26 11.5 42t24.5 21l89 46l-182 274l7 5q4 7 35 30.5t79.5 44t106.5 20.5q31 0 62 -7q48 -11 84.5 -37t58.5 -65q28 -49 28 -111q0 -36 -9 -62q-24 -71 -89 -120l22 -41q54 43 92 43q28 0 41 -27q2 -5 2 -17
q0 -17 -7.5 -33.5t-18.5 -27.5q0 -1 -2 -3q-4 -4 -11 -16q-22 -33 -47 -56.5t-58 -23.5q-27 0 -51 17l-2 2l-62 92l-41 -37l6 -13q6 -11 6 -20q0 -5 -1 -8q-6 -25 -23 -34q-9 -4 -19 -4q-8 0 -15.5 2t-9.5 4zM561 -35q25 0 45 18.5t42 50.5q7 13 17 23q9 8 15 25t3 29
q-2 12 -22 12q-21 0 -45 -15t-39 -30l-10 -10l-177 312l9 6q22 14 45 14q31 0 57 -22q22 -23 22 -54q0 -21 -9.5 -41.5t-22.5 -34.5l47 -85q58 48 78 108q8 24 8 55q0 53 -25 100q-19 34 -52 57.5t-77 34.5q-27 6 -53 6q-66 0 -119 -27t-83 -55l309 -466q19 -11 37 -11z
M281 99q-6 -4 -11.5 -13t-4.5 -21q1 -15 32 -46.5t64 -56.5q9 -3 13 -3t8 2q10 4 13 19q0 9 -1 10l-18 31l58 52l-53 80l-91 -48q-2 -1 -9 -6zM500 323q0 21 -15 39q-4 4 -16 10.5t-25 6.5t-23 -6l58 -105q8 10 14.5 25t6.5 30zM551 -29q-9 8 -5 15q0 1 14.5 26.5t44.5 58.5
t58 44h2q9 0 12 -8q1 -1 1 -4q0 -7 -7 -11q-24 -8 -47.5 -34t-40.5 -53t-17 -29q-4 -6 -10 -6q-3 0 -5 1zM735 115q-1 21 -13 28l-11 8q-5 2 -6.5 6.5t1.5 8.5q5 10 15 6l8 -6q9 -5 18.5 -19.5t9.5 -31.5q0 -11 -11 -11t-11 11zM761 134q0 24 -12 31l-11 7q-5 2 -6.5 6.5
t0.5 8.5t6.5 5.5t8.5 -1.5q2 0 11 -7t17.5 -19.5t8.5 -30.5q0 -4 -3 -7.5t-8 -3.5h-1q-4 0 -7 3t-4 8z" />
    <glyph glyph-name="uni2501" unicode="&#x2501;" 
d="M483 534q0 25 14 39q18 13 45 9q9 -2 9 -13q0 -14 -11 -14h-6q-8 0 -13 -1q-7 -5 -8 -9q-1 -3 -1 -10q0 -6 2 -9q3 -6 11 -6h6q0 4 3 4h81q2 0 3 -2l2 -2h12q-2 12 -2 28q0 20 4 36q2 3 5 3q7 0 17 -4l19 19q21 20 67 20q45 0 88 -39q12 4 20 4q4 0 5 -3q4 -17 4 -37
q0 -29 -4 -41l-1 -5h4v18q0 2 1.5 3.5t3.5 1.5h81q2 0 3 -2q0 -1 1 -2h28q6 0 9 -4t3 -10t-3 -10.5t-9 -4.5h-28v-96q0 -1 -1 -2l1 -1q16 -38 14 -90q0 -11 -5 -28q-2 -9 -6 -17h1v-135q0 -5 -5 -5h-80q-4 0 -4 5v53q-27 -11 -52 -14q6 -7 12 -21q12 -27 17 -62l1 -9
q0 -9 -3 -18q9 -1 15 -5q7 -5 7 -12q0 -5 -3.5 -12t-10.5 -11q5 -2 8.5 -6.5t3.5 -10.5q0 -13 -13 -18q3 -30 3 -49v-1q0 -7 -6 -10.5t-11 -3.5h-24q-48 -2 -174 -2q-7 0 -11.5 5.5t-5.5 10.5q-2 9 -2 26q0 40 10 62q7 15 9 20q-8 15 -8 33q0 7 1 11q5 35 17 64q6 14 11 21
q-17 4 -34 9v-50q0 -2 -1.5 -3.5t-3.5 -1.5h-81q-3 0 -3 5v119q-18 30 -18 61q-3 53 18 96v93h-15q-14 2 -23.5 13t-9.5 30zM171 -43q-3 1 -3 5l3 12h-3q-8 0 -16 10q-5 6 -5 14q1 9 12 13l-11 9q-5 4 -5 10q0 10 11 20v15q0 30 9.5 52.5t14.5 28.5l16 16q-32 5 -65 21
q-40 20 -64 57q-19 30 -19 62q-1 52 15 90t40 63q18 19 37 30q12 7 18 10q-2 5 -4 11l-46 -5h-5q-15 0 -25 12q-4 6 -6 26t0 36q4 25 26 25q6 0 9 -1l66 -16q3 4 5 8v20q1 16 6 29q8 22 30 40.5t58 17.5q34 0 57 -18t30 -40q4 -13 4.5 -29t0.5 -21l-1 -2q2 -2 3 -5l78 16
q11 3 24 -3t14 -21q1 -7 1 -23q0 -31 -7 -38q-13 -16 -36 -13l-55 6q0 -5 -2 -10q3 0 22.5 -11.5t37.5 -30.5q24 -25 40 -63t15 -90q0 -32 -19 -62q-24 -37 -65 -57q-34 -17 -68 -21q5 -4 11 -12q12 -14 21.5 -40t5.5 -62q0 -1 -2 -3q-1 -1 -13 -15q-5 -6 -13 -13l12 -59
q0 -3 -3 -6q-13 -3 -25 -5q-1 -15 -10 -23q-10 -10 -24 -10h-1q-17 0 -25 8q-8 7 -10 15q-1 -8 -7 -15q-8 -8 -25 -8h-3q-14 0 -24 10q-8 9 -9 23q-21 6 -29 10zM165 482q-3 2 -5 5q-28 -13 -53 -39q-56 -59 -51 -146q1 -30 18 -58q19 -29 54.5 -48t83.5 -26l60 -3l58 3
q49 7 84 26t54 49q17 28 18 57q4 88 -52 146q-18 18 -36 29.5t-21 11.5q-2 -4 -5 -7q-17 -22 -64 -28q-12 -2 -32 -2h-5h-1h-9q-71 0 -96 30zM707 392v31q0 18 13 25q5 3 9 5q-3 3 -5 7h-8q-42 0 -60 16q-11 10 -16 18q-11 -5 -21 -11q0 -1 -1 -2t-3 -1h-1q-18 -12 -34 -28
q-61 -61 -58 -150q0 -29 18 -58q42 -61 138 -74l60 -3l59 3q48 7 83.5 26t53.5 48q18 28 19 58q2 50 -13.5 86t-39.5 60q-25 27 -54 40q-4 -6 -11 -12q-18 -15 -73 -16h-2q-1 -4 -3 -7q6 -2 12 -8q10 -11 10 -22v-31q0 -5 -5 -5h-62q-2 0 -3.5 1.5t-1.5 3.5zM213 610
q-19 -7 -30 -25.5t-19 -57.5q-2 -10 -2 -14q0 -15 10 -25q16 -20 43 -24q25 -3 51 -3h1q28 0 55 3.5t43 23.5q10 11 10 28q0 7 -1 11q-9 39 -20.5 57.5t-30.5 25.5t-55 10q-37 -3 -55 -10zM317 119h-93v-33h-3v36h99v-36l14 2v5q0 12 -5 29q-1 3 4 6q2 1 3.5 0t2.5 -4
q4 -20 4 -29v-6l9 1q5 0 5 -4q0 -5 -5 -5q-7 -1 -17 -2.5t-17 -1.5q-7 -1 -19 -3t-23 -3v-72l9 -1q27 0 51.5 19t35.5 34q1 6 1 17q0 35 -17 63q-7 12 -16 20l-10 10l-10 -1l-4 -6q-5 -6 -19 -14q-12 -7 -27 -8q-17 1 -28.5 7t-17.5 13q-6 6 -6 8l-8 1h-4q0 -2 -2 -3
q-19 -16 -30.5 -43.5t-8.5 -63.5q13 -17 40 -36.5t56 -15.5v72l-42 6q-7 0 -17 1.5t-17 2.5q-2 0 -3 1.5t0 3.5q0 4 4 4l9 -1v7q0 16 5 28q1 6 6 4q3 -3 2 -6q-5 -21 -5 -34l18 -2l17 -3v24h65v-24q11 2 14 3v33zM782 -40v136h-101v-136h101zM806 -63l13 25q1 1 2 0l17 -21
q-1 17 -3 41q-3 27 -10 44l-6 -6q-12 -13 -27 -21h-1v-41h9q2 0 1 -2l-9 -14q-1 -2 -2 0l-5 8h-5l11 -16l13 22q1 1 2 1l1 -2l-15 -24q-1 -1 -2 0l-14 19h-8l10 -17q1 -2 0 -2.5t-2 1.5l-12 18h-5l-12 -18q-1 -1 -2.5 -1t-0.5 2l12 17h-15l-11 -19q-1 -1 -2 0l-14 19h-9
l11 -17q1 -2 -0.5 -2.5t-2.5 1.5l-11 18h-5l-13 -18q-1 -2 -2 -1t0 2l12 17h-10l-12 -19q-1 -1 -2 0l-17 24q-1 2 0.5 2t2.5 -1l15 -22l9 16h-3l-5 -8q-1 -2 -2 0l-8 14q-1 2 1 2h8v42q-3 1 -8 5q-8 6 -16 15q-4 3 -7 6q-16 -35 -16 -74v-8l14 18q1 1 2 0l13 -25
q1 -2 -0.5 -2.5t-2.5 1.5l-11 22l-15 -17q1 -9 2 -14q1 -7 7 -7h197q2 0 5 2.5t3 4.5v10l-1 1l-17 20l-11 -22q-1 -2 -2.5 -1.5t-0.5 2.5zM736 612q-22 -1 -42 -12q-16 -8 -28 -20q4 -1 7 -3q23 -9 41 -39v-2q1 1 3 1h1q7 0 18 -17l-1 16q0 15 8 15q9 0 9 -16q0 -7 -2 -15
q6 11 15 16q5 3 8 -2l2 -2l-1 1q-1 3 0 5q18 30 41 39q3 1 5 2q-42 37 -84 33zM272 -9q-2 1 -3 2l-2 -2q-5 -1 -15 -1q-37 0 -61 20l-13 -46q9 -4 26 -9h2q3 -1 7 -2q22 -4 49 -5h2h4q41 0 89 13l-11 51q-6 -4 -14 -9q-24 -13 -46 -13q-10 0 -14 1zM382 530q1 -10 2 -14
l56 -7h4q14 0 23 11q4 4 5 21t-1 34q-2 11 -12.5 14.5t-16.5 1.5l-74 -16q8 -18 14 -45zM760 470h2q46 0 62.5 11.5t20.5 26.5q5 15 5 38q0 17 -4 32l-20 -6q-23 -6 -43 -39q-2 -2 -3 -2q-4 0 -5 1q2 -2 2 -4q0 -8 -18 -18q6 2 9 2q8 0 11 -5q5 -4 0 -9q-3 -3 -8 -3t-8 1
q8 -5 9 -11q1 -4 -4 -8q-3 -4 -6 -4h-1h-2q1 -1 1 -3zM709 531q-2 1 -3 2q-20 33 -43 39l-21 6q-3 -11 -3 -31q0 -24 5 -39q21 -42 80 -38q1 3 3 5h-1q-2 -1 -6 -1q-2 0 -4 2t-2 4q0 9 11 17q-1 0 -7.5 -1.5t-10.5 1.5q-4 4 1 10q4 3 18 3q-15 9 -15 18v3h-2zM98 592
q-7 0 -12.5 -5t-5.5 -12q-2 -16 -2 -25q0 -24 5 -31q10 -12 23 -10l46 6v1q0 4 2 14q6 27 14 45l-64 16zM872 126h70v114q-11 -17 -26 -31q2 -2 1 -3.5t-2 -1.5q6 0 6 -4q0 -5 -5 -5q1 -1 1.5 -3.5t-1.5 -3.5q-4 -2 -7 1q0 -1 -1.5 -3.5t-3.5 -2.5q-5 0 -5 6q-1 -2 -3 -2
t-3 1l-2 2q-7 -4 -15 -8l-4 -2v-54zM586 188q-1 -1 -3 -1t-3 2q0 -6 -5 -6q-2 0 -3.5 2.5t-1.5 3.5q-2 -2 -4 -2q-4 0 -4 3.5t1 4.5q-5 0 -5 5q0 3 5 4h-1q-13 12 -23 25v-103h71v50q-7 3 -14 7q-5 2 -10 5zM699 311q0 18 10 30t26 12q15 0 25.5 -12.5t10.5 -29.5
q0 -18 -10.5 -30t-25.5 -12q-16 0 -26 12t-10 30zM236 311q0 18 10 30t26 12q14 0 24 -12.5t10 -29.5q0 -18 -10 -30t-24 -12q-16 0 -26 12t-10 30zM783 106v54l-17 -1l-32 -28q-4 -1 -6 0l-27 29l-23 1l2 -55h103zM870 485q19 -11 38 -30q17 -19 31 -44v103h-71v-18v-1v-8z
M571 471q-2 -2 -4 -2q-4 0 -4 3.5t1 4.5q-5 0 -5 5q0 3 5 4q-1 0 -1 2q-1 2 1 4q3 3 7 -2q-1 3 0.5 4.5t3.5 1.5q5 0 5 -6q1 2 3.5 2.5t3.5 -0.5q2 -2 0 -6q2 0 3.5 -1t1.5 -3q0 -5 -5 -5q1 -1 1 -4v-1q11 9 22 16v26h-71v-100q14 24 35 45l10 10q-2 0 -3 2q0 -6 -5 -6
q-2 0 -3.5 2.5t-1.5 3.5zM352 607q0 17 -4 29q-7 20 -27 37q-16 13 -39 15v-47q44 -4 70 -34zM255 641v47q-22 -2 -38 -15q-20 -17 -27 -37q-4 -12 -5 -28q26 29 70 33zM210 618q20 7 58 10q38 -3 58 -10q15 -5 26 -18v4q-29 32 -72 35v49l-2 1h-4q-1 -1 -4 -1h-1v-48h-2v48
l-1 1q-5 0 -9 -1v-49q-42 -3 -72 -33v-4q11 11 25 16zM347 297q0 9 10.5 15t24.5 6t24 -6t10 -15t-10 -15.5t-24 -6.5t-24.5 6.5t-10.5 15.5zM125 297q0 9 10.5 15t24.5 6t24 -6t10 -15t-10 -15.5t-24 -6.5t-24.5 6.5t-10.5 15.5zM766 311q0 16 -9 26.5t-22 10.5t-22 -10.5
t-9 -26.5v-2q2 2 6 0l4 -6q5 -5 17 -6q15 0 29 13q1 2 3 2t3 -2v1zM302 311q0 15 -9 26t-21 11q-13 0 -22.5 -10.5t-9.5 -26.5v-2q4 2 6 0q1 -1 6.5 -6t15.5 -6q15 0 28 13q2 2 6 0v1zM767 479q3 3 3 5q-2 7 -14 14q0 2 2 2q16 -6 19 0q2 2 0 6q-2 3 -11 3l-11 -1h-1v1
q19 11 20 19q0 6 -5 6q-7 0 -12.5 -9t-7.5 -11h-1q1 8 1 20q0 15 -6 15q-7 0 -7 -14q0 -8 1 -13t1 -7h-1q-2 2 -8.5 10.5t-10.5 8.5q-1 0 -4 -3v-2q0 -8 8.5 -14t9.5 -6l-1 -1h-6q-12 0 -15 -4q-4 -2 0 -6h2q4 0 11.5 1.5t8.5 1.5v-3q-8 -3 -11.5 -8t-3.5 -10q0 -3 3 -3
q8 0 9 5q2 9 5 11t9 2h3q5 0 7 -2.5t3 -6.5q1 -2 2.5 -6t2.5 -4q3 0 6 3zM604 284q0 10 7.5 17.5t17.5 7.5q11 0 19 -7.5t8 -17.5q0 -11 -8 -19t-19 -8q-10 0 -17.5 8t-7.5 19zM813 284q0 10 7.5 17.5t17.5 7.5t18 -7.5t8 -17.5q0 -11 -7.5 -19t-18.5 -8q-10 0 -17.5 8
t-7.5 19zM411 297q0 8 -8.5 13t-20.5 5q-13 0 -21.5 -5t-8.5 -13t8.5 -13t21.5 -5q12 0 20.5 5t8.5 13zM189 297q0 8 -8.5 13t-20.5 5q-13 0 -21.5 -5t-8.5 -13t8.5 -13t21.5 -5q12 0 20.5 5t8.5 13zM801 350q0 11 5.5 18.5t13.5 7.5q7 0 12 -7l7 7q4 1 7 0q4 -3 0 -7
l-10 -9q2 -4 2 -10q0 -11 -5 -19t-13 -8t-13.5 8t-5.5 19zM632 350q0 7 2 12l-7 7q-4 4 0 7q1 1 3 1t3 -1l5 -6q5 6 12 6q8 0 13.5 -8t5.5 -18q0 -11 -5.5 -19t-13.5 -8q-7 0 -12.5 8t-5.5 19zM861 284q0 9 -6.5 15t-16.5 6q-9 0 -15.5 -6t-6.5 -15q0 -10 6.5 -16.5
t15.5 -6.5q10 0 16.5 6.5t6.5 16.5zM652 284q0 9 -6.5 15t-16.5 6q-9 0 -15 -6t-6 -15q0 -10 6 -16.5t15 -6.5q10 0 16.5 6.5t6.5 16.5zM339 350q0 11 5.5 18.5t12.5 7.5q8 0 13.5 -7.5t5.5 -18.5t-5.5 -19t-13.5 -8q-7 0 -12.5 8t-5.5 19zM167 350q0 10 5.5 18t12.5 8
q8 0 13 -7.5t5 -18.5q0 -12 -5 -19.5t-13 -7.5q-7 0 -12.5 8t-5.5 19zM300 105h-60v-22l26 -3q2 0 3 -2q1 2 3 2q9 1 25 3h3v22zM651 99q0 3 5 3l13 -3v2v60h-3q-5 0 -16 -25q-11 -23 -16 -57q4 7 10 12q3 3 7 4q-1 2 0 4zM815 102q5 0 5 -3q1 -4 -3 -6q7 -4 13 -14
q-5 32 -15 57q-11 25 -15 25h-2h-2l-1 -61zM506 522q-4 7 -4 16q0 5 2 11q3 11 15 14q8 1 18 1q2 0 3.5 1.5t1.5 3.5q0 5 -5 5q-24 0 -34 -8q-11 -9 -11 -32q0 -20 9.5 -26.5t16.5 -6.5h13v9h-6q-14 0 -19 12zM643 37l1 -1q4 -6 10 -11q1 9 4 23.5t13 23.5v16
q-28 -6 -30 -47q1 -1 1 -2zM231 158q5 -6 15 -11q9 -5 21 -5h1h2h1q12 0 20 5q10 5 15 11l1 2l-35 -2h-2h-1l-39 2q0 -1 1 -2zM821 37l1 1q-1 43 -27 50v-19q7 -8 10 -21q3 -16 4 -25q6 6 12 13v1zM154 34q-1 -2 -0.5 -4.5t1.5 -3.5l16 -11q1 -1 1 -5l-2 -4q-4 -1 -8.5 -4
t-5.5 -6q0 -4 3 -6q6 -8 15 -4l9 31q-18 19 -23 24q-5 -3 -6 -7zM743 447h-1q-3 0 -6 -1v-50h16v49q-4 2 -9 2zM216 -70q6 -6 18 -6h4q13 0 17 7q3 4 4 8q-28 1 -50 6q1 -9 7 -15zM282 -69q5 -7 18 -7q15 0 22 6q5 6 6 15q-26 -5 -50 -6q1 -4 4 -8zM899 471q-2 -2 -3 -2
q-4 0 -4 3.5t1 4.5q-5 0 -5 5q0 2 1.5 3t3.5 1q-1 1 -1 3q0 4 3.5 4t4.5 -3q0 6 5 6q2 0 3.5 -1.5t0.5 -4.5q4 5 7 2q2 -2 1 -4t-2 -2q6 0 6 -4q0 -5 -5 -5q1 -1 1.5 -3.5t-1.5 -3.5q-4 -2 -7 1q0 -1 -1.5 -3.5t-3.5 -2.5q-5 0 -5 6zM900 143q-2 -2 -3 -2q-4 0 -4 3.5t1 4.5
q-5 0 -5 5q0 2 1.5 3t3.5 1q-1 1 -1 3q0 4 3.5 4t4.5 -3q0 6 5 6q2 0 3.5 -1.5t0.5 -4.5q4 5 7 2q2 -2 1 -4t-2 -2q6 0 6 -4q0 -5 -5 -5q1 -1 1.5 -3.5t-1.5 -3.5q-4 -2 -7 1q0 -1 -1.5 -3.5t-3.5 -2.5q-5 0 -5 6zM570 143q-2 -2 -4 -2q-4 0 -4 3.5t1 4.5q-5 0 -5 5q0 3 5 4
q-1 0 -1 2q-1 2 1 4q3 3 7 -2q-1 3 0.5 4.5t3.5 1.5q5 0 5 -6q1 2 3.5 2.5t3.5 -0.5q2 -2 0 -6q2 0 3.5 -1t1.5 -3q0 -5 -5 -5q1 -1 1.5 -3.5t-1.5 -3.5q-1 -1 -3 -1t-3 2q0 -6 -5 -6q-2 0 -3.5 2.5t-1.5 3.5zM732 287h-2q-14 0 -21 7q-2 3 -4 4q3 -7 8 -13q9 -11 22 -11
t22 11q6 8 8 18q-16 -16 -33 -16zM269 287h-2q-11 0 -20 7q-4 3 -6 5q3 -8 8 -14q10 -11 23 -11q11 0 20 11q7 7 9 17q-16 -15 -32 -15zM819 68q4 -14 6 -26q8 13 6 33q-7 13 -16 18l-20 -3v-1q19 -5 24 -21zM671 89v1l-17 3l-2 1q-7 -3 -12 -9q-5 -7 -6 -9q-3 -16 5 -32
q3 39 32 45zM660 48q-3 -16 -3 -26q6 -6 14 -11v58q-8 -8 -11 -21zM839 14q6 2 10.5 9t4.5 11q0 5 -6 8t-12 3q-2 -5 -5 -10q5 -10 8 -21zM908 474q5 -4 7 -2t-3 6q2 0 4.5 1.5t2.5 2.5q0 3 -7 3l2 1q3 2 1 4t-4 0l-3 -3q0 7 -3 7q-4 0 -4 -6q-6 5 -7 2q-1 -1 0.5 -3t1.5 -3
q-6 0 -6 -2t6 -4q-4 -4 -2 -6q1 -1 3 -0.5t3 2.5q0 -7 4 -7q1 0 2.5 2.5t1.5 4.5zM909 146q5 -4 7 -2t-3 6q2 0 4.5 1.5t2.5 2.5q0 3 -7 3l2 1q3 2 1 4t-4 0l-3 -3q0 7 -3 7q-4 0 -4 -6q-6 5 -7 2q-1 -1 0.5 -3t1.5 -3q-6 0 -6 -2t6 -4q-4 -4 -2 -6q1 -1 3 -0.5t3 2.5
q0 -7 4 -7q1 0 2.5 2.5t1.5 4.5zM579 146q1 -2 3 -2.5t3 0.5q2 2 -2 6q6 2 6 4t-6 2q2 4 2 5q0 5 -7 -1q0 6 -4 6q-3 0 -3 -7l-3 3q-2 2 -4 0t0 -4l3 -1q-7 0 -7 -3q0 -1 2.5 -2.5t4.5 -1.5q-4 -4 -3 -6q3 -2 7 2q0 -2 1.5 -4.5t2.5 -2.5q4 0 4 7zM580 474q1 -2 3 -2.5
t3 0.5q2 2 -2 6q6 2 6 4t-6 2q2 4 2 5q0 5 -7 -1q0 6 -4 6q-3 0 -3 -7l-3 3q-2 2 -4 0t0 -4l3 -1q-7 0 -7 -3q0 -1 2.5 -2.5t4.5 -1.5q-4 -4 -3 -6q3 -2 7 2q0 -2 1.5 -4.5t2.5 -2.5q4 0 4 7zM803 48q-3 10 -8 17v-54l12 10q0 10 -4 27zM804 544q0 5 3.5 8t7.5 3q5 0 8 -3
t3 -8q0 -4 -3 -7.5t-8 -3.5q-4 0 -7.5 3.5t-3.5 7.5zM656 544q0 5 3 8t7 3q5 0 8 -3t3 -8q0 -4 -3 -7.5t-8 -3.5q-4 0 -7 3t-3 8zM717 422v-26h9v45q-9 -6 -9 -19zM770 396v26q0 7 -8 16l-1 1v-43h9zM737 158h-1l-22 1l17 -18l20 17h-13h-1zM752 465q0 4 -3 6.5t-7 2.5
q-8 0 -8 -9t7 -9h1q4 0 7 2.5t3 6.5zM974 501q4 0 4 5q0 4 -4 4h-26v-9h26zM894 190q1 -1 3 -0.5t3 2.5q0 -7 4 -7q1 0 2.5 2.5t1.5 4.5q5 -4 7 -2t-3 6q2 0 4.5 1.5t2.5 2.5q0 3 -7 3q1 0 2.5 1.5t1.5 2.5l-1 1q-10 -9 -22 -17zM824 544q0 8 -9 8q-8 0 -8 -8t8 -8q9 0 9 8z
M675 544q0 8 -9 8q-3 0 -5.5 -2t-2.5 -6q0 -8 8 -8q4 0 6.5 2.5t2.5 5.5zM813 -64l6 15q1 1 2 0l11 -13q1 -2 -1 -2l-17 -3q-2 0 -1 3zM627 -62l11 13q1 1 2 0l6 -15q1 -3 -1 -3l-17 3q-2 0 -1 2zM754 486q-1 3 -3 4.5t-8 1.5q-5 0 -7 -1.5t-3 -4t-2 -4.5q0 -1 -1 -3
q5 4 12 4q8 0 13 -5l1 -1l-1 2q-1 6 -1 7zM690 -68l9 14q1 2 2 0l9 -14q1 -2 -2 -2h-16q-3 0 -2 2zM753 -68l8 14q1 2 3 0l8 -14q1 -2 -1 -2h-17q-2 0 -1 2zM844 -18q8 4 8 12t-12 13q3 -11 4 -25zM564 203q-4 -1 -4 -3q0 -1 2.5 -2.5t4.5 -1.5q-4 -4 -3 -6q3 -2 7 2
q0 -2 1.5 -4.5t2.5 -2.5q4 0 4 7q1 -2 3 -3h2zM635 504l-2 6h-13v-9h13q2 0 2 1v2zM729 -66l9 16h-4l-4 -8q-1 -2 -2 0l-5 8h-6zM705 -67l-5 9l-5 -9h10zM767 -67l-5 9l-4 -9h9zM638 -54l-6 -7l9 -1zM827 -61l-6 7l-3 -8zM796 -45h-5q0 -3 -3 -4l3 -5zM671 -45h-5l5 -9l2 5
q-2 0 -2 4zM729 -54l2 4h-4z" />
    <glyph glyph-name="uni2502" unicode="&#x2502;" horiz-adv-x="900" 
d="M288 -31h-3l-4 1l-2 3q-10 10 -41 51t-40 66q-3 11 -3 18q0 20 13 33t30 19l109 40l1 -3q-9 92 -22 224l-9 103l-1 9l8 3q12 3 39 7t60 4q60 0 103 -17q65 -25 109 -71q48 -48 60 -120q1 -7 1 -20q0 -66 -54 -122.5t-149 -88.5l-2 -1l1 -39q18 4 40 4q37 0 61.5 -14
t34.5 -39q4 -9 4 -20q0 -27 -27.5 -40t-58.5 -15.5t-47 -1.5h-87q-2 -1 -10 -1q-14 0 -21 6q-14 10 -14 34q0 12 -7 87l-25 -10q7 -21 11 -42l1 -9q0 -19 -12 -29q-11 -11 -31 -11q-10 0 -16 2zM606 -11q4 4 4 10q0 5 -3 11q-13 38 -77 38q-21 0 -34 -2.5t-14 -2.5l-14 -3
v14l-7 347h12q10 0 30 -5.5t36 -21.5q19 -20 19 -51q0 -11 -9 -34.5t-51 -48.5q-5 -4 -10 0l2 -108q101 35 145 91.5t37 112.5q-9 67 -51.5 110t-99.5 64q-38 14 -97 14q-54 0 -84 -8q7 -60 28.5 -285t21.5 -250q0 -13 4 -16q6 -3 14 0h91q32 -1 65 5t42 19zM350 177
l-104 -39q-8 -3 -18 -10t-10 -20q0 -15 26.5 -53t49.5 -64l10 -1q11 0 16 5t2 17q-4 30 -11 40q-5 4 -5 11q1 8 8 11l44 17q-3 35 -8 86zM535 325q0 21 -12 33q-13 13 -39 18l3 -116q35 21 41.5 38.5t6.5 26.5zM673 482l13 45q4 8 11 8q5 0 8.5 -4.5t2.5 -11.5l-12 -44
q-4 -8 -12 -8h-4q-10 6 -7 15zM93 115v3q0 4 2.5 6.5t5.5 3.5l46 9q5 0 9 -2.5t5 -6.5v-2q0 -4 -2.5 -7.5t-6.5 -4.5l-46 -9v-1h-2v1q-4 0 -7 3t-4 7zM167 170l-7 46v2q0 5 3 8t7 4h2q9 0 11 -9l7 -46v-2q0 -4 -3 -7t-7 -4l-1 -1q-4 0 -7.5 3t-4.5 6zM702 431q0 6 5 10t10 1
l44 -14q4 -1 6.5 -4t2.5 -7t-4 -7.5t-8 -3.5h-4l-44 14q-8 3 -8 11zM700 456q-2 4 -2 5q0 6 6 10l41 23q2 1 5 1q8 0 10 -5q1 -2 1 -6q0 -6 -5 -11l-40 -22q-2 -1 -6 -1q-5 0 -10 6zM147 147l-37 26q-5 3 -6 7.5t2 8.5q7 9 16 2l38 -25q4 -3 5 -8t-2 -8q-3 -5 -9 -5
q-5 0 -7 2z" />
    </font>
</defs>
</svg>
